<svg width="287" height="237" viewBox="0 0 287 237" fill="none" xmlns="http://www.w3.org/2000/svg">
<path d="M123.041 99.6376C123.847 99.6247 124.63 99.3643 125.283 98.8916C125.735 98.5199 126.162 98.1191 126.561 97.6917C127.041 97.3395 127.542 97.0162 128.061 96.7236C129.001 96.1165 129.753 95.2586 130.231 94.2467C130.897 92.7561 131.007 91.0761 130.54 89.5116C130.019 87.8548 128.909 86.4463 127.42 85.5526C126.353 84.9439 125.122 84.6834 123.9 84.8076C123.141 84.9006 123.046 85.0277 123.045 84.3927C123.057 83.0388 122.675 81.7107 121.945 80.5706C120.494 78.3897 118.289 76.8206 115.753 76.1637C112.644 75.3919 109.359 75.8204 106.553 77.3637C104.171 78.7067 102.367 80.88 101.485 83.4686C101.15 84.6203 101.09 85.8343 101.308 87.0136C101.271 87.2136 100.543 86.3477 98.3969 86.0257C95.2035 85.7034 92.0033 86.5699 89.4089 88.4596C85.7421 91.1655 83.2355 95.1591 82.3929 99.6376C81.6139 104.028 82.5176 108.551 84.9239 112.306C86.4294 114.626 88.7082 116.338 91.3559 117.138C92.7719 117.464 92.5939 116.999 91.2759 118.087C88.907 120.324 87.4283 123.343 87.1129 126.587C86.5756 132.154 88.1651 137.718 91.5619 142.162C95.3693 147.045 100.886 150.303 107.001 151.279C111.621 151.981 116.337 150.942 120.233 148.363C122.821 146.442 123.041 144.736 123.044 145.371C123.047 146.006 123.2 149.038 126.099 152.6C128.998 156.162 134.772 159.887 141.999 160.668C149.718 161.353 157.409 159.081 163.516 154.311C169.463 149.539 172.741 142.676 173.342 137.366C173.943 132.056 172.131 128.641 171.527 127.799C170.923 126.957 171.927 128.487 175.853 128.808C179.779 129.129 186.504 127.795 192.553 122.74C199.277 116.884 203.493 108.668 204.328 99.7906C205.163 90.9133 202.553 82.055 197.038 75.0487C192.143 69.1547 186.094 66.9097 182.897 66.5827C179.7 66.2557 179.602 67.3826 181.561 65.6536C183.52 63.9246 187.12 58.9876 187.716 51.1336C188.312 43.2796 185.475 32.8576 178.509 24.7196C171.401 16.6134 161.479 11.5104 150.751 10.4436C140.782 9.65962 132.226 13.2736 127.808 17.0216C125.694 18.7079 124.052 20.9127 123.042 23.4216C123.042 22.7866 122.759 18.1756 118.031 12.7866C113.303 7.39764 103.945 1.83665 92.4149 1.05665C80.0837 0.461243 67.9875 4.57659 58.5779 12.5686C49.4029 20.5686 44.5959 31.7516 43.9939 40.3526C43.3919 48.9536 46.5569 54.4527 47.8019 55.9417C49.0469 57.4307 47.7679 55.2316 42.0599 54.9126C36.3519 54.5936 26.4349 56.8216 17.6519 64.6126C8.8689 72.4036 1.93589 85.6736 1.08889 99.6366C0.241893 113.6 5.5369 127.52 13.1669 136.15C20.7969 144.78 30.0399 147.921 35.0189 148.25C39.9979 148.579 40.3699 146.784 37.7699 149.158C35.1699 151.532 30.2159 158.558 29.6219 169.701C29.0279 180.844 33.3939 195.588 43.5869 206.954C53.7799 218.32 69.3949 225.604 83.6639 226.388C97.9329 227.172 110.071 221.723 116.318 216.148C122.565 210.573 123.034 205.709 123.041 206.348C123.048 206.987 123.449 213.174 130.007 220.389C136.565 227.604 149.507 235.002 165.334 235.781C181.161 236.56 199.087 230.333 211.489 219.107C223.891 207.881 230.228 192.375 230.831 180.484C231.434 168.593 226.917 161.001 225.031 158.872C223.145 156.743 224.7 159.604 232.188 159.921C239.676 160.238 252.788 157.116 264.306 146.587C275.824 136.058 284.796 118.257 285.642 99.6406" stroke="#C4D502" stroke-width="2" stroke-miterlimit="10"/>
</svg>
