<svg width="205" height="237" viewBox="0 0 205 237" fill="none" xmlns="http://www.w3.org/2000/svg">
<path d="M154.289 171.419C146.571 171.425 138.872 170.668 131.304 169.157C124.367 167.783 117.598 165.663 111.116 162.834C105.672 160.483 100.564 157.418 95.927 153.72C92.394 150.967 89.4387 147.545 87.2303 143.649C85.5068 140.365 84.9929 137.276 85.6276 134.727C85.9701 133.432 86.6139 132.237 87.5065 131.239C88.3991 130.24 89.5152 129.467 90.7637 128.982C93.4833 127.793 97.1391 127.424 101.409 128.032C106.389 128.85 111.205 130.464 115.672 132.812C121.28 135.709 126.524 139.265 131.29 143.404C136.712 148.087 141.637 153.315 145.989 159.005C150.539 164.939 154.498 171.305 157.809 178.011C161.015 184.485 163.558 191.266 165.402 198.251C167.057 204.47 167.997 210.858 168.203 217.29C168.398 222.504 167.821 227.719 166.491 232.765C165.581 236.454 163.806 239.873 161.312 242.741C159.177 244.989 156.728 246.09 154.287 245.978C151.846 245.866 149.42 244.545 147.323 242.107C144.895 239.047 143.178 235.485 142.298 231.679C141.04 226.579 140.515 221.326 140.737 216.078C140.975 209.737 141.921 203.442 143.558 197.312C145.35 190.554 147.815 183.992 150.915 177.725C154.06 171.349 157.823 165.298 162.149 159.656C166.211 154.346 170.815 149.472 175.886 145.113C180.259 141.331 185.078 138.097 190.236 135.485C194.255 133.409 198.596 132.026 203.076 131.394C206.867 130.954 210.063 131.416 212.377 132.62C213.463 133.143 214.407 133.922 215.127 134.889C215.848 135.856 216.324 136.982 216.515 138.173C216.904 140.582 216.251 143.461 214.52 146.483C212.355 150.033 209.547 153.149 206.242 155.672C201.99 158.983 197.329 161.733 192.375 163.855C186.594 166.354 180.562 168.23 174.382 169.451C167.764 170.769 161.031 171.432 154.283 171.43C147.599 171.435 140.93 170.779 134.376 169.47C128.375 168.282 122.522 166.447 116.916 163.999C112.214 161.967 107.804 159.317 103.802 156.12C100.758 153.744 98.2141 150.789 96.3185 147.425C94.8419 144.592 94.4116 141.929 94.9722 139.734C95.2774 138.618 95.8416 137.589 96.6189 136.732C97.3963 135.874 98.365 135.212 99.4463 134.798C102.391 133.704 105.579 133.43 108.667 134.005C112.971 134.718 117.133 136.117 120.994 138.148C125.833 140.652 130.358 143.723 134.472 147.295C139.143 151.332 143.388 155.837 147.138 160.74C151.055 165.848 154.463 171.327 157.313 177.098C160.067 182.663 162.253 188.491 163.836 194.494C165.256 199.83 166.061 205.312 166.235 210.831C166.401 215.298 165.903 219.765 164.757 224.086C163.975 227.24 162.449 230.161 160.307 232.605C159.564 233.473 158.639 234.168 157.598 234.64C156.556 235.112 155.424 235.35 154.281 235.337C153.11 235.214 151.976 234.852 150.95 234.274C149.925 233.695 149.028 232.913 148.317 231.974C146.241 229.337 144.774 226.274 144.021 223.003C142.95 218.628 142.505 214.122 142.699 209.622C142.905 204.193 143.717 198.804 145.12 193.556C146.652 187.778 148.759 182.168 151.409 176.809C154.093 171.367 157.304 166.201 160.996 161.385C164.457 156.858 168.381 152.704 172.702 148.99C176.422 145.774 180.522 143.025 184.911 140.806C188.324 139.046 192.011 137.878 195.815 137.35C198.489 136.919 201.23 137.292 203.692 138.42C204.611 138.872 205.408 139.54 206.013 140.366C206.618 141.193 207.014 142.153 207.167 143.166C207.4 145.654 206.788 148.148 205.43 150.246C203.576 153.264 201.18 155.912 198.363 158.058C194.747 160.869 190.784 163.204 186.573 165.005C181.667 167.124 176.549 168.715 171.307 169.751C165.702 170.866 160 171.427 154.285 171.426C148.635 171.431 142.997 170.876 137.456 169.769C132.392 168.766 127.453 167.217 122.723 165.149C118.764 163.436 115.051 161.202 111.684 158.506C109.129 156.508 106.997 154.021 105.414 151.19C104.265 149.245 103.877 146.943 104.325 144.729C104.591 143.79 105.075 142.927 105.737 142.209C106.399 141.492 107.221 140.94 108.136 140.599C110.63 139.689 113.323 139.468 115.932 139.959C119.56 140.571 123.068 141.756 126.323 143.472C130.393 145.583 134.199 148.168 137.661 151.175C141.582 154.566 145.146 158.35 148.296 162.467C151.578 166.748 154.434 171.34 156.823 176.176C159.128 180.831 160.956 185.706 162.28 190.728C163.465 195.182 164.135 199.757 164.278 204.364C164.414 208.084 163.995 211.803 163.033 215.399C162.379 218.018 161.103 220.44 159.312 222.46C158.69 223.178 157.917 223.749 157.048 224.133C156.179 224.517 155.237 224.705 154.287 224.682C153.309 224.568 152.364 224.256 151.511 223.765C150.657 223.274 149.912 222.615 149.322 221.827C147.598 219.613 146.38 217.048 145.755 214.313C144.868 210.663 144.499 206.905 144.662 203.152C144.837 198.636 145.514 194.153 146.682 189.786C147.954 184.991 149.704 180.336 151.903 175.889C154.126 171.382 156.785 167.103 159.844 163.115C162.704 159.374 165.946 155.942 169.518 152.874C172.585 150.223 175.967 147.96 179.586 146.134C182.394 144.691 185.427 143.737 188.555 143.314C190.749 142.968 192.996 143.286 195.007 144.229C195.759 144.609 196.408 145.166 196.898 145.852C197.388 146.538 197.705 147.333 197.82 148.168C197.99 150.228 197.469 152.286 196.34 154.017C194.798 156.501 192.814 158.682 190.485 160.451C187.503 162.761 184.238 164.68 180.769 166.163C176.74 167.898 172.537 169.201 168.233 170.049C163.641 170.963 158.971 171.423 154.289 171.422C149.671 171.426 145.064 170.973 140.536 170.068C136.409 169.251 132.384 167.988 128.53 166.3C125.314 164.907 122.299 163.088 119.567 160.892C117.5 159.27 115.779 157.249 114.509 154.948C113.588 153.37 113.291 151.505 113.677 149.719C113.905 148.958 114.31 148.26 114.856 147.683C115.403 147.106 116.078 146.665 116.826 146.395C118.868 145.671 121.068 145.503 123.197 145.911C126.149 146.419 129.003 147.39 131.652 148.79C134.953 150.506 138.04 152.607 140.848 155.048C144.021 157.792 146.905 160.855 149.453 164.187C152.101 167.64 154.404 171.345 156.33 175.247C158.184 178.991 159.655 182.913 160.719 186.953C161.668 190.526 162.204 194.195 162.315 197.889C162.421 200.861 162.081 203.832 161.304 206.703C160.778 208.787 159.751 210.711 158.312 212.307C157.81 212.874 157.188 213.322 156.492 213.618C155.795 213.915 155.041 214.052 154.284 214.021C153.499 213.916 152.743 213.655 152.062 213.251C151.38 212.848 150.787 212.311 150.317 211.674C148.944 209.884 147.976 207.818 147.479 205.617C146.776 202.692 146.487 199.682 146.62 196.675C146.763 193.072 147.305 189.495 148.238 186.01C149.25 182.197 150.642 178.494 152.391 174.957C154.152 171.385 156.26 167.994 158.684 164.833C160.943 161.877 163.505 159.166 166.328 156.744C168.743 154.659 171.405 152.881 174.256 151.449C176.457 150.321 178.836 149.58 181.289 149.26C183.002 148.997 184.755 149.262 186.314 150.019C186.899 150.327 187.401 150.774 187.776 151.319C188.151 151.865 188.387 152.493 188.465 153.15C188.573 154.782 188.143 156.405 187.241 157.769C186.013 159.723 184.44 161.438 182.599 162.83C180.252 164.64 177.685 166.144 174.959 167.307C171.805 168.664 168.516 169.683 165.148 170.349C161.569 171.061 157.93 171.419 154.281 171.419C150.697 171.422 147.121 171.07 143.606 170.368C140.416 169.736 137.305 168.758 134.328 167.45C131.854 166.377 129.537 164.974 127.44 163.279C125.861 162.033 124.552 160.479 123.594 158.71C122.901 157.499 122.695 156.07 123.019 154.712C123.21 154.129 123.534 153.598 123.966 153.161C124.397 152.724 124.924 152.393 125.505 152.195C127.097 151.656 128.803 151.542 130.452 151.866C132.729 152.27 134.928 153.028 136.97 154.112C139.503 155.435 141.872 157.051 144.027 158.927C146.451 161.026 148.653 163.366 150.6 165.912C152.615 168.539 154.368 171.357 155.834 174.325C157.238 177.159 158.351 180.128 159.156 183.186C159.87 185.876 160.27 188.64 160.35 191.422C160.426 193.647 160.165 195.871 159.573 198.018C159.174 199.565 158.396 200.989 157.309 202.161C156.928 202.577 156.458 202.902 155.933 203.111C155.409 203.32 154.844 203.407 154.281 203.367C153.689 203.271 153.123 203.059 152.614 202.743C152.105 202.427 151.663 202.014 151.314 201.527C150.293 200.161 149.574 198.594 149.205 196.928C148.687 194.727 148.477 192.465 148.58 190.206C148.691 187.514 149.098 184.843 149.795 182.241C150.549 179.41 151.583 176.66 152.881 174.034C154.181 171.395 155.738 168.891 157.528 166.557C159.186 164.388 161.067 162.398 163.141 160.621C164.902 159.102 166.846 157.809 168.928 156.771C170.523 155.958 172.248 155.431 174.025 155.215C175.259 155.036 176.518 155.247 177.627 155.818C178.045 156.056 178.399 156.392 178.658 156.797C178.918 157.202 179.074 157.664 179.115 158.144C179.161 159.347 178.821 160.534 178.145 161.531C177.229 162.953 176.068 164.201 174.716 165.217C173.004 166.525 171.134 167.614 169.151 168.457C166.873 169.434 164.499 170.168 162.067 170.648C159.502 171.158 156.893 171.415 154.277 171.415C151.726 171.418 149.181 171.168 146.68 170.668C144.427 170.221 142.23 169.528 140.129 168.602C138.398 167.847 136.779 166.859 135.317 165.665C134.225 164.796 133.328 163.709 132.682 162.472C132.218 161.627 132.104 160.633 132.365 159.705C132.519 159.299 132.763 158.935 133.079 158.638C133.395 158.342 133.775 158.122 134.189 157.995C135.329 157.64 136.541 157.579 137.711 157.818C139.312 158.118 140.858 158.662 142.295 159.43C144.058 160.36 145.708 161.491 147.211 162.801C148.885 164.254 150.407 165.873 151.753 167.633C153.134 169.433 154.336 171.364 155.341 173.397C156.294 175.321 157.049 177.337 157.594 179.414C158.073 181.222 158.34 183.079 158.387 184.949C158.434 186.427 158.251 187.904 157.844 189.325C157.574 190.339 157.045 191.266 156.309 192.015C156.048 192.28 155.729 192.481 155.378 192.602C155.026 192.723 154.651 192.761 154.282 192.713C153.48 192.537 152.776 192.06 152.315 191.381C151.644 190.439 151.174 189.37 150.934 188.239C150.6 186.763 150.469 185.249 150.542 183.737C150.621 181.958 150.894 180.193 151.357 178.473C152.347 174.78 154.054 171.319 156.382 168.286C157.439 166.902 158.639 165.634 159.963 164.504C161.072 163.55 162.297 162.742 163.61 162.098C164.598 161.601 165.669 161.288 166.77 161.176C167.525 161.08 168.291 161.237 168.948 161.623C169.199 161.79 169.405 162.016 169.549 162.28C169.693 162.545 169.77 162.841 169.774 163.142C169.76 163.915 169.514 164.666 169.068 165.298C168.466 166.188 167.716 166.97 166.851 167.608C165.775 168.417 164.603 169.09 163.363 169.613C161.961 170.21 160.5 170.659 159.005 170.953C157.453 171.261 155.875 171.416 154.293 171.417C152.776 171.421 151.262 171.273 149.773 170.976C148.457 170.715 147.175 170.308 145.949 169.762C144.961 169.328 144.039 168.755 143.212 168.06C142.608 167.569 142.122 166.948 141.791 166.244C141.673 166.006 141.607 165.747 141.597 165.482C141.586 165.217 141.632 164.953 141.73 164.707C141.846 164.482 142.011 164.284 142.211 164.128C142.412 163.972 142.644 163.862 142.892 163.805C143.58 163.636 144.297 163.629 144.988 163.786C145.912 163.983 146.803 164.312 147.633 164.765C148.627 165.301 149.558 165.947 150.408 166.692C151.333 167.499 152.174 168.396 152.92 169.37C153.666 170.343 154.316 171.387 154.859 172.486C155.363 173.5 155.761 174.563 156.046 175.659C156.29 176.585 156.421 177.537 156.436 178.495C156.454 179.225 156.349 179.954 156.126 180.651C155.985 181.132 155.705 181.561 155.321 181.884C155.178 181.999 155.01 182.076 154.83 182.109C154.65 182.142 154.465 182.131 154.291 182.076C153.883 181.919 153.541 181.628 153.321 181.251C153.002 180.734 152.781 180.164 152.668 179.567C152.519 178.816 152.466 178.049 152.511 177.284C152.558 176.417 152.696 175.558 152.923 174.719C153.158 173.851 153.476 173.008 153.874 172.202C154.252 171.432 154.705 170.702 155.227 170.022C155.683 169.424 156.203 168.878 156.777 168.393C157.233 168.005 157.74 167.681 158.283 167.431C158.666 167.248 159.084 167.149 159.509 167.142C159.647 167.136 159.786 167.159 159.915 167.209C160.045 167.26 160.163 167.337 160.261 167.435C160.34 167.534 160.397 167.649 160.425 167.772C160.453 167.895 160.453 168.023 160.425 168.146C160.349 168.486 160.194 168.803 159.971 169.071C159.684 169.43 159.346 169.745 158.967 170.006C158.527 170.314 158.054 170.572 157.557 170.776C156.522 171.201 155.414 171.421 154.295 171.425C153.811 171.427 153.327 171.379 152.853 171.283C152.473 171.207 152.105 171.086 151.755 170.92C151.508 170.807 151.284 170.649 151.094 170.454C150.972 170.339 150.897 170.181 150.885 170.014C150.887 169.95 150.906 169.888 150.941 169.834C150.975 169.78 151.024 169.737 151.081 169.709C151.235 169.632 151.408 169.599 151.58 169.613C151.809 169.625 152.036 169.671 152.252 169.75C152.501 169.839 152.739 169.954 152.963 170.095C153.189 170.235 153.402 170.397 153.598 170.577C153.773 170.738 153.934 170.915 154.078 171.106C154.191 171.252 154.289 171.409 154.372 171.574C154.425 171.677 154.465 171.786 154.49 171.9C154.505 171.979 154.497 172.024 154.478 172.036C154.46 172.047 154.432 172.023 154.403 171.972C154.367 171.901 154.341 171.825 154.326 171.746C154.285 171.537 154.285 171.322 154.326 171.113C154.341 171.034 154.367 170.958 154.403 170.886C154.432 170.835 154.461 170.812 154.478 170.824C154.496 170.835 154.505 170.88 154.49 170.958C154.465 171.072 154.426 171.182 154.372 171.285C154.289 171.45 154.191 171.607 154.078 171.753C153.934 171.944 153.773 172.121 153.598 172.282C153.401 172.462 153.189 172.624 152.963 172.764C152.739 172.905 152.501 173.02 152.252 173.109C152.036 173.188 151.809 173.234 151.58 173.247C151.408 173.26 151.235 173.227 151.081 173.151C151.023 173.122 150.975 173.079 150.941 173.025C150.906 172.971 150.887 172.909 150.885 172.845C150.897 172.677 150.972 172.52 151.094 172.404C151.284 172.209 151.508 172.051 151.755 171.938C152.105 171.773 152.473 171.651 152.853 171.575C153.327 171.478 153.811 171.431 154.295 171.433C155.414 171.437 156.522 171.658 157.557 172.082C158.054 172.286 158.527 172.544 158.967 172.852C159.345 173.113 159.684 173.428 159.971 173.786C160.194 174.054 160.349 174.371 160.425 174.712C160.453 174.835 160.453 174.963 160.425 175.086C160.397 175.209 160.34 175.325 160.261 175.423C160.163 175.521 160.045 175.598 159.915 175.648C159.786 175.699 159.647 175.722 159.509 175.715C159.084 175.709 158.666 175.61 158.283 175.427C157.74 175.177 157.233 174.853 156.777 174.465C156.203 173.98 155.683 173.434 155.227 172.837C154.705 172.156 154.252 171.426 153.874 170.656C153.476 169.85 153.158 169.006 152.923 168.138C152.696 167.3 152.558 166.44 152.511 165.573C152.467 164.808 152.52 164.041 152.668 163.29C152.781 162.694 153.002 162.123 153.321 161.607C153.541 161.23 153.883 160.939 154.291 160.783C154.465 160.727 154.65 160.715 154.83 160.749C155.009 160.782 155.178 160.859 155.321 160.973C155.705 161.296 155.985 161.725 156.126 162.207C156.349 162.903 156.454 163.632 156.436 164.363C156.421 165.32 156.29 166.272 156.046 167.198C155.761 168.294 155.363 169.358 154.859 170.371C154.316 171.471 153.666 172.514 152.92 173.487C152.174 174.461 151.332 175.359 150.408 176.166C149.558 176.91 148.627 177.556 147.633 178.093C146.803 178.545 145.913 178.874 144.988 179.07C144.298 179.228 143.58 179.222 142.892 179.052C142.644 178.995 142.412 178.885 142.211 178.729C142.011 178.573 141.847 178.376 141.73 178.15C141.632 177.904 141.586 177.64 141.597 177.375C141.607 177.111 141.673 176.851 141.791 176.614C142.122 175.909 142.608 175.288 143.212 174.796C144.039 174.102 144.961 173.53 145.949 173.095C147.175 172.549 148.457 172.142 149.773 171.88C151.262 171.584 152.776 171.436 154.293 171.44C155.875 171.441 157.453 171.596 159.005 171.904C160.5 172.199 161.961 172.648 163.363 173.244C164.603 173.767 165.775 174.441 166.851 175.249C167.716 175.887 168.466 176.669 169.068 177.559C169.514 178.191 169.76 178.942 169.774 179.715C169.77 180.016 169.693 180.312 169.549 180.577C169.405 180.841 169.198 181.066 168.948 181.233C168.292 181.62 167.526 181.778 166.77 181.682C165.669 181.569 164.598 181.256 163.61 180.759C162.297 180.115 161.072 179.306 159.963 178.353C158.639 177.222 157.439 175.955 156.382 174.571C154.056 171.536 152.351 168.073 151.364 164.38C150.901 162.66 150.628 160.894 150.549 159.115C150.476 157.603 150.607 156.088 150.941 154.612C151.181 153.481 151.652 152.413 152.322 151.471C152.783 150.791 153.487 150.314 154.289 150.139C154.658 150.09 155.033 150.128 155.385 150.25C155.737 150.371 156.056 150.572 156.316 150.838C157.052 151.586 157.581 152.513 157.851 153.527C158.258 154.948 158.441 156.424 158.394 157.902C158.347 159.772 158.08 161.63 157.601 163.438C157.056 165.515 156.301 167.531 155.348 169.455C154.342 171.488 153.141 173.419 151.76 175.219C150.414 176.979 148.892 178.598 147.218 180.051C145.715 181.361 144.066 182.492 142.302 183.422C140.865 184.19 139.319 184.734 137.718 185.034C136.548 185.274 135.336 185.213 134.196 184.857C133.782 184.731 133.402 184.51 133.086 184.214C132.77 183.918 132.525 183.553 132.372 183.148C132.111 182.219 132.225 181.226 132.689 180.381C133.335 179.144 134.232 178.057 135.324 177.188C136.786 175.993 138.405 175.005 140.136 174.251C142.237 173.325 144.434 172.632 146.687 172.185C149.188 171.685 151.733 171.434 154.284 171.437C156.9 171.437 159.509 171.694 162.074 172.205C164.506 172.685 166.88 173.419 169.158 174.395C171.141 175.238 173.011 176.327 174.723 177.636C176.075 178.652 177.237 179.9 178.152 181.322C178.828 182.319 179.168 183.506 179.122 184.709C179.082 185.189 178.925 185.651 178.666 186.056C178.406 186.461 178.052 186.796 177.634 187.034C176.526 187.606 175.266 187.818 174.032 187.638C172.255 187.422 170.53 186.895 168.935 186.082C166.853 185.044 164.909 183.751 163.148 182.232C161.074 180.455 159.193 178.465 157.535 176.296C155.745 173.962 154.189 171.457 152.888 168.819C151.59 166.192 150.556 163.443 149.802 160.612C149.105 158.009 148.698 155.338 148.587 152.646C148.484 150.387 148.694 148.125 149.212 145.924C149.581 144.259 150.3 142.692 151.321 141.326C151.67 140.839 152.112 140.426 152.621 140.11C153.13 139.794 153.697 139.582 154.288 139.486C154.851 139.446 155.416 139.533 155.94 139.742C156.465 139.951 156.935 140.275 157.316 140.692C158.403 141.863 159.181 143.287 159.58 144.834C160.172 146.981 160.434 149.205 160.357 151.43C160.277 154.212 159.877 156.976 159.163 159.666C158.358 162.724 157.245 165.693 155.841 168.528C154.375 171.495 152.622 174.313 150.607 176.94C148.66 179.486 146.457 181.826 144.034 183.925C141.879 185.801 139.51 187.417 136.977 188.74C134.935 189.824 132.736 190.581 130.459 190.985C128.81 191.309 127.105 191.196 125.513 190.657C124.931 190.459 124.404 190.128 123.973 189.691C123.541 189.254 123.217 188.723 123.026 188.14C122.702 186.782 122.908 185.353 123.601 184.142C124.559 182.373 125.867 180.819 127.447 179.573C129.544 177.878 131.861 176.475 134.335 175.401C137.313 174.094 140.424 173.116 143.613 172.484C147.128 171.781 150.704 171.429 154.288 171.433C157.937 171.433 161.577 171.791 165.155 172.503C168.524 173.168 171.812 174.188 174.966 175.545C177.692 176.708 180.259 178.212 182.606 180.022C184.447 181.414 186.02 183.129 187.248 185.083C188.15 186.447 188.58 188.069 188.472 189.701C188.394 190.358 188.158 190.987 187.783 191.533C187.408 192.078 186.906 192.525 186.321 192.833C184.761 193.59 183.009 193.855 181.296 193.592C178.843 193.272 176.464 192.532 174.263 191.403C171.412 189.971 168.75 188.193 166.336 186.108C163.513 183.686 160.951 180.975 158.691 178.019C156.267 174.858 154.159 171.467 152.398 167.894C150.648 164.353 149.256 160.646 148.244 156.828C147.311 153.343 146.769 149.766 146.626 146.163C146.493 143.156 146.782 140.146 147.485 137.22C147.982 135.02 148.95 132.954 150.323 131.164C150.793 130.526 151.386 129.99 152.068 129.586C152.749 129.183 153.505 128.921 154.291 128.817C155.047 128.786 155.801 128.923 156.498 129.22C157.195 129.516 157.817 129.964 158.319 130.531C159.757 132.127 160.784 134.051 161.31 136.135C162.087 139.006 162.427 141.977 162.321 144.949C162.21 148.643 161.675 152.313 160.725 155.885C159.661 159.926 158.19 163.848 156.336 167.591C154.41 171.494 152.107 175.198 149.46 178.652C146.911 181.984 144.027 185.046 140.855 187.791C138.046 190.232 134.959 192.332 131.658 194.049C129.009 195.449 126.156 196.42 123.203 196.928C121.074 197.335 118.875 197.168 116.832 196.444C116.084 196.174 115.409 195.733 114.863 195.155C114.316 194.578 113.912 193.881 113.683 193.12C113.297 191.334 113.594 189.469 114.515 187.89C115.786 185.59 117.506 183.569 119.573 181.947C122.305 179.751 125.32 177.932 128.536 176.539C132.39 174.851 136.416 173.588 140.542 172.771C145.071 171.866 149.677 171.412 154.295 171.416C158.977 171.415 163.647 171.875 168.239 172.789C172.544 173.64 176.748 174.945 180.777 176.683C184.246 178.165 187.511 180.085 190.493 182.395C192.822 184.163 194.806 186.344 196.348 188.829C197.477 190.56 197.998 192.618 197.828 194.678C197.713 195.513 197.396 196.308 196.906 196.994C196.416 197.68 195.767 198.237 195.015 198.617C193.004 199.56 190.757 199.878 188.563 199.532C185.435 199.109 182.402 198.155 179.594 196.712C175.975 194.886 172.594 192.622 169.526 189.972C165.954 186.904 162.711 183.471 159.852 179.73C156.793 175.742 154.134 171.464 151.911 166.957C149.712 162.51 147.963 157.854 146.69 153.06C145.522 148.693 144.845 144.21 144.67 139.694C144.507 135.94 144.875 132.182 145.763 128.532C146.388 125.797 147.606 123.232 149.33 121.019C149.92 120.231 150.665 119.571 151.519 119.08C152.372 118.589 153.317 118.277 154.295 118.164C155.244 118.141 156.187 118.329 157.056 118.713C157.924 119.097 158.697 119.668 159.32 120.385C161.111 122.405 162.387 124.827 163.041 127.447C164.002 131.043 164.422 134.762 164.286 138.482C164.143 143.089 163.473 147.664 162.288 152.118C160.964 157.14 159.136 162.015 156.831 166.669C154.443 171.506 151.587 176.097 148.304 180.378C145.154 184.496 141.591 188.28 137.669 191.67C134.207 194.677 130.401 197.263 126.331 199.373C123.076 201.089 119.568 202.275 115.94 202.886C113.331 203.377 110.638 203.157 108.144 202.247C107.229 201.906 106.407 201.354 105.745 200.636C105.083 199.918 104.599 199.055 104.333 198.116C103.885 195.902 104.273 193.601 105.422 191.656C107.005 188.825 109.137 186.338 111.692 184.34C115.059 181.644 118.772 179.409 122.731 177.697C127.461 175.629 132.4 174.08 137.464 173.077C143.005 171.97 148.642 171.415 154.293 171.419C160.008 171.417 165.71 171.978 171.315 173.094C176.557 174.13 181.675 175.721 186.581 177.839C190.792 179.641 194.755 181.976 198.371 184.787C201.188 186.933 203.584 189.581 205.438 192.599C206.796 194.697 207.408 197.191 207.175 199.679C207.022 200.692 206.626 201.653 206.021 202.479C205.415 203.305 204.619 203.973 203.7 204.425C201.238 205.553 198.497 205.925 195.823 205.495C192.019 204.967 188.332 203.798 184.919 202.038C180.53 199.819 176.43 197.071 172.71 193.855C168.388 190.14 164.465 185.986 161.004 181.46C157.311 176.644 154.1 171.477 151.417 166.035C148.767 160.677 146.66 155.066 145.128 149.288C143.725 144.04 142.913 138.652 142.707 133.223C142.512 128.722 142.958 124.217 144.029 119.841C144.782 116.571 146.249 113.508 148.325 110.871C149.036 109.932 149.932 109.149 150.958 108.571C151.984 107.992 153.118 107.631 154.289 107.508C155.432 107.495 156.564 107.733 157.606 108.205C158.647 108.677 159.572 109.372 160.315 110.24C162.457 112.684 163.983 115.605 164.765 118.759C165.911 123.08 166.409 127.547 166.243 132.014C166.069 137.533 165.264 143.014 163.844 148.35C162.261 154.354 160.075 160.182 157.32 165.747C154.471 171.518 151.063 176.997 147.146 182.104C143.396 187.008 139.152 191.513 134.48 195.549C130.366 199.122 125.841 202.193 121.002 204.697C117.14 206.727 112.979 208.126 108.675 208.84C105.587 209.415 102.399 209.141 99.4542 208.047C98.3728 207.634 97.404 206.971 96.6266 206.114C95.8492 205.256 95.2851 204.227 94.9802 203.111C94.4195 200.916 94.8497 198.253 96.3263 195.419C98.222 192.056 100.766 189.101 103.81 186.725C107.812 183.528 112.222 180.878 116.924 178.845C122.529 176.397 128.383 174.562 134.384 173.374C140.938 172.065 147.606 171.409 154.291 171.414C161.039 171.412 167.772 172.075 174.39 173.394C180.57 174.615 186.601 176.491 192.383 178.99C197.337 181.111 201.998 183.862 206.25 187.173C209.555 189.696 212.362 192.811 214.528 196.361C216.256 199.386 216.909 202.266 216.523 204.672C216.332 205.862 215.856 206.989 215.135 207.956C214.415 208.922 213.471 209.701 212.385 210.225C210.071 211.428 206.879 211.893 203.084 211.451C198.604 210.819 194.263 209.436 190.244 207.36C185.086 204.747 180.267 201.514 175.893 197.732C170.822 193.372 166.219 188.496 162.157 183.184C157.83 177.542 154.068 171.49 150.923 165.115C147.822 158.848 145.358 152.286 143.566 145.527C141.929 139.397 140.983 133.102 140.745 126.762C140.523 121.514 141.048 116.261 142.306 111.161C143.186 107.355 144.903 103.794 147.331 100.734C149.426 98.2947 151.853 96.9735 154.295 96.8624C156.737 96.7513 159.185 97.8514 161.32 100.099C163.814 102.967 165.589 106.386 166.499 110.076C167.829 115.121 168.406 120.336 168.211 125.551C168.005 131.983 167.065 138.37 165.41 144.589C163.567 151.574 161.023 158.356 157.817 164.83C154.507 171.536 150.548 177.901 145.997 183.836C141.645 189.526 136.72 194.754 131.298 199.437C126.531 203.576 121.288 207.131 115.679 210.029C111.213 212.377 106.397 213.99 101.417 214.808C97.1471 215.417 93.4912 215.047 90.7715 213.858C89.5231 213.373 88.4071 212.6 87.5145 211.602C86.6219 210.603 85.9781 209.408 85.6356 208.114C85.0008 205.565 85.5148 202.473 87.2383 199.191C89.447 195.295 92.4022 191.873 95.9349 189.121C100.572 185.423 105.679 182.358 111.124 180.006C117.606 177.177 124.375 175.057 131.312 173.684C138.88 172.173 146.579 171.415 154.297 171.42C162.079 171.418 169.842 172.182 177.473 173.703C184.589 175.11 191.534 177.271 198.19 180.151C203.887 182.591 209.245 185.757 214.132 189.569C217.926 192.468 221.145 196.051 223.624 200.132C225.598 203.608 226.338 206.911 225.875 209.675C225.646 211.043 225.09 212.335 224.254 213.443C223.419 214.55 222.328 215.439 221.075 216.035C218.402 217.408 214.72 217.933 210.349 217.415C205.193 216.68 200.198 215.083 195.572 212.692C189.647 209.685 184.111 205.967 179.087 201.619C173.266 196.614 167.981 191.016 163.319 184.917C158.358 178.449 154.044 171.509 150.438 164.199C146.887 157.022 144.065 149.507 142.013 141.767C140.14 134.754 139.059 127.554 138.789 120.301C138.537 114.305 139.141 108.305 140.583 102.48C141.921 97.4186 143.938 93.3676 146.336 90.5947C148.734 87.8217 151.51 86.3277 154.298 86.2167C157.087 86.1056 159.886 87.3784 162.321 89.9609C164.756 92.5435 166.833 96.4358 168.227 101.395C169.743 107.165 170.399 113.127 170.173 119.089C169.936 126.433 168.861 133.725 166.971 140.826C164.868 148.792 161.967 156.527 158.311 163.912C154.539 171.552 150.028 178.805 144.843 185.566C139.89 192.041 134.284 197.989 128.114 203.318C122.694 208.022 116.732 212.062 110.355 215.354C105.281 218.017 99.8115 219.845 94.156 220.767C89.3073 221.451 85.1639 221.022 82.0855 219.662C80.6702 219.105 79.407 218.221 78.3992 217.082C77.3914 215.943 76.6677 214.582 76.2874 213.109C75.5821 210.207 76.1772 206.691 78.1466 202.957C80.6674 198.529 84.0342 194.64 88.0555 191.51C93.3276 187.312 99.1334 183.832 105.321 181.161C112.678 177.951 120.361 175.545 128.235 173.987C136.816 172.274 145.545 171.414 154.296 171.42C163.111 171.417 171.904 172.283 180.549 174.006C188.603 175.598 196.464 178.045 203.999 181.305C210.435 184.066 216.486 187.646 222.004 191.958C226.287 195.235 229.917 199.284 232.708 203.898C234.929 207.823 235.752 211.552 235.216 214.67C234.949 216.216 234.313 217.675 233.361 218.923C232.409 220.171 231.171 221.17 229.75 221.837C226.718 223.382 222.546 223.966 217.599 223.374C211.768 222.535 206.119 220.724 200.887 218.016C194.191 214.616 187.935 210.413 182.257 205.5C175.687 199.848 169.722 193.529 164.457 186.645C158.863 179.349 153.997 171.523 149.929 163.278C145.929 155.19 142.749 146.722 140.438 138.001C138.329 130.106 137.113 122 136.811 113.835C136.528 107.092 137.211 100.343 138.838 93.7933C140.348 88.1064 142.62 83.5592 145.321 80.4513C148.021 77.3435 151.144 75.6758 154.282 75.5648C157.419 75.4537 160.566 76.9001 163.306 79.8176C166.045 82.7351 168.375 87.1228 169.941 92.7083C171.642 99.2032 172.376 105.913 172.121 112.622C171.851 120.878 170.642 129.077 168.517 137.059C166.154 146.008 162.895 154.695 158.788 162.99C154.556 171.564 149.493 179.704 143.674 187.293C138.12 194.554 131.834 201.224 124.914 207.198C118.842 212.468 112.161 216.993 105.014 220.678C99.3349 223.657 93.2113 225.699 86.8803 226.725C81.4578 227.484 76.8234 226.995 73.3844 225.464C71.8024 224.835 70.3919 223.841 69.2688 222.562C68.1457 221.282 67.342 219.755 66.9234 218.105C66.1432 214.848 66.8237 210.907 69.0391 206.722C71.2544 202.537 75.0074 198.111 80.161 193.9C86.0675 189.201 92.5707 185.305 99.5009 182.314C107.734 178.725 116.331 176.035 125.142 174.293C134.737 172.377 144.497 171.416 154.281 171.423C164.129 171.419 173.953 172.387 183.612 174.311C192.602 176.088 201.376 178.821 209.786 182.462C216.968 185.541 223.722 189.538 229.878 194.351C234.649 198.005 238.692 202.521 241.795 207.667C244.264 212.043 245.169 216.198 244.561 219.671C244.256 221.394 243.54 223.018 242.474 224.406C241.407 225.794 240.022 226.905 238.436 227.644C235.043 229.36 230.383 230.003 224.86 229.335C218.352 228.393 212.049 226.367 206.212 223.342C198.747 219.549 191.772 214.861 185.44 209.382C178.121 203.084 171.475 196.043 165.61 188.373C159.381 180.251 153.964 171.537 149.436 162.358C144.984 153.36 141.447 143.939 138.875 134.236C136.532 125.459 135.181 116.448 134.848 107.37C134.536 99.8795 135.297 92.3832 137.11 85.1087C138.79 78.7952 141.318 73.7517 144.32 70.3089C147.322 66.8661 150.795 65.0266 154.282 64.9155C157.768 64.8045 161.263 66.4228 164.304 69.6752C167.346 72.9276 169.931 77.8124 171.669 84.0237C173.555 91.2435 174.368 98.7013 174.083 106.158C173.781 115.326 172.437 124.43 170.077 133.295C167.454 143.225 163.837 152.866 159.28 162.07C154.586 171.579 148.972 180.606 142.519 189.021C136.365 197.068 129.398 204.46 121.729 211.08C115.004 216.915 107.605 221.926 99.6896 226.005C93.4041 229.3 86.6264 231.556 79.6197 232.685C73.6251 233.519 68.4969 232.97 64.6991 231.268C62.9501 230.568 61.3924 229.463 60.154 228.043C58.9157 226.624 58.0322 224.93 57.576 223.103C56.7218 219.489 57.4879 215.123 59.9492 210.488C62.4106 205.853 66.5733 200.952 72.2833 196.29C78.8251 191.091 86.0263 186.78 93.6993 183.469C102.808 179.499 112.319 176.523 122.067 174.593C143.401 170.356 165.361 170.363 186.692 174.612C196.619 176.574 206.308 179.592 215.593 183.614C223.518 187.013 230.969 191.425 237.76 196.739C243.74 201.535 248.177 206.603 250.891 211.429C253.604 216.256 254.593 220.838 253.913 224.664C253.57 226.565 252.774 228.356 251.592 229.884C250.411 231.412 248.878 232.634 247.124 233.445C243.373 235.332 238.221 236.034 232.124 235.296C224.941 234.25 217.983 232.01 211.539 228.671C203.306 224.484 195.612 219.311 188.628 213.266C180.558 206.323 173.231 198.56 166.765 190.105C159.902 181.155 153.933 171.555 148.944 161.441C144.042 151.534 140.146 141.159 137.316 130.474C134.737 120.816 133.251 110.898 132.886 100.908C132.545 92.6704 133.385 84.4262 135.382 76.4268C137.233 69.4875 140.017 63.9469 143.321 60.17C146.625 56.3932 150.447 54.3791 154.281 54.2645C158.115 54.15 161.958 55.9454 165.3 59.5327C168.643 63.1201 171.485 68.5003 173.393 75.3383C175.463 83.2828 176.354 91.4882 176.038 99.6917C175.705 109.773 174.226 119.783 171.63 129.529C168.749 140.441 164.774 151.035 159.767 161.149C154.611 171.593 148.446 181.506 141.359 190.749C134.603 199.581 126.955 207.695 118.537 214.96C111.158 221.362 103.04 226.857 94.3552 231.33C87.4636 234.942 80.0319 237.412 72.3494 238.646C65.7746 239.555 60.1616 238.947 56.0041 237.074C51.8466 235.201 49.1456 232.068 48.2182 228.101C47.2908 224.135 48.1397 219.342 50.8488 214.256C53.5579 209.17 58.1288 203.795 64.3958 198.683C71.572 192.982 79.4709 188.256 87.8871 184.627C97.8718 180.275 108.297 177.013 118.982 174.898C142.347 170.258 166.398 170.265 189.762 174.918C200.625 177.066 211.228 180.369 221.39 184.771C230.058 188.489 238.207 193.316 245.633 199.131C252.168 204.377 257.015 209.92 259.975 215.198C262.935 220.475 264.009 225.483 263.254 229.663C262.873 231.742 261.997 233.698 260.701 235.367C259.404 237.036 257.725 238.368 255.804 239.25C251.693 241.309 246.054 242.071 239.379 241.253C232.704 240.435 224.994 238.035 216.858 233.995C207.856 229.414 199.443 223.757 191.806 217.146C182.989 209.556 174.982 201.072 167.915 191.831C160.419 182.055 153.898 171.567 148.448 160.519C143.096 149.702 138.843 138.374 135.753 126.708C132.939 116.167 131.318 105.344 130.922 94.4412C130.552 85.4561 131.472 76.4644 133.655 67.7405C135.677 60.1744 138.718 54.1385 142.324 50.0241C145.931 45.9096 150.1 43.7264 154.283 43.6153C158.466 43.5042 162.658 45.4663 166.304 49.3903C169.95 53.3144 173.046 59.1899 175.126 66.6537C177.381 75.323 178.352 84.2763 178.007 93.2274C177.642 104.22 176.029 115.136 173.198 125.765C170.056 137.658 165.723 149.204 160.266 160.228C154.649 171.606 147.932 182.406 140.211 192.476C132.855 202.094 124.527 210.929 115.359 218.84C107.327 225.808 98.4904 231.788 89.0367 236.655C80.4405 240.979 72.2453 243.618 65.094 244.601C57.9427 245.585 51.8414 244.918 47.3242 242.875C42.807 240.832 39.8758 237.41 38.8761 233.091C37.8764 228.772 38.8082 223.552 41.7641 218.015C44.7201 212.477 49.6983 206.628 56.5225 201.066C64.3337 194.865 72.9299 189.723 82.0881 185.774C92.9488 181.042 104.289 177.496 115.911 175.197C141.307 170.153 167.449 170.159 192.843 175.217C204.644 177.55 216.162 181.138 227.199 185.92C236.61 189.959 245.457 195.202 253.518 201.517C260.61 207.213 265.866 213.231 269.073 218.958C272.28 224.686 273.437 230.121 272.609 234.656C272.19 236.911 271.234 239.033 269.823 240.843C268.411 242.652 266.585 244.095 264.498 245.05C260.027 247.278 253.899 248.101 246.648 247.208C239.396 246.315 231.025 243.704 222.192 239.316C212.42 234.342 203.289 228.199 194.999 221.023C185.431 212.787 176.744 203.582 169.075 193.554C160.945 182.951 153.873 171.577 147.961 159.594C142.158 147.866 137.547 135.586 134.197 122.937C131.148 111.515 129.393 99.7854 128.965 87.9707C128.563 78.2386 129.561 68.4993 131.927 59.0506C134.12 50.8588 137.416 44.3257 141.324 39.879C145.232 35.4322 149.751 33.0727 154.284 32.9616C158.816 32.8506 163.356 34.9889 167.304 39.2452C171.251 43.5016 174.605 49.8751 176.854 57.9656C179.295 67.3595 180.344 77.0604 179.969 86.7587C179.573 98.6639 177.825 110.485 174.759 121.996C171.358 134.871 166.667 147.371 160.759 159.306C154.682 171.619 147.413 183.306 139.057 194.202C131.1 204.607 122.091 214.163 112.174 222.72C103.49 230.253 93.9339 236.719 83.7111 241.978C74.4185 246.65 65.5595 249.5 57.8335 250.559C50.1074 251.618 43.5149 250.891 38.6381 248.677C33.7612 246.463 30.6008 242.765 29.5279 238.09C28.4551 233.416 29.4698 227.77 32.6725 221.784C35.8753 215.799 41.2634 209.473 48.6439 203.461C57.0898 196.759 66.3842 191.201 76.2857 186.932C88.0225 181.819 100.277 177.987 112.836 175.502C140.264 170.053 168.498 170.06 195.924 175.522C208.661 178.04 221.093 181.914 233.006 187.077C243.16 191.435 252.705 197.094 261.401 203.912C269.049 210.059 274.712 216.551 278.167 222.729C281.622 228.907 282.862 234.768 281.958 239.652C281.501 242.086 280.466 244.374 278.938 246.324C277.411 248.274 275.438 249.827 273.184 250.854C268.353 253.253 261.736 254.136 253.908 253.167C246.081 252.198 237.046 249.377 227.517 244.642C216.976 239.274 207.125 232.647 198.182 224.905C187.865 216.023 178.497 206.096 170.229 195.283C161.463 183.853 153.84 171.591 147.467 158.674C141.214 146.037 136.245 132.803 132.636 119.173C129.351 106.868 127.461 94.2334 127.001 81.5064C126.57 71.0271 127.646 60.5402 130.197 50.3669C132.562 41.5475 136.113 34.5182 140.324 29.7366C144.535 24.9549 149.404 22.4208 154.281 22.3124C159.158 22.204 164.05 24.5159 168.298 29.0993C172.546 33.6827 176.156 40.5577 178.577 49.2775C180.998 57.9973 182.23 68.5532 181.927 80.2901C181.498 93.1077 179.615 105.835 176.314 118.228C172.653 132.085 167.606 145.538 161.247 158.383C154.708 171.63 146.888 184.204 137.899 195.927C129.34 207.118 119.65 217.397 108.983 226.6C99.6462 234.699 89.372 241.649 78.3802 247.302C68.3903 252.326 58.8693 255.382 50.5666 256.516C42.264 257.651 35.1832 256.864 29.9467 254.479C24.7101 252.093 21.3205 248.113 20.1736 243.085C19.0267 238.056 20.1269 231.985 23.5756 225.544C27.0243 219.104 32.8223 212.307 40.76 205.845C49.8409 198.643 59.8328 192.67 70.4769 188.082C83.0895 182.588 96.2579 178.471 109.754 175.8C139.214 169.947 169.539 169.953 198.997 175.819C212.672 178.523 226.018 182.682 238.807 188.226C249.703 192.904 259.945 198.978 269.276 206.295C277.481 212.892 283.557 219.859 287.255 226.488C290.954 233.118 292.28 239.404 291.305 244.646C290.33 249.887 287.06 254.084 281.873 256.654C276.685 259.224 269.576 260.165 261.172 259.122C252.769 258.078 243.072 255.048 232.844 249.963C221.535 244.201 210.967 237.088 201.372 228.781C190.305 219.254 180.257 208.605 171.387 197.006C161.988 184.749 153.812 171.601 146.978 157.75C140.274 144.201 134.948 130.015 131.079 115.403C127.559 102.216 125.534 88.6741 125.043 75.0342C124.679 62.482 125.938 51.1197 128.473 41.6753C131.007 32.231 134.815 24.7037 139.328 19.5879C143.84 14.4722 149.056 11.7663 154.284 11.6552C159.513 11.5442 164.75 14.028 169.303 18.9542C173.855 23.8804 177.719 31.2464 180.312 40.5894C182.905 49.9324 184.221 61.2471 183.894 73.8187C183.433 87.5485 181.416 101.182 177.88 114.456C173.96 129.295 168.555 143.701 161.747 157.456C154.747 171.637 146.376 185.099 136.752 197.649C127.593 209.625 117.224 220.625 105.809 230.474C95.8183 239.138 84.8252 246.574 73.0643 252.621C62.3779 257.991 52.194 261.258 43.3149 262.468C34.4357 263.677 26.8665 262.831 21.2703 260.275C15.6741 257.719 12.0543 253.457 10.8351 248.074C9.61589 242.691 10.7981 236.194 14.4936 229.305C18.1892 222.417 24.3963 215.143 32.8902 208.23C42.6059 200.526 53.2959 194.138 64.6833 189.231C78.1716 183.357 92.2541 178.954 106.687 176.098C138.179 169.841 170.595 169.847 202.085 176.117C216.696 179.006 230.957 183.45 244.622 189.375C256.261 194.372 267.201 200.86 277.167 208.678C285.929 215.729 292.413 223.167 296.359 230.247C300.304 237.326 301.713 244.038 300.666 249.638C299.619 255.237 296.117 259.712 290.567 262.453C285.016 265.193 277.421 266.195 268.439 265.077C259.458 263.958 249.1 260.719 238.176 255.285C226.097 249.13 214.81 241.532 204.561 232.659C192.745 222.486 182.016 211.115 172.544 198.73C162.511 185.646 153.784 171.611 146.49 156.825C139.335 142.367 133.651 127.227 129.523 111.634C125.769 97.5652 123.61 83.1187 123.087 68.5672C122.7 55.1768 124.046 43.0591 126.751 32.9881C129.457 22.9171 133.52 14.8944 138.335 9.44289C143.15 3.99135 148.714 1.1144 154.291 1.00334C159.869 0.892286 165.454 3.54886 170.309 8.80913C175.164 14.0694 179.283 21.9334 182.047 31.9022C184.811 41.871 186.213 53.9376 185.862 67.3544C185.371 81.9967 183.218 96.5359 179.446 110.693C175.267 126.513 169.503 141.872 162.243 156.538C154.782 171.652 145.859 185.999 135.601 199.374C125.841 212.137 114.79 223.858 102.624 234.353C91.9818 243.583 80.2702 251.503 67.7405 257.943C56.3559 263.663 45.51 267.14 36.0551 268.425C26.6003 269.71 18.5409 268.803 12.585 266.076C6.62911 263.349 2.78016 258.805 1.48778 253.069C0.195391 247.333 1.46136 240.408 5.40287 233.069C9.34438 225.73 15.9624 217.981 25.0126 210.618C35.3635 202.414 46.751 195.61 58.8807 190.383C73.2453 184.129 88.2422 179.44 103.612 176.399C120.299 173.069 137.275 171.397 154.291 171.408" stroke="#46E193" stroke-width="2" stroke-miterlimit="10"/>
</svg>
