<svg width="115" height="45" viewBox="0 0 115 45" fill="none" xmlns="http://www.w3.org/2000/svg">
<path d="M6.14594 38.253C6.20179 38.149 6.2363 38.0348 6.24745 37.9173C6.25861 37.7998 6.24618 37.6813 6.2109 37.5686C6.17846 37.4994 6.13215 37.4376 6.07483 37.387C6.01751 37.3364 5.9504 37.2981 5.87764 37.2743C5.47422 37.1279 5.15461 37.3191 4.94023 37.8356L3.437 41.4683L1.36274 37.7578C1.27159 37.56 1.11742 37.3977 0.924238 37.2964C0.834044 37.2579 0.735994 37.2412 0.638103 37.2477C0.540212 37.2543 0.445262 37.2838 0.361014 37.334C0.272488 37.3797 0.197637 37.448 0.144026 37.5319C0.0904154 37.6157 0.0599441 37.7123 0.0556882 37.8116C0.0440276 38.028 0.101087 38.2426 0.218744 38.4248L2.76853 42.8372C2.68578 43.0715 2.5646 43.2905 2.40994 43.4853C2.35718 43.5506 2.29039 43.6033 2.21449 43.6394C2.13859 43.6755 2.05553 43.6942 1.97144 43.694C1.89858 43.6947 1.82585 43.6878 1.75446 43.6732C1.67445 43.6556 1.59618 43.6309 1.5206 43.5994C1.45738 43.5728 1.39223 43.5512 1.32571 43.5346C1.25576 43.4971 1.17841 43.4755 1.09916 43.4712C1.0199 43.467 0.94067 43.4801 0.867085 43.5098C0.7935 43.5395 0.727362 43.585 0.67336 43.643C0.619357 43.701 0.578812 43.7702 0.5546 43.8456C0.519733 43.9309 0.502609 44.0224 0.504267 44.1144C0.505925 44.2065 0.526332 44.2973 0.564248 44.3812C0.602163 44.4652 0.656795 44.5406 0.724823 44.6028C0.792851 44.6651 0.872852 44.7129 0.959968 44.7433C1.29439 44.9072 1.6648 44.9846 2.03705 44.9682C2.27041 44.9731 2.50188 44.9256 2.71432 44.8291C2.92675 44.7326 3.11469 44.5896 3.26419 44.4108C3.67681 43.8751 4.01042 43.2832 4.25488 42.6531L6.14594 38.2517V38.253Z" fill="#231F20"/>
<path d="M8.21639 44.8598C8.31174 44.8644 8.40699 44.8489 8.49596 44.8144C8.58493 44.7799 8.66564 44.7271 8.73284 44.6595C8.86009 44.5198 8.92748 44.3361 8.92059 44.1475V41.5867H12.3272V44.1475C12.3195 44.3349 12.3847 44.5181 12.5091 44.6588C12.6512 44.7881 12.8365 44.8598 13.0288 44.8598C13.2211 44.8598 13.4065 44.7881 13.5485 44.6588C13.6761 44.5194 13.7438 44.3355 13.7369 44.1468V37.9398C13.7433 37.7492 13.6759 37.5635 13.5485 37.4213C13.408 37.2889 13.2221 37.2151 13.0288 37.2151C12.8356 37.2151 12.6496 37.2889 12.5091 37.4213C12.3857 37.5653 12.3213 37.7504 12.3285 37.9398V40.3248H8.92059V37.9398C8.9273 37.7494 8.86031 37.5637 8.73349 37.4213C8.59292 37.289 8.40701 37.2153 8.21379 37.2153C8.02057 37.2153 7.83466 37.289 7.69409 37.4213C7.57041 37.5652 7.50549 37.7503 7.5122 37.9398V44.1468C7.50544 44.3345 7.57073 44.5176 7.69474 44.6588C7.76214 44.7271 7.84335 44.7803 7.93296 44.8148C8.02257 44.8494 8.11853 44.8645 8.21444 44.8591L8.21639 44.8598Z" fill="#231F20"/>
<path d="M16.407 44.8599C16.5391 44.8477 16.6665 44.8051 16.7793 44.7354C16.892 44.6656 16.987 44.5707 17.0566 44.458L20.549 39.7086V44.1476C20.5433 44.3329 20.6081 44.5134 20.7302 44.6531C20.7988 44.7243 20.8821 44.7796 20.9744 44.8153C21.0666 44.851 21.1655 44.8662 21.2642 44.8599C21.3604 44.8662 21.4567 44.8514 21.5465 44.8166C21.6363 44.7818 21.7173 44.7277 21.7839 44.6583C21.9038 44.5157 21.9661 44.3336 21.9587 44.1476V37.9405C21.9587 37.4596 21.7339 37.2166 21.2876 37.2166C21.1521 37.2217 21.0198 37.2598 20.9024 37.3276C20.785 37.3954 20.686 37.4908 20.614 37.6054L17.1436 42.3873V37.9386C17.1505 37.7492 17.0858 37.5641 16.9624 37.4201C16.8197 37.287 16.6316 37.2129 16.4362 37.2129C16.2408 37.2129 16.0527 37.287 15.91 37.4201C15.7898 37.5656 15.7274 37.7501 15.7346 37.9386V44.1456C15.7237 44.3362 15.787 44.5236 15.9113 44.6687C15.9758 44.7332 16.0533 44.7834 16.1386 44.816C16.2239 44.8486 16.3151 44.8629 16.4063 44.8579L16.407 44.8599Z" fill="#231F20"/>
<path d="M28.2882 40.7676C28.5568 40.6257 28.7815 40.4132 28.9379 40.1532C29.1191 39.8641 29.215 39.5299 29.2146 39.1888C29.2146 37.844 28.2668 37.1615 26.3985 37.1615C25.8034 37.1566 25.2088 37.201 24.6211 37.2944C24.5261 37.3013 24.4334 37.327 24.3484 37.37C24.2635 37.413 24.1879 37.4724 24.1261 37.5447C24.0644 37.6171 24.0176 37.701 23.9886 37.7915C23.9596 37.882 23.9489 37.9774 23.9572 38.0721V44.0491C23.9484 44.1414 23.9585 44.2345 23.9871 44.3228C24.0156 44.411 24.062 44.4925 24.1232 44.5622C24.1845 44.632 24.2594 44.6885 24.3433 44.7283C24.4273 44.7681 24.5185 44.7904 24.6114 44.7938C25.2324 44.8805 25.8591 44.9208 26.4862 44.9143C28.5377 44.9143 29.5778 44.1191 29.5778 42.5487C29.5869 42.1378 29.4554 41.7361 29.2049 41.4099C28.9672 41.1122 28.6484 40.8892 28.2869 40.7676H28.2882ZM26.3894 40.4131H25.3123V38.3968C25.6335 38.3639 25.9561 38.347 26.2789 38.3463C27.2852 38.3463 27.7731 38.6645 27.7731 39.3184C27.7731 40.0541 27.3184 40.4118 26.3894 40.4118V40.4131ZM27.7445 43.4774C27.3776 43.6781 26.9609 43.7703 26.5433 43.7432C26.1311 43.7467 25.719 43.7266 25.3091 43.6829V41.4877H26.5291C27.6087 41.4877 28.133 41.8532 28.133 42.6038C28.1486 42.7703 28.121 42.9379 28.0527 43.0906C27.9844 43.2433 27.8778 43.3759 27.7432 43.4755L27.7445 43.4774Z" fill="#231F20"/>
<path d="M36.2768 44.6886C36.3381 44.6304 36.3863 44.5599 36.4181 44.4816C36.4499 44.4034 36.4646 44.3193 36.4613 44.235C36.4652 44.1489 36.4507 44.063 36.4189 43.9829C36.3871 43.9028 36.3387 43.8304 36.2768 43.7703C36.1427 43.6526 35.968 43.5914 35.7896 43.5998H32.6571V41.5654H35.0607C35.244 41.5747 35.4234 41.5111 35.5596 41.3884C35.6204 41.3288 35.6681 41.2572 35.6998 41.1782C35.7314 41.0992 35.7463 41.0146 35.7435 40.9295C35.748 40.844 35.7337 40.7586 35.7017 40.6791C35.6698 40.5996 35.6208 40.5281 35.5583 40.4694C35.4194 40.3536 35.2415 40.2948 35.0607 40.3048H32.6571V38.4784H35.6798C35.8583 38.4866 36.0331 38.4253 36.167 38.3073C36.2281 38.2489 36.2761 38.1783 36.3079 38.1001C36.3397 38.0219 36.3546 37.9379 36.3515 37.8536C36.3554 37.7674 36.341 37.6814 36.3092 37.6012C36.2774 37.521 36.229 37.4484 36.167 37.3882C36.033 37.2703 35.8583 37.209 35.6798 37.2171H31.9633C31.8657 37.2117 31.7681 37.2273 31.6771 37.2629C31.5861 37.2984 31.5038 37.3531 31.4358 37.4232C31.3082 37.5652 31.2409 37.7511 31.2481 37.9417V44.1377C31.2416 44.3295 31.3117 44.516 31.443 44.6562C31.5122 44.726 31.5955 44.7804 31.6873 44.8158C31.7791 44.8512 31.8774 44.8669 31.9757 44.8617H35.7909C35.9694 44.8698 36.1441 44.8085 36.2781 44.6906L36.2768 44.6886Z" fill="#231F20"/>
<path d="M43.1563 39.6262C43.184 39.274 43.1265 38.9204 42.9886 38.5951C42.8506 38.2698 42.6363 37.9824 42.3638 37.757C41.7298 37.3293 40.9731 37.1201 40.2089 37.1614C39.6383 37.155 39.0684 37.2032 38.5069 37.3053C38.3139 37.3284 38.1378 37.4261 38.0163 37.5775C37.8948 37.7289 37.8377 37.9218 37.8573 38.1148V44.1475C37.8503 44.3352 37.9156 44.5184 38.0398 44.6595C38.1819 44.7888 38.3673 44.8605 38.5595 44.8605C38.7518 44.8605 38.9372 44.7888 39.0792 44.6595C39.2074 44.5203 39.2753 44.3363 39.2683 44.1475V42.185C39.57 42.2215 39.8739 42.2375 40.1778 42.2329C40.9489 42.2667 41.7082 42.0351 42.3287 41.577C42.6104 41.3393 42.8323 41.039 42.9764 40.7002C43.1206 40.3613 43.1831 39.9935 43.1589 39.6262H43.1563ZM39.265 38.4596C39.5666 38.4202 39.8704 38.4003 40.1745 38.3999C41.1879 38.3999 41.681 38.8108 41.681 39.6579C41.681 40.5653 41.1613 41.0028 40.0985 41.0028C39.82 41.0065 39.5414 40.9938 39.2644 40.9645V38.4609L39.265 38.4596Z" fill="#231F20"/>
<path d="M49.3484 43.244C48.8871 43.5334 48.3562 43.6937 47.8114 43.7081C47.5172 43.7135 47.2256 43.6521 46.9587 43.5286C46.6918 43.4051 46.4564 43.2227 46.2705 42.9952C45.8375 42.4331 45.6213 41.7346 45.6612 41.0268C45.6268 40.3357 45.8266 39.6531 46.2283 39.0889C46.8389 38.306 47.8452 38.1524 49.2016 38.6709C49.6564 38.8407 49.9584 38.7707 50.0923 38.4732C50.1312 38.399 50.1548 38.3178 50.1619 38.2344C50.1689 38.1509 50.1591 38.0669 50.1332 37.9873C50.1072 37.9077 50.0656 37.834 50.0107 37.7706C49.9558 37.7073 49.8888 37.6555 49.8136 37.6183C49.1955 37.2439 48.4781 37.0654 47.7562 37.1063C47.2668 37.0812 46.7778 37.1642 46.3242 37.3494C45.8707 37.5346 45.4637 37.8174 45.1324 38.1777C44.473 38.9813 44.1363 40.0006 44.1878 41.0378C44.1328 42.0693 44.4481 43.0866 45.0771 43.9071C45.4076 44.2712 45.8165 44.5559 46.2731 44.7398C46.7297 44.9237 47.2221 45.0019 47.7133 44.9687C48.5199 45.0002 49.3151 44.7703 49.9799 44.3134C50.1524 44.1951 50.277 44.0193 50.3313 43.8176C50.3548 43.7354 50.3589 43.6489 50.3434 43.5648C50.3278 43.4807 50.293 43.4013 50.2417 43.3328C50.0468 43.0528 49.7434 43.0185 49.3484 43.2434V43.244Z" fill="#231F20"/>
<path d="M57.4274 37.2165C57.2918 37.2214 57.1593 37.2594 57.0418 37.3272C56.9242 37.395 56.8251 37.4905 56.7531 37.6054L53.2822 42.3872V37.9379C53.2894 37.7485 53.2249 37.5634 53.1016 37.4194C52.9589 37.2862 52.7708 37.2122 52.5754 37.2122C52.38 37.2122 52.1919 37.2862 52.0492 37.4194C51.9287 37.5647 51.8662 37.7494 51.8738 37.9379V44.1449C51.8628 44.3357 51.9261 44.5233 52.0505 44.6686C52.1149 44.733 52.1923 44.7831 52.2775 44.8158C52.3626 44.8484 52.4537 44.8627 52.5448 44.8578C52.6769 44.8457 52.8044 44.8031 52.9171 44.7333C53.0299 44.6636 53.1248 44.5687 53.1945 44.456L56.6869 39.7066V44.1449C56.6813 44.3305 56.7463 44.5113 56.8688 44.6511C56.937 44.7224 57.02 44.7778 57.1121 44.8136C57.2041 44.8493 57.3029 44.8644 57.4015 44.8578C57.4976 44.8642 57.5939 44.8495 57.6837 44.8146C57.7735 44.7798 57.8546 44.7257 57.9212 44.6563C58.0419 44.5138 58.1047 44.3313 58.0972 44.1449V37.9379C58.0972 37.4576 57.8705 37.2146 57.4261 37.2146L57.4274 37.2165Z" fill="#231F20"/>
<path d="M65.8932 37.8419C65.8977 37.7564 65.8836 37.6709 65.8517 37.5913C65.8199 37.5117 65.7711 37.44 65.7087 37.3811C65.5691 37.2661 65.3913 37.2074 65.2105 37.2165H59.9985C59.8216 37.2085 59.6481 37.2673 59.5126 37.3811C59.4501 37.44 59.4013 37.5117 59.3693 37.5912C59.3373 37.6708 59.323 37.7563 59.3274 37.8419C59.3245 37.927 59.3393 38.0117 59.3709 38.0907C59.4026 38.1697 59.4504 38.2413 59.5113 38.3008C59.5769 38.3607 59.6537 38.4071 59.7373 38.4374C59.8209 38.4676 59.9097 38.4811 59.9985 38.4771H61.9006V44.1475C61.8931 44.3352 61.9582 44.5185 62.0825 44.6595C62.2258 44.7885 62.4118 44.8599 62.6048 44.8599C62.7978 44.8599 62.9839 44.7885 63.1271 44.6595C63.2512 44.5184 63.3163 44.3351 63.309 44.1475V38.4771H65.2105C65.3011 38.4819 65.3917 38.4689 65.4772 38.4386C65.5628 38.4083 65.6414 38.3615 65.7087 38.3008C65.7698 38.2414 65.8178 38.1699 65.8496 38.0908C65.8814 38.0118 65.8962 37.927 65.8932 37.8419Z" fill="#231F20"/>
<path d="M71.6661 43.5993H68.5336V41.5648H70.9372C71.0279 41.5696 71.1187 41.5563 71.2043 41.526C71.2899 41.4956 71.3687 41.4487 71.4361 41.3879C71.4971 41.3282 71.545 41.2566 71.5767 41.1775C71.6085 41.0984 71.6234 41.0136 71.6206 40.9284C71.6249 40.8429 71.6105 40.7576 71.5784 40.6782C71.5463 40.5989 71.4973 40.5274 71.4348 40.4689C71.2958 40.3531 71.118 40.2942 70.9372 40.3042H68.5336V38.4778H71.5563C71.7344 38.4858 71.9086 38.4244 72.0422 38.3067C72.1036 38.2486 72.1519 38.178 72.1838 38.0998C72.2157 38.0216 72.2306 37.9375 72.2273 37.8531C72.2314 37.7669 72.2169 37.6809 72.185 37.6008C72.1531 37.5207 72.1044 37.4482 72.0422 37.3884C71.9087 37.2704 71.7344 37.209 71.5563 37.2172H67.8391C67.7415 37.2121 67.644 37.2279 67.553 37.2634C67.4621 37.299 67.3798 37.3535 67.3116 37.4234C67.1846 37.5656 67.1175 37.7514 67.1245 37.9418V44.1379C67.118 44.3297 67.1881 44.5161 67.3194 44.6564C67.3887 44.7263 67.4721 44.7808 67.564 44.8163C67.6559 44.8518 67.7543 44.8676 67.8528 44.8625H71.6661C71.8443 44.8708 72.0188 44.8097 72.1526 44.692C72.2138 44.6337 72.2619 44.5632 72.2937 44.485C72.3255 44.4067 72.3403 44.3227 72.3371 44.2383C72.3411 44.1522 72.3267 44.0661 72.2949 43.9859C72.2631 43.9057 72.2146 43.8331 72.1526 43.773C72.0187 43.6554 71.8443 43.5943 71.6661 43.6025V43.5993Z" fill="#231F20"/>
<path d="M79.4165 37.8419C79.4209 37.7563 79.4067 37.6708 79.3747 37.5913C79.3427 37.5117 79.2938 37.44 79.2314 37.3811C79.0923 37.2661 78.9149 37.2073 78.7344 37.2165H73.5231C73.3457 37.2083 73.1718 37.267 73.0359 37.3811C72.9735 37.44 72.9248 37.5118 72.8929 37.5913C72.861 37.6709 72.8469 37.7564 72.8514 37.8419C72.8483 37.927 72.8631 38.0117 72.8947 38.0908C72.9264 38.1698 72.9742 38.2413 73.0352 38.3008C73.1008 38.361 73.1777 38.4075 73.2614 38.4378C73.3452 38.4681 73.4341 38.4814 73.5231 38.4771H75.4233V44.1475C75.4163 44.3351 75.4814 44.5182 75.6052 44.6595C75.7485 44.7887 75.9347 44.8602 76.1278 44.8602C76.3209 44.8602 76.5071 44.7887 76.6504 44.6595C76.7745 44.5184 76.8396 44.3351 76.8323 44.1475V38.4771H78.7344C78.9174 38.4865 79.0966 38.4231 79.2327 38.3008C79.2936 38.2413 79.3414 38.1697 79.3731 38.0907C79.4047 38.0117 79.4195 37.927 79.4165 37.8419Z" fill="#231F20"/>
<path d="M89.9486 44.1475V37.9405C89.9486 37.4596 89.7225 37.2165 89.2775 37.2165C89.1419 37.2217 89.0095 37.2598 88.892 37.3275C88.7745 37.3953 88.6753 37.4907 88.6032 37.6054L85.1335 42.3866V37.9385C85.1406 37.749 85.0756 37.5638 84.9516 37.42C84.809 37.2869 84.621 37.2129 84.4258 37.2129C84.2305 37.2129 84.0425 37.2869 83.8999 37.42C83.7793 37.5654 83.7166 37.75 83.7238 37.9385V44.1456C83.713 44.3363 83.7768 44.5239 83.9018 44.6686C83.9662 44.7332 84.0435 44.7835 84.1287 44.8161C84.2139 44.8487 84.3051 44.863 84.3962 44.8579C84.5282 44.8456 84.6556 44.8031 84.7683 44.7334C84.881 44.6638 84.976 44.5691 85.0458 44.4567L88.5376 39.7066V44.1456C88.532 44.331 88.5967 44.5118 88.7188 44.6518C88.7875 44.7228 88.8708 44.778 88.963 44.8136C89.0552 44.8492 89.1541 44.8643 89.2528 44.8579C89.349 44.8644 89.4454 44.8497 89.5352 44.8148C89.625 44.78 89.706 44.7259 89.7725 44.6563C89.8927 44.5138 89.9552 44.3317 89.9479 44.1456L89.9486 44.1475Z" fill="#231F20"/>
<path d="M97.0617 37.2164H91.8498C91.6726 37.2081 91.499 37.2672 91.3638 37.3817C91.3012 37.4403 91.2521 37.5118 91.22 37.5913C91.1879 37.6708 91.1736 37.7563 91.178 37.8419C91.1751 37.9269 91.1899 38.0116 91.2215 38.0906C91.2532 38.1696 91.301 38.2412 91.3619 38.3007C91.4276 38.3608 91.5045 38.4073 91.5882 38.4376C91.6719 38.468 91.7608 38.4816 91.8498 38.4777H93.7532V44.1468C93.7455 44.3345 93.8107 44.5179 93.9351 44.6588C94.0783 44.7878 94.2644 44.8592 94.4574 44.8592C94.6503 44.8592 94.8364 44.7878 94.9797 44.6588C95.1039 44.5175 95.1693 44.334 95.1622 44.1462V38.477H97.0637C97.1542 38.4816 97.2447 38.4683 97.3301 38.438C97.4155 38.4076 97.4941 38.3608 97.5613 38.3001C97.6225 38.2407 97.6706 38.1692 97.7025 38.0902C97.7343 38.0112 97.7493 37.9264 97.7464 37.8412C97.7509 37.7557 97.7366 37.6701 97.7045 37.5907C97.6724 37.5112 97.6233 37.4396 97.5606 37.3811C97.4217 37.2655 97.2443 37.2065 97.0637 37.2158L97.0617 37.2164Z" fill="#231F20"/>
<path d="M105.317 37.2165C105.174 37.222 105.034 37.2654 104.913 37.3423C104.793 37.4192 104.694 37.5268 104.629 37.654L102.468 41.1292L100.264 37.665C100.196 37.5324 100.093 37.4207 99.9662 37.3417C99.8395 37.2628 99.6937 37.2195 99.5443 37.2165C99.4565 37.2132 99.3688 37.2277 99.2868 37.2591C99.2047 37.2905 99.1299 37.3382 99.0668 37.3993C99.0011 37.4745 98.951 37.562 98.9195 37.6567C98.8879 37.7514 98.8755 37.8514 98.883 37.9509V44.1469C98.883 44.62 99.1058 44.8598 99.5443 44.8598C99.9828 44.8598 100.204 44.62 100.204 44.1469V39.8998L101.749 42.3095C101.807 42.4331 101.9 42.5375 102.015 42.6103C102.131 42.683 102.265 42.7211 102.402 42.7199C102.539 42.7188 102.673 42.6784 102.787 42.6037C102.902 42.529 102.992 42.423 103.048 42.2984L104.57 39.8486V44.1469C104.563 44.3357 104.631 44.5198 104.758 44.6596C104.9 44.7889 105.086 44.8605 105.278 44.8605C105.47 44.8605 105.656 44.7889 105.798 44.6596C105.922 44.5184 105.988 44.3349 105.981 44.1469V37.9398C105.988 37.7522 105.928 37.5682 105.811 37.4213C105.749 37.3531 105.674 37.2995 105.589 37.2645C105.504 37.2295 105.412 37.214 105.321 37.2191L105.317 37.2165Z" fill="#231F20"/>
<path d="M114.006 38.2173C113.287 37.506 112.315 37.1069 111.302 37.1069C110.29 37.1069 109.318 37.506 108.599 38.2173C107.982 39.03 107.648 40.0215 107.648 41.0408C107.648 42.0602 107.982 43.0516 108.599 43.8643C109.32 44.5725 110.291 44.9694 111.302 44.9694C112.314 44.9694 113.285 44.5725 114.006 43.8643C114.625 43.053 114.961 42.061 114.961 41.0408C114.961 40.0206 114.625 39.0287 114.006 38.2173ZM112.918 42.9654C112.718 43.1983 112.471 43.3853 112.192 43.5136C111.914 43.6418 111.61 43.7082 111.304 43.7082C110.997 43.7082 110.693 43.6418 110.415 43.5136C110.136 43.3853 109.889 43.1983 109.69 42.9654C109.319 42.3905 109.122 41.7216 109.122 41.0382C109.122 40.3549 109.319 39.6859 109.69 39.111C109.889 38.8781 110.136 38.6911 110.415 38.5629C110.693 38.4346 110.997 38.3682 111.304 38.3682C111.61 38.3682 111.914 38.4346 112.192 38.5629C112.471 38.6911 112.718 38.8781 112.918 39.111C113.287 39.6861 113.484 40.355 113.484 41.0382C113.484 41.7215 113.287 42.3904 112.918 42.9654Z" fill="#231F20"/>
<path d="M36.2944 17.0677C36.295 17.3654 36.2071 17.6566 36.0418 17.9044C35.8765 18.1522 35.6412 18.3455 35.3657 18.4599C35.0902 18.5742 34.7869 18.6044 34.4942 18.5467C34.2015 18.4889 33.9325 18.3459 33.7213 18.1355C33.5102 17.9252 33.3663 17.6571 33.3079 17.3652C33.2496 17.0733 33.2793 16.7706 33.3935 16.4956C33.5076 16.2205 33.7009 15.9854 33.949 15.8201C34.1972 15.6547 34.4889 15.5665 34.7872 15.5667C34.985 15.5665 35.1808 15.6052 35.3636 15.6805C35.5464 15.7559 35.7125 15.8664 35.8524 16.0058C35.9924 16.1451 36.1034 16.3107 36.1793 16.4929C36.2551 16.6751 36.2942 16.8704 36.2944 17.0677Z" fill="#231F20"/>
<path d="M43.5401 7.3725C43.5409 7.81903 43.4089 8.25576 43.1607 8.62741C42.9126 8.99906 42.5596 9.28892 42.1463 9.4603C41.733 9.63169 41.278 9.6769 40.839 9.59021C40.3999 9.50352 39.9965 9.28883 39.6798 8.9733C39.3631 8.65778 39.1473 8.25561 39.0598 7.81769C38.9723 7.37977 39.0169 6.9258 39.1881 6.51321C39.3593 6.10063 39.6493 5.74799 40.0215 5.49992C40.3936 5.25185 40.8312 5.1195 41.2788 5.11963C41.5755 5.11937 41.8694 5.17745 42.1437 5.29054C42.418 5.40362 42.6672 5.56951 42.8772 5.77871C43.0872 5.98792 43.2538 6.23635 43.3676 6.50981C43.4813 6.78328 43.5399 7.07642 43.5401 7.3725Z" fill="#231F20"/>
<path d="M50.0336 10.6047C50.0345 11.0514 49.9025 11.4883 49.6544 11.8602C49.4063 12.232 49.0531 12.5221 48.6397 12.6936C48.2262 12.8651 47.7711 12.9104 47.3318 12.8237C46.8926 12.737 46.489 12.5222 46.1722 12.2066C45.8553 11.8909 45.6395 11.4886 45.552 11.0505C45.4644 10.6124 45.5092 10.1582 45.6805 9.74549C45.8518 9.33276 46.142 8.98002 46.5144 8.73193C46.8867 8.48384 47.3245 8.35155 47.7722 8.35181C48.069 8.35155 48.3629 8.40963 48.6372 8.52271C48.9114 8.6358 49.1607 8.80168 49.3707 9.01089C49.5807 9.2201 49.7473 9.46853 49.8611 9.74199C49.9748 10.0155 50.0334 10.3086 50.0336 10.6047Z" fill="#231F20"/>
<path d="M56.5232 13.8362C56.524 14.2826 56.392 14.7192 56.144 15.0907C55.896 15.4622 55.5431 15.752 55.1299 15.9233C54.7168 16.0947 54.262 16.1399 53.8231 16.0533C53.3841 15.9667 52.9809 15.7521 52.6642 15.4368C52.3476 15.1214 52.1318 14.7194 52.0442 14.2817C51.9567 13.8439 52.0012 13.3901 52.1723 12.9776C52.3433 12.5651 52.6331 12.2126 53.0051 11.9645C53.3771 11.7164 53.8144 11.584 54.2618 11.584C54.5585 11.5837 54.8524 11.6418 55.1266 11.7548C55.4008 11.8679 55.6501 12.0337 55.86 12.2428C56.07 12.452 56.2367 12.7003 56.3505 12.9737C56.4642 13.2471 56.5229 13.5402 56.5232 13.8362Z" fill="#231F20"/>
<path d="M50.0336 17.0683C50.0345 17.515 49.9025 17.952 49.6544 18.3238C49.4063 18.6957 49.0531 18.9857 48.6397 19.1572C48.2262 19.3287 47.7711 19.374 47.3318 19.2873C46.8926 19.2006 46.489 18.9859 46.1722 18.6702C45.8553 18.3546 45.6395 17.9522 45.552 17.5141C45.4644 17.076 45.5092 16.6218 45.6805 16.2091C45.8518 15.7964 46.142 15.4437 46.5144 15.1956C46.8867 14.9475 47.3245 14.8152 47.7722 14.8154C48.069 14.8152 48.3629 14.8732 48.6372 14.9863C48.9114 15.0994 49.1607 15.2653 49.3707 15.4745C49.5807 15.6837 49.7473 15.9321 49.8611 16.2056C49.9748 16.4791 50.0334 16.7722 50.0336 17.0683Z" fill="#231F20"/>
<path d="M63.0147 17.0683C63.0155 17.5148 62.8835 17.9515 62.6354 18.3231C62.3873 18.6948 62.0343 18.9846 61.6211 19.156C61.2078 19.3274 60.7529 19.3727 60.3138 19.2861C59.8748 19.1994 59.4714 18.9848 59.1546 18.6693C58.8379 18.3539 58.6221 17.9518 58.5345 17.5139C58.4469 17.076 58.4914 16.6221 58.6625 16.2095C58.8336 15.7969 59.1235 15.4442 59.4956 15.196C59.8677 14.9479 60.3052 14.8154 60.7527 14.8154C61.0495 14.8151 61.3435 14.8731 61.6179 14.9861C61.8922 15.0992 62.1415 15.2651 62.3516 15.4743C62.5616 15.6835 62.7283 15.932 62.8421 16.2055C62.9559 16.479 63.0146 16.7722 63.0147 17.0683Z" fill="#231F20"/>
<path d="M62.2607 23.5314C62.2615 23.8291 62.1737 24.1203 62.0085 24.3682C61.8433 24.6161 61.6081 24.8095 61.3326 24.924C61.0572 25.0384 60.7539 25.0688 60.4611 25.0112C60.1684 24.9536 59.8994 24.8106 59.6881 24.6004C59.4769 24.3901 59.3329 24.1221 59.2744 23.8302C59.2159 23.5383 59.2455 23.2356 59.3595 22.9605C59.4735 22.6854 59.6668 22.4503 59.9148 22.2848C60.1628 22.1193 60.4545 22.031 60.7529 22.031C61.1522 22.0308 61.5352 22.1887 61.8179 22.47C62.1006 22.7513 62.2598 23.1331 62.2607 23.5314Z" fill="#231F20"/>
<path d="M68.7529 20.2999C68.7535 20.5975 68.6656 20.8886 68.5004 21.1364C68.3351 21.3842 68.0999 21.5775 67.8245 21.6919C67.5491 21.8063 67.2458 21.8366 66.9532 21.7789C66.6605 21.7213 66.3915 21.5784 66.1803 21.3682C65.9691 21.158 65.8251 20.89 65.7666 20.5982C65.7081 20.3063 65.7377 20.0037 65.8516 19.7287C65.9655 19.4536 66.1587 19.2184 66.4066 19.0529C66.6545 18.8874 66.9461 18.799 67.2444 18.7988C67.4423 18.7985 67.6383 18.8371 67.8212 18.9123C68.0041 18.9876 68.1704 19.0981 68.3104 19.2375C68.4505 19.3769 68.5617 19.5425 68.6376 19.7248C68.7135 19.9071 68.7527 20.1025 68.7529 20.2999Z" fill="#231F20"/>
<path d="M69.5074 13.8362C69.5083 14.2827 69.3764 14.7195 69.1284 15.0912C68.8805 15.4629 68.5275 15.7528 68.1143 15.9243C67.7011 16.0959 67.2462 16.1412 66.8071 16.0547C66.3681 15.9682 65.9646 15.7537 65.6478 15.4383C65.3309 15.123 65.115 14.7209 65.0273 14.2831C64.9396 13.8452 64.984 13.3913 65.155 12.9786C65.3259 12.566 65.6158 12.2132 65.9878 11.965C66.3597 11.7167 66.7972 11.5841 67.2447 11.584C67.5415 11.5836 67.8355 11.6416 68.1098 11.7546C68.3842 11.8676 68.6335 12.0334 68.8436 12.2426C69.0537 12.4517 69.2205 12.7001 69.3344 12.9735C69.4483 13.247 69.507 13.5401 69.5074 13.8362Z" fill="#231F20"/>
<path d="M63.0147 10.6048C63.015 11.0512 62.8826 11.4876 62.6342 11.8589C62.3858 12.2302 62.0327 12.5196 61.6194 12.6907C61.2061 12.8617 60.7513 12.9066 60.3125 12.8197C59.8736 12.7328 59.4704 12.5181 59.1539 12.2026C58.8374 11.8871 58.6218 11.485 58.5344 11.0473C58.4469 10.6095 58.4915 10.1557 58.6626 9.74325C58.8337 9.3308 59.1235 8.97822 59.4954 8.7301C59.8673 8.48199 60.3047 8.34949 60.7521 8.34937C61.0489 8.34903 61.3429 8.40704 61.6172 8.52009C61.8916 8.63314 62.1409 8.79901 62.3509 9.00822C62.561 9.21744 62.7277 9.4659 62.8415 9.73941C62.9553 10.0129 63.0139 10.3061 63.0141 10.6022L63.0147 10.6048Z" fill="#231F20"/>
<path d="M55.7703 20.3C55.7709 20.5978 55.683 20.8891 55.5176 21.137C55.3523 21.3849 55.1169 21.5783 54.8414 21.6927C54.5658 21.8071 54.2624 21.8374 53.9696 21.7797C53.6767 21.722 53.4077 21.5789 53.1964 21.3686C52.9851 21.1582 52.8411 20.8901 52.7826 20.5981C52.7242 20.3061 52.7539 20.0033 52.8679 19.7281C52.982 19.4529 53.1753 19.2177 53.4235 19.0522C53.6716 18.8867 53.9634 18.7983 54.2618 18.7983C54.6614 18.7982 55.0447 18.9562 55.3275 19.2378C55.6103 19.5194 55.7696 19.9014 55.7703 20.3Z" fill="#231F20"/>
<path d="M69.5074 7.37258C69.5083 7.81909 69.3764 8.25583 69.1284 8.62754C68.8805 8.99924 68.5275 9.2892 68.1143 9.46072C67.7011 9.63225 67.2462 9.67763 66.8071 9.59111C66.3681 9.5046 65.9646 9.29009 65.6478 8.97472C65.3309 8.65936 65.115 8.25731 65.0273 7.81946C64.9396 7.38161 64.984 6.92764 65.155 6.515C65.3259 6.10235 65.6158 5.74958 65.9878 5.50133C66.3597 5.25307 66.7972 5.12049 67.2447 5.12036C67.5415 5.12002 67.8355 5.17801 68.1098 5.29101C68.3842 5.40401 68.6335 5.56981 68.8436 5.77895C69.0537 5.98809 69.2205 6.23646 69.3344 6.5099C69.4483 6.78333 69.507 7.07648 69.5074 7.37258Z" fill="#231F20"/>
<path d="M75.2441 4.14045C75.2447 4.43811 75.1568 4.72927 74.9916 4.97708C74.8263 5.22488 74.591 5.41819 74.3156 5.53255C74.0401 5.6469 73.7368 5.67715 73.4441 5.61948C73.1514 5.5618 72.8825 5.41878 72.6713 5.20853C72.4601 4.99829 72.3162 4.73025 72.2577 4.43836C72.1993 4.14647 72.229 3.84384 72.343 3.56878C72.457 3.29372 72.6503 3.05859 72.8983 2.89315C73.1463 2.72771 73.4379 2.63941 73.7363 2.6394C74.1357 2.63906 74.519 2.79699 74.8017 3.07848C75.0844 3.35996 75.2436 3.74195 75.2441 4.14045Z" fill="#231F20"/>
<path d="M75.2441 17.0677C75.2447 17.3654 75.1568 17.6565 74.9916 17.9043C74.8263 18.1521 74.591 18.3454 74.3156 18.4598C74.0401 18.5741 73.7368 18.6044 73.4441 18.5467C73.1514 18.489 72.8825 18.346 72.6713 18.1358C72.4601 17.9255 72.3162 17.6575 72.2577 17.3656C72.1993 17.0737 72.229 16.7711 72.343 16.496C72.457 16.221 72.6503 15.9858 72.8983 15.8204C73.1463 15.655 73.4379 15.5667 73.7363 15.5667C74.1357 15.5663 74.519 15.7242 74.8017 16.0057C75.0844 16.2872 75.2436 16.6692 75.2441 17.0677Z" fill="#231F20"/>
<path d="M55.7703 7.37255C55.7709 7.67033 55.683 7.96161 55.5176 8.20952C55.3523 8.45744 55.1169 8.65084 54.8414 8.76524C54.5658 8.87964 54.2624 8.9099 53.9696 8.8522C53.6767 8.7945 53.4077 8.65142 53.1964 8.44108C52.9851 8.23074 52.8411 7.9626 52.7826 7.67058C52.7242 7.37856 52.7539 7.07581 52.8679 6.80063C52.982 6.52545 53.1753 6.29021 53.4235 6.1247C53.6716 5.9592 53.9634 5.87085 54.2618 5.87085C54.6615 5.87051 55.0448 6.0285 55.3277 6.31011C55.6106 6.59171 55.7698 6.97387 55.7703 7.37255Z" fill="#231F20"/>
<path d="M49.2778 23.5314C49.2785 23.8291 49.1908 24.1203 49.0256 24.3682C48.8604 24.6161 48.6251 24.8095 48.3497 24.924C48.0743 25.0384 47.771 25.0688 47.4782 25.0112C47.1855 24.9536 46.9165 24.8106 46.7052 24.6004C46.494 24.3901 46.35 24.1221 46.2915 23.8302C46.233 23.5383 46.2626 23.2356 46.3766 22.9605C46.4906 22.6854 46.6839 22.4503 46.9319 22.2848C47.1799 22.1193 47.4716 22.031 47.77 22.031C48.1693 22.0307 48.5524 22.1885 48.8352 22.4698C49.1179 22.7512 49.2771 23.133 49.2778 23.5314Z" fill="#231F20"/>
<path d="M43.5401 13.8362C43.541 14.2828 43.4091 14.7196 43.1611 15.0913C42.913 15.463 42.56 15.753 42.1467 15.9245C41.7335 16.096 41.2785 16.1413 40.8394 16.0546C40.4003 15.968 39.9968 15.7534 39.68 15.4379C39.3632 15.1224 39.1474 14.7202 39.0598 14.2823C38.9723 13.8444 39.0169 13.3903 39.1881 12.9777C39.3592 12.5651 39.6492 12.2124 40.0214 11.9643C40.3936 11.7162 40.8312 11.5839 41.2788 11.584C41.5755 11.5837 41.8693 11.6418 42.1435 11.7548C42.4178 11.8679 42.667 12.0337 42.877 12.2428C43.087 12.452 43.2536 12.7003 43.3674 12.9737C43.4812 13.2471 43.5399 13.5402 43.5401 13.8362Z" fill="#231F20"/>
<path d="M34.7866 9.45118C35.0148 9.45156 35.2378 9.51943 35.4274 9.64622C35.617 9.773 35.7647 9.95301 35.8517 10.1635C35.9388 10.374 35.9614 10.6055 35.9166 10.8288C35.8719 11.052 35.7618 11.2571 35.6002 11.418C35.4387 11.5788 35.233 11.6883 35.0091 11.7326C34.7853 11.7769 34.5533 11.754 34.3424 11.6667C34.1316 11.5795 33.9514 11.4319 33.8247 11.2425C33.6979 11.0532 33.6303 10.8306 33.6303 10.6029C33.6308 10.2973 33.7528 10.0043 33.9696 9.78838C34.1864 9.57245 34.4803 9.45118 34.7866 9.45118ZM34.7866 8.34937C34.3403 8.35026 33.9043 8.48312 33.5337 8.73114C33.163 8.97916 32.8744 9.33123 32.7042 9.74284C32.5341 10.1545 32.49 10.6072 32.5776 11.0437C32.6652 11.4803 32.8806 11.8812 33.1965 12.1957C33.5124 12.5103 33.9146 12.7243 34.3524 12.8109C34.7902 12.8974 35.2439 12.8525 35.6561 12.6819C36.0683 12.5113 36.4206 12.2227 36.6685 11.8524C36.9163 11.4821 37.0486 11.0468 37.0486 10.6016C37.0483 10.3055 36.9896 10.0124 36.8758 9.73896C36.762 9.46552 36.5953 9.21714 36.3852 9.008C36.1752 8.79885 35.9259 8.63303 35.6516 8.52003C35.3773 8.40702 35.0834 8.34903 34.7866 8.34937Z" fill="#231F20"/>
<path d="M29.1767 20.2999C29.177 20.4739 29.1257 20.6442 29.029 20.7891C28.9324 20.934 28.7949 21.047 28.6338 21.1139C28.4728 21.1807 28.2955 21.1984 28.1243 21.1647C27.9532 21.131 27.7959 21.0474 27.6725 20.9245C27.549 20.8015 27.4648 20.6448 27.4307 20.4742C27.3965 20.3035 27.4138 20.1266 27.4805 19.9657C27.5472 19.8049 27.6601 19.6674 27.8052 19.5707C27.9502 19.474 28.1207 19.4224 28.2951 19.4224C28.4108 19.4222 28.5253 19.4448 28.6322 19.4888C28.7391 19.5328 28.8363 19.5974 28.9182 19.6789C29 19.7604 29.065 19.8572 29.1093 19.9637C29.1537 20.0703 29.1766 20.1845 29.1767 20.2999Z" fill="#231F20"/>
<path d="M29.1767 13.8363C29.177 14.0103 29.1257 14.1806 29.029 14.3255C28.9324 14.4703 28.7949 14.5834 28.6338 14.6502C28.4728 14.7171 28.2955 14.7348 28.1243 14.7011C27.9532 14.6674 27.7959 14.5838 27.6725 14.4608C27.549 14.3379 27.4648 14.1812 27.4307 14.0105C27.3965 13.8399 27.4138 13.6629 27.4805 13.5021C27.5472 13.3413 27.6601 13.2038 27.8052 13.1071C27.9502 13.0104 28.1207 12.9587 28.2951 12.9587C28.5286 12.9586 28.7527 13.0509 28.918 13.2155C29.0833 13.38 29.1763 13.6033 29.1767 13.8363Z" fill="#231F20"/>
<path d="M42.1601 20.2539C42.1606 20.4279 42.1093 20.5982 42.0128 20.7432C41.9162 20.8882 41.7787 21.0013 41.6177 21.0683C41.4566 21.1352 41.2793 21.153 41.1081 21.1194C40.937 21.0857 40.7796 21.0022 40.6561 20.8793C40.5325 20.7564 40.4483 20.5997 40.4141 20.429C40.3799 20.2583 40.3972 20.0813 40.4638 19.9205C40.5305 19.7596 40.6435 19.6221 40.7885 19.5254C40.9335 19.4286 41.104 19.377 41.2785 19.377C41.5119 19.3768 41.7358 19.469 41.9011 19.6334C42.0664 19.7979 42.1595 20.021 42.1601 20.2539Z" fill="#231F20"/>
<path d="M42.1601 0.908076C42.1604 1.08211 42.1091 1.25234 42.0124 1.39723C41.9158 1.54212 41.7783 1.65514 41.6172 1.72201C41.4562 1.78888 41.2789 1.80657 41.1077 1.77286C40.9366 1.73914 40.7793 1.65553 40.6559 1.53261C40.5324 1.40968 40.4482 1.25298 40.4141 1.08232C40.3799 0.911661 40.3972 0.73472 40.4639 0.573899C40.5306 0.413078 40.6435 0.275603 40.7886 0.178876C40.9336 0.0821488 41.1041 0.0305182 41.2785 0.0305178C41.512 0.0303458 41.7361 0.122685 41.9014 0.28724C42.0667 0.451796 42.1597 0.675103 42.1601 0.908076Z" fill="#231F20"/>
<path d="M55.1005 26.7644C55.1007 26.9384 55.0493 27.1086 54.9526 27.2534C54.8558 27.3982 54.7183 27.5111 54.5572 27.5779C54.3961 27.6447 54.2189 27.6623 54.0478 27.6285C53.8767 27.5947 53.7195 27.511 53.5961 27.3881C53.4726 27.2651 53.3886 27.1084 53.3544 26.9378C53.3203 26.7671 53.3377 26.5902 53.4044 26.4295C53.4711 26.2687 53.5841 26.1312 53.7291 26.0345C53.874 25.9378 54.0445 25.8862 54.2189 25.8862C54.3346 25.8861 54.4492 25.9088 54.5561 25.9529C54.663 25.997 54.7602 26.0616 54.842 26.1432C54.9239 26.2247 54.9888 26.3216 55.0332 26.4282C55.0775 26.5348 55.1004 26.649 55.1005 26.7644Z" fill="#231F20"/>
<path d="M35.6687 4.14041C35.6691 4.3146 35.6176 4.48499 35.5209 4.63C35.4242 4.775 35.2865 4.88811 35.1253 4.95501C34.9641 5.02191 34.7866 5.03958 34.6153 5.00578C34.4441 4.97199 34.2867 4.88825 34.1631 4.76518C34.0396 4.6421 33.9554 4.48521 33.9213 4.31439C33.8872 4.14356 33.9046 3.96647 33.9714 3.80554C34.0383 3.64461 34.1514 3.50708 34.2966 3.41036C34.4418 3.31364 34.6125 3.26208 34.7871 3.26221C35.0207 3.26221 35.2447 3.35469 35.41 3.51935C35.5753 3.68401 35.6683 3.90738 35.6687 4.14041Z" fill="#231F20"/>
<path d="M48.6518 4.14041C48.652 4.31436 48.6006 4.48448 48.5039 4.62925C48.4073 4.77403 48.2698 4.88696 48.1088 4.95376C47.9478 5.02057 47.7706 5.03825 47.5995 5.00456C47.4285 4.97088 47.2713 4.88734 47.1478 4.76452C47.0243 4.6417 46.9401 4.48512 46.9059 4.31456C46.8716 4.14401 46.8888 3.96714 46.9553 3.80634C47.0218 3.64553 47.1346 3.50801 47.2794 3.41115C47.4242 3.3143 47.5946 3.26246 47.7689 3.26221C47.8847 3.26204 47.9993 3.28462 48.1064 3.32866C48.2134 3.3727 48.3107 3.43734 48.3926 3.51889C48.4746 3.60044 48.5397 3.6973 48.5842 3.80394C48.6286 3.91058 48.6516 4.02492 48.6518 4.14041Z" fill="#231F20"/>
<path d="M55.1005 26.7644C55.1007 26.9384 55.0493 27.1086 54.9526 27.2534C54.8558 27.3982 54.7183 27.5111 54.5572 27.5779C54.3961 27.6447 54.2189 27.6623 54.0478 27.6285C53.8767 27.5947 53.7195 27.511 53.5961 27.3881C53.4726 27.2651 53.3886 27.1084 53.3544 26.9378C53.3203 26.7671 53.3377 26.5902 53.4044 26.4295C53.4711 26.2687 53.5841 26.1312 53.7291 26.0345C53.874 25.9378 54.0445 25.8862 54.2189 25.8862C54.3346 25.8861 54.4492 25.9088 54.5561 25.9529C54.663 25.997 54.7602 26.0616 54.842 26.1432C54.9239 26.2247 54.9888 26.3216 55.0332 26.4282C55.0775 26.5348 55.1004 26.649 55.1005 26.7644Z" fill="#231F20"/>
<path d="M87.6015 10.6041C87.6019 10.7782 87.5505 10.9484 87.4539 11.0933C87.3572 11.2382 87.2197 11.3512 87.0586 11.4181C86.8976 11.4849 86.7203 11.5026 86.5491 11.4689C86.378 11.4352 86.2208 11.3516 86.0973 11.2287C85.9738 11.1057 85.8896 10.949 85.8555 10.7784C85.8213 10.6077 85.8386 10.4308 85.9053 10.2699C85.972 10.1091 86.085 9.97165 86.23 9.87493C86.375 9.7782 86.5455 9.72656 86.7199 9.72656C86.9534 9.72639 87.1775 9.81873 87.3428 9.98329C87.5081 10.1478 87.6011 10.3711 87.6015 10.6041Z" fill="#231F20"/>
<path d="M74.6186 23.5314C74.6189 23.7054 74.5676 23.8756 74.471 24.0204C74.3744 24.1653 74.2369 24.2784 74.0759 24.3452C73.9149 24.4121 73.7376 24.4299 73.5665 24.3962C73.3953 24.3625 73.2381 24.279 73.1146 24.1561C72.9911 24.0333 72.9069 23.8766 72.8726 23.706C72.8384 23.5354 72.8556 23.3585 72.9222 23.1976C72.9888 23.0368 73.1016 22.8993 73.2466 22.8025C73.3915 22.7057 73.562 22.6539 73.7364 22.6538C73.9699 22.6536 74.194 22.746 74.3594 22.9105C74.5248 23.075 74.618 23.2983 74.6186 23.5314Z" fill="#231F20"/>
<path d="M82.4898 7.37258C82.4907 7.81912 82.3588 8.25589 82.1108 8.6276C81.8628 8.99932 81.5098 9.28928 81.0966 9.46078C80.6833 9.63229 80.2284 9.67763 79.7893 9.59106C79.3502 9.5045 78.9468 9.28992 78.63 8.97449C78.3132 8.65906 78.0973 8.25695 78.0096 7.81906C77.922 7.38117 77.9665 6.92718 78.1376 6.51455C78.3086 6.10191 78.5986 5.74919 78.9706 5.50101C79.3427 5.25283 79.7802 5.12036 80.2278 5.12036C80.5246 5.12002 80.8185 5.17801 81.0928 5.29102C81.3671 5.40403 81.6164 5.56984 81.8264 5.77899C82.0365 5.98813 82.2032 6.23651 82.317 6.50995C82.4308 6.78338 82.4896 7.07651 82.4898 7.37258Z" fill="#231F20"/>
<path d="M75.9981 10.6048C75.999 11.0513 75.8671 11.4881 75.6191 11.8598C75.371 12.2316 75.018 12.5215 74.6048 12.693C74.1915 12.8645 73.7365 12.9098 73.2974 12.8232C72.8583 12.7366 72.4548 12.5219 72.138 12.2064C71.8213 11.8909 71.6054 11.4888 71.5178 11.0508C71.4303 10.6129 71.4749 10.1589 71.6461 9.74627C71.8172 9.33365 72.1073 8.98097 72.4794 8.73287C72.8516 8.48477 73.2892 8.35241 73.7368 8.35254C74.0335 8.35228 74.3273 8.41034 74.6016 8.52338C74.8758 8.63643 75.125 8.80225 75.335 9.01139C75.545 9.22053 75.7116 9.46889 75.8254 9.74228C75.9392 10.0157 75.9979 10.3087 75.9981 10.6048Z" fill="#231F20"/>
<path d="M81.1098 20.2999C81.1101 20.4739 81.0588 20.6442 80.9621 20.7891C80.8655 20.934 80.728 21.047 80.5669 21.1139C80.4059 21.1807 80.2286 21.1984 80.0574 21.1647C79.8863 21.131 79.729 21.0474 79.6056 20.9245C79.4821 20.8015 79.3979 20.6448 79.3638 20.4742C79.3296 20.3035 79.3469 20.1266 79.4136 19.9657C79.4803 19.8049 79.5933 19.6674 79.7383 19.5707C79.8833 19.474 80.0538 19.4224 80.2282 19.4224C80.4617 19.4222 80.6858 19.5145 80.8511 19.6791C81.0164 19.8436 81.1094 20.0669 81.1098 20.2999Z" fill="#231F20"/>
<path d="M81.7353 13.8362C81.7358 14.1338 81.6478 14.4249 81.4824 14.6726C81.3171 14.9203 81.0818 15.1135 80.8063 15.2278C80.5308 15.3421 80.2276 15.3722 79.935 15.3145C79.6423 15.2567 79.3734 15.1136 79.1623 14.9034C78.9511 14.6931 78.8073 14.4251 78.7489 14.1332C78.6905 13.8413 78.7202 13.5387 78.8342 13.2637C78.9483 12.9887 79.1415 12.7536 79.3896 12.5882C79.6376 12.4228 79.9292 12.3345 80.2275 12.3345C80.4253 12.3343 80.6213 12.373 80.8041 12.4484C80.987 12.5238 81.1531 12.6343 81.2931 12.7738C81.4331 12.9132 81.5443 13.0788 81.6201 13.2611C81.696 13.4434 81.7351 13.6388 81.7353 13.8362Z" fill="#231F20"/>
<path d="M61.6342 4.14041C61.6344 4.31442 61.583 4.48458 61.4862 4.62939C61.3895 4.77419 61.2519 4.88712 61.0909 4.95389C60.9298 5.02065 60.7525 5.03826 60.5815 5.00447C60.4104 4.97068 60.2532 4.88702 60.1297 4.76407C60.0063 4.64112 59.9222 4.48441 59.8881 4.31377C59.854 4.14313 59.8714 3.96622 59.9381 3.80544C60.0048 3.64466 60.1177 3.50722 60.2627 3.41052C60.4077 3.31382 60.5782 3.26221 60.7526 3.26221C60.8683 3.26212 60.9829 3.28477 61.0898 3.32886C61.1967 3.37295 61.2939 3.43761 61.3757 3.51916C61.4576 3.60071 61.5225 3.69754 61.5669 3.80414C61.6112 3.91073 61.6341 4.025 61.6342 4.14041Z" fill="#231F20"/>
<path d="M81.1098 0.908809C81.1101 1.08284 81.0588 1.25307 80.9621 1.39796C80.8655 1.54285 80.728 1.65588 80.5669 1.72274C80.4059 1.78961 80.2286 1.80731 80.0574 1.77359C79.8863 1.73987 79.729 1.65626 79.6056 1.53334C79.4821 1.41042 79.3979 1.25371 79.3638 1.08305C79.3296 0.912393 79.3469 0.735452 79.4136 0.574631C79.4803 0.41381 79.5933 0.276335 79.7383 0.179608C79.8833 0.0828812 80.0538 0.0312507 80.2282 0.0312502C80.4617 0.0310782 80.6858 0.123418 80.8511 0.287973C81.0164 0.452528 81.1094 0.675835 81.1098 0.908809Z" fill="#231F20"/>
<path d="M87.6015 4.14025C87.6019 4.31426 87.5505 4.48446 87.4539 4.62934C87.3573 4.77421 87.2198 4.88724 87.0588 4.95413C86.8978 5.02101 86.7205 5.03874 86.5494 5.00508C86.3783 4.97142 86.221 4.88787 86.0975 4.76502C85.974 4.64216 85.8898 4.48551 85.8555 4.31489C85.8213 4.14428 85.8385 3.96736 85.9051 3.80653C85.9717 3.64569 86.0846 3.50817 86.2295 3.41137C86.3744 3.31457 86.5449 3.26282 86.7193 3.2627C86.9529 3.26252 87.1769 3.35484 87.3423 3.51938C87.5078 3.68392 87.601 3.90722 87.6015 4.14025Z" fill="#231F20"/>
</svg>
