<svg width="73" height="72" viewBox="0 0 73 72" fill="none" xmlns="http://www.w3.org/2000/svg">
<path d="M52.2573 20.3783V21.1681C54.8856 22.1172 57.2418 23.3053 59.2463 24.6791C57.1489 25.6482 54.7197 26.4579 52.0582 27.1017C51.2817 25.7876 50.3392 24.5862 49.264 23.5176L52.2573 21.1615V20.3783L36.8325 32.5044L21.421 20.365V20.3783C12.5007 23.5575 6.50732 29.3915 6.50732 36.0553C6.50732 44.5774 16.3104 51.7522 29.4985 53.73V53.1327V35.219L21.4011 28.8407V30.865L27.8193 35.9159H19.4697C19.4963 32.8362 20.3325 29.9424 21.7662 27.4402C23.2994 27.8053 24.9056 28.1106 26.5715 28.3561L26.4056 28.0309C24.8525 27.7986 23.3525 27.5066 21.9188 27.1747C22.6821 25.9004 23.598 24.7389 24.6467 23.7035L36.8325 33.2942L49.2241 23.5508L49.025 23.7101C50.0737 24.7455 50.9896 25.907 51.7463 27.1814C50.2861 27.5265 48.7595 27.8185 47.1799 28.0508L47.0206 28.3694C48.7131 28.1238 50.3458 27.8119 51.8989 27.4468C53.3325 29.9491 54.1688 32.8362 54.1954 35.9159H45.8458L52.264 30.865V28.8407L44.1666 35.219V52.9668V53.1261V53.7367C57.3547 51.7588 67.1644 44.5774 67.1644 36.0553C67.1644 29.3915 61.171 23.5575 52.2573 20.3783ZM7.2706 36.2145H19.1777C19.2042 39.188 19.9609 41.9822 21.2883 44.438C18.5206 45.1216 16.0051 45.9911 13.8613 47.0265C9.79272 44.0597 7.33033 40.303 7.2706 36.2145ZM27.9587 52.6946C22.5029 51.6791 17.7175 49.7544 14.1334 47.219C16.2507 46.2101 18.7197 45.3672 21.441 44.6968C22.9874 47.438 25.244 49.7278 27.9587 51.3207V52.6946ZM27.9587 50.9822C25.3768 49.4358 23.2264 47.2455 21.7396 44.6305C23.6976 44.1592 25.7883 43.7876 27.9587 43.5088V50.9822ZM27.9587 36.2145V43.2168C25.7286 43.4955 23.5914 43.8871 21.587 44.365C20.2595 41.9358 19.5029 39.1615 19.4763 36.2145H27.9587ZM19.1777 35.9159H7.2706C7.3237 31.7212 9.90555 27.8783 14.1467 24.8783C16.2706 25.8738 18.7463 26.7101 21.4675 27.3738C20.0339 29.9026 19.2042 32.8163 19.1777 35.9159ZM21.6202 27.1084C18.9587 26.4645 16.5228 25.6548 14.4255 24.6858C16.4299 23.3119 18.7861 22.1238 21.4144 21.1747V21.1615L24.4144 23.5243C23.3392 24.5862 22.3967 25.7942 21.6202 27.1084ZM52.2042 27.3738C54.9188 26.7168 57.3945 25.8805 59.525 24.8783C63.7662 27.8716 66.348 31.7212 66.4011 35.9159H54.494C54.4741 32.8163 53.6379 29.9026 52.2042 27.3738ZM45.7131 36.2145H54.202C54.1755 39.1615 53.4188 41.9358 52.0914 44.365C50.0803 43.8805 47.9432 43.4955 45.7131 43.2168V36.2145ZM45.7131 43.5088C47.8901 43.7876 49.9741 44.1592 51.9387 44.6305C50.4454 47.2455 48.2949 49.4358 45.7131 50.9822V43.5088ZM45.7131 52.7013V51.3207C48.4277 49.7345 50.691 47.4446 52.2374 44.6968C54.9586 45.3606 57.4277 46.2101 59.5449 47.219C55.9609 49.7544 51.1688 51.6858 45.7131 52.7013ZM59.8171 47.0199C57.6732 45.9845 55.1578 45.115 52.3901 44.4314C53.7175 41.9822 54.4741 39.1814 54.5007 36.2079H66.4078C66.3414 40.303 63.8856 44.0597 59.8171 47.0199Z" fill="#0C1219"/>
<path d="M52.2572 19.4889V18.6991L36.8324 30.8252L21.4209 18.6858V19.4756L36.8324 31.615L52.2572 19.4889Z" fill="#0C1219"/>
<path d="M52.2572 17.8097V17.0199L49.1908 19.4292C45.4143 18.4137 41.2328 17.8429 36.839 17.8429C32.4452 17.8429 28.2705 18.4071 24.4939 19.4226L21.4209 17V17.7898L36.839 29.9292L52.2572 17.8097ZM27.2483 21.5929C29.9961 19.7611 33.2948 18.6925 36.839 18.6925C40.3833 18.6925 43.682 19.7611 46.4297 21.5929L36.8324 29.1394L27.2483 21.5929ZM46.6753 21.4071C44.7439 20.1062 42.547 19.177 40.1842 18.719C43.0846 18.9115 45.859 19.3562 48.4474 20.0133L46.6753 21.4071ZM33.4939 18.719C31.1311 19.177 28.9342 20.1062 27.0028 21.4071L25.2306 20.0133C27.8191 19.3562 30.5935 18.9115 33.4939 18.719Z" fill="#0C1219"/>
<path d="M35.1733 35.916V54.2611C35.7242 54.2811 36.2751 54.2877 36.8393 54.2877C37.3968 54.2877 37.9543 54.2811 38.5052 54.2611V35.916H35.1733Z" fill="#0C1219"/>
<path d="M21.4014 23.2124V27.4204L30.6868 34.7345V53.9226C31.7686 54.0553 32.8704 54.1549 33.9921 54.2146V33.1217L21.4014 23.2124Z" fill="#0C1219"/>
<path d="M52.2704 27.4204V23.2124L39.6797 33.1217V54.208C40.8014 54.1482 41.9031 54.0487 42.985 53.9159V34.7279L52.2704 27.4204Z" fill="#0C1219"/>
</svg>
