<svg width="56" height="55" viewBox="0 0 56 55" fill="none" xmlns="http://www.w3.org/2000/svg">
<g clip-path="url(#clip0_43_1877)">
<path d="M28.0074 2.06114e-05C34.3706 -0.000752083 40.5372 2.2049 45.4564 6.24114C50.3756 10.2774 53.7431 15.8945 54.9851 22.1353C56.2271 28.3761 55.2667 34.8545 52.2675 40.4665C49.2683 46.0786 44.416 50.4771 38.5373 52.9125C32.6587 55.3479 26.1174 55.6697 20.0281 53.8228C13.9388 51.9759 8.67834 48.0748 5.14298 42.7841C1.60762 37.4934 0.0161562 31.1405 0.639763 24.808C1.26337 18.4754 4.06346 12.555 8.56292 8.05556C11.1135 5.49808 14.1444 3.46985 17.4813 2.08741C20.8182 0.704978 24.3954 -0.00440836 28.0074 2.06114e-05ZM47.1347 8.37288C42.7096 3.94884 36.8875 1.19597 30.6602 0.583301C24.433 -0.0293705 18.186 1.53606 12.9836 5.01289C7.7812 8.48971 3.94523 13.6628 2.12929 19.6508C0.313344 25.6388 0.629785 32.0711 3.02469 37.8519C5.4196 43.6328 9.74479 48.4044 15.2634 51.3538C20.7819 54.3032 27.1524 55.2479 33.2894 54.027C39.4264 52.806 44.9502 49.495 48.9197 44.658C52.8892 39.821 55.0588 33.7573 55.0588 27.5C55.0631 23.947 54.3653 20.4282 53.0054 17.1457C51.6456 13.8632 49.6504 10.8818 47.1347 8.37288Z" fill="#0C1219"/>
<path d="M28.0072 7.33131C32.674 7.33076 37.1966 8.9484 40.8044 11.9086C44.4122 14.8688 46.8819 18.9884 47.7928 23.5655C48.7036 28.1426 47.9993 32.8938 45.7996 37.0098C43.6 41.1257 40.0413 44.3516 35.7299 46.1377C31.4184 47.9239 26.621 48.1598 22.1551 46.8053C17.6891 45.4508 13.8311 42.5897 11.2382 38.7095C8.64535 34.8292 7.47815 30.17 7.93551 25.5257C8.39287 20.8813 10.4465 16.5392 13.7464 13.2393C15.617 11.3637 17.8399 9.87616 20.2872 8.86227C22.7346 7.84838 25.3581 7.32809 28.0072 7.33131ZM41.9508 13.5566C38.7249 10.3316 34.4807 8.32474 29.9411 7.8781C25.4015 7.43145 20.8475 8.57262 17.055 11.1072C13.2625 13.6417 10.4661 17.4128 9.14231 21.778C7.81849 26.1432 8.04915 30.8323 9.79499 35.0464C11.5408 39.2606 14.6938 42.7391 18.7168 44.8892C22.7397 47.0393 27.3837 47.728 31.8576 46.838C36.3314 45.948 40.3582 43.5343 43.2519 40.0082C46.1457 36.4821 47.7273 32.0617 47.7273 27.5002C47.7305 24.9101 47.2219 22.3449 46.2305 19.952C45.2392 17.5591 43.7847 15.3856 41.9508 13.5566Z" fill="#0C1219"/>
<path d="M6.3197 29.1541L6.30997 28.5975C6.30901 28.5975 6.29402 28.5996 6.26674 28.6027C6.23945 28.6059 6.20021 28.6093 6.15171 28.6138C6.10321 28.6182 6.05088 28.6217 5.99217 28.6256C5.93346 28.6294 5.87156 28.6321 5.80854 28.6332L2.92809 28.6835L2.89618 26.8244L6.27838 26.7654L6.26881 26.2089C6.26785 26.2089 6.25285 26.211 6.22557 26.2141C6.19829 26.2173 6.15905 26.2207 6.11055 26.2252C6.06205 26.2296 6.00972 26.2331 5.95021 26.2368C5.8907 26.2405 5.82976 26.2435 5.76674 26.2446L2.48633 26.3019L2.53786 29.2533C2.53882 29.2533 2.55493 29.2513 2.58572 29.247L2.71335 29.234C2.76653 29.2286 2.82588 29.224 2.89139 29.2202C2.95712 29.2154 3.02557 29.2123 3.09481 29.2112L6.32114 29.1549L6.3197 29.1541ZM6.37873 25.0025L6.81395 22.7635L6.39421 22.6544C6.395 22.6555 6.39261 22.6917 6.38735 22.7649C6.38208 22.8382 6.36756 22.9428 6.34459 23.0797L6.10321 24.4093L4.79883 24.1555L5.12381 22.7101L4.67279 22.5949L4.41147 24.0803L3.13278 23.8318L3.38293 22.6305C3.39713 22.5666 3.41117 22.5038 3.42632 22.4443C3.44148 22.3848 3.456 22.3299 3.46908 22.2811C3.48216 22.2322 3.49333 22.194 3.50099 22.1654C3.50865 22.1368 3.51391 22.1228 3.51407 22.122L3.10007 22.014L2.65336 24.3113L2.70123 24.3152C2.73186 24.3182 2.77318 24.3227 2.82535 24.3283C2.87751 24.3338 2.93702 24.3415 3.00084 24.3512C3.06465 24.361 3.13262 24.3713 3.20154 24.3849L6.37825 25.0025H6.37873ZM7.01321 21.7255L7.19445 21.1991C7.19445 21.1991 7.17945 21.1959 7.15217 21.1893C7.12489 21.1828 7.0874 21.1734 7.04049 21.1603C6.99359 21.1472 6.94317 21.1333 6.8859 21.1166C6.82863 21.0998 6.7704 21.0815 6.71041 21.0611L5.92341 20.7899L6.10289 20.2685C6.16627 20.0893 6.19691 19.9002 6.19335 19.7101C6.1909 19.5399 6.15479 19.3718 6.0871 19.2155C6.02229 19.0667 5.92708 18.933 5.80756 18.8231C5.68805 18.7132 5.54688 18.6295 5.39311 18.5774C5.17882 18.4974 4.94702 18.4762 4.72177 18.516C4.50901 18.5605 4.31524 18.6698 4.16706 18.8288C3.98648 19.0287 3.85115 19.2651 3.77029 19.522L3.42537 20.5238L3.47227 20.5341L3.59336 20.5644C3.64425 20.5772 3.70153 20.5932 3.76391 20.6123C3.82629 20.6314 3.89154 20.6506 3.95727 20.6732L7.01321 21.7262V21.7255ZM4.11361 19.721C4.1595 19.5798 4.22922 19.4476 4.31974 19.3299C4.39262 19.237 4.48526 19.1614 4.59095 19.1087C4.6874 19.0623 4.7928 19.0374 4.89982 19.0359C5.00996 19.035 5.11939 19.0537 5.22304 19.0909C5.36319 19.1365 5.48997 19.2158 5.59221 19.322C5.68699 19.4215 5.7505 19.5467 5.77488 19.682C5.80005 19.8361 5.78476 19.994 5.73053 20.1404L5.55105 20.6616L3.97689 20.1192L4.11425 19.7203L4.11361 19.721ZM8.23607 16.4385L7.28762 14.5677C7.26097 14.513 7.23226 14.46 7.20338 14.4082C7.1745 14.3563 7.14738 14.3125 7.12154 14.2726C7.09569 14.2327 7.07511 14.1998 7.05948 14.1769C7.04384 14.1539 7.03539 14.1411 7.03475 14.1406L7.0507 14.1247C7.05166 14.1247 7.06666 14.1368 7.09713 14.1596C7.1276 14.1824 7.17259 14.2128 7.2305 14.2512C7.28841 14.2897 7.35813 14.3324 7.43982 14.3804L9.72408 15.6992L9.99705 15.2265C9.99705 15.2265 9.98285 15.2204 9.95732 15.2088C9.9318 15.1971 9.89686 15.1802 9.85298 15.159C9.80911 15.1378 9.76237 15.114 9.7094 15.0865C9.65643 15.0591 9.60267 15.0301 9.54811 14.9986L6.67834 13.3423L6.44239 13.805L7.39658 15.6985C7.4178 15.741 7.44109 15.7836 7.46598 15.8271C7.49087 15.8707 7.51384 15.911 7.53538 15.9482C7.55692 15.9854 7.57622 16.0144 7.59026 16.0371C7.6043 16.0597 7.61068 16.0719 7.61148 16.0722L7.60334 16.0864C7.60254 16.0864 7.58196 16.0854 7.5424 16.0854C7.50283 16.0854 7.4521 16.0854 7.38829 16.0854C7.32447 16.0854 7.25571 16.088 7.18089 16.092L5.01277 16.2258L4.79308 16.6607L4.84573 16.6848C4.87892 16.7008 4.92375 16.7226 4.97831 16.7486C5.03287 16.7746 5.09222 16.8051 5.15603 16.8389C5.21985 16.8727 5.28207 16.9053 5.34285 16.9405L8.09041 18.5268L8.33099 18.1103L8.29127 18.0926C8.26654 18.0812 8.23399 18.0656 8.19315 18.0463C8.15231 18.027 8.10971 18.0053 8.06313 17.9815C8.01654 17.9577 7.97187 17.9337 7.92896 17.9092L6.13703 16.8743C6.05981 16.8297 5.98802 16.7903 5.92293 16.7569C5.85784 16.7236 5.80535 16.6974 5.76626 16.6789C5.72718 16.6604 5.7058 16.6502 5.705 16.6497L5.70851 16.6337C5.70851 16.6337 5.73244 16.6353 5.776 16.6374C5.81955 16.6395 5.87666 16.6414 5.94606 16.642C6.01546 16.6427 6.09076 16.6382 6.17101 16.6325L8.19826 16.5048L8.23607 16.4393V16.4385ZM9.10858 10.9443C9.18225 10.8607 9.26071 10.7814 9.34358 10.7069C9.42542 10.6346 9.50423 10.5673 9.58113 10.5051C9.65803 10.4429 9.72759 10.3818 9.78949 10.3258L9.52115 9.99235C9.45212 10.0539 9.38006 10.1154 9.30497 10.1766C9.22935 10.2374 9.15341 10.3028 9.07588 10.3714C8.99516 10.4438 8.91887 10.521 8.84742 10.6026C8.67506 10.794 8.54647 11.0207 8.47059 11.2669C8.40472 11.4892 8.39333 11.7241 8.43741 11.9518C8.48563 12.1936 8.58092 12.4236 8.71787 12.6287C8.87509 12.8663 9.06494 13.0807 9.28184 13.2654C9.4703 13.4317 9.68623 13.5641 9.91999 13.6565C10.1323 13.7403 10.3596 13.7794 10.5877 13.7713C10.8142 13.7627 11.0361 13.7047 11.2379 13.6014C11.4609 13.4862 11.6592 13.3285 11.8217 13.1373C11.9091 13.0373 11.99 12.9318 12.0639 12.8214C12.1165 12.7432 12.1637 12.6614 12.2052 12.5767C12.2305 12.5248 12.2528 12.4716 12.2721 12.4172C12.2783 12.3987 12.2837 12.38 12.288 12.361L11.9421 12.1822C11.9421 12.1822 11.9295 12.2118 11.9042 12.2672C11.8641 12.3457 11.8194 12.4217 11.7705 12.495C11.6948 12.6107 11.611 12.7209 11.5197 12.8248C11.4127 12.9519 11.2822 13.0573 11.1353 13.1351C11.0072 13.2006 10.8667 13.2387 10.7229 13.2468C10.5809 13.254 10.4387 13.2361 10.3029 13.1938C10.158 13.1495 10.0191 13.0874 9.88952 13.0089C9.75242 12.9258 9.62277 12.831 9.502 12.7255C9.35465 12.5987 9.22539 12.4522 9.11783 12.2902C9.02258 12.1463 8.95245 11.9873 8.91043 11.82C8.87264 11.6685 8.86942 11.5103 8.90102 11.3574C8.93356 11.2044 9.00499 11.0624 9.10842 10.9451L9.10858 10.9443ZM12.9794 11.7867L13.4059 11.4288C13.4059 11.4288 13.3947 11.4183 13.3748 11.3987C13.3548 11.379 13.3269 11.3508 13.2937 11.316C13.2606 11.2813 13.224 11.2428 13.1837 11.1989C13.1433 11.1551 13.1026 11.1094 13.0621 11.0613L12.2665 10.1131L12.5233 9.89774L14.6654 10.4083L15.1407 9.97416C15.1396 9.97416 15.1247 9.97257 15.094 9.96874C15.0632 9.96491 15.0238 9.9606 14.9745 9.95374C14.9252 9.94688 14.872 9.93779 14.8149 9.92949C14.7578 9.92119 14.701 9.90875 14.6458 9.89615L12.7092 9.43827C12.7055 9.1745 12.7001 8.9428 12.6932 8.74317C12.6872 8.54263 12.679 8.3673 12.6698 8.21669C12.6605 8.06609 12.6498 7.93224 12.6379 7.81498C12.6259 7.69772 12.612 7.59083 12.5977 7.49367C12.5833 7.39651 12.5672 7.30047 12.5498 7.20746L12.1291 7.56211C12.1451 7.64395 12.161 7.72595 12.1741 7.80764C12.1872 7.88932 12.2007 7.97946 12.2119 8.07885C12.2231 8.17824 12.2339 8.29439 12.2438 8.4276C12.2537 8.56082 12.263 8.72083 12.273 8.90622C12.2831 9.0916 12.2923 9.31336 12.302 9.56862L12.013 9.81159L10.9324 8.5238L10.5192 8.90669L10.554 8.93988L10.644 9.03018C10.6816 9.06793 10.7226 9.11117 10.7668 9.15988C10.812 9.20774 10.8573 9.25911 10.9019 9.31224L12.9794 11.7883V11.7867ZM15.6965 9.49666L16.1361 9.25321L16.3875 6.06086C16.393 5.96725 16.3936 5.87342 16.3892 5.77975C16.3849 5.69759 16.3789 5.63298 16.372 5.58528C16.3652 5.53758 16.3621 5.51349 16.3618 5.51269L16.3833 5.50694C16.3833 5.50774 16.3915 5.52928 16.4073 5.57076C16.4231 5.61224 16.4473 5.66648 16.4781 5.7354C16.5089 5.80432 16.547 5.87899 16.5912 5.96003L17.8809 8.28609L18.3678 8.01615C18.3678 8.01536 18.3589 8.00355 18.3429 7.98058C18.327 7.9576 18.3059 7.9249 18.2791 7.88406C18.2523 7.84321 18.2247 7.79886 18.1935 7.74813C18.1622 7.6974 18.1311 7.64475 18.1004 7.58971L16.4937 4.69187L16.0673 4.95909L15.8213 8.10454C15.8178 8.17649 15.8163 8.24812 15.8178 8.31768C15.8192 8.38724 15.821 8.44978 15.8245 8.50641C15.828 8.56305 15.831 8.609 15.8339 8.64234C15.8368 8.67568 15.8385 8.69339 15.839 8.69419L15.8127 8.70249C15.8127 8.70137 15.8026 8.67505 15.7825 8.62559C15.7624 8.57613 15.7347 8.50913 15.6975 8.4276C15.6603 8.34608 15.6148 8.25801 15.5624 8.16149L14.3098 5.90292L13.8312 6.19902C13.8312 6.19902 13.8411 6.21306 13.8591 6.23811L13.9301 6.34404C13.9598 6.38839 13.9917 6.43864 14.0259 6.4948C14.0608 6.55048 14.0956 6.60951 14.1292 6.67029L15.6962 9.49714L15.6965 9.49666ZM19.6472 2.90105C19.7557 2.86562 19.8601 2.81866 19.9586 2.76098C20.0432 2.71046 20.1224 2.65139 20.195 2.58469C20.2574 2.52831 20.3143 2.46607 20.3648 2.39883C20.4061 2.34541 20.4428 2.28851 20.4744 2.22876L20.0899 1.98946C20.0436 2.07178 19.995 2.14899 19.9439 2.22254C19.8943 2.29456 19.8352 2.35963 19.7684 2.41606C19.6986 2.47391 19.6184 2.51797 19.5321 2.54592C19.4443 2.5748 19.3518 2.58682 19.2595 2.58134C19.1733 2.57493 19.0883 2.55667 19.0071 2.5271C18.9235 2.49742 18.8394 2.46328 18.7536 2.42372L18.5829 2.84346C18.6427 2.87279 18.7045 2.89764 18.768 2.91781C18.8462 2.94333 18.9268 2.96091 19.0085 2.97029C19.1061 2.98213 19.2047 2.98347 19.3026 2.97428C19.4198 2.9622 19.5353 2.93765 19.6473 2.90105H19.6472ZM19.4656 7.43193L19.9442 7.27654L20.8 4.19108C20.8257 4.1011 20.845 4.0094 20.8577 3.91667C20.8691 3.83531 20.8756 3.77054 20.8777 3.72172C20.8798 3.6729 20.8796 3.64897 20.8793 3.64817L20.9016 3.64657C20.9016 3.64753 20.9054 3.67003 20.9131 3.7139C20.9208 3.75777 20.934 3.81616 20.9511 3.88939C20.9681 3.96262 20.9914 4.04303 21.0194 4.13157L21.841 6.66056L22.3705 6.48858C22.3705 6.48778 22.3641 6.47454 22.3528 6.44885C22.3414 6.42317 22.3271 6.38711 22.3086 6.34196C22.2901 6.29682 22.2714 6.248 22.2505 6.19216C22.2296 6.13632 22.209 6.07889 22.1894 6.0189L21.1656 2.86787L20.6958 3.04879L19.8541 6.09005C19.8351 6.15961 19.8195 6.22821 19.8075 6.2965C19.7955 6.36478 19.7858 6.42764 19.7785 6.48395C19.7711 6.54027 19.766 6.58558 19.7625 6.61972C19.759 6.65386 19.7585 6.67141 19.7587 6.67221L19.7314 6.67524C19.7314 6.67428 19.7268 6.64652 19.7164 6.59403C19.706 6.54155 19.6914 6.47055 19.6706 6.38344C19.6499 6.29634 19.622 6.20141 19.5888 6.09628L18.7911 3.6394L18.2646 3.83866C18.2646 3.83962 18.2716 3.85461 18.2846 3.88237L18.3342 3.99979C18.3548 4.04904 18.3766 4.1045 18.3994 4.16619C18.4232 4.22761 18.4462 4.29222 18.4675 4.35763L19.4662 7.43161L19.4656 7.43193ZM26.5917 5.82426C26.595 5.80776 26.5993 5.79146 26.6044 5.77545C26.6131 5.74242 26.6297 5.68435 26.6549 5.60394C26.6801 5.52354 26.7163 5.4125 26.7633 5.27051C26.8104 5.12852 26.8728 4.95143 26.949 4.73733L27.5074 3.18663C27.6022 2.92626 27.6752 2.70355 27.7263 2.51848C27.7774 2.33246 27.8126 2.19095 27.8319 2.09204C27.8512 1.99313 27.8605 1.94383 27.8594 1.94287L27.3742 1.97685C27.3752 1.97781 27.3696 2.01418 27.3575 2.0855C27.3453 2.15681 27.3244 2.25844 27.2936 2.38974C27.2629 2.52104 27.2206 2.67483 27.1644 2.8524L26.8433 3.8393C26.8075 3.94826 26.7766 4.04797 26.7514 4.13827C26.7262 4.22857 26.7077 4.30212 26.6944 4.35716C26.6812 4.4122 26.674 4.4398 26.6742 4.44171L26.6582 4.44283C26.6582 4.44091 26.6464 4.41374 26.6226 4.3613C26.6 4.30786 26.5671 4.23702 26.5248 4.14784C26.4826 4.05866 26.4312 3.95927 26.3731 3.85046L25.4267 2.09555L24.8564 2.15171C24.8573 2.1525 24.8666 2.16766 24.8867 2.19733C24.9068 2.22701 24.9312 2.26657 24.9628 2.31763C24.9944 2.36868 25.03 2.42499 25.0678 2.48913C25.1056 2.55326 25.1437 2.61835 25.1811 2.68711L26.4111 4.9366C26.3599 5.05673 26.3136 5.17 26.2721 5.27402C26.2306 5.37804 26.1924 5.48014 26.1577 5.57555C26.1231 5.67095 26.0899 5.76699 26.0585 5.86064L26.5923 5.82331L26.5917 5.82426ZM31.3103 6.02433L31.8628 6.09229C31.8628 6.09133 31.8628 6.07633 31.8628 6.04873C31.8628 6.02113 31.8657 5.98205 31.8679 5.93323C31.8702 5.88441 31.874 5.83224 31.8786 5.77369C31.8832 5.71514 31.8888 5.6534 31.8965 5.59086L32.3003 2.30231L31.739 2.26067C31.739 2.26163 31.739 2.2779 31.739 2.30853C31.739 2.33916 31.7363 2.38256 31.7344 2.43616C31.7325 2.48977 31.7286 2.54895 31.7242 2.61468C31.7197 2.68041 31.7124 2.74854 31.7039 2.8173L31.5728 3.88492L29.6743 3.65168L29.8766 2.00477L29.3153 1.96313C29.3153 1.96393 29.3153 1.9802 29.3153 2.01099C29.3153 2.04178 29.3124 2.08502 29.3105 2.13862C29.3086 2.19223 29.3048 2.25142 29.2995 2.31699C29.2943 2.38256 29.2885 2.45084 29.2801 2.51976L28.8852 5.72743L29.4377 5.79539C29.4377 5.79443 29.4377 5.77943 29.4377 5.75183C29.4377 5.72423 29.4404 5.68515 29.4428 5.63633C29.4452 5.58751 29.4488 5.53534 29.4535 5.47679C29.4581 5.41824 29.4637 5.3565 29.4713 5.29396L29.6242 4.04957L31.5227 4.28281L31.3086 6.02624L31.3103 6.02433ZM33.0751 6.31771L33.5538 6.4731L36.0599 4.47984C36.1323 4.42002 36.2015 4.3565 36.2673 4.28951C36.3244 4.23032 36.3677 4.18182 36.3978 4.14433C36.428 4.10684 36.4436 4.08818 36.4438 4.08738L36.4628 4.09918C36.4628 4.09998 36.4521 4.12024 36.4324 4.16029C36.4128 4.20033 36.3892 4.25521 36.3602 4.32445C36.3311 4.39369 36.3026 4.47234 36.2731 4.56041L35.4513 7.0894L35.9808 7.26138C35.9808 7.26058 35.9838 7.24638 35.9899 7.21894C35.996 7.1915 36.0058 7.15385 36.0169 7.10647C36.0279 7.05909 36.0421 7.00851 36.0579 6.95124C36.0737 6.89397 36.0909 6.83494 36.1103 6.77575L37.1343 3.62472L36.6478 3.49501L34.178 5.45956C34.123 5.50599 34.0695 5.55401 34.0198 5.60219C33.97 5.65037 33.9253 5.69472 33.8864 5.73604C33.8475 5.77736 33.8157 5.81054 33.7934 5.83543C33.771 5.86032 33.7592 5.87372 33.7589 5.87452L33.735 5.86112C33.7361 5.86112 33.7481 5.83495 33.7706 5.78645C33.7931 5.73795 33.8229 5.67175 33.8574 5.58927C33.8918 5.50678 33.925 5.41377 33.9598 5.30896L34.7575 2.85208L34.215 2.70403C34.215 2.70403 34.2115 2.72078 34.2055 2.75109C34.1994 2.7814 34.1895 2.8232 34.1766 2.87521C34.1637 2.92722 34.1495 2.98481 34.1318 3.04831C34.114 3.1118 34.0954 3.17753 34.0738 3.24358L33.0751 6.31771ZM37.0928 7.74973L38.08 8.25275C38.245 8.3392 38.4214 8.40183 38.6039 8.43877C38.7601 8.47072 38.921 8.47169 39.0776 8.44164C39.2235 8.41206 39.3602 8.34812 39.4764 8.25514C39.603 8.15107 39.7057 8.02111 39.7778 7.87401C39.8365 7.75936 39.8702 7.63361 39.8769 7.50499C39.8831 7.37467 39.8598 7.24462 39.8089 7.1245C39.7525 6.9923 39.667 6.87447 39.5589 6.77974L39.5639 6.77016C39.7924 6.77697 40.0154 6.699 40.1899 6.55128C40.2839 6.47181 40.3609 6.37412 40.4161 6.26411C40.4984 6.11171 40.5375 5.93968 40.5291 5.76667C40.5146 5.59216 40.4464 5.4264 40.3339 5.29221C40.1847 5.11816 40.0005 4.97743 39.7933 4.87916L38.782 4.36386C38.782 4.36386 38.7762 4.37981 38.7651 4.40885L38.7183 4.52451C38.6985 4.57237 38.6748 4.62773 38.6478 4.68676C38.6208 4.74579 38.5921 4.80801 38.5605 4.86975L37.0928 7.74973ZM38.9356 6.68082C39.0616 6.74182 39.1718 6.83121 39.2574 6.94199C39.3294 7.03856 39.3718 7.15395 39.3794 7.27414C39.3849 7.40175 39.3559 7.52847 39.2957 7.64108C39.237 7.7641 39.1456 7.86863 39.0315 7.94325C38.9276 8.00823 38.8068 8.04093 38.6843 8.03721C38.5474 8.03167 38.4135 7.99529 38.2927 7.9308L37.7292 7.64363L38.3673 6.39142L38.9356 6.68098V6.68082ZM39.5656 5.19425C39.7402 5.26746 39.8828 5.40073 39.9676 5.56996C39.9967 5.65096 40.0071 5.73743 39.9983 5.82302C39.9895 5.90861 39.9617 5.99113 39.9168 6.06453C39.8824 6.13282 39.8373 6.19519 39.7832 6.24927C39.7383 6.29411 39.6874 6.3325 39.632 6.36334C39.587 6.3884 39.5394 6.40856 39.4902 6.42349C39.4557 6.43422 39.4205 6.44233 39.3849 6.44774C39.3711 6.4499 39.3573 6.45123 39.3434 6.45173L38.5439 6.04443L39.0985 4.95606L39.5656 5.19409V5.19425ZM40.0712 9.49188L41.9397 10.8001L42.2104 10.4609C42.2092 10.4609 42.1771 10.445 42.1122 10.4095C42.0472 10.3741 41.9577 10.3191 41.8421 10.2425L40.7253 9.48071L41.4879 8.39155L42.6763 9.2765L42.9649 8.91116L41.7141 8.06848L42.4614 7.00133L43.4571 7.71925C43.51 7.75834 43.5612 7.79663 43.6094 7.8346C43.6576 7.87257 43.7019 7.90831 43.7412 7.94021C43.7804 7.97212 43.8109 7.99765 43.8336 8.01695C43.8562 8.03626 43.8672 8.04599 43.8679 8.04647L44.1349 7.71223L42.2178 6.36988C42.2178 6.36988 42.2101 6.38408 42.195 6.412L42.1326 6.52017C42.1063 6.56548 42.0751 6.61589 42.04 6.67093C42.0049 6.72597 41.9681 6.78261 41.9284 6.84084L40.0712 9.49124V9.49188ZM42.7233 11.4649L43.1101 11.8653C43.1101 11.8653 43.1198 11.8534 43.138 11.832C43.1562 11.8106 43.1822 11.7819 43.2147 11.7455C43.2473 11.7091 43.283 11.6708 43.3238 11.6276C43.3647 11.5844 43.4074 11.5405 43.4529 11.4966L44.0517 10.9185L44.4345 11.3151C44.5656 11.4529 44.7203 11.566 44.8913 11.6491C45.0439 11.7241 45.2099 11.7682 45.3797 11.7787C45.5417 11.7885 45.704 11.7644 45.8561 11.7078C46.0083 11.6513 46.1469 11.5635 46.2632 11.4502C46.4318 11.2955 46.556 11.0986 46.6229 10.8799C46.6798 10.6701 46.6703 10.4478 46.5958 10.2436C46.4998 9.99197 46.3506 9.76401 46.1584 9.57532L45.4224 8.8132L45.3918 8.85038L45.3099 8.9445C45.2755 8.98407 45.2353 9.02794 45.1904 9.07501C45.1456 9.12207 45.0982 9.17073 45.0483 9.21955L42.7233 11.4642V11.4649ZM45.8259 9.79133C45.931 9.89621 46.0173 10.0183 46.0811 10.1524C46.1309 10.2593 46.1563 10.376 46.1555 10.4939C46.153 10.601 46.1272 10.7062 46.08 10.8023C46.0308 10.9008 45.9645 10.9897 45.8843 11.0651C45.7801 11.1693 45.6519 11.2462 45.5109 11.2892C45.3792 11.3287 45.2388 11.3287 45.107 11.2892C44.958 11.2413 44.8241 11.1554 44.7184 11.04L44.3355 10.6434L45.533 9.48693L45.8259 9.79005V9.79133ZM48.605 13.0753C48.67 13.1658 48.7295 13.2601 48.7834 13.3576C48.8354 13.4534 48.8833 13.5456 48.927 13.6344C48.9716 13.7233 49.0141 13.8048 49.0546 13.8777L49.44 13.6911C49.3957 13.61 49.3523 13.5256 49.3092 13.4388C49.2661 13.3521 49.2204 13.2634 49.1709 13.1719C49.1186 13.077 49.0606 12.9853 48.9972 12.8974C48.8494 12.6864 48.6574 12.5101 48.4346 12.3808C48.2329 12.2665 48.0065 12.2026 47.7748 12.1943C47.5283 12.1869 47.2827 12.228 47.0521 12.3152C46.785 12.4153 46.5334 12.5524 46.3045 12.7225C46.1 12.8683 45.9225 13.0486 45.7798 13.2552C45.6503 13.4432 45.561 13.6558 45.5175 13.8798C45.4749 14.1025 45.4815 14.3318 45.5368 14.5516C45.5989 14.7948 45.7079 15.0234 45.8578 15.2247C45.9355 15.3324 46.0201 15.435 46.111 15.5318C46.1756 15.6007 46.2449 15.6651 46.3184 15.7245C46.363 15.7609 46.4098 15.7945 46.4584 15.8254C46.4915 15.8448 46.5087 15.8546 46.5093 15.8541L46.7614 15.5573C46.7614 15.5573 46.7354 15.5385 46.6872 15.5012C46.62 15.4444 46.5561 15.3839 46.4958 15.3198C46.4001 15.2198 46.3116 15.1132 46.2309 15.0007C46.1311 14.8678 46.0578 14.717 46.0149 14.5564C45.98 14.4168 45.9745 14.2713 45.999 14.1295C46.0245 13.9892 46.0744 13.8546 46.1465 13.7316C46.2224 13.6005 46.3142 13.4793 46.4197 13.3706C46.5316 13.2557 46.6531 13.1507 46.7829 13.0566C46.9397 12.9416 47.1115 12.8487 47.2935 12.7803C47.4551 12.7202 47.6257 12.6878 47.7981 12.6845C47.9544 12.6821 48.1093 12.7148 48.2513 12.7803C48.3932 12.8465 48.5154 12.9483 48.6063 13.0757L48.605 13.0753ZM46.8624 16.7446L47.0983 17.1885L50.2856 17.4954C50.3791 17.5026 50.4729 17.5048 50.5667 17.5021C50.6489 17.4992 50.7136 17.4945 50.7613 17.4884C50.809 17.4823 50.8333 17.4798 50.8341 17.4793L50.8395 17.501C50.8395 17.501 50.817 17.5088 50.7757 17.524C50.7344 17.5391 50.6787 17.5623 50.6098 17.5918C50.5409 17.6213 50.4662 17.6583 50.3832 17.7009L48.0352 18.9494L48.2966 19.441C48.2966 19.441 48.3092 19.4322 48.3325 19.4166C48.3558 19.4009 48.389 19.3807 48.4302 19.3547C48.4713 19.3287 48.5163 19.3017 48.5675 19.2714C48.6187 19.2411 48.672 19.2108 48.7271 19.1811L51.6524 17.6258L51.3926 17.195L48.2513 16.8941C48.1795 16.8893 48.1077 16.8868 48.0385 16.8869C47.9693 16.8871 47.9062 16.8869 47.8496 16.8904C47.793 16.894 47.7469 16.8951 47.7135 16.8975C47.6802 16.8999 47.6625 16.9011 47.6617 16.9016L47.6539 16.8751C47.655 16.8751 47.6813 16.8656 47.7312 16.8462C47.7812 16.8269 47.8485 16.8001 47.9307 16.7647C48.0128 16.7293 48.1015 16.685 48.199 16.6342L50.4804 15.4217L50.1932 14.938C50.1932 14.938 50.179 14.9476 50.1537 14.9653L50.0466 15.0344C50.0018 15.0633 49.951 15.0944 49.8942 15.1277C49.8379 15.1617 49.7783 15.1955 49.717 15.2281L46.8632 16.7454L46.8624 16.7446ZM48.855 21.3634L49.0085 21.8986C49.0085 21.8986 49.0227 21.8926 49.0489 21.8827C49.075 21.8728 49.1114 21.8591 49.1572 21.8422C49.203 21.8253 49.2529 21.8084 49.3087 21.7894C49.3646 21.7704 49.4236 21.7517 49.4842 21.7345L52.269 20.9358L52.4553 21.664C52.4737 21.7346 52.4896 21.8032 52.5032 21.8671C52.5167 21.9309 52.5263 21.984 52.5335 22.025C52.5407 22.066 52.5448 22.0874 52.5442 22.0888L52.9709 21.9889L52.1635 19.1729L51.7433 19.2766C51.7433 19.2774 51.7513 19.294 51.7643 19.3267C51.7774 19.3594 51.7948 19.4065 51.8168 19.4673C51.8389 19.5281 51.8617 19.5978 51.887 19.6796L52.1238 20.4271L48.855 21.3621V21.3634ZM49.4241 23.7767L49.7416 26.0353L50.1736 26.002C50.1725 26.0012 50.1631 25.9661 50.1439 25.8951C50.1248 25.8241 50.1048 25.7204 50.082 25.5837L49.8778 24.2478L51.1945 24.0628L51.3578 25.5353L51.8219 25.4973L51.5852 24.0077L52.8752 23.8265L53.03 25.0438C53.0373 25.1092 53.0443 25.1727 53.0493 25.2339C53.0542 25.2952 53.0587 25.3517 53.062 25.4023C53.0654 25.4528 53.0675 25.4924 53.0689 25.5222C53.0703 25.5521 53.0706 25.5666 53.0706 25.5674L53.4972 25.5355L53.1716 23.2179L53.125 23.2298L53.0035 23.2579C52.9523 23.2696 52.894 23.2814 52.8301 23.2932C52.7661 23.305 52.6989 23.3171 52.6294 23.3268L49.4241 23.7774V23.7767ZM49.7208 27.8464L49.7111 28.403L49.7543 28.3993C49.7832 28.3971 49.8212 28.395 49.8698 28.3923C49.9185 28.3896 49.9708 28.3877 50.0303 28.3861C50.0898 28.3845 50.1511 28.3837 50.2141 28.3848L53.1107 28.4354L53.0761 29.1862C53.0729 29.2589 53.0681 29.3298 53.0615 29.3936C53.055 29.4574 53.0496 29.5124 53.0443 29.5531C53.0391 29.5938 53.037 29.616 53.036 29.6169L53.4735 29.6461L53.5245 26.7172L53.0925 26.6934C53.0925 26.6944 53.0949 26.7124 53.0979 26.7475C53.101 26.7826 53.1035 26.8332 53.107 26.8973C53.1105 26.9614 53.1118 27.0353 53.112 27.1206L53.1199 27.9046L49.7208 27.8453V27.8464Z" fill="#0C1219"/>
<path d="M4.54899 37.5788L4.77553 38.0874C4.77633 38.0874 4.78877 38.0795 4.81318 38.0657C4.83759 38.0518 4.87173 38.0338 4.91481 38.0106C4.95788 37.9875 5.00431 37.9637 5.05759 37.9371C5.11088 37.9104 5.16608 37.8838 5.22367 37.8583L5.98403 37.5197L6.20834 38.0234C6.28429 38.1977 6.39096 38.3569 6.52327 38.4934C6.64114 38.6161 6.78211 38.7143 6.93807 38.7823C7.08698 38.847 7.24776 38.8798 7.41011 38.8787C7.57246 38.8776 7.73278 38.8425 7.88077 38.7758C8.09213 38.6881 8.27617 38.5455 8.41379 38.3627C8.53876 38.185 8.60564 37.9729 8.60523 37.7557C8.60106 37.4864 8.53881 37.2211 8.42272 36.9781L7.99197 36.0103L7.95065 36.0346L7.84153 36.0951C7.79558 36.1204 7.74261 36.1479 7.68454 36.1767C7.62647 36.2056 7.56489 36.2359 7.50155 36.2642L4.54883 37.5788H4.54899ZM8.03728 37.0673C8.10002 37.2018 8.13924 37.3461 8.15326 37.4939C8.16316 37.6114 8.14681 37.7297 8.1054 37.8401C8.06674 37.9398 8.00686 38.0299 7.92991 38.1041C7.84993 38.1798 7.75726 38.2407 7.65615 38.2842C7.52256 38.3464 7.37574 38.3749 7.22858 38.367C7.09126 38.3589 6.95935 38.3106 6.8492 38.2282C6.72579 38.1328 6.62931 38.0069 6.56921 37.8629L6.34586 37.3592L7.86658 36.682L8.03808 37.0673H8.03728ZM6.50173 41.3097L7.80994 43.1781L8.17959 42.9521C8.17847 42.9521 8.15406 42.925 8.10477 42.8705C8.05547 42.8159 7.9907 42.7326 7.90821 42.6211L7.11978 41.5235L8.2091 40.7607L9.02275 41.9988L9.41888 41.7543L8.53185 40.5345L9.599 39.7874L10.2893 40.8017C10.3257 40.8566 10.3608 40.9101 10.393 40.9622C10.4252 41.0144 10.4548 41.0631 10.4808 41.1058C10.5068 41.1486 10.5265 41.1837 10.5414 41.2097C10.5562 41.2357 10.5629 41.2484 10.5636 41.2491L10.9287 41.0257L9.58639 39.1087C9.58639 39.1087 9.57411 39.1194 9.55034 39.1406L9.45461 39.2204C9.41441 39.2541 9.36783 39.2911 9.31613 39.3305C9.26444 39.3699 9.21004 39.4114 9.15261 39.4516L6.50125 41.3097H6.50173ZM9.05912 44.6121L9.43882 45.0193C9.43882 45.0193 9.44871 45.0075 9.46738 44.9874C9.48604 44.9673 9.51237 44.9379 9.54555 44.9022C9.57873 44.8664 9.61495 44.8286 9.65723 44.7862C9.6995 44.7438 9.74242 44.7005 9.78853 44.6574L10.5198 43.9756L10.9985 44.4895L10.4696 46.1646L10.9059 46.593C10.9059 46.5917 10.9106 46.5676 10.9185 46.5207C10.9265 46.4738 10.9388 46.4143 10.9555 46.3409C10.9723 46.2675 10.9914 46.1892 11.0146 46.1072L11.4259 44.7334C11.5492 44.8077 11.6858 44.8573 11.8281 44.8794C11.9718 44.9001 12.1184 44.8874 12.2564 44.842C12.4141 44.7889 12.558 44.7014 12.6778 44.586C12.8318 44.4482 12.9427 44.2687 12.9968 44.0692C13.0454 43.8649 13.0317 43.6507 12.9576 43.4542C12.8614 43.2034 12.7148 42.9751 12.5268 42.7832L11.8044 42.0083L11.7725 42.045C11.752 42.0678 11.7247 42.0986 11.6889 42.1377C11.6532 42.1768 11.6128 42.2199 11.5671 42.2653C11.5213 42.3108 11.4734 42.3603 11.4227 42.4075L9.05832 44.6118L9.05912 44.6121ZM12.1902 42.993C12.3231 43.1262 12.4271 43.2854 12.4959 43.4606C12.5457 43.5904 12.5523 43.7328 12.5147 43.8666C12.4684 43.9968 12.3914 44.1139 12.2901 44.2079C12.1889 44.3019 12.0664 44.3701 11.9332 44.4067C11.8051 44.4368 11.6709 44.4282 11.5477 44.3818C11.4036 44.3252 11.2749 44.2355 11.1719 44.12L10.796 43.7168L11.9027 42.6846L12.1899 42.993H12.1902ZM14.3424 48.005L16.2602 47.1558C16.3163 47.1322 16.3707 47.1064 16.4231 47.0802C16.4754 47.054 16.5217 47.0293 16.563 47.0055C16.6043 46.9818 16.6378 46.9629 16.6622 46.9486C16.6866 46.9342 16.6991 46.9264 16.6995 46.9256L16.7155 46.9416C16.7155 46.9416 16.7024 46.9567 16.678 46.9859C16.6536 47.0151 16.6212 47.0585 16.5796 47.1143C16.5379 47.1702 16.492 47.2378 16.4397 47.3166L15.0038 49.5286L15.4617 49.826C15.4617 49.826 15.4685 49.8121 15.4815 49.7874C15.4944 49.7627 15.5134 49.7285 15.5367 49.6858C15.56 49.643 15.5864 49.5975 15.6164 49.5463C15.6464 49.4951 15.6785 49.4426 15.7122 49.3898L17.5167 46.611L17.0668 46.3511L15.1267 47.2049C15.0831 47.2241 15.0394 47.245 14.9947 47.2676C14.9501 47.2903 14.9083 47.3114 14.87 47.3305C14.8317 47.3496 14.8018 47.3678 14.7785 47.3806C14.7553 47.3934 14.7428 47.3993 14.7423 47.4001L14.7286 47.3911C14.7286 47.3911 14.7307 47.3699 14.7326 47.3305C14.7345 47.2911 14.7375 47.2402 14.7403 47.1766C14.743 47.1129 14.7447 47.044 14.7446 46.9692L14.7237 44.7983L14.3009 44.556L14.2739 44.6074C14.2562 44.6393 14.2321 44.6833 14.2031 44.7364C14.1741 44.7895 14.1407 44.8473 14.1037 44.9092C14.0667 44.9711 14.0308 45.0316 13.992 45.0904L12.265 47.7509L12.6685 48.0128C12.6685 48.0128 12.6752 47.999 12.6883 47.9741C12.7014 47.9492 12.718 47.9182 12.7395 47.8784C12.761 47.8385 12.7848 47.7972 12.811 47.7518C12.8371 47.7065 12.8631 47.6633 12.8907 47.6217L14.0182 45.8856C14.0661 45.8109 14.1099 45.741 14.1458 45.6782C14.1817 45.6153 14.2114 45.5639 14.232 45.5258L14.2639 45.4661L14.2798 45.4705C14.2798 45.4705 14.277 45.4945 14.2725 45.5378C14.268 45.581 14.2632 45.6381 14.2591 45.7074C14.2549 45.7766 14.2554 45.8521 14.2569 45.9325L14.2784 47.9637L14.3422 48.0049L14.3424 48.005ZM23.182 48.733L22.6862 48.6189C22.6862 48.6189 22.6832 48.6358 22.6782 48.6668C22.6733 48.6977 22.6639 48.7395 22.6537 48.7919C22.6434 48.8442 22.6304 48.9023 22.6157 48.9674C22.601 49.0325 22.583 49.0975 22.5638 49.1642L22.0469 50.967C22.01 51.1016 21.9521 51.2295 21.8754 51.3461C21.8062 51.4506 21.7165 51.5399 21.6117 51.6087C21.5074 51.6759 21.3889 51.7179 21.2655 51.7315C21.1238 51.7459 20.9806 51.732 20.8443 51.6905C20.7002 51.652 20.5648 51.5862 20.4455 51.4967C20.345 51.4199 20.264 51.3205 20.2091 51.2066C20.1559 51.093 20.1271 50.9696 20.1247 50.8442C20.122 50.7047 20.141 50.5657 20.181 50.4321L20.8589 48.0682L20.311 47.9391C20.311 47.9401 20.308 47.956 20.303 47.987C20.2981 48.018 20.2888 48.0598 20.2785 48.1121C20.2681 48.1644 20.2552 48.2226 20.2397 48.2866C20.2242 48.3506 20.2078 48.4171 20.1888 48.4838L19.6733 50.2815C19.6149 50.4747 19.5902 50.6765 19.6006 50.8781C19.6099 51.0571 19.6583 51.2319 19.7424 51.3901C19.8278 51.5487 19.9477 51.6859 20.0934 51.7918C20.2626 51.9134 20.4523 52.0037 20.6534 52.0582C20.8724 52.1249 21.1017 52.1512 21.3301 52.1359C21.5147 52.1236 21.6941 52.07 21.8552 51.9792C22.0163 51.8884 22.1551 51.7627 22.2612 51.6112C22.3701 51.4552 22.4518 51.2819 22.5029 51.0986L23.1808 48.7346L23.182 48.733ZM26.6367 53.0648L27.0834 53.0488L27.416 49.2475L26.9237 49.2316C26.9237 49.2325 26.9237 49.2488 26.9248 49.2794C26.9259 49.31 26.9248 49.3536 26.9248 49.407C26.9248 49.4605 26.9232 49.52 26.921 49.5857C26.9187 49.6515 26.9136 49.7199 26.9077 49.789L26.7302 51.8189C26.7254 51.8737 26.7231 51.9295 26.7227 51.9874C26.7222 52.0453 26.7227 52.0991 26.7227 52.1493C26.7227 52.1996 26.7255 52.239 26.7274 52.27C26.7294 52.3009 26.7297 52.3178 26.7295 52.3178L26.7136 52.3216C26.7136 52.3216 26.7077 52.3057 26.6967 52.2778C26.6856 52.2499 26.6697 52.212 26.6502 52.1669C26.6308 52.1217 26.6087 52.0729 26.5842 52.0219C26.5596 51.9708 26.535 51.9218 26.5086 51.8751L24.9291 49.0296L24.4529 49.0151C24.4529 49.0151 24.4529 49.0323 24.4542 49.0629C24.4555 49.0936 24.4542 49.1371 24.4542 49.1906C24.4542 49.244 24.4524 49.3033 24.4494 49.3692C24.4464 49.4351 24.4432 49.5034 24.4371 49.5725L24.1554 52.7923L24.6399 52.8347C24.6399 52.8347 24.6399 52.8188 24.6399 52.7912C24.6399 52.7636 24.6399 52.7243 24.641 52.6757C24.6421 52.627 24.6436 52.5745 24.646 52.515C24.6483 52.4555 24.652 52.3944 24.6574 52.3317L24.8366 50.2545C24.8398 50.2177 24.8411 50.1736 24.8411 50.1219C24.8411 50.0702 24.8411 50.0171 24.8411 49.9654C24.8411 49.9137 24.8385 49.8711 24.8369 49.8367C24.8353 49.8022 24.8353 49.7832 24.8353 49.7823L24.8513 49.7837C24.8513 49.7847 24.8588 49.8016 24.8731 49.8344C24.8875 49.8673 24.9039 49.9067 24.9251 49.9539C24.9464 50.0012 24.9682 50.0497 24.9912 50.0975C25.0142 50.1454 25.034 50.1862 25.052 50.2186L26.6368 53.0646L26.6367 53.0648ZM29.2507 53.0206L29.8052 52.9727C29.8052 52.9718 29.8021 52.9576 29.797 52.93C29.7918 52.9024 29.7858 52.8641 29.778 52.8159C29.7702 52.7677 29.763 52.716 29.755 52.6564C29.747 52.5967 29.74 52.5364 29.7344 52.4737L29.4457 49.173L28.8881 49.2489C28.8881 49.2489 28.8914 49.2659 28.8976 49.2968C28.9039 49.3278 28.9102 49.3699 28.9195 49.4224C28.9287 49.4749 28.9374 49.534 28.9458 49.5991C28.9543 49.6642 28.9629 49.7323 28.969 49.8016L29.2507 53.0214V53.0206ZM33.0065 51.486C32.9963 51.5658 32.988 51.6411 32.9836 51.7125C32.9791 51.784 32.9749 51.8473 32.9737 51.9025C32.9724 51.9577 32.9727 52.001 32.9726 52.033C32.9724 52.0651 32.9735 52.0809 32.9737 52.0809L32.9524 52.085C32.9524 52.0833 32.9406 52.0579 32.9191 52.008C32.8976 51.9581 32.8655 51.8926 32.8234 51.8118C32.7813 51.7309 32.7334 51.6411 32.676 51.5439L31.1873 49.0693L30.647 49.2073C30.6479 49.2073 30.6644 49.2306 30.6971 49.2756C30.7298 49.3206 30.7754 49.3861 30.8324 49.4715C30.8893 49.5569 30.9544 49.6606 31.0287 49.7829L32.776 52.6533L33.242 52.5297L33.7031 49.577C33.7227 49.4509 33.7391 49.3322 33.7533 49.2212C33.7675 49.1101 33.7758 49.002 33.7811 48.8964C33.7864 48.7908 33.7848 48.6847 33.7785 48.5773L33.317 48.667C33.3208 48.7534 33.3223 48.8413 33.3192 48.9291C33.3162 49.0168 33.312 49.1093 33.3033 49.2055C33.2945 49.3018 33.2827 49.4069 33.2677 49.519L33.0059 51.486H33.0065ZM36.163 51.7795L38.2777 50.9246L38.1408 50.5136C38.1408 50.5147 38.1089 50.5324 38.0451 50.5682C37.9812 50.6039 37.8855 50.6479 37.7579 50.7036L36.5111 51.2248L36.013 49.9921L37.4024 49.4774L37.2533 49.0363L35.8653 49.6266L35.3774 48.4187L36.5212 47.9742C36.5827 47.9513 36.6427 47.9289 36.7008 47.9093C36.7589 47.8897 36.8125 47.8718 36.8603 47.8562C36.9082 47.8405 36.9465 47.8292 36.975 47.8206L37.0184 47.8078L36.8836 47.402L34.7139 48.2786C34.7139 48.2794 34.7216 48.293 34.7367 48.3208L34.7934 48.4324C34.8171 48.4792 34.8427 48.5329 34.8695 48.592C34.8963 48.651 34.9245 48.7135 34.9508 48.7786L36.1633 51.7797L36.163 51.7795ZM39.9772 50.0884L40.4593 49.81C40.4593 49.81 40.4501 49.7978 40.4338 49.7749C40.4175 49.7521 40.3958 49.7199 40.3684 49.6792C40.341 49.6385 40.3124 49.595 40.2803 49.5447C40.2483 49.4945 40.2165 49.4425 40.1846 49.3881L39.6846 48.5221L40.2933 48.1711L41.8068 49.0634L42.3223 48.7346C42.321 48.7346 42.2986 48.7244 42.2548 48.706C42.2109 48.6877 42.1557 48.6623 42.0881 48.6296C42.0204 48.5969 41.9481 48.5605 41.8735 48.5194L40.6275 47.8098C40.7276 47.7063 40.8066 47.5843 40.8601 47.4506C40.9127 47.3152 40.9332 47.1695 40.9201 47.0248C40.9038 46.8593 40.8509 46.6994 40.7653 46.5567C40.6657 46.3757 40.5158 46.2274 40.3336 46.1298C40.1455 46.0364 39.9336 46.0015 39.7255 46.0296C39.4598 46.067 39.2045 46.1586 38.9756 46.2986L38.0581 46.8283L38.0867 46.8669L38.1583 46.9692C38.1883 47.0121 38.2212 47.0618 38.256 47.1166C38.2907 47.1713 38.3273 47.2294 38.3619 47.2895L39.978 50.0886L39.9772 50.0884ZM39.1039 46.6732C39.2637 46.5738 39.4422 46.5083 39.6283 46.4806C39.7659 46.4612 39.9062 46.4868 40.0281 46.5536C40.1445 46.628 40.2412 46.7294 40.3101 46.8493C40.3789 46.9691 40.4178 47.1037 40.4234 47.2418C40.4239 47.3734 40.385 47.5022 40.3118 47.6116C40.2244 47.7394 40.1081 47.8448 39.9723 47.919L39.4948 48.1946L38.7381 46.8841L39.1033 46.6732H39.1039ZM42.2508 44.4359C42.3179 44.3769 42.3882 44.3217 42.4614 44.2704C42.5292 44.2235 42.5948 44.1808 42.6595 44.1412C42.7243 44.1016 42.7872 44.0614 42.851 44.0219C42.9148 43.9823 42.9802 43.9359 43.0469 43.8861L42.8203 43.5102C42.7465 43.5625 42.6768 43.6094 42.6113 43.6514C42.5459 43.6934 42.4804 43.7329 42.417 43.7725C42.3537 43.8121 42.2894 43.8548 42.224 43.902C42.1586 43.9493 42.0879 44.0037 42.0152 44.0668C41.8349 44.2169 41.6888 44.4037 41.5866 44.6149C41.502 44.7896 41.4688 44.9848 41.4909 45.1777C41.5171 45.3686 41.6 45.5472 41.7289 45.6905C41.8172 45.795 41.925 45.8813 42.0464 45.9444C42.1549 45.998 42.2729 46.0297 42.3936 46.0376C42.5171 46.0447 42.641 46.0342 42.7616 46.0065C42.8924 45.9767 43.0204 45.9361 43.1445 45.8853C43.2722 45.8336 43.3927 45.7896 43.5062 45.7535C43.6091 45.7194 43.7154 45.6966 43.8232 45.6855C43.9152 45.6758 44.0083 45.6855 44.0963 45.7142C44.1853 45.7473 44.2642 45.803 44.3251 45.8758C44.408 45.9656 44.4556 46.0823 44.4593 46.2045C44.4569 46.3321 44.4186 46.4565 44.3487 46.5633C44.2605 46.7019 44.1514 46.8261 44.0253 46.9315C43.9341 47.0105 43.8387 47.0845 43.7396 47.1534C43.6483 47.2172 43.5662 47.2697 43.493 47.3118C43.4197 47.354 43.3621 47.3851 43.3197 47.4063C43.2773 47.4275 43.2559 47.4369 43.2544 47.4369L43.5274 47.7509C43.5471 47.7446 43.5664 47.737 43.5852 47.7282C43.6233 47.7123 43.6769 47.6868 43.7465 47.6501C43.8313 47.6034 43.9137 47.5525 43.9934 47.4975C44.1015 47.4216 44.2056 47.3403 44.3055 47.2538C44.5107 47.0833 44.6822 46.8759 44.8111 46.6423C44.9119 46.4587 44.9559 46.2493 44.9374 46.0406C44.9127 45.8356 44.8246 45.6435 44.6853 45.491C44.593 45.3795 44.4769 45.29 44.3455 45.2291C44.23 45.1785 44.1046 45.1542 43.9786 45.1581C43.8434 45.1629 43.7095 45.1847 43.5797 45.2229C43.4411 45.2623 43.2972 45.3109 43.1463 45.3682C43.0053 45.4227 42.8597 45.4642 42.7112 45.4921C42.5953 45.5157 42.4756 45.5123 42.3612 45.4824C42.2504 45.4488 42.1521 45.3831 42.0788 45.2935C42.0111 45.2194 41.9677 45.1263 41.9544 45.0268C41.9433 44.9256 41.9624 44.8235 42.0094 44.7332C42.0687 44.6188 42.1505 44.5177 42.25 44.4359H42.2508ZM46.7067 44.933L47.0862 44.5258C47.0862 44.5258 47.0738 44.5167 47.0516 44.4997C47.0294 44.4826 46.9991 44.4582 46.9611 44.4277C46.9232 44.3972 46.883 44.3639 46.8377 44.3248C46.7923 44.2857 46.7462 44.245 46.7001 44.2029L44.2771 41.9426L43.9135 42.3721C43.9135 42.3721 43.9272 42.3824 43.9521 42.4008L44.0523 42.4794C44.0944 42.5125 44.1402 42.5503 44.1901 42.5932C44.2401 42.6361 44.2921 42.6808 44.3428 42.728L46.7067 44.9323V44.933ZM48.8593 42.2556L49.1784 41.7996C49.1784 41.7996 49.1648 41.7923 49.1404 41.7786C49.116 41.7649 49.0827 41.7446 49.0409 41.7197C48.9991 41.6948 48.9546 41.6671 48.9043 41.6352C48.8541 41.6033 48.8028 41.5696 48.7512 41.5334L46.378 39.8718L46.8267 39.2687C46.87 39.21 46.9133 39.1545 46.9543 39.1044C46.9953 39.0543 47.0305 39.0128 47.058 38.9814C47.0854 38.95 47.0993 38.9336 47.1006 38.9336L46.7544 38.6647L45.0749 41.0635L45.4198 41.3249C45.4198 41.3249 45.4285 41.3078 45.4457 41.277C45.4629 41.2462 45.4889 41.2027 45.5218 41.1478C45.5547 41.0929 45.595 41.0307 45.6426 40.9595L46.0744 40.3054L48.8593 42.2554V42.2556ZM50.9893 38.6962L51.2157 38.1876L51.1744 38.1742C51.1469 38.1649 51.1106 38.152 51.0654 38.1354C51.0203 38.1188 50.9706 38.1003 50.9153 38.0784C50.8599 38.0566 50.8036 38.0334 50.7455 38.0079L49.8271 37.5989L48.8649 36.2653C48.7515 36.1014 48.6494 35.9633 48.5581 35.8537C48.4669 35.7441 48.3954 35.661 48.3421 35.6056C48.2888 35.5502 48.2623 35.5225 48.2606 35.523L48.0473 36.0016C48.0494 36.0016 48.0919 36.043 48.176 36.1292C48.2601 36.2153 48.3742 36.3466 48.5184 36.5252L49.3925 37.6183L47.2182 37.7981L46.9966 38.3621C46.9977 38.3621 47.0138 38.3589 47.047 38.353C47.0802 38.3471 47.1242 38.341 47.1795 38.3321C47.2349 38.3232 47.2981 38.3139 47.3662 38.3048C47.4343 38.2957 47.5056 38.2861 47.5782 38.278L49.6166 38.085L50.9887 38.6962H50.9893Z" fill="#0C1219"/>
<path fill-rule="evenodd" clip-rule="evenodd" d="M5.05722 32.6924C5.15034 32.6924 5.24136 32.72 5.31878 32.7717C5.3962 32.8235 5.45655 32.897 5.49218 32.983C5.52781 33.069 5.53714 33.1637 5.51897 33.255C5.50081 33.3464 5.45597 33.4302 5.39012 33.4961C5.32428 33.5619 5.24039 33.6068 5.14907 33.6249C5.05774 33.6431 4.96308 33.6338 4.87706 33.5981C4.79103 33.5625 4.7175 33.5022 4.66577 33.4247C4.61404 33.3473 4.58643 33.2563 4.58643 33.1632C4.58643 33.0383 4.63603 32.9186 4.72432 32.8303C4.81261 32.742 4.93236 32.6924 5.05722 32.6924Z" fill="#0C1219"/>
<path fill-rule="evenodd" clip-rule="evenodd" d="M50.9574 32.6924C51.0506 32.6924 51.1416 32.7199 51.2191 32.7716C51.2965 32.8234 51.3569 32.8969 51.3925 32.9829C51.4282 33.0689 51.4375 33.1636 51.4194 33.2549C51.4012 33.3463 51.3564 33.4302 51.2906 33.496C51.2247 33.5619 51.1408 33.6067 51.0495 33.6249C50.9582 33.6431 50.8635 33.6338 50.7775 33.5982C50.6914 33.5625 50.6179 33.5022 50.5662 33.4248C50.5144 33.3473 50.4868 33.2563 50.4868 33.1632C50.4868 33.0383 50.5364 32.9186 50.6246 32.8303C50.7129 32.742 50.8326 32.6924 50.9574 32.6924Z" fill="#0C1219"/>
<path d="M28.3646 12.8812V13.2289H30.1863V12.8812H29.6018V9.51147H29.5177L28.2275 9.8063L28.254 10.0853L29.0859 10.0116V12.8812H28.3646Z" fill="#0C1219"/>
<path d="M32.8947 9.83249L32.8421 9.43237C32.4362 9.47032 32.0428 9.59293 31.6872 9.79229C31.3772 9.9737 31.128 10.243 30.9712 10.5662C30.7969 10.9486 30.7128 11.366 30.7254 11.786C30.7241 11.9862 30.7521 12.1855 30.8086 12.3776C30.8591 12.549 30.9406 12.7096 31.0492 12.8514C31.1515 12.9842 31.2824 13.0921 31.4321 13.1673C31.5912 13.2443 31.7659 13.2834 31.9426 13.2814C32.125 13.2844 32.3062 13.2507 32.4753 13.1823C32.6212 13.1222 32.752 13.0305 32.8582 12.9138C32.9604 12.7999 33.0384 12.6665 33.0873 12.5215C33.1397 12.3696 33.1658 12.2099 33.1645 12.0493C33.1661 11.8919 33.1391 11.7356 33.0848 11.5879C33.0365 11.4602 32.9628 11.3437 32.8679 11.2455C32.7773 11.1533 32.6687 11.0807 32.5489 11.0322C32.4245 10.9832 32.292 10.9585 32.1583 10.9595C32.029 10.959 31.9002 10.9761 31.7754 11.0104C31.6613 11.0422 31.553 11.092 31.4544 11.1578C31.3622 11.2194 31.2831 11.2988 31.2217 11.3912C31.2398 11.1909 31.2889 10.9946 31.3673 10.8093C31.4336 10.6547 31.5263 10.5127 31.6413 10.3898C31.749 10.2766 31.8736 10.1807 32.0106 10.1056C32.147 10.0316 32.2909 9.97249 32.4399 9.92917C32.5895 9.88624 32.742 9.85393 32.8962 9.83249H32.8947ZM31.3097 12.1442C31.3091 12.0434 31.3239 11.943 31.3536 11.8467C31.3808 11.7572 31.4253 11.674 31.4846 11.6018C31.5447 11.5304 31.6203 11.4737 31.7057 11.436C31.8038 11.3942 31.9096 11.3734 32.0162 11.3751C32.1372 11.3723 32.2564 11.4049 32.3592 11.4689C32.4551 11.5316 32.5305 11.621 32.5761 11.726C32.6292 11.8462 32.6552 11.9764 32.6524 12.1077C32.6561 12.2483 32.6317 12.3883 32.5806 12.5194C32.5364 12.6321 32.4578 12.7279 32.356 12.7932C32.2388 12.8626 32.1041 12.897 31.968 12.8923C31.8698 12.8936 31.7727 12.8707 31.6855 12.8256C31.6049 12.7837 31.5345 12.7247 31.4792 12.6528C31.423 12.5809 31.3802 12.4994 31.3528 12.4124C31.3243 12.326 31.3097 12.2356 31.3097 12.1447V12.1442Z" fill="#0C1219"/>
<path d="M22.9884 12.8812V13.2289H24.8104V12.8812H24.2258V9.51147H24.1416L22.8516 9.8063L22.878 10.0853L23.7099 10.0116V12.8812H22.9884Z" fill="#0C1219"/>
<path d="M25.5653 12.9183L25.6181 13.3184C26.024 13.2805 26.4173 13.1579 26.7728 12.9585C27.0829 12.7771 27.332 12.5077 27.4888 12.1846C27.6632 11.8022 27.7473 11.3848 27.7347 10.9648C27.7364 10.7645 27.7084 10.5652 27.6514 10.3732C27.6009 10.2018 27.5194 10.0412 27.411 9.89921C27.3087 9.76658 27.1778 9.65867 27.0281 9.58348C26.8691 9.50634 26.6943 9.46729 26.5176 9.46941C26.3352 9.46651 26.154 9.5002 25.9849 9.56848C25.8395 9.62845 25.7091 9.71981 25.6031 9.83603C25.5005 9.95018 25.4223 10.084 25.3732 10.2294C25.3208 10.3813 25.2947 10.5409 25.296 10.7015C25.294 10.8589 25.3211 11.0153 25.3758 11.1629C25.4234 11.2907 25.4969 11.4073 25.5918 11.5053C25.6823 11.5974 25.7909 11.6697 25.9109 11.7176C26.0351 11.7674 26.1678 11.7925 26.3016 11.7915C26.4309 11.7919 26.5597 11.7748 26.6845 11.7406C26.7981 11.7089 26.9058 11.659 27.0035 11.593C27.0948 11.5314 27.1728 11.4521 27.2326 11.3596C27.2156 11.5602 27.1672 11.7568 27.089 11.9422C27.0237 12.0972 26.9316 12.2395 26.817 12.3626C26.7095 12.4758 26.5852 12.5718 26.4485 12.6471C26.3124 12.7217 26.1684 12.7809 26.0192 12.8235C25.8696 12.8662 25.7171 12.8979 25.5629 12.9183H25.5653ZM27.1503 10.6171C27.1514 10.716 27.1366 10.8144 27.1066 10.9086C27.0791 10.9968 27.0347 11.0787 26.9758 11.1498C26.916 11.221 26.8406 11.2774 26.7554 11.3148C26.6572 11.3562 26.5515 11.3769 26.4448 11.3756C26.3249 11.3797 26.2067 11.3466 26.1063 11.2809C26.0059 11.2153 25.9283 11.1201 25.8841 11.0086C25.8307 10.8812 25.8047 10.744 25.8076 10.606C25.8049 10.4731 25.8313 10.3413 25.885 10.2197C25.9334 10.1111 26.0127 10.0192 26.1131 9.95552C26.2278 9.88805 26.3592 9.85432 26.4922 9.8582C26.5913 9.85681 26.6893 9.87971 26.7775 9.92489C26.8581 9.96692 26.9286 10.0262 26.9837 10.0985C27.039 10.1721 27.0811 10.2547 27.1082 10.3427C27.1363 10.4315 27.1505 10.524 27.1503 10.6171Z" fill="#0C1219"/>
<path d="M14.9318 14.1643H41.3353V32.4939C41.3231 36.0206 39.9135 39.3987 37.4155 41.8882C34.9174 44.3776 31.5344 45.7754 28.0077 45.7754C24.481 45.7754 21.0981 44.3776 18.6 41.8882C16.1019 39.3987 14.6924 36.0206 14.6802 32.4939V14.1643H14.9318ZM28.0072 14.6683H15.1837V32.4939C15.1837 35.8949 16.5347 39.1566 18.9396 41.5615C21.3445 43.9664 24.6062 45.3174 28.0072 45.3174C31.4082 45.3174 34.6699 43.9664 37.0747 41.5615C39.4796 39.1566 40.8306 35.8949 40.8306 32.4939V14.6683H28.0072Z" fill="#0C1219"/>
<path d="M33.5906 34.4971L33.5964 34.4985L33.7625 34.5424V42.2383L33.4955 42.1841C31.598 41.7982 29.748 42.0943 28.0074 42.8541C26.2685 42.0931 24.4145 41.7988 22.5193 42.1841L22.2524 42.2383V34.5424L22.4187 34.4985L22.4243 34.4971H22.4252C22.6932 34.4284 22.9654 34.3771 23.24 34.3434C23.5323 34.3073 23.8263 34.286 24.1208 34.2796C25.5869 34.2445 27.1724 34.5451 28.0078 35.0875C28.8433 34.5451 30.4284 34.2445 31.8946 34.2796C32.1891 34.286 32.4831 34.3073 32.7754 34.3434C33.05 34.3771 33.3222 34.4284 33.5902 34.4971H33.5906ZM23.3237 36.1773C23.5827 36.1473 23.8512 36.1295 24.1214 36.1224C25.1682 36.0884 26.213 36.2359 27.2094 36.5585V36.8707C26.3886 36.5564 25.228 36.3921 24.1284 36.4177C23.8536 36.4243 23.5825 36.443 23.3229 36.4742V36.1773H23.3237ZM23.3237 37.4157C23.5827 37.3857 23.8512 37.3678 24.1214 37.3608C25.1682 37.3269 26.213 37.4744 27.2094 37.7969V38.109C26.3886 37.7946 25.228 37.6304 24.1284 37.6561C23.8536 37.6626 23.5825 37.6813 23.3229 37.7126V37.4157H23.3237ZM23.3237 38.6541C23.5827 38.6242 23.8512 38.6063 24.1214 38.5993C25.1682 38.5653 26.213 38.7127 27.2094 39.0351V39.3473C26.3886 39.0329 25.228 38.8687 24.1284 38.8946C23.8536 38.9011 23.5825 38.9198 23.3229 38.951V38.6541H23.3237ZM23.3237 39.8923C23.5827 39.8623 23.8512 39.8445 24.1214 39.8374C25.1682 39.8035 26.213 39.951 27.2094 40.2736V40.5863C26.3886 40.2719 25.228 40.1077 24.1284 40.1334C23.8536 40.1399 23.5825 40.1586 23.3229 40.1899V39.8923H23.3237ZM27.7855 42.2753V35.4723C27.0376 34.968 25.5351 34.689 24.1308 34.7225C23.8515 34.7286 23.5727 34.7489 23.2955 34.7831C23.0881 34.8093 22.8879 34.8437 22.6974 34.887V41.6992C24.414 41.4123 26.1766 41.612 27.7855 42.2755V42.2753ZM32.6907 36.4747C32.4311 36.4428 32.1602 36.4243 31.8855 36.4177C30.786 36.3914 29.625 36.5564 28.8043 36.8708V36.5585C29.8008 36.2359 30.8457 36.0884 31.8925 36.1224C32.1637 36.1288 32.4319 36.1473 32.6902 36.1773V36.4747H32.6907ZM32.6907 37.713C32.4311 37.6811 32.1602 37.6626 31.8855 37.6561C30.786 37.6298 29.625 37.7946 28.8043 38.1092V37.7969C29.8008 37.4744 30.8457 37.3269 31.8925 37.3608C32.1637 37.3672 32.4319 37.3857 32.6902 37.4157V37.713H32.6907ZM32.6907 38.9515C32.4311 38.9196 32.1602 38.9011 31.8855 38.8946C30.786 38.8682 29.625 39.033 28.8043 39.3475V39.0351C29.8009 38.7127 30.8457 38.5653 31.8925 38.5993C32.1637 38.6056 32.4317 38.6242 32.6902 38.654V38.9515H32.6907ZM32.6907 40.1897C32.4311 40.1578 32.1602 40.1393 31.8855 40.1327C30.786 40.1064 29.625 40.2712 28.8043 40.5858V40.2736C29.8008 39.951 30.8457 39.8035 31.8925 39.8374C32.1637 39.8438 32.4319 39.8623 32.6902 39.8923V40.1897H32.6907ZM33.3173 34.8868C33.1272 34.8436 32.9265 34.8093 32.7192 34.7833C32.4419 34.749 32.1631 34.7288 31.8837 34.7227C30.4798 34.689 28.977 34.9683 28.229 35.4725V42.2755C29.838 41.612 31.6007 41.4122 33.3173 41.6989V34.8867V34.8868Z" fill="#0C1219"/>
<path d="M14.9277 32.2681H41.0871V32.717H14.9277V32.2681Z" fill="#0C1219"/>
<path d="M35.8571 24.8514L37.979 28.9861L38.0034 29.034V32.0858H37.781C37.6803 32.0858 37.5793 32.0858 37.4164 32.0824C36.188 32.0579 35.083 31.8063 35.0532 29.2058L33.5872 28.209L33.5419 28.2409C33.2612 28.4334 32.9591 28.5926 32.6416 28.7154C32.37 28.8198 32.0874 28.8931 31.7993 28.934L31.4802 30.5399H31.5408C32.0825 30.5703 32.3833 30.8074 32.5521 31.1753C32.7152 31.5304 32.733 31.9906 32.733 32.4955V32.7188H29.5619V32.7176H28.5315V31.9837V31.7674L28.5278 30.5767H27.6625V30.5756V30.3532V30.3515V30.3454V30.3294V30.3085V30.3076V30.2977V30.2872V30.2846V30.2667V30.2644L27.6653 30.2222V30.2151L27.6668 30.201V30.1926V30.1905V30.1801V30.1779L27.6712 30.1391V30.1382L27.6728 30.1276V30.1252L27.6739 30.1173L27.6754 30.1067L27.6783 30.0877V30.0862V30.0809L27.6792 30.0756L27.6811 30.0651C27.6846 30.0447 27.6883 30.0244 27.6926 30.0041L27.6945 29.9943L27.6969 29.9847L27.6988 29.9748V29.9724L27.7007 29.9644L27.7031 29.9545L27.7041 29.9509L27.7055 29.9446L27.7106 29.9247L27.7132 29.9148L27.7149 29.9083V29.9048L27.7263 29.8658L27.7384 29.8267V29.8247C27.7516 29.7837 27.7665 29.7436 27.7828 29.7039C27.8095 29.6389 27.8403 29.5757 27.8751 29.5147C27.9657 29.356 28.0811 29.2129 28.2169 29.0906C28.2661 29.0465 28.3178 29.0052 28.3718 28.967H25.934C25.7091 29.1752 25.4471 29.3392 25.1615 29.4506H25.1606C25.099 29.4737 25.04 29.4928 24.9851 29.5078V30.5356H24.9985C25.6173 30.5356 25.9508 30.7801 26.1312 31.1752C26.2943 31.5303 26.312 31.9904 26.312 32.4953V32.7177H26.0886H23.0745H22.8511H19.0961H18.8727V30.5753H18.0039V30.3519C18.0036 30.1165 18.0526 29.8836 18.1475 29.6682C18.2424 29.4528 18.3813 29.2595 18.5552 29.1008C18.6114 29.0492 18.6708 29.0012 18.7331 28.9573H18.0029V28.7339C18.0042 28.4532 18.0745 28.1771 18.2075 27.9299C18.3406 27.6827 18.5324 27.4721 18.766 27.3164C18.8005 27.2936 18.8364 27.2716 18.8727 27.2512V26.2967H18.4715L18.4118 26.165C18.1436 25.5561 18.0077 24.8971 18.013 24.2318C18.0143 23.2863 18.2625 22.3576 18.7331 21.5376C19.2248 20.6724 19.9769 19.9843 20.8823 19.5712C21.5615 19.2706 22.2973 19.1193 23.04 19.1275H28.396H29.0784C29.3109 18.7903 29.6045 18.4996 29.9438 18.2703C30.011 18.225 30.0862 18.1792 30.1685 18.1326C30.3259 18.0446 30.4903 17.9698 30.6602 17.9091C30.5835 17.7622 30.5392 17.6006 30.5302 17.4351C30.5212 17.2696 30.5478 17.1042 30.608 16.9498C30.6827 16.7719 30.8085 16.6202 30.9695 16.5138C31.1309 16.4079 31.319 16.3499 31.5119 16.3464C31.8948 16.3383 32.3192 16.5363 32.6278 17.0269H35.4112C35.7199 16.536 36.143 16.3381 36.5267 16.3464C36.7197 16.3499 36.9077 16.4079 37.0691 16.5138C37.2301 16.6202 37.356 16.7719 37.4308 16.9498C37.5731 17.2863 37.5425 17.7315 37.2074 18.2004C38.5954 20.8287 37.7106 22.2527 36.0417 23.6247L36.0407 23.6619C36.0228 24.0637 35.9616 24.4625 35.8582 24.8512L35.8571 24.8514ZM25.5144 31.4684V32.272H25.874C25.8872 31.9616 25.8403 31.6517 25.736 31.3591C25.6292 31.1257 25.417 30.9813 25.0076 30.9813H24.5475V29.1363L24.7367 29.1064H24.7405C24.7823 29.0997 24.828 29.0897 24.8768 29.0768C24.9256 29.0638 24.9717 29.0485 25.0141 29.0329C25.0663 29.0133 25.1174 28.9911 25.1673 28.9664H23.5012C23.2764 29.1747 23.0142 29.3388 22.7284 29.4499C22.6678 29.4727 22.6077 29.4924 22.5493 29.508C22.5303 29.5131 22.5111 29.5174 22.4912 29.522L22.086 30.5609C22.2642 30.5825 22.4336 30.6506 22.5771 30.7585C22.7206 30.8664 22.8331 31.0102 22.9033 31.1755C23.0362 31.5254 23.0974 31.8985 23.0831 32.2726H24.7083V31.4692H24.9317V32.2726H25.2911V31.4692L25.5144 31.4684ZM22.2337 31.4684V32.272H22.5931H22.6362C22.6494 31.9618 22.6026 31.652 22.4984 31.3596C22.3912 31.1259 22.1793 30.981 21.7699 30.981H21.4442L21.5622 30.6779L22.1206 29.2459L22.1685 29.1251L22.2602 29.1111C22.7621 28.9713 23.2046 28.6713 23.5203 28.2568C23.836 27.8423 24.0075 27.336 24.0089 26.815V26.8121C24.0087 26.3516 23.8754 25.901 23.6249 25.5146C23.5766 25.4397 23.5241 25.3676 23.4676 25.2986C23.4237 25.2453 23.3773 25.1922 23.327 25.1411H23.9082C23.9401 25.184 23.97 25.2279 23.9982 25.2719C24.2955 25.7306 24.4537 26.2655 24.4537 26.8121H24.4546V26.815H24.4537C24.4538 27.0647 24.4208 27.3133 24.3557 27.5543C24.3141 27.7075 24.2595 27.857 24.1925 28.001C24.1073 28.1846 24.0027 28.3586 23.8806 28.5201H27.6768C27.7043 28.3 27.7748 28.0875 27.8842 27.8946C28.0375 27.6253 28.2614 27.403 28.5316 27.2515L28.5176 25.1405H28.9624L28.9772 27.3873L28.9782 27.5324L28.8462 27.5919C28.6041 27.7011 28.4027 27.8841 28.2709 28.1147V28.1159C28.2453 28.1606 28.2225 28.2069 28.2027 28.2545C28.1687 28.3373 28.1434 28.4235 28.1274 28.5115H28.9778V29.1506L28.8569 29.2052L28.8462 29.21L28.8392 29.2133H28.8376L28.8075 29.2277L28.8044 29.2291L28.8019 29.2301L28.799 29.2315L28.7961 29.2329L28.7931 29.2344L28.7799 29.2412L28.7689 29.247L28.758 29.2529L28.7472 29.2588L28.7448 29.2602L28.7422 29.2618L28.7392 29.2633L28.7368 29.2649L28.7287 29.2695L28.7263 29.2709L28.7239 29.2723L28.7213 29.2739L28.7183 29.2757L28.7159 29.2771L28.7081 29.2821L28.7055 29.2835L28.7031 29.2848L28.6975 29.2883L28.6951 29.2899L28.6928 29.2913L28.6902 29.2928L28.6873 29.2948L28.6848 29.2963L28.6825 29.298L28.68 29.2995L28.677 29.3014L28.6746 29.303L28.6704 29.3059L28.6674 29.3078L28.665 29.3092L28.6626 29.311L28.6578 29.3141L28.6554 29.3156L28.6532 29.3173L28.6508 29.3188L28.6482 29.3207L28.6457 29.3223L28.6436 29.3239L28.6411 29.3255L28.6387 29.3274L28.6361 29.3288L28.6171 29.3425H28.6162L28.6147 29.3438L28.6074 29.3494H28.6064L28.605 29.3507L28.5731 29.3757L28.5705 29.3776L28.5546 29.3917L28.552 29.3938L28.5383 29.4057L28.5358 29.4078L28.5144 29.4273C28.4984 29.4413 28.4846 29.4555 28.47 29.4702L28.4686 29.4718V29.4726L28.4541 29.4874L28.4527 29.4888L28.4507 29.4909L28.4389 29.504L28.4372 29.5056L28.4361 29.5067L28.4287 29.5148V29.516L28.4257 29.5192L28.414 29.5324L28.4129 29.5338L28.4056 29.5424V29.5432L28.3984 29.5522L28.3833 29.5713L28.3537 29.6106C28.327 29.6475 28.3024 29.6859 28.2799 29.7256V29.7264V29.7275C28.2672 29.7498 28.2554 29.7722 28.2443 29.7945L28.2433 29.7966L28.2424 29.7985L28.2414 29.8006L28.2395 29.8044L28.2354 29.8133L28.2344 29.8151L28.2334 29.8172L28.2264 29.8331L28.2255 29.8352L28.2244 29.8378V29.8387V29.8397L28.2234 29.8422L28.2224 29.8441L28.2215 29.8467L28.2205 29.8486L28.2197 29.8502L28.2188 29.8521L28.2178 29.8547L28.2167 29.8566L28.2157 29.8591L28.2108 29.8711V29.8728V29.8749L28.2092 29.8788L28.2047 29.8902L28.2033 29.8942V29.8966V29.8977L28.2017 29.9017L28.2003 29.9057L28.1991 29.9084V29.9097L28.1832 29.9564L28.1781 29.9724L28.1771 29.9764L28.1759 29.9804L28.1749 29.9844L28.1733 29.9885L28.1723 29.9925L28.1693 30.0034V30.0041V30.0073L28.1658 30.0195L28.1648 30.0235L28.1639 30.0274V30.029V30.0314L28.1628 30.0357L28.1532 30.0766V30.079V30.0806L28.1522 30.085V30.0866L28.1511 30.0919V30.0932L28.1503 30.0972L28.1494 30.1016V30.1047L28.1483 30.1101L28.1473 30.1141V30.1176H28.9913V30.1185H28.9975V31.9711V32.2603H29.8047H30.5562V31.4575H30.7795V32.2603H31.1388V31.4575H31.3621V32.2603H31.7216V31.4575H31.9449V32.2603H32.3044C32.3176 31.9503 32.2707 31.6406 32.1665 31.3483C32.0595 31.1145 31.8475 30.9697 31.4381 30.9697H30.9564L31.0581 30.4592L31.1764 29.8622H31.1744L31.3569 28.9528L31.4113 28.6784L31.4432 28.5158H31.4441L31.5328 28.0737L31.5558 27.96L31.6611 27.9134C31.8532 27.8287 32.0331 27.7189 32.1962 27.5867C32.2267 27.5623 32.2581 27.5353 32.2905 27.5069C32.3229 27.4785 32.3551 27.4474 32.3822 27.4203L32.3837 27.4192C32.6998 27.103 32.9209 26.7045 33.0218 26.2689C33.0613 26.0961 33.0819 25.9196 33.0832 25.7424V25.6934L33.0781 25.1325H33.5229L33.5279 25.6909V25.7113V25.741C33.5275 25.847 33.5214 25.9528 33.5095 26.0581C33.4974 26.1625 33.4795 26.2661 33.4558 26.3684C33.3365 26.8857 33.0743 27.3591 32.6991 27.7346L32.6978 27.736H32.6968C32.659 27.774 32.6228 27.808 32.589 27.8386C32.5552 27.8692 32.5161 27.9024 32.4762 27.9343C32.3126 28.0665 32.1348 28.1801 31.946 28.2728L31.909 28.457C32.1104 28.4181 32.3079 28.3615 32.4993 28.288C32.7842 28.1779 33.0553 28.035 33.3072 27.8622C34.5374 27.0245 35.4109 25.5081 35.5843 23.9893C35.2483 24.2455 34.8895 24.5028 34.518 24.77L34.167 25.0231L34.037 25.1167L33.9069 25.0231L33.5559 24.77C31.0512 22.969 29.1358 21.5911 30.7741 18.3407C30.647 18.3893 30.5235 18.4471 30.4048 18.5136C30.3444 18.5473 30.2802 18.5872 30.212 18.6333C29.889 18.8513 29.6145 19.1337 29.4057 19.4629L29.3405 19.5658H28.4152V19.5667H23.04C22.3606 19.5585 21.6873 19.6961 21.0656 19.9703C20.2454 20.3452 19.5643 20.9692 19.1192 21.7535C18.688 22.5056 18.4607 23.3574 18.46 24.2244C18.4562 24.7783 18.5591 25.3278 18.7631 25.8428H18.9067V25.133H19.3517V26.154H19.33V27.5232L19.1999 27.5833H19.1982H19.1966C19.1361 27.6105 19.0779 27.6425 19.0225 27.679C18.9672 27.7155 18.9148 27.7562 18.8657 27.8008C18.6638 27.9858 18.5283 28.232 18.4801 28.5016H19.33V29.1398L19.1999 29.1998H19.1982H19.1966C19.0756 29.2546 18.964 29.3279 18.8657 29.4172C18.6638 29.6019 18.528 29.8478 18.4793 30.1171H19.33V32.2599H20.8456V31.4566H21.0689V32.26H21.4282V31.4566H21.6516V32.26H22.0112V31.4566L22.2337 31.4684ZM37.1983 30.836V31.6282C37.2727 31.6327 37.3488 31.6359 37.4246 31.6373C37.4579 31.6373 37.5043 31.6373 37.5581 31.6373V29.1409L35.6658 25.4525C35.3122 26.406 34.7246 27.2554 33.9572 27.9227L35.3989 28.9032L35.4969 28.9695V29.0873C35.4954 30.555 35.8638 31.1785 36.3927 31.4435V30.836H36.616V31.5327C36.7334 31.5682 36.8536 31.5934 36.9753 31.6078V30.836H37.1983ZM32.3471 19.8981H33.5855L33.5553 20.1131C33.525 20.3317 33.4915 20.5182 33.4605 20.6964C33.3446 21.3515 33.2498 21.891 33.5146 22.5225H34.5248C34.7896 21.8912 34.6944 21.3516 34.5786 20.6967C34.5467 20.5182 34.514 20.3317 34.4829 20.1131L34.4529 19.8971H35.691L34.8911 20.277C34.9104 20.396 34.9315 20.5163 34.9517 20.6313C35.0856 21.3886 35.1947 22.0054 34.8187 22.7934L34.7675 22.9009H33.2702L33.2187 22.7934C32.843 22.0052 32.9519 21.3886 33.0859 20.631C33.1064 20.5152 33.1279 20.3955 33.147 20.2763L32.3465 19.8981H32.3471ZM34.017 22.3194L34.4283 22.0163L34.2712 21.7769H33.763L33.6057 22.0163L34.017 22.3194ZM33.7976 24.4183L34.0192 24.5778L34.2408 24.4183C36.6339 22.6978 38.4483 21.3929 36.7465 18.2866L36.6744 18.1546L36.7702 18.038C37.0696 17.6732 37.1157 17.3483 37.0201 17.122C36.979 17.0253 36.9102 16.9429 36.8223 16.8852C36.7317 16.8257 36.6261 16.793 36.5178 16.7911C36.2563 16.7853 35.956 16.9487 35.7349 17.3562L35.6711 17.4731H32.3672L32.3034 17.3562C32.0826 16.9487 31.782 16.7853 31.5207 16.7911C31.4123 16.793 31.3067 16.8256 31.2162 16.8852C31.1284 16.9429 31.0596 17.0253 31.0183 17.122C30.9226 17.3483 30.9687 17.6732 31.2685 18.038L31.3642 18.1546L31.2919 18.2866C29.5902 21.3929 31.4047 22.6978 33.7978 24.4183H33.7976Z" fill="#0C1219"/>
<path fill-rule="evenodd" clip-rule="evenodd" d="M33.585 19.8979C33.5334 20.0194 33.4471 20.1231 33.337 20.1959C33.2269 20.2687 33.0979 20.3076 32.9658 20.3076C32.8338 20.3076 32.7047 20.2687 32.5946 20.1959C32.4846 20.1231 32.3983 20.0194 32.3467 19.8979H33.585Z" fill="#0C1219"/>
<path fill-rule="evenodd" clip-rule="evenodd" d="M35.6915 19.8979C35.6398 20.0194 35.5536 20.1231 35.4435 20.1959C35.3334 20.2687 35.2043 20.3076 35.0723 20.3076C34.9403 20.3076 34.8112 20.2687 34.7011 20.1959C34.591 20.1231 34.5048 20.0194 34.4531 19.8979H35.6915Z" fill="#0C1219"/>
</g>
<defs>
<clipPath id="clip0_43_1877">
<rect width="55" height="55" fill="white" transform="translate(0.507324)"/>
</clipPath>
</defs>
</svg>
