<svg width="84" height="25" viewBox="0 0 84 25" fill="none" xmlns="http://www.w3.org/2000/svg">
<g clip-path="url(#clip0_43_1388)">
<path d="M23.7636 9.6877H23.8693L24.2031 18.0202H27.5686L31.342 9.6877H31.4331L29.743 18.0202H33.3659L35.5104 7.41577H29.5313L27.0404 13.2172H26.9649L26.7693 7.41577H20.775L18.6313 18.0202H22.0736L23.7636 9.6877Z" fill="#0C1219"/>
<path d="M38.7232 16.5042H39.4485L39.1161 18.2022H43.1615L43.4936 16.5042H44.2938C47.9026 16.5042 49.6679 13.9296 49.6679 11.4611C49.6679 8.64292 47.283 8.29443 45.8029 8.29443H45.1693L45.4867 6.70361H41.4413L41.1251 8.29443H40.4897C36.8059 8.29443 34.9331 11.0215 34.9331 13.3546C34.9331 14.9304 35.945 16.5042 38.7232 16.5042ZM44.49 10.7186H44.7163C45.4261 10.7186 45.8184 11.2339 45.8184 11.9156C45.8184 12.8392 45.1842 14.0803 44.0519 14.0803H43.8104L44.49 10.7186ZM40.5801 10.7186H40.8059L40.1272 14.0803H39.8862C39.1612 14.0803 38.7838 13.4744 38.7838 12.8547C38.7838 11.8542 39.5088 10.7186 40.5801 10.7186Z" fill="#0C1219"/>
<path d="M51.9679 18.0202H56.0139L57.5227 10.5522H61.0861L61.7204 7.41577H50.5478L49.9136 10.5522H53.477L51.9679 18.0202Z" fill="#0C1219"/>
<path d="M65.208 18.0202L69.0871 12.0816H69.1471L67.9399 18.0202H71.9864L74.1298 7.41577H69.4051L65.5087 13.4743H65.4481L66.6714 7.41577H62.6252L60.4824 18.0202H65.208Z" fill="#0C1219"/>
<path d="M77.8458 19.0107L77.271 22.0167L83.5075 20.7197L77.8458 19.0107Z" fill="#0C1219"/>
<path d="M15.4334 22.0618C15.2745 22.5145 15.0743 22.9515 14.8352 23.3673C14.4899 23.0217 14.2364 21.3692 14.1374 20.7198L14.0824 20.3602C13.7342 18.127 13.4209 15.769 13.1161 13.4906C11.7909 3.5261 11.1622 0.0356458 9.31637 9.18294e-05C7.00145 -0.0431018 6.17867 4.07175 3.73726 16.285L3.41751 17.8808C3.05473 19.6955 2.23078 19.6955 1.87882 19.6955H0.779926L0.507324 21.2672H1.87882C2.79706 21.2672 4.41832 20.8673 4.95328 18.1902L5.27185 16.5941C6.77775 9.06458 8.1999 1.96114 9.20539 1.60619C10.0785 2.53882 10.9347 8.96468 11.5642 13.6978C11.8696 15.9858 12.1835 18.3515 12.5358 20.6029L12.589 20.9555C12.8625 22.7575 13.2022 24.9998 14.887 24.9998C15.9674 24.9998 16.4388 23.7974 16.8909 22.6341C17.0646 22.1893 17.3471 21.4697 17.5427 21.2669H75.6575L75.9292 19.6952H17.4373C16.3569 19.6955 15.8869 20.8985 15.4334 22.0618Z" fill="#0C1219"/>
</g>
<defs>
<clipPath id="clip0_43_1388">
<rect width="83" height="25" fill="white" transform="translate(0.507324)"/>
</clipPath>
</defs>
</svg>
