<svg width="86" height="22" viewBox="0 0 86 22" fill="none" xmlns="http://www.w3.org/2000/svg">
<g clip-path="url(#clip0_43_1894)">
<path d="M19.7267 2.00146H0V21.8747H8.6857V11.7901H11.041V21.8747H19.7267V2.00146Z" fill="#0C1219"/>
<path d="M27.9106 2.65308H33.4143V8.91044H31.9237V3.96717H29.4012V8.91044H27.9106V2.65308Z" fill="#0C1219"/>
<path d="M38.0261 2.52792C39.8271 2.52792 41.0696 3.72932 41.0696 5.49419C41.0666 5.72074 41.0459 5.94669 41.0077 6.16996H36.3242C36.3307 6.38797 36.3811 6.60238 36.4726 6.80009C36.564 6.99779 36.6945 7.17465 36.8561 7.31985C37.0176 7.46506 37.2069 7.57556 37.4122 7.64462C37.6176 7.71368 37.8348 7.73985 38.0505 7.72153C38.8827 7.72153 39.4915 7.3464 39.6533 6.78333L41.0324 7.03367C40.7584 8.29747 39.5167 9.03562 38.0521 9.03562C36.0273 9.03562 34.81 7.67083 34.81 5.80692C34.7915 5.37457 34.8618 4.94302 35.0165 4.53928C35.1711 4.13555 35.4068 3.7683 35.7088 3.46053C36.0108 3.15276 36.3725 2.91107 36.7715 2.7506C37.1704 2.59013 37.5979 2.51432 38.0273 2.52792M36.3749 4.98064H39.6046C39.5438 4.6177 39.3483 4.29162 39.0577 4.06857C38.7671 3.84553 38.4031 3.74223 38.0397 3.77963C37.1204 3.77963 36.5491 4.19296 36.3753 4.98064" fill="#0C1219"/>
<path d="M43.8812 2.65346L43.9555 3.41657C44.2034 3.13213 44.5096 2.90534 44.8531 2.7519C45.1965 2.59846 45.569 2.52203 45.9446 2.5279C47.6713 2.5279 48.9885 3.90478 48.9885 5.78195C48.9885 7.65912 47.6725 9.03599 45.9446 9.03599C45.5815 9.03931 45.2216 8.96649 44.8879 8.82216C44.5542 8.67783 44.2539 8.46515 44.0062 8.19762V11.6638H42.5156V2.65346H43.8812ZM44.005 5.78195C44.005 6.90848 44.6886 7.65912 45.7201 7.65912C46.7516 7.65912 47.434 6.90848 47.434 5.78195C47.434 4.65541 46.7513 3.90478 45.7201 3.90478C44.689 3.90478 44.005 4.6558 44.005 5.78195Z" fill="#0C1219"/>
<path d="M50.3818 2.65308H51.91L53.8855 5.36862L55.8359 2.65308H57.3641V8.91044H55.9346V4.68037L54.0349 7.32143H53.7114L51.8101 4.70572V8.91044H50.3818V2.65308Z" fill="#0C1219"/>
<path d="M61.976 7.6592C62.3225 7.68554 62.6667 7.58479 62.9453 7.37554C63.2238 7.16629 63.4179 6.86264 63.4917 6.52058L64.92 6.77092C64.709 8.05967 63.5165 9.03608 61.9632 9.03608C61.538 9.04833 61.1148 8.97278 60.7197 8.81406C60.3245 8.65535 59.9658 8.41683 59.6656 8.1132C59.3654 7.80958 59.1301 7.44726 58.9741 7.04856C58.8182 6.64986 58.7449 6.22322 58.7587 5.7949C58.7439 5.36404 58.8168 4.93468 58.9728 4.53326C59.1289 4.13184 59.365 3.76686 59.6664 3.46081C59.9678 3.15476 60.3282 2.91411 60.7254 2.75368C61.1226 2.59325 61.5482 2.51644 61.976 2.52799C63.4917 2.52799 64.5972 3.41666 64.8832 4.75571L63.4294 5.00605C63.3616 4.68064 63.1802 4.39052 62.9181 4.18844C62.656 3.98636 62.3307 3.88574 62.0011 3.90486C61.0076 3.90486 60.3112 4.63093 60.3112 5.7949C60.3112 6.93353 60.9824 7.6592 61.9756 7.6592" fill="#0C1219"/>
<path d="M67.6444 2.65308V4.95606H68.3156L70.1293 2.65308H71.9063L69.4961 5.594L72.0302 8.91044H70.2292L68.3032 6.40741H67.6444V8.91044H66.1538V2.65308H67.6444Z" fill="#0C1219"/>
<path d="M73.0264 2.65308H74.4674V6.77045L77.1385 2.65308H78.5792V8.91044H77.1385V4.79306L74.4674 8.91044H73.0264V2.65308Z" fill="#0C1219"/>
<path d="M80.4468 2.65159H81.8878V6.77052L84.5585 2.65315H86V8.9109H84.5585V4.79314L81.8878 8.9109H80.4468V2.65159ZM84 0H85.316C85.3036 1.10119 84.4835 1.83934 83.2785 1.83934C82.0736 1.83934 81.2546 1.10119 81.2422 0H82.5582C82.5476 0.0962664 82.5586 0.19371 82.5904 0.285113C82.6222 0.376516 82.674 0.459538 82.742 0.528029C82.81 0.596519 82.8924 0.648725 82.9831 0.680779C83.0739 0.712832 83.1706 0.723913 83.2661 0.713199C83.3631 0.724876 83.4614 0.714683 83.5539 0.683357C83.6464 0.652032 83.7309 0.600359 83.8011 0.532085C83.8714 0.463811 83.9257 0.380645 83.9601 0.288616C83.9945 0.196587 84.0081 0.0979998 84 0" fill="#0C1219"/>
<path d="M27.9106 15.6172H33.4143V21.8745H31.9237V16.9313H29.4012V21.8745H27.9106V15.6172Z" fill="#0C1219"/>
<path d="M41.3935 18.746C41.4059 19.4046 41.2235 20.0521 40.8693 20.6058C40.5151 21.1596 40.0053 21.5946 39.4049 21.8554C38.8044 22.1162 38.1405 22.1909 37.4977 22.0702C36.8549 21.9494 36.2623 21.6385 35.7955 21.1772C35.3287 20.7159 35.0088 20.1251 34.8766 19.4799C34.7444 18.8348 34.8058 18.1646 35.0531 17.5547C35.3004 16.9449 35.7223 16.4231 36.265 16.0557C36.8078 15.6883 37.4469 15.4921 38.1007 15.492C38.5326 15.4741 38.9635 15.5455 39.3669 15.7019C39.7702 15.8582 40.1375 16.0962 40.4461 16.4011C40.7546 16.7061 40.9979 17.0714 41.1608 17.4747C41.3238 17.878 41.403 18.3107 41.3935 18.746ZM36.3617 18.746C36.3617 19.8721 37.0584 20.6232 38.1007 20.6232C39.1431 20.6232 39.8402 19.8721 39.8402 18.746C39.8402 17.6199 39.1435 16.8688 38.1007 16.8688C37.058 16.8688 36.3617 17.6195 36.3617 18.746Z" fill="#0C1219"/>
<path d="M42.328 20.6232C42.912 20.6232 43.099 20.3729 43.1977 17.77L43.2848 15.6172H48.1173V21.8757H46.6267V16.9313H44.7258L44.6763 18.0953C44.5524 21.0611 44.057 22.0001 42.5517 22.0001C42.3366 22.0016 42.1227 21.9676 41.9185 21.8995L42.0926 20.5983C42.1701 20.6141 42.2489 20.6224 42.328 20.6232Z" fill="#0C1219"/>
<path d="M49.9839 15.6172H51.4249V19.7349L54.0957 15.6172H55.5367V21.8745H54.0957V17.7572L51.4249 21.8745H49.9839V15.6172Z" fill="#0C1219"/>
<path d="M58.7084 16.9313H56.7212V15.6172H62.1869V16.9313H60.199V21.8745H58.7084V16.9313Z" fill="#0C1219"/>
<path d="M66.115 15.4918C67.916 15.4918 69.1585 16.6932 69.1585 18.4581C69.1555 18.6846 69.1348 18.9106 69.0966 19.1338H64.4131C64.4196 19.3519 64.4701 19.5662 64.5616 19.7639C64.653 19.9616 64.7835 20.1385 64.945 20.2837C65.1066 20.4289 65.2958 20.5395 65.5011 20.6086C65.7065 20.6778 65.9236 20.704 66.1394 20.6858C66.9716 20.6858 67.5808 20.3103 67.7422 19.7468L69.1213 19.9976C68.8473 21.2613 67.6048 21.9999 66.1409 21.9999C64.1162 21.9999 62.8989 20.6351 62.8989 18.7708C62.8804 18.3384 62.9506 17.9069 63.1052 17.5031C63.2599 17.0993 63.4956 16.7321 63.7975 16.4243C64.0995 16.1165 64.4613 15.8748 64.8603 15.7144C65.2593 15.5539 65.6868 15.4781 66.1162 15.4918M64.4638 17.9449H67.6935C67.6328 17.5819 67.4373 17.2557 67.1467 17.0326C66.8561 16.8095 66.4921 16.7061 66.1286 16.7435C65.2097 16.7435 64.6384 17.1568 64.4642 17.9449" fill="#0C1219"/>
<path d="M72.7276 17.5318L73.97 15.6172H75.622L73.5477 18.7086L75.7586 21.8745H74.0068L72.5534 19.8098L71.2614 21.8745H69.6585L71.7212 18.6205L69.6094 15.6172H71.3852L72.7276 17.5318Z" fill="#0C1219"/>
</g>
<defs>
<clipPath id="clip0_43_1894">
<rect width="86" height="22" fill="white"/>
</clipPath>
</defs>
</svg>
