<svg width="80" height="36" viewBox="0 0 80 36" fill="none" xmlns="http://www.w3.org/2000/svg">
<g clip-path="url(#clip0_43_1919)">
<path d="M21.0131 17.7625C22.4237 15.2213 23.5608 12.5503 24.407 9.79026C24.1371 9.75806 23.8573 9.73174 23.5684 9.70923C22.742 12.3682 21.6399 14.9419 20.2787 17.3923C20.0017 17.8908 19.7175 18.3793 19.4263 18.8579C19.8316 18.7318 20.2271 18.5995 20.6176 18.4638C20.7504 18.2314 20.8832 17.9984 21.0131 17.7625Z" fill="#0C1219"/>
<path d="M10.4424 12.4296C10.6202 12.1078 10.8016 11.7909 10.9867 11.479C10.5912 11.5958 10.2064 11.7154 9.83239 11.8378C9.79066 11.9115 9.7493 11.9836 9.70865 12.0584C8.17571 14.7702 6.97958 17.6436 6.14453 20.62C6.41632 20.6419 6.69718 20.6595 6.98712 20.6713C7.80482 17.807 8.96415 15.0417 10.4424 12.4296V12.4296Z" fill="#0C1219"/>
<path d="M8.82555 16.2048C8.70217 16.485 8.57989 16.7648 8.46631 17.0391C9.78983 18.1504 11.2673 19.0826 12.8571 19.8095C14.5144 20.5922 16.283 21.1392 18.1063 21.433C18.2791 21.1847 18.4525 20.9308 18.6213 20.6739C16.7477 20.4157 14.9294 19.8733 13.2352 19.0674C11.6242 18.328 10.1379 17.3632 8.82555 16.2048V16.2048Z" fill="#0C1219"/>
<path d="M23.9531 14.5368C22.5847 12.8091 20.4224 11.2023 17.8649 10.01C15.3788 8.85504 12.7825 8.2168 10.5519 8.2168C8.08439 8.2168 6.33499 8.98351 5.62304 10.3774C4.74271 12.1002 5.66622 14.3723 7.82204 16.454C7.94142 16.1686 8.06226 15.8847 8.19144 15.5969C6.49865 13.857 5.73662 12.0386 6.40031 10.7393C6.95187 9.66019 8.46505 9.04239 10.5519 9.04239C12.6533 9.04239 15.1165 9.6498 17.4853 10.7531C19.9231 11.8883 21.9747 13.4093 23.264 15.0352C24.4884 16.5821 24.8643 18.0196 24.3203 19.0817C23.7691 20.1594 22.2567 20.7783 20.1684 20.7783C19.9677 20.7783 19.7598 20.7675 19.5515 20.7571C19.3788 21.0238 19.2068 21.287 19.0311 21.546C19.4183 21.5789 19.7986 21.6039 20.1669 21.6039C22.6344 21.6039 24.3839 20.8364 25.0951 19.4436C25.7911 18.0868 25.3854 16.3456 23.9531 14.5368Z" fill="#0C1219"/>
<path d="M18.7595 19.9203C15.3123 25.2552 11.1755 29.0271 8.56939 29.0271C8.25057 29.0317 7.93545 28.9615 7.65169 28.8228C6.23141 28.1056 5.86092 25.3597 6.7768 21.4884C6.48941 21.4749 6.21072 21.4555 5.93893 21.4316C4.99801 25.4924 5.38447 28.5762 7.26305 29.5251C7.66667 29.7238 8.11524 29.825 8.56939 29.8198C11.669 29.8198 16.206 25.6815 19.9668 19.554C19.5732 19.6819 19.1708 19.804 18.7595 19.9203Z" fill="#0C1219"/>
<path d="M16.4545 19.4162C15.7806 19.5655 15.1075 19.6957 14.4409 19.8096C14.9776 20.0146 15.5147 20.1947 16.0463 20.3457C16.2484 20.3045 16.448 20.2647 16.6494 20.2196C19.3115 19.6502 21.898 18.797 24.3604 17.676C24.3084 17.4008 24.2276 17.1313 24.1191 16.8716C21.675 17.9976 19.1032 18.8514 16.4545 19.4162V19.4162Z" fill="#0C1219"/>
<path d="M6.0332 12.3018C6.06991 12.5807 6.13817 12.8549 6.23677 13.1198C8.78557 11.9015 11.4826 10.9891 14.2664 10.4034C14.6616 10.3165 15.0538 10.2372 15.4461 10.161C14.8902 9.96635 14.3353 9.79977 13.7878 9.66333C11.1044 10.2526 8.502 11.1381 6.0332 12.3018V12.3018Z" fill="#0C1219"/>
<path d="M12.8485 20.0478C11.4288 20.237 9.99751 20.3356 8.56408 20.3429C4.50283 20.3429 1.7617 19.4425 1.40971 17.9929C1.11034 16.7607 2.59848 15.0839 5.45754 13.5228C5.35587 13.2608 5.27627 12.9914 5.2195 12.7173C1.98196 14.4485 0.147643 16.447 0.566397 18.1809C1.02942 20.0818 3.94328 21.1719 8.56408 21.1719C10.5029 21.1585 12.437 20.9884 14.3457 20.6636C13.8452 20.4791 13.3461 20.2739 12.8485 20.0478Z" fill="#0C1219"/>
<path d="M30.1542 11.6413C29.6929 9.74041 26.7794 8.6499 22.1576 8.6499C19.9244 8.66864 17.698 8.88895 15.5083 9.30788C16.0163 9.47941 16.5254 9.67265 17.0356 9.88759C18.729 9.62211 20.4415 9.48317 22.1576 9.47203C26.2181 9.47203 28.9603 10.3724 29.3116 11.8238C29.5823 12.9358 28.4233 14.3795 26.1321 15.7845C25.7424 16.0237 25.324 16.2575 24.8853 16.485C24.9983 16.743 25.0891 17.0094 25.1567 17.2815C25.6665 17.0218 26.1499 16.7531 26.6002 16.4774C29.2542 14.8536 30.517 13.1342 30.1542 11.6413Z" fill="#0C1219"/>
<path fill-rule="evenodd" clip-rule="evenodd" d="M17.557 14.9848C17.557 15.4369 17.4165 15.8788 17.1534 16.2546C16.8902 16.6305 16.5162 16.9235 16.0785 17.0964C15.6409 17.2694 15.1594 17.3147 14.6948 17.2265C14.2302 17.1383 13.8035 16.9206 13.4686 16.601C13.1336 16.2813 12.9055 15.8741 12.8131 15.4307C12.7207 14.9874 12.7681 14.5278 12.9494 14.1102C13.1307 13.6925 13.4376 13.3356 13.8315 13.0844C14.2253 12.8333 14.6884 12.6992 15.162 12.6992C15.4766 12.6992 15.788 12.7583 16.0785 12.8732C16.3691 12.9881 16.6331 13.1564 16.8555 13.3687C17.0779 13.5809 17.2543 13.8329 17.3747 14.1102C17.495 14.3875 17.557 14.6847 17.557 14.9848Z" fill="#0C1219"/>
<path d="M11.613 10.4444C11.92 9.95336 12.2328 9.47535 12.5514 9.01038C12.2397 8.96155 11.932 8.92242 11.6297 8.89575C11.2262 9.50178 10.8304 10.1297 10.4424 10.7796C10.8248 10.6637 11.2151 10.552 11.613 10.4444Z" fill="#0C1219"/>
<path d="M13.0772 8.25966C16.2705 3.80931 19.8237 0.792657 22.1519 0.792657C22.4706 0.787559 22.7857 0.857497 23.0693 0.996284C24.5803 1.75815 24.9029 4.82051 23.7511 9.08905C24.0385 9.11214 24.3167 9.14088 24.5857 9.17528C25.7665 4.7284 25.4566 1.30345 23.4608 0.295019C23.0564 0.0957956 22.607 -0.00552654 22.1519 -3.20147e-05C19.4293 -3.20147e-05 15.5992 3.19254 12.1592 8.11871C12.4615 8.15611 12.7677 8.20252 13.0772 8.25966Z" fill="#0C1219"/>
<path d="M31.7145 35.9951V26.9704L27.2512 32.3347L22.7726 26.9704V35.9951H20.7217V23.3093H21.917L27.2512 29.7423L32.5854 23.3093H33.7633V35.9951H31.7145Z" fill="#0C1219"/>
<path d="M43.6593 35.9951V27.0432L36.633 35.9951H35.4355V23.3093H37.4858V32.2616L44.512 23.3093H45.7095V35.9951H43.6593Z" fill="#0C1219"/>
<path d="M75.5385 35.9951V27.0432L68.5129 35.9951H67.3154V23.3093H69.366V32.2616L76.3923 23.3093H77.5898V35.9951H75.5385Z" fill="#0C1219"/>
<path d="M59.2633 19.1065V16.8445H56.8774V19.1065H55.6636V13.5889H56.8792V15.8204H59.2651V13.5889H60.4811V19.1065H59.2633Z" fill="#0C1219"/>
<path d="M65.4888 19.1065V15.6307L62.5666 19.1065H61.8535V13.5889H63.0702V17.0651L65.9834 13.5889H66.7051V19.1065H65.4888Z" fill="#0C1219"/>
<path d="M71.3893 19.1065V17.7594H70.7089C70.1105 17.775 69.9541 17.9011 69.4751 18.5559L69.0803 19.1062H67.7163L68.2436 18.3731C68.4771 17.9913 68.7926 17.6608 69.1692 17.4034C68.7806 17.2911 68.4406 17.0613 68.2006 16.7486C67.9606 16.436 67.8336 16.0574 67.8386 15.6698C67.8386 14.5028 68.7821 13.5872 70.5064 13.5872H72.602V19.1065H71.3893ZM70.3928 14.6139C69.6014 14.6139 68.9845 14.9693 68.9845 15.6719C68.9845 16.4113 69.6014 16.7344 70.3928 16.7344H71.3893V14.6139H70.3928Z" fill="#0C1219"/>
<path d="M74.6193 19.1065L75.8893 17.1139L73.6504 13.5889H75.0344L76.5824 15.9943L78.1257 13.5889H79.509L75.9938 19.1065H74.6193Z" fill="#0C1219"/>
<path d="M61.2036 23.7623C60.4757 23.7563 59.758 23.9259 59.1173 24.2555C58.4765 24.5852 57.9335 25.064 57.5386 25.6476V23.3093H55.488V29.0001C55.4666 29.7659 55.1667 30.5007 54.6398 31.0786C54.1129 31.6564 53.3918 32.0414 52.6001 32.1675C51.8084 32.2937 50.9953 32.153 50.3003 31.7698C49.6054 31.3865 49.0717 30.7845 48.7908 30.0669C48.51 29.3493 48.4994 28.5608 48.7609 27.8366C49.0224 27.1123 49.5398 26.4975 50.2243 26.0974C50.9087 25.6973 51.7177 25.5368 52.5126 25.6435C53.3074 25.7503 54.0386 26.1175 54.5808 26.6823V24.6977C53.8025 24.0911 52.8279 23.7606 51.823 23.7626C48.6512 23.7626 46.5059 26.0829 46.5059 29.0005C46.5059 31.9181 48.6512 34.2189 51.823 34.2189C52.5493 34.2284 53.2662 34.0623 53.9071 33.736C54.5479 33.4098 55.0918 32.934 55.488 32.353V35.9955L57.5658 36.0003V28.7508L57.5709 28.7453C57.6511 27.9981 57.9967 27.2996 58.5504 26.7659C59.1041 26.2321 59.8325 25.8952 60.6145 25.8112C61.3966 25.7272 62.1852 25.901 62.8494 26.3039C63.5136 26.7068 64.0133 27.3144 64.2656 28.0258C64.5179 28.7373 64.5075 29.5096 64.2362 30.2147C63.9648 30.9197 63.4489 31.5149 62.7741 31.9013C62.0993 32.2878 61.3062 32.4423 60.5267 32.3391C59.7472 32.236 59.0281 31.8814 58.489 31.3342V33.3428C59.2662 33.9152 60.2218 34.2231 61.2036 34.2175C64.3562 34.2175 66.5015 31.9164 66.5015 28.9991C66.5015 26.0818 64.3562 23.7623 61.2036 23.7623Z" fill="#0C1219"/>
</g>
<defs>
<clipPath id="clip0_43_1919">
<rect width="79" height="36" fill="white" transform="translate(0.507324)"/>
</clipPath>
</defs>
</svg>
