<svg width="65" height="65" viewBox="0 0 65 65" fill="none" xmlns="http://www.w3.org/2000/svg">
<g clip-path="url(#clip0_43_1992)">
<path d="M30.1562 4.91752L30.118 4.42066C30.2072 4.40792 30.2964 4.40792 30.3728 4.39518C30.8824 4.35696 31.392 4.33148 31.9016 4.31874L32.2329 8.63763L33.1374 8.57393L32.8062 4.33148L32.7425 3.51611C32.2583 3.51611 31.7615 3.51611 31.2774 3.54159L29.3409 3.69447C29.3026 3.69447 29.2517 3.70721 29.2135 3.70721L29.2772 4.50984L29.2899 4.71368C29.5192 7.79679 29.0606 8.16625 28.5382 8.20447C28.4236 8.21721 28.3089 8.20447 28.2452 8.17899L28.2197 8.93066C28.3599 8.95614 28.6529 8.98162 28.8567 8.96888C29.8505 8.89244 30.3983 8.19173 30.1562 4.91752Z" fill="#0C1219"/>
<path d="M25.1621 9.91152C26.6655 9.41466 27.3662 7.91133 26.9075 6.5354C26.4489 5.13398 25.0347 4.33136 23.5186 4.82822C22.0153 5.32509 21.3146 6.82842 21.7733 8.20435C22.2319 9.60576 23.6588 10.4084 25.1621 9.91152ZM23.7734 5.63085C24.7544 5.31235 25.6972 5.88565 26.0157 6.84116C26.1686 7.32528 26.1431 7.82215 25.952 8.22983C25.7609 8.63751 25.4169 8.96876 24.9201 9.13438C23.9391 9.45288 22.9963 8.87957 22.6778 7.92407C22.423 7.12144 22.6905 6.31881 23.3403 5.88565C23.4804 5.78373 23.6078 5.68181 23.7734 5.63085Z" fill="#0C1219"/>
<path d="M35.9273 7.68207C36.335 7.73303 36.73 7.79673 37.1377 7.87317C37.5326 7.94961 37.9403 8.03879 38.3352 8.12797L38.6028 9.42746L39.5583 9.695L38.2843 4.08936L37.4562 3.94922L34.2329 8.70128L35.2012 8.79046L35.9273 7.68207ZM37.6473 5.09583L38.1441 7.27439C37.8511 7.21069 37.5708 7.14698 37.2778 7.09602C36.9848 7.04506 36.7045 6.9941 36.4115 6.94314L37.6473 5.09583Z" fill="#0C1219"/>
<path d="M43.9663 9.86057C44.4759 10.1154 45.1002 9.91154 45.355 9.40193C45.6098 8.89233 45.4059 8.26806 44.8963 8.01326C44.3867 7.75846 43.7624 7.9623 43.5076 8.4719C43.2528 8.98151 43.4567 9.60577 43.9663 9.86057Z" fill="#0C1219"/>
<path d="M56.388 20.7916C55.012 21.3012 54.2731 22.7536 54.8209 24.2442C55.3687 25.7348 56.9103 26.3591 58.2735 25.8495C59.6494 25.3399 60.3883 23.8875 59.8405 22.3969C59.28 20.9063 57.7511 20.282 56.388 20.7916ZM59.0506 22.6772C59.4074 23.6327 58.885 24.6137 57.9422 24.9577C57.8531 24.9959 57.7639 24.9831 57.6874 25.0086C56.8084 25.2125 55.942 24.843 55.6235 23.9639C55.3942 23.3651 55.5216 22.7536 55.8784 22.3077C55.9293 22.2313 56.0057 22.1676 56.0694 22.1039C56.0822 22.0911 56.0949 22.0656 56.1077 22.0529C56.1459 22.0147 56.1969 21.9892 56.2478 21.951C56.2988 21.9128 56.3497 21.8745 56.4007 21.8363C56.4007 21.8363 56.4007 21.8363 56.4134 21.8363C56.5154 21.7726 56.6173 21.7217 56.7319 21.6834C57.2033 21.5051 57.7002 21.5178 58.1206 21.6834C58.5283 21.8618 58.8723 22.1931 59.0506 22.6772Z" fill="#0C1219"/>
<path d="M56.0825 28.8051L58.1846 28.614H58.2101C58.2866 29.0982 58.3375 29.595 58.3885 30.0791C58.4394 30.5633 58.4649 31.0601 58.4904 31.557H58.4649L56.3628 31.7481L56.3883 32.6526L61.4843 32.1685L61.4461 31.264L59.3058 31.4678H59.293C59.2676 30.9709 59.2421 30.4868 59.1911 29.99C59.1401 29.5058 59.0892 29.009 59.0127 28.5248H59.0255L61.1786 28.321L61.0384 27.4292L55.9424 27.9133L56.0825 28.8051Z" fill="#0C1219"/>
<path d="M39.3673 28.2318C40.4884 26.9323 40.9598 25.3525 40.9598 23.8492C40.9598 22.6389 40.6285 20.2183 38.5009 18.5493C37.0358 17.4155 35.7491 16.8804 32.6532 16.8804H31.0862C31.0352 16.8804 30.997 16.8804 30.9333 16.8804H24.4868V47.342H42.8963V41.4942C42.8963 35.9013 41.0872 32.143 36.4116 30.4868C37.8767 29.8753 38.7812 28.9452 39.3673 28.2318ZM35.7108 27.6458C34.87 28.6904 33.5068 29.6587 31.5703 29.6587C31.5576 29.6587 31.5448 29.6587 31.5321 29.6587V31.1748C36.7046 31.1748 38.7303 34.6146 38.7303 40.9082V45.6475H35.4051V35.4809H31.5703V45.6603H28.6401V18.3964H31.6595C32.7934 18.3964 34.5005 18.6512 35.7108 20.1546C36.3351 20.919 36.7301 21.9255 36.8575 22.9447H31.5703V24.448H36.8957C36.8575 25.4162 36.6536 26.4991 35.7108 27.6458Z" fill="#0C1219"/>
<path d="M51.7251 18.3584L53.5087 17.1863L53.8527 17.7086L53.3176 19.2374C53.0373 20.0146 52.9609 20.7662 53.5724 21.2886L54.2349 20.8554C53.9546 20.6134 53.9546 20.2057 54.133 19.6196L54.668 17.9379L57.8021 18.3838L57.2415 17.4793L54.4897 17.1735L54.1967 16.7404L55.993 15.5555L55.4452 14.8293L51.1772 17.6322L51.7251 18.3584Z" fill="#0C1219"/>
<path d="M52.26 14.6892C53.241 13.619 53.2283 11.9628 52.0562 10.8926C51.3428 10.2429 50.4892 10.039 49.6865 10.2174L49.8904 11.1219C50.4382 10.9818 51.0243 11.0965 51.4956 11.5169C52.1454 12.1157 52.2218 12.9947 51.7887 13.7082C51.4065 13.3132 51.0115 12.931 50.6038 12.5743C50.4382 12.4214 50.2598 12.2686 50.0942 12.1157L49.5719 12.7272C49.7375 12.8673 49.9031 13.0202 50.0687 13.1604C50.4764 13.5298 50.8714 13.912 51.2536 14.307C50.5784 14.8038 49.6738 14.8166 49.0113 14.2178C48.5272 13.7846 48.3616 13.1858 48.4762 12.6125L47.5717 12.4851C47.457 13.3132 47.7373 14.1923 48.4635 14.8421C49.6356 15.9122 51.2663 15.7721 52.26 14.6892Z" fill="#0C1219"/>
<path d="M18.9958 12.842L17.8874 11.0201L18.4225 10.6889L19.9386 11.2749C20.703 11.5807 21.4546 11.6826 21.9897 11.0838L21.582 10.4086C21.3272 10.6889 20.9196 10.6761 20.3335 10.4723L18.6773 9.87352L19.2251 6.7522L18.3078 7.27454L17.9129 10.0137L17.467 10.2939L16.3459 8.45937L15.6069 8.98172L18.2696 13.3388L18.9958 12.842Z" fill="#0C1219"/>
<path d="M5.1219 31.8756C6.00097 31.952 6.49783 31.4169 6.6762 30.9965L7.58074 31.7737C7.8228 31.9902 7.98843 32.3979 7.88651 32.6782L8.66365 32.6655C8.85475 32.245 8.75283 31.6335 8.14131 31.1239L6.931 30.1047L6.98196 29.4677L8.82927 29.6333L8.95667 28.716L3.84789 28.3083C3.79693 28.5886 3.68227 29.7225 3.66953 29.8754C3.54213 31.2895 4.2301 31.8119 5.1219 31.8756ZM4.59956 29.2893L6.12837 29.4167L6.07741 30.0028C6.03919 30.5251 5.73343 30.971 5.19834 30.9201C4.79066 30.8819 4.47216 30.6398 4.52312 29.9009C4.5486 29.7352 4.56134 29.5314 4.59956 29.2893Z" fill="#0C1219"/>
<path d="M46.1452 52.0814L47.2664 53.9032L46.7313 54.2345L45.2152 53.6612C44.4508 53.3554 43.6991 53.2662 43.1641 53.865L43.5845 54.5402C43.8393 54.2599 44.247 54.2727 44.833 54.4765L46.502 55.0626L45.9796 58.1839L46.8969 57.6488L47.2791 54.8969L47.725 54.6167L48.8589 56.4385L49.5978 55.9162L46.9097 51.5718L46.1452 52.0814Z" fill="#0C1219"/>
<path d="M41.1762 54.7313L39.6092 59.1904L38.4626 55.6104L37.5835 55.8143L39.1633 60.7065L40.0169 60.4899L41.5584 56.0691L42.705 59.6235L43.5331 59.2923L41.9661 54.4128L41.1762 54.7313Z" fill="#0C1219"/>
<path d="M32.5129 57.9292C31.9396 57.9292 31.481 58.3878 31.481 58.9611C31.481 59.5344 31.9396 59.9931 32.5129 59.9931C33.0862 59.9931 33.5449 59.5344 33.5449 58.9611C33.5449 58.4006 33.0862 57.9292 32.5129 57.9292Z" fill="#0C1219"/>
<path d="M51.0247 47.5458L51.8655 52.196L49.1009 49.6479L48.4512 50.2595L52.235 53.7375L52.872 53.1133L52.0311 48.5141L54.783 51.0366L55.3436 50.3487L51.5598 46.8706L51.0247 47.5458Z" fill="#0C1219"/>
<path d="M23.6076 56.2093C23.4038 56.8973 23.7096 57.3432 24.2319 57.7126C23.8115 57.8018 23.3783 58.0184 23.1999 58.6172C23.098 58.9612 23.1363 59.2669 23.2891 59.5472C23.493 59.9167 23.8879 60.2352 24.4485 60.4008L26.334 60.8849L27.7609 55.9545L25.8244 55.3939C24.7415 55.0627 23.8752 55.3175 23.6076 56.2093ZM24.8052 59.6236C24.2446 59.458 24.0026 59.1268 24.1172 58.7446C24.1427 58.6554 24.1809 58.579 24.2192 58.5153C24.2192 58.5153 24.2319 58.5153 24.2319 58.5025C24.2701 58.4388 24.3211 58.4006 24.3848 58.3624C24.5122 58.2859 24.6651 58.2477 24.8562 58.2605C24.9836 58.2605 25.111 58.2859 25.2511 58.3241L26.092 58.5662L25.7098 59.8784L24.8052 59.6236ZM25.2766 57.5343C24.5886 57.3304 24.3338 56.9864 24.4485 56.566C24.5504 56.222 24.8179 56.0564 25.1874 56.0819C25.3148 56.0819 25.4549 56.1074 25.5951 56.1583L26.6907 56.4768L26.2958 57.84L25.2766 57.5343Z" fill="#0C1219"/>
<path d="M12.4474 19.6579C13.6704 17.7469 15.161 16.027 16.8682 14.5364L16.2312 13.9758L12.9443 11.1348C12.7277 11.3386 12.4983 11.5424 12.2945 11.759L15.5815 14.5873C15.0846 15.0587 14.6132 15.5428 14.1546 16.0524L10.8931 13.2369C10.6893 13.4662 10.4982 13.6955 10.2943 13.9248L13.5558 16.7404C13.1226 17.25 12.7149 17.7851 12.3327 18.3457L9.04578 15.5174C8.86742 15.7594 8.7018 16.0142 8.52344 16.2563L11.8104 19.0973L12.4474 19.6579Z" fill="#0C1219"/>
<path d="M54.7573 41.125L56.5664 42.1569C57.1779 42.5009 57.9041 42.8958 58.5029 43.2271L58.4902 43.2398C57.8404 43.0869 54.0693 42.6283 54.0693 42.6283L53.7381 43.3163C53.7381 43.3163 56.3371 46.17 56.8339 46.6032L56.8212 46.6287C56.1842 46.3102 55.458 45.9917 54.8465 45.7241L52.91 44.8833L52.4004 45.6987L57.1907 47.6989L57.8404 46.5905C57.8404 46.5905 55.4325 43.966 54.9866 43.5965L54.9994 43.5711C55.5727 43.6985 59.0762 44.0807 59.0762 44.0807L59.5731 42.8704L55.0886 40.2332L54.7573 41.125Z" fill="#0C1219"/>
<path d="M59.0505 34.4745C57.5981 34.2197 56.2222 35.0988 55.9547 36.6658C55.6744 38.2328 56.6809 39.5451 58.1205 39.7999C59.5729 40.0547 60.9488 39.1756 61.2163 37.6086C61.4839 36.0415 60.4774 34.7166 59.0505 34.4745ZM60.3882 37.443C60.35 37.6978 60.2481 37.9271 60.1207 38.1182C59.7385 38.6915 59.0123 38.9845 58.2734 38.8571C57.3943 38.7042 56.77 38.029 56.7446 37.1881C56.7446 37.0735 56.7446 36.9461 56.77 36.8187C56.8083 36.5639 56.9102 36.3346 57.0376 36.1435C57.4198 35.5702 58.146 35.2771 58.8849 35.4045C59.8914 35.5829 60.5666 36.4365 60.3882 37.443Z" fill="#0C1219"/>
<path d="M12.8296 45.9916C11.5429 44.1188 10.5491 42.0804 9.84842 39.9146L9.08402 40.284L5.18555 42.195C5.28747 42.4753 5.38939 42.7556 5.50405 43.0486L9.38978 41.1249C9.63184 41.7619 9.88664 42.3989 10.1797 43.0104L6.30668 44.9087C6.43408 45.189 6.57422 45.4565 6.70162 45.724L10.5746 43.8258C10.8804 44.4245 11.2116 45.0106 11.5683 45.5839L7.69535 47.5077C7.84823 47.7625 8.01385 48.0173 8.17947 48.2721L12.0779 46.361L12.8296 45.9916Z" fill="#0C1219"/>
<path d="M9.28772 37.9909L8.00097 37.6724C7.91179 37.2774 7.84809 36.8698 7.78439 36.4748C7.70795 36.0799 7.65699 35.6722 7.61877 35.2645L8.7399 34.5638L8.6762 33.5701L3.83496 36.6659L3.96236 37.494L9.52979 38.9209L9.28772 37.9909ZM6.85437 35.7359C6.89259 36.0289 6.93081 36.3219 6.98177 36.615C7.03273 36.908 7.08369 37.1883 7.13465 37.4813L4.96883 36.9335L6.85437 35.7359Z" fill="#0C1219"/>
<path d="M7.88661 23.7091C8.45991 23.76 8.95677 23.3523 9.02048 22.779C9.07144 22.2057 8.66375 21.7089 8.09045 21.6452C7.51714 21.5942 7.02028 22.0019 6.95658 22.5752C6.89288 23.1485 7.3133 23.6454 7.88661 23.7091Z" fill="#0C1219"/>
<path d="M17.9786 51.4941L15.0112 55.7153L15.7512 56.2355L18.7186 52.0144L17.9786 51.4941Z" fill="#0C1219"/>
<path d="M15.059 48.6033C14.3965 47.8899 13.5174 47.6224 12.702 47.737L12.8294 48.6416C13.4027 48.5269 14.0015 48.6798 14.4347 49.1639C15.1354 49.9156 15.0207 51.024 14.2818 51.6992C13.5301 52.3872 12.4472 52.4254 11.7465 51.6737C11.3134 51.2151 11.1987 50.6163 11.3389 50.0684L10.4343 49.8774C10.2687 50.6672 10.4853 51.5336 11.1223 52.2215C12.2052 53.3809 13.8614 53.3809 14.9188 52.3999C16.0017 51.3934 16.1291 49.7754 15.059 48.6033Z" fill="#0C1219"/>
<path d="M18.7158 53.9796C18.1934 54.8714 18.5756 55.7632 19.5693 56.362L20.2701 56.7824L19.3273 58.3877L20.1044 58.8463L22.7289 54.4L21.251 53.5082C20.2191 52.9094 19.2381 53.0878 18.7158 53.9796ZM20.665 56.0944L19.9898 55.6995C19.4037 55.3555 19.2126 54.9096 19.4802 54.451C19.633 54.1962 19.8241 54.056 20.0535 54.0178C20.2828 53.9796 20.5503 54.056 20.8434 54.2216L21.5313 54.6293L20.665 56.0944Z" fill="#0C1219"/>
</g>
<defs>
<clipPath id="clip0_43_1992">
<rect width="65" height="65" fill="white"/>
</clipPath>
</defs>
</svg>
