<svg width="41" height="47" viewBox="0 0 41 47" fill="none" xmlns="http://www.w3.org/2000/svg">
<path fill-rule="evenodd" clip-rule="evenodd" d="M15.955 5.51865C15.9692 5.55286 15.9833 5.58649 15.9975 5.61598C16.2523 6.1551 16.7183 6.67653 16.7183 6.67653L16.7271 6.67063L16.7283 6.67181C16.7283 6.67181 16.795 6.62109 16.9312 6.54441C16.9772 6.51845 17.0309 6.49014 17.0928 6.45888C17.2403 6.38574 17.4314 6.30139 17.6691 6.21763C18.2307 6.02003 18.9786 5.95809 18.9786 5.95809C18.9786 5.95809 18.282 4.99369 18.151 3.60105C18.0767 2.81182 18.1074 2.39775 18.1156 2.37356C18.0684 2.37061 18.0218 2.36649 17.9741 2.36649C17.4666 2.36584 16.9741 2.5388 16.5785 2.85665L16.5502 2.87907C16.2985 3.08642 16.0958 3.34691 15.9567 3.64184C15.8176 3.93677 15.7455 4.25883 15.7456 4.58492C15.7456 4.77603 15.7727 4.96065 15.8182 5.13761C15.8547 5.25027 15.9043 5.39537 15.955 5.51865ZM19.8563 5.71036C19.9978 5.86254 20.1406 5.93037 20.2692 5.93037H20.3022C20.4308 5.93037 20.5735 5.86254 20.7151 5.71036C21.0277 5.40953 21.3569 4.90049 21.5792 4.28468C21.8995 3.39224 21.8063 2.63782 21.4318 2.28037C21.2466 2.11403 21.0189 2.00314 20.7676 1.96657C20.6853 1.95741 20.6026 1.95209 20.5199 1.95064C20.7344 1.89777 20.9251 1.77473 21.0617 1.60107C21.1983 1.4274 21.2729 1.21307 21.2737 0.992131C21.2737 0.443569 20.8278 0 20.2768 0C19.7265 0 19.2806 0.444158 19.2806 0.992131C19.2813 1.21291 19.3558 1.42712 19.4921 1.60076C19.6285 1.77441 19.8189 1.89755 20.0332 1.95064C19.9495 1.95359 19.8622 1.95831 19.8038 1.96657C19.5562 2.00338 19.325 2.11279 19.1396 2.28096C18.7656 2.63841 18.6719 3.39224 18.9921 4.28468C19.2145 4.90049 19.5437 5.40953 19.8563 5.71036ZM29.3665 12.2754C29.5947 12.6352 29.5835 13.0859 29.5835 13.0859C29.5871 13.087 30.0436 13.1655 30.2701 13.3902C30.2701 13.3902 30.3055 13.3554 30.3102 13.3489C30.6193 12.9708 31.1885 12.3509 31.3525 11.4508C31.4858 10.7176 31.3997 9.69067 31.244 9.36272C31.2381 9.35092 31.2333 9.33323 31.2274 9.32261C31.3749 9.15214 31.6191 8.75753 32.2939 8.75753C32.5416 8.75753 32.7617 8.82477 32.941 8.90971C33.2371 9.05128 33.4187 9.23826 33.4187 9.23826C33.4187 9.23826 32.8377 10.2693 32.5328 10.7601C32.3771 11.0114 32.2638 11.2066 31.9506 11.8938C31.6899 12.4665 31.6197 12.8464 31.6645 13.2563C31.7029 13.6014 31.8863 14.2597 31.9653 14.9215C32.1175 16.1903 31.8663 16.8096 31.8663 16.8096L31.8816 16.7996L31.8757 16.8143C31.8757 16.8143 33.3869 15.8216 34.3419 13.6032C34.3383 13.6032 34.3354 13.6014 34.3312 13.6008L34.3324 13.5984C34.1779 13.5723 34.0279 13.524 33.8871 13.4551C33.7616 13.3895 33.6425 13.3122 33.5314 13.2245C32.6861 12.5815 32.8767 11.8973 33.1515 11.5747C33.23 11.4832 33.3108 11.3942 33.3952 11.3051C33.6075 11.0792 33.8375 10.8515 34.0782 10.5719C34.3837 10.218 34.494 9.86409 34.533 9.55147C34.5465 9.44412 34.5613 9.33617 34.5613 9.22469C34.5613 8.29214 34.1071 7.65687 33.5279 7.33835C33.3391 7.23312 33.1339 7.16054 32.9209 7.12364C32.2733 7.01216 31.4805 7.25518 30.9007 7.64802C30.6801 7.79725 30.3161 8.12993 30.2141 8.38002C30.0873 9.0094 30.276 9.16866 30.4677 9.81926C30.4713 9.83165 30.4795 9.84168 30.4836 9.85465C30.8806 11.301 30.6765 12.0005 29.3665 12.2754ZM22.881 10.9842C23.0521 11.3446 23.3635 11.6938 23.3635 11.6938L23.3671 11.6915L23.4125 11.7381C23.4125 11.7381 23.5836 11.5888 24.033 11.4148C24.4046 11.2715 24.8795 11.2208 24.8795 11.2208C24.8795 11.2208 24.4135 10.5755 24.325 9.6429C24.2749 9.10318 24.2973 8.823 24.3026 8.81887L24.292 8.81828L24.2926 8.81416C24.0506 8.77863 23.8037 8.81795 23.5847 8.92682C23.4383 9.00627 23.301 9.10161 23.1754 9.21113C22.9748 9.38926 22.8398 9.58863 22.7878 9.80275C22.7053 10.0304 22.6758 10.2823 22.7247 10.5424C22.7289 10.5648 22.8103 10.8338 22.881 10.9842ZM24.9497 10.0287C25.1514 10.5878 25.4846 11.0568 25.7424 11.1553C25.7781 11.1714 25.8166 11.1804 25.8557 11.1818C26.1223 11.1506 26.475 10.6156 26.6461 9.96083C26.8053 9.34797 26.6974 8.83539 26.4278 8.61832C26.3002 8.52487 26.1543 8.45935 25.9996 8.42603C25.9872 8.42308 25.9754 8.41837 25.963 8.41424C26.1836 8.30688 26.3329 8.06504 26.3205 7.7884C26.3167 7.66155 26.2765 7.53846 26.2046 7.43386C26.1328 7.32925 26.0323 7.24756 25.9152 7.19855C25.8363 7.16504 25.7508 7.14953 25.6651 7.15313C25.3248 7.16847 25.0617 7.47519 25.0782 7.83913C25.0912 8.11577 25.2623 8.34404 25.4923 8.43134C25.3272 8.47494 25.1749 8.55746 25.0482 8.672C24.7975 8.91148 24.7349 9.43173 24.9497 10.0287ZM26.7699 11.1706C26.7699 11.1706 27.5645 11.1765 28.3578 11.4856C28.372 11.4909 28.3814 11.4986 28.395 11.5045C28.5012 11.37 28.6551 11.157 28.7583 10.9388C28.8291 10.789 28.9105 10.52 28.9146 10.4976C28.9608 10.2497 28.9389 9.99387 28.8515 9.75733C28.7996 9.5438 28.6651 9.34443 28.464 9.16571C28.3385 9.0565 28.2014 8.96136 28.0552 8.88199L28.0493 8.87963L28.0452 8.87727C27.8262 8.76854 27.5793 8.72924 27.3374 8.76461C27.3421 8.76874 27.3651 9.04833 27.3138 9.58863C27.2265 10.5206 26.7605 11.1659 26.7605 11.1659L26.7723 11.1671L26.7699 11.1706ZM21.5934 5.95809C21.5934 5.95809 22.3407 6.02003 22.9029 6.21763C23.14 6.30139 23.3311 6.38574 23.4786 6.45947C23.5405 6.49014 23.5942 6.51845 23.6402 6.54441C23.7758 6.62109 23.8437 6.67181 23.8437 6.67181L23.8449 6.67004L23.8531 6.67594C23.8531 6.67594 24.3191 6.1551 24.5739 5.61598C24.5881 5.58649 24.6022 5.55286 24.6164 5.51865C24.6667 5.39339 24.7124 5.26629 24.7532 5.13761C24.7987 4.96065 24.8258 4.77603 24.8258 4.58492C24.8258 3.89892 24.5132 3.28606 24.0212 2.87907L23.9929 2.85665C23.5973 2.5388 23.1048 2.36584 22.5973 2.36649C22.5495 2.36649 22.5029 2.37061 22.4558 2.37356C22.464 2.39716 22.4953 2.81182 22.4204 3.60046C22.2894 4.99369 21.5934 5.95809 21.5934 5.95809Z" fill="#0C1219"/>
<path fill-rule="evenodd" clip-rule="evenodd" d="M22.0871 8.09995C22.0871 8.09995 22.1738 8.53467 22.2263 8.72932C22.2445 8.72923 22.2626 8.73081 22.2806 8.73404C22.6126 8.60133 23.2644 8.40726 23.2644 8.1902V7.49653C23.2644 7.3709 23.137 7.25292 22.9117 7.1497C22.4522 6.93617 21.5904 6.78812 20.6113 6.76984L20.0421 6.76807C19.0311 6.77927 18.1239 6.92969 17.6508 7.1497C17.4255 7.25292 17.2939 7.3709 17.2939 7.49653V8.1902C17.2939 8.40726 17.9522 8.60133 18.2849 8.73404C18.2849 8.73168 18.338 8.72873 18.3409 8.72932C18.394 8.53467 18.4825 8.09995 18.4825 8.09995C18.4825 8.09995 18.4117 8.07164 18.3981 8.04274C18.3569 7.95544 18.4312 7.9053 18.5545 7.83629C18.6766 7.76963 18.8789 7.73011 19.0511 7.72363C19.1555 8.10408 19.1703 8.7016 19.1478 9.21418C19.103 10.2423 18.9072 11.5335 18.2955 12.4118C18.5285 12.6365 18.7851 12.9285 19.0482 13.3024C19.6828 12.0909 19.7825 10.7655 19.8356 9.39939C19.8592 8.79775 19.835 8.09405 19.8356 7.61273C19.8946 7.61214 20.0916 7.58855 20.2874 7.58855C20.4821 7.58855 20.6767 7.61214 20.7357 7.61273C20.7363 8.09405 20.7121 8.79834 20.7357 9.39999C20.7894 10.7897 20.8891 12.1387 21.5556 13.3685C21.7969 13.017 22.0334 12.7344 22.2528 12.5115L22.2982 12.4472C21.6671 11.5683 21.4689 10.2559 21.4235 9.21418C21.4011 8.70101 21.4158 8.10408 21.5202 7.72363C21.6925 7.72952 21.8942 7.76963 22.0169 7.83688C22.1396 7.9053 22.2133 7.95544 22.1726 8.04274C22.159 8.07164 22.0871 8.09995 22.0871 8.09995ZM30.6447 17.8083C30.6411 17.8071 30.6388 17.8042 30.6352 17.8036C30.6258 17.8018 30.6163 17.7995 30.6063 17.8001L30.5904 17.8012L30.486 17.8119C30.1226 17.8343 29.7699 17.8071 29.4779 17.6939C29.3128 17.6396 29.1706 17.5464 29.032 17.4491C28.8748 17.3129 28.7189 17.1753 28.5642 17.0362C28.2965 16.7873 27.7915 16.4216 27.2683 16.3703C26.6791 16.3119 26.3033 16.5266 25.881 16.6923C25.8608 16.7003 25.8432 16.7139 25.8302 16.7314C25.8173 16.7489 25.8095 16.7697 25.8079 16.7914C25.8066 16.8147 25.8125 16.8379 25.8249 16.8577C25.8372 16.8776 25.8554 16.8931 25.8769 16.9023C25.8918 16.9111 25.9086 16.9163 25.9258 16.9176C26.3435 16.9471 26.7416 17.0179 27.1197 17.1288C27.3999 17.2132 27.6777 17.3028 27.8983 17.4591C28.1873 17.6632 28.4368 17.9239 28.6032 18.0283C28.8191 18.1646 29.0102 18.2961 29.2579 18.3457C29.5174 18.3893 29.7888 18.371 30.0424 18.3056L30.0754 18.2955C30.1433 18.279 30.2076 18.2537 30.2725 18.2295C30.3609 18.1941 30.4465 18.1552 30.5261 18.1086L30.5355 18.1027C30.5874 18.0726 30.6417 18.0472 30.6907 18.0112L30.6954 18.0089C30.7131 17.9956 30.7265 17.9775 30.7339 17.9567C30.7413 17.9359 30.7424 17.9133 30.737 17.8919C30.7317 17.8705 30.7201 17.8511 30.7038 17.8363C30.6874 17.8214 30.6671 17.8117 30.6452 17.8083" fill="#0C1219"/>
<path fill-rule="evenodd" clip-rule="evenodd" d="M29.026 13.934C29.0525 14.0172 29.1416 14.1051 29.2413 14.1629C29.5563 14.3451 29.6683 14.6123 29.1971 14.6678C28.8538 14.7079 28.4951 14.4802 27.2264 14.8271C26.482 15.0305 25.6043 15.7791 25.2999 16.123C25.2055 16.2303 25.1082 16.353 25.018 16.4839C24.723 16.9069 24.7266 17.4767 25.0445 17.8825C25.2344 18.1243 25.4456 18.2812 25.5075 18.3225C26.6224 19.074 27.6682 18.4517 27.782 18.3384C27.8734 18.2476 27.8787 18.2116 27.861 18.188C27.8593 18.1851 27.8557 18.1857 27.854 18.1833C27.8532 18.1838 27.8524 18.1842 27.8516 18.1845V18.1833C27.8498 18.1804 27.4977 18.3691 27.0034 18.3691C26.7232 18.3691 26.436 18.3202 26.1982 18.214C26.0237 18.1349 25.6202 17.9202 25.3831 17.5415C25.3096 17.4206 25.2763 17.2796 25.2878 17.1386C25.2994 16.9976 25.3552 16.8638 25.4474 16.7565C25.6326 16.5362 25.8428 16.3382 26.0738 16.1666C26.5516 15.8162 27.1007 15.6051 27.7378 15.5956C27.7531 15.5956 27.7684 15.5933 27.7838 15.5933C28.1041 15.5933 28.4108 15.6487 28.6998 15.7431C29.2813 15.9333 29.7893 16.2993 30.1538 16.7907L30.1556 16.7871L30.1632 16.7954C30.2676 16.619 30.385 16.3548 30.4847 15.9837C30.5024 15.9189 30.5195 15.8522 30.5354 15.7803C30.677 15.1585 30.6357 13.7158 29.2572 13.7158C29.2324 13.7158 29.2065 13.7276 29.1811 13.7335C29.0343 13.7724 28.9995 13.8508 29.026 13.934ZM6.37215 10.5719C6.61399 10.8514 6.84344 11.0791 7.05638 11.305C7.14013 11.3941 7.22094 11.4832 7.29939 11.5746C7.57427 11.8967 7.76538 12.5809 6.91953 13.2244C6.80156 13.3141 6.68949 13.3913 6.56385 13.4545C6.42309 13.5236 6.2731 13.5721 6.11851 13.5984L6.11969 13.6007L6.10907 13.6031C7.06404 15.8209 8.57465 16.8143 8.57465 16.8143L8.56935 16.7995L8.58468 16.8095C8.58468 16.8095 8.3334 16.1902 8.48559 14.9214C8.56463 14.2596 8.74866 13.6013 8.78641 13.2569C8.83124 12.8463 8.76105 12.4665 8.50033 11.8943C8.18771 11.2065 8.07387 11.0113 7.91815 10.76C7.61379 10.2693 7.03219 9.2382 7.03219 9.2382C7.03219 9.2382 7.21387 9.05181 7.50997 8.90966C7.71194 8.81163 7.93314 8.75966 8.15763 8.75747C8.83242 8.75747 9.07603 9.15268 9.2229 9.32255C9.217 9.33258 9.21287 9.35028 9.20697 9.36207C9.05125 9.69062 8.96514 10.7176 9.09903 11.4501C9.26242 12.3509 9.83163 12.9708 10.1407 13.3495L10.1808 13.3908C10.4067 13.1654 10.8639 13.087 10.8674 13.0858C10.8674 13.0858 10.8556 12.6358 11.0845 12.2754C9.77441 12.0005 9.57032 11.3009 9.96788 9.85519C9.97142 9.84162 9.97968 9.83159 9.98322 9.81862C10.1749 9.1686 10.3637 9.00934 10.2369 8.37997C10.1348 8.12987 9.77087 7.7972 9.55027 7.64796C8.97103 7.25512 8.17768 7.0121 7.53003 7.12358C7.31705 7.16043 7.11184 7.23302 6.92307 7.33829C6.34383 7.65681 5.88965 8.29208 5.88965 9.22464C5.88965 9.33671 5.90439 9.44406 5.91796 9.55142C5.9563 9.86404 6.06719 10.2179 6.37215 10.5719ZM15.5715 11.2207C15.5715 11.2207 16.0463 11.2714 16.4179 11.4148C16.8674 11.5888 17.0384 11.738 17.0384 11.738L17.0839 11.6908C17.085 11.6918 17.0862 11.6928 17.0874 11.6938C17.0874 11.6938 17.4 11.3446 17.5699 10.9842C17.6407 10.8338 17.7221 10.5654 17.7262 10.5424C17.7723 10.2946 17.7505 10.039 17.6631 9.80269C17.6112 9.58917 17.4761 9.38921 17.2756 9.21107C17.1502 9.10158 17.0131 9.00624 16.8668 8.92676C16.6476 8.81805 16.4004 8.77894 16.1584 8.81469V8.81823L16.1484 8.81882C16.1537 8.82354 16.1761 9.10313 16.1253 9.64284C16.038 10.5748 15.5715 11.2207 15.5715 11.2207ZM14.5947 11.1818H14.5953C14.6307 11.1818 14.669 11.1717 14.7085 11.1552C14.9663 11.0567 15.2996 10.5878 15.5019 10.0286C15.716 9.43168 15.6535 8.91143 15.4028 8.67195C15.2761 8.55737 15.1238 8.47484 14.9586 8.43129C15.1887 8.34399 15.3597 8.11572 15.3727 7.83908C15.3892 7.47514 15.1261 7.16841 14.7858 7.15308C14.7001 7.14945 14.6147 7.16497 14.5357 7.1985C14.4187 7.24759 14.3184 7.32932 14.2466 7.43392C14.1749 7.53852 14.1348 7.66156 14.1311 7.78835C14.1181 8.06499 14.2667 8.30683 14.4879 8.41477C14.4761 8.41831 14.4643 8.42303 14.4513 8.42598C14.2968 8.45951 14.1509 8.52501 14.0231 8.61827C13.7536 8.83533 13.645 9.34792 13.8049 9.96077C13.9759 10.6155 14.3287 11.1505 14.5953 11.1818M11.6926 10.9387C11.7958 11.157 11.9498 11.3693 12.056 11.505C12.0695 11.4985 12.0796 11.4908 12.0931 11.4855C12.602 11.2956 13.1382 11.1892 13.681 11.1706L13.6786 11.167L13.6904 11.1658C13.6904 11.1658 13.2245 10.5205 13.1372 9.58858C13.0864 9.04827 13.1088 8.76868 13.1136 8.76455C12.8717 8.729 12.6248 8.7681 12.4057 8.87662L12.4016 8.87957L12.3957 8.88193C12.2495 8.9611 12.1125 9.05605 11.9869 9.16506C11.7864 9.34379 11.6513 9.54375 11.5994 9.75727C11.512 9.99382 11.4902 10.2496 11.5363 10.4975C11.5404 10.52 11.6218 10.7889 11.6926 10.9387ZM14.5257 16.9175C14.5427 16.9161 14.5593 16.9108 14.574 16.9021C14.5955 16.893 14.6137 16.8774 14.626 16.8576C14.6384 16.8377 14.6443 16.8146 14.6431 16.7913C14.6414 16.7696 14.6337 16.7489 14.6209 16.7314C14.608 16.7139 14.5906 16.7003 14.5705 16.6922C14.1476 16.527 13.7718 16.3117 13.1826 16.3701C12.66 16.4214 12.1545 16.7871 11.8867 17.0366C11.7321 17.1758 11.5762 17.3134 11.4189 17.4495C11.2803 17.5469 11.1382 17.6395 10.973 17.6937C10.681 17.807 10.3283 17.8341 9.96494 17.8117L9.86112 17.8011L9.84461 17.7999C9.83458 17.7993 9.82514 17.8017 9.81511 17.8034C9.81216 17.8034 9.8098 17.807 9.80685 17.8082H9.80626C9.78167 17.8119 9.75902 17.8237 9.74191 17.8418C9.72481 17.8598 9.71424 17.8831 9.71189 17.9078C9.71005 17.9269 9.71309 17.9461 9.72073 17.9636C9.72837 17.9812 9.74035 17.9965 9.75554 18.0081L9.76026 18.0111C9.80862 18.047 9.86348 18.0724 9.91539 18.1025L9.92541 18.1084C10.005 18.155 10.0906 18.1945 10.1791 18.2293C10.2439 18.2535 10.3076 18.2789 10.3755 18.2954L10.4091 18.3054C10.6627 18.3709 10.9335 18.3892 11.1936 18.3455C11.4413 18.296 11.6319 18.1644 11.8477 18.0282C12.0141 17.9238 12.2636 17.6631 12.5532 17.4584C12.7726 17.3027 13.051 17.213 13.3318 17.1287C13.7211 17.0158 14.1213 16.945 14.5257 16.9175Z" fill="#0C1219"/>
<path fill-rule="evenodd" clip-rule="evenodd" d="M9.91548 15.7803C9.93141 15.8523 9.94911 15.9183 9.9668 15.9838C10.0659 16.3548 10.1833 16.6191 10.2877 16.7954L10.2948 16.7872L10.2971 16.7907C10.6617 16.2992 11.17 15.9331 11.7517 15.7431C12.0407 15.6488 12.3469 15.5933 12.6671 15.5933C12.6825 15.5933 12.6978 15.5951 12.7132 15.5957C13.3502 15.6051 13.8988 15.8163 14.3771 16.1667C14.5895 16.3224 14.8166 16.533 15.0035 16.7565C15.1899 16.9789 15.2218 17.2956 15.0684 17.541C14.8307 17.9203 14.4273 18.135 14.2527 18.2134C14.015 18.3202 13.7277 18.3692 13.4475 18.3692C12.9532 18.3692 12.6017 18.1804 12.5993 18.1834V18.1845L12.5975 18.1834C12.5952 18.1857 12.5916 18.1851 12.5899 18.1881C12.5722 18.2117 12.5781 18.2471 12.6689 18.3385C12.7828 18.4517 13.8292 19.074 14.9434 18.3226C15.1181 18.1989 15.2741 18.0507 15.4064 17.8825C15.7249 17.4767 15.7279 16.9069 15.433 16.484C15.346 16.3583 15.2519 16.2378 15.151 16.123C14.8466 15.7791 13.9695 15.0306 13.2246 14.8271C11.9552 14.4803 11.5977 14.708 11.2544 14.6678C10.7826 14.6124 10.8946 14.3452 11.2096 14.1629C11.3099 14.1051 11.3984 14.0172 11.4249 13.9341C11.4515 13.8509 11.4167 13.7724 11.2698 13.7335C11.2444 13.7276 11.2191 13.7158 11.1931 13.7158C9.81521 13.7158 9.77392 15.1586 9.91548 15.7803ZM26.6844 36.946L26.6867 36.9607H26.695C26.6909 36.9554 26.6891 36.9507 26.6844 36.946ZM21.0082 22.9576C21.0548 23.0485 21.2347 23.1936 21.2737 23.472C21.2784 23.5015 21.9697 22.7423 21.9697 22.7423V22.0127L21.2318 22.3223L21.0076 22.9576M16.5059 42.1054C16.8318 42.0179 17.1527 41.913 17.4674 41.791C17.6266 41.7291 17.7871 41.6595 17.9463 41.5786C18.1068 41.4978 18.2654 41.4058 18.42 41.2973C18.5722 41.1911 18.7131 41.0572 18.8329 40.9062C18.8936 40.8304 18.9455 40.7479 18.9874 40.6602C19.008 40.6131 19.0311 40.5653 19.0464 40.5216L19.0759 40.4019L19.0777 40.3972C19.1025 40.3866 19.1242 40.3699 19.1408 40.3487C19.1574 40.3275 19.1684 40.3023 19.1726 40.2757C19.1769 40.2491 19.1743 40.2218 19.1651 40.1964C19.1559 40.1711 19.1405 40.1485 19.1202 40.1307C19.0999 40.113 19.0754 40.1007 19.049 40.095C19.0227 40.0893 18.9953 40.0903 18.9695 40.0981C18.9436 40.1059 18.9202 40.1201 18.9014 40.1394C18.8825 40.1587 18.8689 40.1824 18.8618 40.2084C18.8325 40.2172 18.8063 40.2342 18.7863 40.2574C18.6952 40.3644 18.5847 40.4533 18.4607 40.5193C18.342 40.5792 18.218 40.628 18.0902 40.665C17.8213 40.7428 17.5246 40.7829 17.222 40.8219C16.9229 40.8602 16.5979 40.8932 16.3012 40.9221C16.0033 40.9493 15.6996 40.964 15.3923 40.9752L14.4385 41.0059C14.1076 41.0236 13.7625 41.0407 13.3667 41.1315C13.2021 41.1679 13.0418 41.2212 12.8883 41.2908C12.8323 41.3168 12.7763 41.3457 12.7196 41.3805C12.5032 41.5149 12.2867 41.7332 12.1805 41.9874C12.0797 42.2129 12.0515 42.4642 12.0997 42.7064C12.1498 42.9212 12.2371 43.1064 12.3923 43.2674C12.4218 43.2976 12.4599 43.3182 12.5013 43.3264C12.5428 43.3346 12.5858 43.3301 12.6247 43.3134C12.6584 43.2939 12.69 43.271 12.719 43.245C12.9939 42.8038 13.582 42.5667 13.6964 42.5395C14.1713 42.4292 14.8502 42.3991 15.5037 42.3036C15.8364 42.2552 16.1709 42.1933 16.5065 42.1054M13.5154 40.278C13.5134 40.3078 13.52 40.3376 13.5341 40.3638C13.5483 40.3901 13.5696 40.4119 13.5956 40.4266C13.6215 40.4414 13.6511 40.4486 13.6809 40.4473C13.7108 40.4461 13.7396 40.4365 13.7643 40.4196L13.769 40.4166C13.7708 40.4155 13.7725 40.4161 13.7725 40.4161L13.8244 40.3813C13.8999 40.3305 13.9766 40.2881 14.0533 40.2533C14.2875 40.1471 14.5252 40.1081 14.7576 40.1034C15.0785 40.094 15.4035 40.1329 15.778 40.199C16.2073 40.277 16.6447 40.3004 17.0798 40.2686C17.304 40.2521 17.5305 40.2096 17.7605 40.1471C17.8755 40.1087 17.9929 40.0704 18.1109 40.0085L18.1132 40.0067L18.1209 40.0037C18.23 39.9418 18.3828 39.8634 18.4595 39.6958C18.4677 39.6779 18.4717 39.6582 18.4712 39.6385C18.4707 39.6187 18.4656 39.5993 18.4565 39.5818C18.4473 39.5642 18.4343 39.549 18.4183 39.5373C18.4024 39.5256 18.384 39.5177 18.3645 39.5142C18.3645 39.5142 17.9156 39.4304 17.7328 39.3785L17.1624 39.2322C16.7714 39.1348 16.3769 39.0517 15.9798 38.9833C15.535 38.9072 15.0065 38.9108 14.5134 39.1013C14.4514 39.1255 14.3895 39.1532 14.3293 39.185C13.91 39.3991 13.549 39.7867 13.5154 40.278ZM14.1595 38.7073C14.1795 38.7014 14.442 38.6082 14.5659 38.5675L14.5623 38.5663C14.5671 38.5645 13.0205 38.0089 13.8982 37.0167L13.9017 36.9784C13.8988 36.9819 13.897 36.9713 13.8946 36.9749C13.746 36.9533 13.5944 36.9713 13.4551 37.0273C13.3157 37.0832 13.1937 37.175 13.1013 37.2934C12.6807 37.8124 13.257 38.3752 13.2723 38.3858C13.1862 38.3799 12.9798 38.3486 12.8936 38.3398C12.5197 38.085 11.9003 37.4579 12.7892 36.1314C12.6394 36.1123 12.4872 36.1347 12.3492 36.1963C12.2796 36.2187 12.2135 36.2464 12.1498 36.2777C11.7128 36.49 11.4143 36.9017 11.4143 37.3795C11.4143 37.5741 11.4674 37.757 11.5559 37.9216C11.6196 38.0413 11.7057 38.1487 11.8065 38.243C11.7405 38.2371 11.4574 38.22 11.3901 38.2C10.9825 37.734 10.5325 36.8616 11.4007 35.8406C11.2509 35.8214 11.0986 35.8439 10.9607 35.9055C10.8845 35.9331 10.8108 35.9674 10.7407 36.0081C10.2605 36.2818 10.0258 36.8044 10.0258 37.2362C10.0258 37.4308 10.0966 37.7493 10.1674 37.9216C10.7377 39.3107 13.431 38.8895 14.1595 38.7073ZM27.8564 41.3805C27.8019 41.3474 27.7456 41.3175 27.6877 41.2908C27.534 41.2212 27.3735 41.1678 27.2088 41.1315C26.8136 41.0407 26.4685 41.0236 26.137 41.0059L25.1838 40.9752C24.8806 40.9658 24.5777 40.9481 24.2754 40.9221C23.9678 40.8932 23.6607 40.8597 23.3541 40.8219C23.0509 40.7835 22.7548 40.7428 22.4858 40.665C22.3579 40.6279 22.2337 40.5792 22.1148 40.5193C21.9907 40.4533 21.8802 40.3645 21.7892 40.2574C21.7692 40.2342 21.743 40.2173 21.7137 40.2084C21.683 40.1959 21.6492 40.1932 21.617 40.2008C21.5962 40.2058 21.5767 40.2149 21.5595 40.2275C21.5423 40.2401 21.5277 40.256 21.5166 40.2742C21.5056 40.2925 21.4982 40.3127 21.495 40.3338C21.4917 40.3549 21.4927 40.3765 21.4978 40.3972L21.4996 40.4019L21.5291 40.5216C21.5444 40.5653 21.5674 40.6137 21.5881 40.6602C21.6323 40.7487 21.6813 40.8313 21.7426 40.9062C21.8629 41.0572 22.0039 41.1911 22.1555 41.2973C22.3106 41.4058 22.4693 41.4978 22.6297 41.5792C22.789 41.6595 22.9488 41.7291 23.1087 41.791C23.4319 41.9149 23.7357 42.0169 24.0702 42.1054C24.4052 42.1933 24.7396 42.2552 25.0717 42.3036C25.7259 42.3991 26.4048 42.4292 26.879 42.5395C26.9941 42.5667 27.5821 42.8038 27.8564 43.245C27.8564 43.245 27.9242 43.304 27.9508 43.3134C28.0287 43.3464 28.1218 43.3317 28.1838 43.2674C28.3383 43.1064 28.4262 42.9212 28.4763 42.7064C28.5194 42.4929 28.5064 42.2405 28.3955 41.9868C28.2894 41.7332 28.0729 41.5149 27.8564 41.3805ZM22.4551 40.0037L22.461 40.0061L22.464 40.0079C22.5831 40.0704 22.6999 40.1082 22.815 40.1471C23.045 40.209 23.2721 40.2521 23.4962 40.2686C23.9386 40.304 24.394 40.2715 24.798 40.199C25.1726 40.1323 25.4976 40.094 25.8185 40.1034C26.0515 40.1081 26.288 40.1465 26.5228 40.2533C26.5994 40.2886 26.6761 40.3299 26.7516 40.3813L26.8024 40.4155H26.8053L26.8118 40.4202C26.8401 40.4391 26.8749 40.4497 26.9121 40.4467C26.954 40.4438 26.993 40.4245 27.0207 40.3929C27.0483 40.3612 27.0623 40.3199 27.0595 40.278C27.0271 39.7861 26.6661 39.3991 26.2467 39.185C26.187 39.1539 26.1255 39.1262 26.0627 39.1019C25.5696 38.9108 25.0411 38.9072 24.5963 38.9839C24.1775 39.0541 23.8047 39.1373 23.4137 39.2316L22.8433 39.3779C22.6604 39.4304 22.2121 39.5142 22.2121 39.5142C22.1927 39.5177 22.1743 39.5256 22.1583 39.5373C22.1424 39.549 22.1293 39.5642 22.1202 39.5818C22.111 39.5993 22.106 39.6187 22.1054 39.6385C22.1049 39.6582 22.1089 39.6779 22.1172 39.6958C22.1932 39.8634 22.346 39.9418 22.4551 40.0037ZM29.8348 36.0087C29.7648 35.968 29.6914 35.9337 29.6154 35.906C29.4774 35.8444 29.3252 35.822 29.1753 35.8412C30.0436 36.8616 29.5935 37.7346 29.1859 38.2006C29.1187 38.22 28.8356 38.2377 28.7695 38.243C28.8698 38.1487 28.9559 38.0413 29.0202 37.9216C29.1087 37.7564 29.1618 37.5747 29.1618 37.3795C29.1618 36.9017 28.8633 36.49 28.4256 36.2777C28.3614 36.2458 28.295 36.2186 28.2268 36.1963C28.0889 36.1348 27.9367 36.1123 27.7868 36.1314C28.6757 37.4585 28.0558 38.085 27.6824 38.3398C27.5963 38.3486 27.3898 38.3799 27.3031 38.3858C27.3191 38.3752 27.8948 37.8124 27.4748 37.294C27.3823 37.1756 27.2601 37.0837 27.1207 37.0278C26.9813 36.9719 26.8295 36.9538 26.6808 36.9754C26.6791 36.9713 26.6767 36.9819 26.6738 36.9784L26.6779 37.0167C27.5556 38.0089 26.009 38.5645 26.0137 38.5663L26.0102 38.5675C26.134 38.6087 26.3959 38.7019 26.4172 38.7073C27.1451 38.8901 29.8383 39.3107 30.4087 37.9216C30.4795 37.7487 30.5503 37.4308 30.5503 37.2362C30.5503 36.8044 30.3155 36.2818 29.8348 36.0081M22.7984 31.9358C22.7837 31.9157 22.7365 31.9051 22.7365 31.9051C22.7147 31.9004 22.692 31.9036 22.6722 31.9139C22.4728 32.0351 22.3184 32.2179 22.2322 32.4348C22.198 32.5268 22.1702 32.6194 22.1909 32.7179C22.2133 32.817 22.2617 32.9196 22.3991 33.0329C22.4298 33.0577 22.5477 33.1013 22.6309 33.0742C22.8002 33.0193 22.8846 32.9438 22.9424 32.8601C22.9984 32.7763 23.0072 32.6801 23.0102 32.5828C23.0117 32.3498 22.9372 32.1226 22.7978 31.9358" fill="#0C1219"/>
<path fill-rule="evenodd" clip-rule="evenodd" d="M23.0238 26.4672C23.0214 26.4648 23.019 26.4622 23.0168 26.4596L22.9731 26.4879C22.7681 26.5794 22.5774 26.7 22.4068 26.8459C21.6577 27.4771 21.0118 28.6573 20.7293 30.0742C20.4597 31.4285 20.586 32.6866 20.9977 33.5242C21.2714 34.0816 21.6701 34.4544 22.1674 34.5388C22.6558 34.6207 23.163 34.4114 23.6278 33.9937C24.3451 33.3484 24.9585 32.2024 25.2316 30.8327C25.5101 29.4336 25.3673 28.1347 24.9232 27.2995C24.6518 26.7869 24.2661 26.4484 23.7936 26.3687C23.54 26.3257 23.2798 26.364 23.0232 26.4672H23.0238ZM21.4271 30.1414C21.4442 30.0453 21.5061 29.7686 21.5262 29.6754C21.5303 29.6796 21.5887 29.8229 21.7338 29.9226C21.9031 30.0382 22.0087 30.0435 22.0936 30.0541C22.0936 30.0541 21.9698 29.8783 21.9403 29.6536C21.9019 29.3675 22.0352 29.1381 22.0352 29.1381C22.106 29.2525 22.4529 30.0901 22.5873 30.3673C22.5622 30.4447 22.5415 30.5235 22.5254 30.6033C22.516 30.6481 22.5113 30.6923 22.5048 30.7372C22.5012 30.7625 22.4953 30.7873 22.493 30.8127C22.4711 30.8321 21.5268 31.9764 21.3015 32.2024C21.1717 31.4249 21.3262 30.7136 21.4271 30.1414ZM22.3473 33.8244C22.0264 33.7826 21.8494 33.5991 21.7444 33.477C21.4507 33.1361 21.4171 32.8105 21.4165 32.8075L22.5561 31.4249C22.6174 31.5972 22.7431 31.6567 22.7767 31.6615L22.7826 31.6644C22.8882 31.6851 22.9996 31.6231 23.1017 31.5081C23.1306 31.5789 23.7918 32.794 23.8184 32.8134C23.4055 33.4876 22.7743 33.8805 22.3479 33.8244H22.3473ZM24.5769 30.8634C24.5291 31.1335 24.4814 31.3264 24.4035 31.5712C24.3333 31.7861 24.251 31.9968 24.1569 32.2024C24.0006 31.9953 23.7016 31.4969 23.3901 30.9295C23.4041 30.88 23.4163 30.83 23.4267 30.7796C23.4473 30.677 23.4574 30.5779 23.4621 30.4823C23.7818 30.1697 24.0856 29.8028 24.4059 29.443C24.4059 29.443 24.5533 29.587 24.5002 29.8435C24.4513 30.0824 24.2307 30.2328 24.2307 30.2328C24.4371 30.2387 24.5221 30.2494 24.7067 30.1697C24.6843 30.3567 24.6105 30.6711 24.5769 30.864V30.8634ZM24.1528 27.3791C24.2088 27.4299 24.2602 27.4894 24.3097 27.5549L24.3569 27.6316L24.4135 27.7437C24.5162 27.9578 24.5828 28.1813 24.6329 28.4426C24.5878 28.4273 24.5403 28.4197 24.4926 28.4202C23.8673 28.4043 23.5211 28.7594 23.4137 29.3144C23.4137 29.3144 23.6137 29.1623 23.783 29.1198C23.9322 29.0832 24.1428 29.1104 24.1428 29.1104C23.9057 29.3964 23.6532 29.6719 23.3907 29.9415C23.3394 29.8182 23.2639 29.7368 23.1689 29.7173C23.0669 29.6978 22.9589 29.7557 22.8587 29.8642C22.7537 29.6282 22.5118 29.0384 22.4629 28.8998C22.4629 28.8998 22.644 28.8827 22.7956 28.9517C22.9648 29.029 23.1306 29.2431 23.1306 29.2431C23.1571 29.1074 23.1306 28.8431 23.0828 28.6957C22.9855 28.3937 22.7596 28.2026 22.3915 28.156C22.3198 28.1482 22.2474 28.1502 22.1762 28.1619C22.4588 27.726 22.7808 27.4069 23.1094 27.2494C23.0185 27.9342 23.9605 28.0746 24.1534 27.3791H24.1528Z" fill="#0C1219"/>
<path fill-rule="evenodd" clip-rule="evenodd" d="M40.4881 23.4011C40.4705 23.3417 40.441 23.2866 40.4015 23.2389C40.3619 23.1913 40.3131 23.1521 40.2581 23.1239C40.2042 23.0943 40.1451 23.0758 40.084 23.0693C40.0229 23.0628 39.9612 23.0685 39.9024 23.0861L39.8823 23.092C39.3485 23.2507 38.7887 23.4164 38.2396 23.5433C37.9653 23.6111 37.691 23.676 37.4179 23.7355C37.1454 23.7934 36.8764 23.84 36.5803 23.8789C36.0058 23.9556 35.4278 24.0193 34.8521 24.0688C34.4816 24.0995 34.103 24.1249 33.7343 24.1414C33.9469 24.0855 34.1583 24.0254 34.3684 23.9609C34.6773 23.8641 34.9839 23.76 35.288 23.6488C35.8882 23.4292 36.4813 23.1906 37.0664 22.9333C37.6521 22.6838 38.2661 22.4007 38.8094 22.0509C39.3562 21.6917 39.8699 21.3172 40.3501 20.8506C40.4034 20.7987 40.4433 20.7347 40.4665 20.664C40.4897 20.5933 40.4953 20.5181 40.483 20.4447C40.4707 20.3714 40.4408 20.3021 40.3959 20.2428C40.351 20.1836 40.2923 20.1361 40.225 20.1044C40.1565 20.07 40.0804 20.0531 40.0037 20.0552C39.927 20.0574 39.8521 20.0785 39.7856 20.1168L39.7667 20.128C39.26 20.4194 38.7239 20.7185 38.1889 20.9739C37.6486 21.2375 37.1348 21.4894 36.5579 21.6852C35.9852 21.8846 35.4012 22.071 34.8202 22.2326C34.5294 22.3134 34.238 22.3889 33.949 22.4544L33.7555 22.4951C33.8998 22.4342 34.0426 22.3699 34.1838 22.3022C34.4993 22.1488 34.8019 21.9855 35.098 21.8168C35.6821 21.4794 36.2527 21.1193 36.8086 20.7373C37.3755 20.3569 37.9405 19.9428 38.4325 19.4709C38.9238 18.9884 39.3762 18.4959 39.7732 17.9125C39.8108 17.8568 39.8358 17.7936 39.8463 17.7272C39.8568 17.6609 39.8527 17.593 39.8342 17.5284C39.8157 17.4638 39.7833 17.404 39.7392 17.3533C39.6952 17.3026 39.6405 17.2621 39.5791 17.2348C39.4963 17.1951 39.4036 17.181 39.3127 17.1942C39.2218 17.2075 39.137 17.2475 39.0689 17.3091L39.0512 17.3244C38.5896 17.7488 38.1094 18.1524 37.612 18.5342C37.1124 18.9176 36.6252 19.2898 36.0784 19.6019C35.9763 19.6609 35.8719 19.7163 35.7693 19.7741C35.3187 20.0315 34.8595 20.2737 34.3926 20.5002C34.3029 20.5433 34.2133 20.5828 34.1236 20.6241C33.9543 20.7008 33.7856 20.7739 33.6169 20.8423L33.7089 20.7804C33.9077 20.6406 34.0947 20.4955 34.2775 20.3486C34.3784 20.2672 34.4799 20.1864 34.5784 20.1032C35.121 19.6432 35.6271 19.1577 36.112 18.6652L36.1309 18.6475C36.6452 18.1261 37.1265 17.5887 37.5347 16.9959C37.9376 16.3966 38.298 15.7938 38.5799 15.1072C38.6195 15.0108 38.625 14.9038 38.5958 14.8038C38.5665 14.7038 38.5042 14.6168 38.4189 14.5569L38.4101 14.5533L38.4095 14.5527C38.3092 14.4822 38.185 14.4543 38.0642 14.4751C37.9434 14.4959 37.8357 14.5637 37.7648 14.6636L37.7512 14.6825C37.3796 15.2075 36.9702 15.7501 36.5402 16.245C36.4122 16.3948 36.283 16.5435 36.1527 16.6915C35.8483 17.0366 35.5351 17.3716 35.1959 17.6707C35.0255 17.8211 34.8532 17.965 34.681 18.1095C34.369 18.3714 34.0546 18.6268 33.7331 18.8657C33.7833 18.8014 33.8334 18.7377 33.8812 18.6728C34.1466 18.3101 34.392 17.9414 34.6262 17.5686C34.7884 17.3109 34.9464 17.0508 35.0998 16.7895C35.3711 16.3376 35.6183 15.8752 35.8318 15.3992C35.928 15.1856 36.0194 14.9703 36.0996 14.7515C36.3562 14.0378 36.5638 13.33 36.6729 12.5584C36.6877 12.4532 36.6655 12.3461 36.6102 12.2554C36.555 12.1646 36.47 12.0958 36.3698 12.0606H36.368C36.365 12.0594 36.3633 12.0571 36.3603 12.0565C36.245 12.0156 36.1182 12.022 36.0076 12.0744C35.8971 12.1268 35.8118 12.2209 35.7705 12.3361L35.7628 12.3585C35.5681 12.9059 35.3328 13.4686 35.0786 14.0112C35.0385 14.098 35.0019 14.1876 34.9606 14.2726C34.6733 14.8606 34.3737 15.4393 34.0239 15.9831C34.0033 16.015 33.9844 16.0486 33.9632 16.0805C33.7007 16.4639 33.4264 16.8366 33.1468 17.1994C32.2827 18.1579 30.8263 19.117 30.0383 19.4986C29.6549 19.6839 29.2632 19.9381 28.8704 20.1298L28.8527 20.1386C28.5872 20.2666 28.3596 20.4713 28.2257 20.732C28.1915 20.7981 28.1643 20.8677 28.1407 20.9397C28.0994 21.0665 28.0735 21.1992 28.0735 21.3407C28.0735 21.8421 28.3478 22.3234 28.7601 22.5387C28.8975 22.6119 29.0503 22.6561 29.2137 22.6608C29.2408 22.6614 29.262 22.6573 29.2856 22.6549C29.4266 22.6396 29.5051 22.5794 29.5051 22.5794C29.5051 22.5794 29.3948 22.2845 29.564 22.1524C29.6492 22.0957 29.7472 22.0609 29.849 22.0512C29.9509 22.0416 30.0536 22.0573 30.148 22.0969C30.3662 22.1925 30.5202 22.4096 30.5202 22.6632C30.5202 22.9776 30.2843 23.2342 29.9799 23.2743C29.8425 23.3285 29.577 23.3368 29.4089 23.3368C29.0661 23.3356 28.7242 23.3032 28.3873 23.2401C27.9406 23.1569 27.5059 23.0188 27.0932 22.8289C26.6006 22.603 25.697 21.9436 25.7105 21.9058C24.7798 21.0458 24.1917 19.8649 24.1415 18.5578C24.1392 18.4977 24.1315 18.4387 24.1315 18.3779C24.1324 17.8612 24.2162 17.348 24.3798 16.8579C24.559 16.3141 24.833 15.8062 25.1891 15.3579C25.2239 15.3154 25.3826 15.1408 25.5884 14.9379L25.625 14.9019L25.6315 14.8954C25.8586 14.6731 26.1329 14.4247 26.3688 14.272H26.3676L26.37 14.2702C26.3458 14.2527 26.3231 14.2332 26.3022 14.2118C26.2756 14.1862 26.2498 14.1599 26.2249 14.1328C25.7967 14.0915 25.6445 13.888 25.5725 13.7163L25.566 13.7004L25.5495 13.6603C25.5277 13.5954 25.5283 13.4019 25.5359 13.3742C25.5684 13.2167 25.6634 13.061 25.7448 12.9849C25.7825 12.9413 25.8226 12.9035 25.8651 12.8711C25.9943 12.772 26.1405 12.7177 26.2957 12.6882C26.3352 12.6794 26.3741 12.6723 26.4136 12.6682L26.429 12.6658C26.8265 12.6245 27.2194 12.7956 27.3769 13.2008L27.3786 13.2037C27.3568 13.2191 27.1268 13.2615 27.1268 13.2615H27.1256C27.0442 13.0875 26.9085 13.0144 26.7493 13.0262C26.6925 13.0314 26.6369 13.0449 26.5841 13.0663C26.549 13.0795 26.5165 13.0986 26.488 13.1229C26.2326 13.3388 26.4573 13.8862 26.8112 13.9245C26.8702 13.9306 26.9298 13.9227 26.9852 13.9015L26.9917 13.8992C27.1468 13.8378 28.1337 13.6019 28.7276 13.5093C28.8415 13.4916 28.9423 13.478 29.0184 13.4727C29.021 13.4712 29.0236 13.4697 29.0261 13.468L29.0273 13.4674C29.1299 13.3011 29.134 12.2098 28.2711 11.8548C27.5886 11.5734 26.9958 11.5286 26.4602 11.5274C25.9961 11.5257 25.5332 11.5756 25.08 11.676C23.3228 12.06 22.2534 13.0734 21.2743 15.2653C20.6107 16.5612 20.373 17.804 20.2774 18.1461L20.1795 18.1473C20.081 17.7804 19.8433 16.5441 19.1891 15.267C18.21 13.0746 17.1353 12.0612 15.3787 11.6772C14.9235 11.5769 14.4586 11.5273 13.9925 11.5292C13.457 11.5292 12.8642 11.5752 12.1817 11.8559C11.3182 12.2116 11.3229 13.3028 11.4255 13.4686C11.4278 13.47 11.4302 13.4714 11.4326 13.4727C11.5087 13.478 11.6095 13.491 11.7234 13.5093C12.3174 13.6019 13.3042 13.8378 13.4593 13.8992L13.4652 13.9015C13.526 13.924 13.585 13.931 13.6398 13.9245C14.0303 13.8821 14.2627 13.2226 13.8699 13.0681C13.8167 13.0465 13.7606 13.033 13.7035 13.028C13.5443 13.0162 13.4086 13.0893 13.3272 13.2633H13.326C13.326 13.2633 13.0836 13.2179 13.0724 13.2043L13.0741 13.2008C13.2316 12.7956 13.6245 12.6239 14.022 12.6658C14.0279 12.6658 14.0321 12.6676 14.0374 12.6682C14.0769 12.6723 14.1158 12.68 14.1553 12.6876C14.3618 12.7277 14.5541 12.8115 14.7086 12.9861C14.7894 13.0628 14.8844 13.2185 14.9168 13.376C14.9245 13.4031 14.9257 13.5972 14.9033 13.6615C14.8991 13.6733 14.8921 13.6886 14.8868 13.7022L14.8809 13.7181C14.8089 13.8897 14.6567 14.0926 14.2279 14.1339C14.203 14.1613 14.1772 14.1878 14.1506 14.2136C14.1297 14.2349 14.107 14.2544 14.0828 14.272C14.3335 14.4354 14.6296 14.7067 14.8643 14.9391C15.0702 15.1426 15.2295 15.3172 15.2637 15.3602C15.6199 15.8085 15.8939 16.3164 16.073 16.8602C16.2371 17.3512 16.3212 17.8655 16.3219 18.3832C16.3219 18.444 16.3142 18.5065 16.3118 18.5661C16.3074 18.6745 16.2994 18.7827 16.2877 18.8905C16.1709 19.4391 15.9255 20.328 15.4707 21.08C15.4471 21.1142 15.4241 21.1485 15.3999 21.1821H15.4076C15.2394 21.451 15.0339 21.6947 14.7971 21.9058C14.8107 21.9436 13.907 22.603 13.4151 22.8289C13.0021 23.0189 12.5672 23.157 12.1204 23.2401C11.79 23.3008 11.4485 23.3368 11.0987 23.3368C10.9306 23.3368 10.6658 23.3285 10.5278 23.2743C10.3791 23.2553 10.2424 23.1829 10.1431 23.0706C10.0438 22.9582 9.98869 22.8137 9.98804 22.6638C9.98804 22.4102 10.1414 22.1919 10.3608 22.0963C10.4553 22.057 10.558 22.0415 10.6598 22.0513C10.7617 22.0611 10.8595 22.0958 10.9448 22.1524C11.1129 22.2845 11.0026 22.5794 11.0026 22.5794C11.0026 22.5794 11.081 22.6396 11.2226 22.6549C11.2462 22.6573 11.2668 22.6614 11.2946 22.6608C11.4574 22.6561 11.6101 22.6119 11.7476 22.5387C12.1605 22.3234 12.4342 21.8427 12.4342 21.3402C12.4342 21.1998 12.4088 21.0665 12.3669 20.9397C12.344 20.8683 12.3156 20.7989 12.282 20.732C12.1428 20.4717 11.923 20.2635 11.6556 20.1386L11.6379 20.1298C11.245 19.9381 10.8534 19.6839 10.4699 19.4986C9.68191 19.117 8.22556 18.1579 7.36143 17.1994C7.07845 16.8343 6.80602 16.4612 6.54448 16.0805C6.52384 16.0486 6.50437 16.0156 6.48373 15.9831C6.13395 15.4393 5.8343 14.8606 5.54704 14.2726C5.50575 14.1876 5.47036 14.098 5.42907 14.0112C5.17485 13.4686 4.9395 12.9059 4.74485 12.3585L4.73718 12.3361C4.69584 12.2209 4.61056 12.1268 4.5 12.0744C4.38945 12.022 4.26263 12.0156 4.14733 12.0565C4.14497 12.0571 4.1432 12.0594 4.14025 12.0606H4.13789C4.03764 12.0958 3.95267 12.1646 3.8974 12.2554C3.84214 12.3461 3.81998 12.4532 3.8347 12.5584C3.94442 13.33 4.15145 14.0384 4.40804 14.7515C4.48826 14.9703 4.57969 15.1856 4.67583 15.3992C4.88995 15.8746 5.1371 16.3376 5.40784 16.7895C5.5612 17.0508 5.71928 17.3109 5.88208 17.5686C6.11625 17.9408 6.36104 18.3101 6.62647 18.6728C6.67366 18.7377 6.72498 18.8014 6.77453 18.8657C6.45135 18.6231 6.13545 18.3709 5.82722 18.1095C5.65499 17.965 5.48275 17.8211 5.31228 17.6707C4.97253 17.3716 4.65991 17.0366 4.35495 16.6915C4.22519 16.5441 4.09542 16.3948 3.96742 16.245C3.53863 15.7443 3.13469 15.2228 2.75704 14.6825L2.74289 14.6636C2.67202 14.5637 2.56451 14.4959 2.44382 14.475C2.32314 14.4542 2.19909 14.4819 2.09877 14.5521L2.09818 14.5533L2.08933 14.5569C2.00397 14.6167 1.94148 14.7037 1.91211 14.8037C1.88274 14.9037 1.88824 15.0107 1.92771 15.1072C2.20966 15.7938 2.57065 16.3966 2.97293 16.9965C3.3817 17.5887 3.86302 18.1261 4.37678 18.6469L4.39565 18.6652C4.88051 19.1577 5.3866 19.6432 5.92986 20.1032C6.02777 20.1858 6.12923 20.2672 6.23068 20.3486C6.41354 20.4961 6.60052 20.6406 6.79871 20.7804L6.89073 20.8423C6.72049 20.7732 6.55176 20.7004 6.38463 20.6241C6.29498 20.5828 6.20473 20.5433 6.11507 20.5002C5.64838 20.2738 5.18942 20.0318 4.73895 19.7747C4.63572 19.7163 4.5325 19.6609 4.42928 19.6019C3.88307 19.2898 3.39585 18.9176 2.89566 18.5342C2.39824 18.1527 1.91802 17.7492 1.45642 17.325L1.43873 17.3091C1.37067 17.2475 1.2858 17.2075 1.19493 17.1942C1.10407 17.181 1.01132 17.1951 0.928504 17.2348C0.867125 17.2621 0.812481 17.3026 0.768413 17.3533C0.724345 17.404 0.691923 17.4638 0.673426 17.5284C0.654929 17.593 0.650807 17.6609 0.661348 17.7272C0.67189 17.7936 0.696839 17.8568 0.734443 17.9125C1.132 18.4965 1.58383 18.9884 2.07577 19.4709C2.5677 19.9428 3.13219 20.3569 3.69904 20.7367C4.25232 21.1142 4.81799 21.4776 5.40961 21.8162C5.70571 21.9855 6.00831 22.1488 6.32388 22.3022C6.46308 22.3689 6.60642 22.4332 6.7527 22.4951L6.55923 22.4538C6.2702 22.3889 5.97823 22.3134 5.68802 22.2326C5.10315 22.0685 4.52362 21.886 3.95032 21.6852C3.37285 21.4894 2.85909 21.2375 2.31878 20.9739C1.78379 20.7185 1.24761 20.4194 0.740931 20.128L0.722056 20.1168C0.655576 20.0787 0.580698 20.0577 0.504116 20.0557C0.427534 20.0536 0.351636 20.0706 0.283206 20.105C0.215755 20.1364 0.156952 20.1838 0.111865 20.2429C0.0667777 20.3021 0.0367587 20.3714 0.0243948 20.4448C0.0120309 20.5181 0.0176928 20.5934 0.0408926 20.6641C0.0640924 20.7348 0.104134 20.7988 0.157568 20.8506C0.638297 21.3172 1.15147 21.6917 1.69885 22.0509C2.24151 22.4007 2.85614 22.6838 3.44186 22.9333C4.02818 23.1899 4.61508 23.4288 5.22027 23.6488C5.52227 23.7591 5.82781 23.8635 6.13926 23.9609C6.29557 24.0086 6.45306 24.0552 6.6135 24.0989L6.77335 24.1414C6.40053 24.1242 6.02807 24.1001 5.65617 24.0688C5.07849 24.0189 4.50205 23.9555 3.92731 23.8789C3.64635 23.8421 3.36694 23.7943 3.08972 23.7355C2.81499 23.6751 2.54108 23.611 2.26806 23.5433C1.7195 23.417 1.15973 23.2507 0.62532 23.092L0.605855 23.0861C0.547023 23.0685 0.485286 23.0628 0.424228 23.0693C0.36317 23.0758 0.304007 23.0943 0.250175 23.1239C0.177411 23.1611 0.115898 23.2171 0.0719761 23.286C0.0280548 23.3549 0.00331594 23.4343 0.00031074 23.516C-0.00269446 23.5977 0.0161428 23.6787 0.0548799 23.7507C0.093617 23.8227 0.150852 23.883 0.220682 23.9255C0.760986 24.257 1.3125 24.5012 1.89173 24.7253C2.46271 24.9418 3.09798 25.0816 3.68193 25.2019C4.27178 25.3293 4.86164 25.4449 5.45798 25.5446C5.99474 25.6331 6.51617 25.7104 7.07771 25.7682C6.73598 25.8091 6.39385 25.8467 6.05137 25.8808C5.50163 25.9345 4.95011 25.9799 4.39801 26.0153C4.26117 26.0254 4.12491 26.0301 3.98335 26.0354L3.58815 26.0419L2.78772 26.0271C2.25095 26.0212 1.69885 25.9835 1.1668 25.9546L1.14911 25.954C1.05653 25.9488 0.964509 25.9714 0.884855 26.0189C0.807136 26.0624 0.743724 26.1276 0.702319 26.2064C0.660914 26.2853 0.643295 26.3745 0.651602 26.4632C0.659909 26.5519 0.693784 26.6362 0.749116 26.7061C0.804447 26.7759 0.878855 26.8281 0.963305 26.8565C1.52956 27.0499 2.08874 27.1649 2.66857 27.2593C2.95818 27.3012 3.25075 27.3283 3.54627 27.3407C3.69373 27.3478 3.84237 27.3513 3.99101 27.3525L4.4163 27.3584C4.98551 27.3708 5.55471 27.3738 6.12274 27.3667C6.51676 27.362 6.60288 27.3614 6.99808 27.3478L7.04999 27.5189C6.39938 27.7224 5.95522 27.8551 5.29931 28.0379C4.78849 28.1807 4.30482 28.2756 3.80108 28.3789C3.30266 28.4909 2.78477 28.5794 2.28398 28.6826L2.26983 28.6862C2.23651 28.6932 2.20407 28.7039 2.17309 28.718C2.07708 28.7575 1.99719 28.8282 1.94634 28.9187C1.89549 29.0092 1.87667 29.1142 1.8929 29.2168C1.90914 29.3193 1.95949 29.4134 2.03581 29.4838C2.11213 29.5541 2.20996 29.5967 2.31348 29.6046C2.87266 29.6535 3.41178 29.6388 3.96388 29.6046C4.51244 29.5674 5.06808 29.4447 5.59128 29.3474C6.11861 29.2501 6.89368 29.0672 7.41628 28.9581L7.45757 29.0896C7.2411 29.2135 6.7704 29.4624 6.55333 29.5822C6.33568 29.7025 6.11861 29.811 5.90037 29.9166C5.68507 30.0216 5.46977 30.1231 5.2533 30.2316H5.25153L5.24327 30.2363C4.80855 30.4604 4.35849 30.674 3.92436 30.9076L3.91669 30.9117C3.86297 30.9404 3.81546 30.9796 3.77692 31.0268C3.73837 31.074 3.70955 31.1283 3.69212 31.1867C3.67468 31.2451 3.66897 31.3064 3.67532 31.367C3.68167 31.4276 3.69996 31.4864 3.72912 31.5399C3.77645 31.6265 3.85004 31.6958 3.93929 31.7379C4.02855 31.78 4.12886 31.7926 4.22578 31.774C4.73895 31.6767 5.22616 31.5322 5.7181 31.3747C6.20709 31.2125 6.68192 30.9854 7.14672 30.7837C7.27059 30.73 7.75722 30.5212 7.87991 30.4669L7.96485 30.8527L7.61507 31.0963L7.0783 31.5593C6.72439 31.8731 6.39348 32.2164 6.08027 32.5827C6.04028 32.6292 6.00989 32.6832 5.99085 32.7415C5.9718 32.7998 5.96448 32.8612 5.96931 32.9224C5.97413 32.9835 5.99101 33.0431 6.01896 33.0977C6.04691 33.1523 6.08539 33.2008 6.13218 33.2404C6.20346 33.3004 6.29097 33.3379 6.3836 33.3481C6.47623 33.3583 6.5698 33.3407 6.65243 33.2976L6.65892 33.2941L6.66245 33.2929C7.08808 33.0736 7.49732 32.8238 7.88699 32.5456L8.29516 32.3073C8.29693 32.3167 8.52049 33.6533 8.57888 34.2078C8.76174 35.9355 8.70983 37.9227 8.8974 38.1551C9.05371 38.3497 9.36516 38.3055 9.64474 38.3137C9.62587 38.2477 9.61643 38.1857 9.60228 38.122C9.60228 38.1155 9.60405 38.1091 9.60228 38.1026C9.40173 37.1765 9.67896 36.4935 9.85001 36.2145C9.85296 36.2097 9.85119 36.2044 9.85355 36.1997C9.86286 36.176 9.86939 36.1512 9.87302 36.126C9.81226 35.0277 9.66421 33.2552 9.4147 31.879C9.01714 29.6854 8.35002 26.1716 8.16068 25.1766C8.15549 25.1496 8.15708 25.1218 8.16532 25.0957C8.17356 25.0695 8.18818 25.0458 8.20787 25.0267C8.2295 25.0074 8.25556 24.9937 8.28374 24.9868C8.31192 24.9799 8.34137 24.98 8.36948 24.9872C9.04545 25.1577 10.1567 25.2568 10.8734 25.304C11.409 25.3394 12.6872 25.3352 14.0043 24.9324C13.4458 26.2442 13.1278 27.7483 13.1278 29.3462C13.1278 32.4801 14.35 35.2506 16.2104 36.9134C15.9904 36.9482 15.827 36.9789 15.781 36.9954C15.302 37.1623 14.9257 37.403 14.7151 37.5251C14.7098 37.5281 14.7063 37.5328 14.7015 37.5363C14.6874 37.5422 14.6721 37.5493 14.6603 37.5558C14.5871 37.5959 14.5824 37.6779 14.6001 37.7587C14.649 37.9858 14.7759 38.2683 14.8991 38.4352C14.9269 38.4724 14.954 38.5084 15 38.5107C16.7401 38.5969 18.0201 38.729 19.0452 39.3761L19.0588 39.3849C19.0871 39.4026 19.113 39.4238 19.1414 39.4427C19.625 39.822 19.8203 40.6089 19.4251 41.168C19.2894 41.3072 19.1479 41.4417 19.0075 41.5703C18.5413 41.9754 18.0244 42.3181 17.4697 42.5896C16.9369 42.8459 16.3677 43.0182 15.7822 43.1004C15.2023 43.2054 14.6237 43.2821 13.8675 43.4602L13.8628 43.462C13.839 43.4675 13.8165 43.4777 13.7967 43.492C13.7743 43.5062 13.7553 43.5252 13.7411 43.5476C13.7269 43.5699 13.7177 43.5952 13.7144 43.6215C13.711 43.6478 13.7134 43.6745 13.7216 43.6997C13.7297 43.725 13.7432 43.7481 13.7613 43.7675C14.3164 44.3644 15.1369 44.601 15.9284 44.5567C16.5271 44.5107 17.1081 44.3397 17.639 44.0866C18.5093 43.6741 19.2571 43.0418 19.8085 42.2522C19.8173 42.2392 19.8257 42.226 19.8338 42.2127C19.8327 42.2197 19.8303 42.2262 19.8285 42.2333C19.7318 42.5695 19.4097 43.4525 19.152 43.7475C18.8907 44.0459 18.6524 44.332 18.3769 44.5567C18.1033 44.7813 17.7975 44.9634 17.4697 45.097C17.1223 45.2404 16.7236 45.333 16.2546 45.4333L16.2499 45.4344C16.227 45.4395 16.2053 45.4491 16.1862 45.4627C16.1621 45.4774 16.142 45.4978 16.1276 45.5221C16.1133 45.5465 16.1052 45.574 16.1041 45.6022C16.103 45.6304 16.1089 45.6584 16.1213 45.6838C16.1336 45.7092 16.1521 45.7311 16.175 45.7476C16.5926 46.0426 17.1188 46.1806 17.6644 46.1487C18.2238 46.1059 18.7564 45.8917 19.1897 45.5353C19.2611 45.4763 19.3183 45.4114 19.382 45.3465C19.5023 45.5848 19.6298 45.8231 19.7218 46.0603C19.8433 46.3446 19.94 46.6283 20.0963 46.9114C20.1317 46.9751 20.2096 47.0046 20.2403 46.9993C20.2403 47.0046 20.3624 46.9751 20.3977 46.9114C20.5541 46.6283 20.6649 46.3446 20.7865 46.0608C20.8785 45.8231 21.0059 45.5848 21.1256 45.346C21.1899 45.4108 21.2465 45.4763 21.3179 45.5347C21.7514 45.8913 22.2842 46.1055 22.8439 46.1481C23.3895 46.1806 23.9156 46.0426 24.3326 45.7476C24.3557 45.7311 24.3742 45.7092 24.3867 45.6838C24.3991 45.6583 24.4051 45.6302 24.4039 45.6019C24.4028 45.5736 24.3947 45.546 24.3803 45.5216C24.3659 45.4972 24.3457 45.4768 24.3214 45.4622C24.3023 45.4487 24.2806 45.4393 24.2577 45.4344L24.2536 45.4333C23.7841 45.333 23.3853 45.2404 23.0385 45.097C22.7108 44.9633 22.405 44.7812 22.1313 44.5567C21.8559 44.3326 21.617 44.0459 21.3563 43.7475C21.0985 43.4525 20.7758 42.5695 20.6791 42.2333L20.6738 42.2127L20.6997 42.2522C21.2493 43.0433 21.9973 43.6759 22.8686 44.0866C23.4001 44.3397 23.9805 44.5107 24.5792 44.5567C25.3708 44.601 26.1913 44.3644 26.7469 43.7675C26.765 43.7481 26.7786 43.725 26.7867 43.6997C26.7948 43.6745 26.7973 43.6478 26.7939 43.6215C26.7905 43.5952 26.7814 43.5699 26.7671 43.5476C26.7529 43.5252 26.7339 43.5062 26.7115 43.492C26.6915 43.4777 26.6689 43.4674 26.6449 43.462L26.6401 43.4602C25.884 43.2821 25.3053 43.2054 24.7261 43.1004C24.1404 43.0183 23.5709 42.846 23.0379 42.5896C22.4832 42.3181 21.9663 41.9754 21.5002 41.5703C21.3573 41.4401 21.2181 41.3059 21.0826 41.168C20.6874 40.6089 20.8826 39.822 21.3675 39.4427C21.3952 39.4238 21.4205 39.4026 21.4489 39.3849L21.4624 39.3761C22.4876 38.7284 23.7676 38.5975 25.5076 38.5107C25.5542 38.5084 25.5808 38.4724 25.6079 38.4352C25.7318 38.2683 25.858 37.9858 25.9076 37.7587C25.9247 37.6779 25.9199 37.5959 25.8474 37.5558C25.8356 37.5493 25.8185 37.5428 25.8043 37.5363L25.7896 37.5251C25.5784 37.403 25.1991 37.1623 24.7202 36.9954C24.5852 36.9626 24.4485 36.9368 24.3108 36.9181C26.1748 35.2559 27.4005 32.483 27.4005 29.3462C27.4005 27.7483 27.0784 26.2477 26.5204 24.9371C27.8316 25.3346 29.101 25.3388 29.6348 25.304C30.3515 25.2568 31.4622 25.1577 32.1387 24.9872C32.1669 24.98 32.1963 24.9798 32.2245 24.9867C32.2527 24.9936 32.2788 25.0074 32.3004 25.0267C32.32 25.0458 32.3347 25.0695 32.3429 25.0957C32.3512 25.1218 32.3527 25.1496 32.3476 25.1766C32.1582 26.1716 31.4905 29.6854 31.0929 31.8796C30.8434 33.2552 30.6954 35.0277 30.6352 36.1266C30.6387 36.1516 30.645 36.1761 30.6541 36.1997C30.6564 36.2044 30.6553 36.2097 30.6582 36.2145C30.8293 36.4935 31.1059 37.1765 30.9054 38.1026C30.9036 38.1091 30.906 38.1155 30.9054 38.122C30.8912 38.1857 30.8818 38.2477 30.8635 38.3137C31.1425 38.3055 31.4539 38.3491 31.6102 38.1551C31.7978 37.9227 31.7459 35.9355 31.9288 34.2078C31.9877 33.6533 32.2107 32.3167 32.2119 32.3073L32.6212 32.5456C33.0118 32.8243 33.4221 33.0745 33.8487 33.2941L33.8552 33.2976C34.0198 33.3832 34.2268 33.3678 34.3761 33.2404C34.4228 33.2007 34.4612 33.1522 34.4891 33.0976C34.517 33.043 34.5338 32.9834 34.5386 32.9223C34.5434 32.8611 34.536 32.7997 34.5169 32.7414C34.4978 32.6831 34.4674 32.6292 34.4274 32.5827C34.1189 32.2192 33.7858 31.8773 33.4305 31.5593L32.8926 31.0963L32.5434 30.8527L32.6277 30.4669C32.7504 30.5212 33.237 30.73 33.3609 30.7837C33.8257 30.986 34.3006 31.2125 34.7901 31.3747C35.2821 31.5322 35.7693 31.6767 36.2825 31.774C36.3794 31.7926 36.4797 31.78 36.5689 31.7379C36.6582 31.6958 36.7318 31.6265 36.7791 31.5399C36.8083 31.4863 36.8265 31.4275 36.8328 31.3669C36.8391 31.3063 36.8334 31.245 36.8159 31.1866C36.7984 31.1282 36.7695 31.0738 36.7309 31.0267C36.6923 30.9795 36.6447 30.9404 36.591 30.9117L36.5833 30.9076C36.1497 30.674 35.6997 30.4599 35.2644 30.2363L35.2561 30.2322L35.2549 30.2316C35.0385 30.1236 34.8226 30.0216 34.6073 29.9166C34.3869 29.8109 34.1694 29.6994 33.9549 29.5822C33.7378 29.4624 33.2665 29.2129 33.0495 29.0896L33.0908 28.9581C33.614 29.0672 34.3884 29.2501 34.917 29.3474C35.4396 29.4447 35.9952 29.5674 36.5438 29.6046C37.0965 29.6388 37.635 29.6535 38.1942 29.6046C38.2977 29.5967 38.3955 29.5541 38.4718 29.4838C38.5482 29.4134 38.5985 29.3193 38.6147 29.2168C38.631 29.1142 38.6121 29.0092 38.5613 28.9187C38.5105 28.8282 38.4306 28.7575 38.3346 28.718C38.3036 28.7039 38.2711 28.6932 38.2378 28.6862L38.2237 28.6826C37.7229 28.58 37.2056 28.4903 36.7066 28.3789C36.2034 28.2756 35.7191 28.1807 35.2083 28.0373C34.6218 27.8747 34.0382 27.7019 33.4577 27.5189L33.5107 27.3478C33.9054 27.3614 33.9909 27.362 34.3849 27.3667C34.9535 27.3738 35.5221 27.3708 36.0913 27.359L36.5172 27.3531C36.6653 27.3513 36.8139 27.3472 36.962 27.3407C37.2569 27.3283 37.55 27.3012 37.8391 27.2593C38.4189 27.1649 38.9781 27.0499 39.5437 26.8565C39.6106 26.8939 39.6857 26.9141 39.7623 26.9152C39.8389 26.9163 39.9145 26.8982 39.9824 26.8627C40.0502 26.8271 40.1081 26.7751 40.1508 26.7115C40.1935 26.6479 40.2196 26.5747 40.2268 26.4984C40.234 26.4221 40.2221 26.3453 40.192 26.2748C40.162 26.2043 40.1149 26.1425 40.0549 26.0948C39.9949 26.0472 39.9239 26.0153 39.8485 26.002C39.773 25.9888 39.6954 25.9946 39.6228 26.0189C39.5433 25.9715 39.4515 25.9489 39.3591 25.954L39.3414 25.9546C38.8088 25.9841 38.2567 26.0212 37.7205 26.0271L36.9195 26.0419L36.5243 26.0354C36.3827 26.0301 36.2471 26.0254 36.1096 26.0153C35.5581 25.9799 35.0066 25.9345 34.4563 25.8808C34.1138 25.8467 33.7717 25.8091 33.4299 25.7682C33.9915 25.7104 34.5135 25.6325 35.0497 25.5446C35.6445 25.4445 36.2368 25.3304 36.8263 25.2025C37.4103 25.0816 38.0455 24.9418 38.6159 24.7247C39.1951 24.5006 39.7467 24.257 40.2875 23.9255C40.374 23.8723 40.4405 23.7921 40.4768 23.6973C40.513 23.6025 40.517 23.4984 40.4881 23.4011ZM20.2638 37.5263L20.2403 37.5257C18.1699 37.5151 16.3402 36.1307 15.2336 34.0243C15.7491 33.1584 16.815 31.2685 16.815 31.2685C16.9153 31.6561 17.5098 34.2178 17.5098 34.2178C17.5098 34.2178 16.7584 34.541 17.1382 34.7723C17.5181 35.0035 18.3256 34.8324 18.3256 34.8324C18.3256 34.8324 18.5309 35.0165 18.7526 35.1716C19.0157 35.3686 19.3142 35.5149 19.6351 35.6004C19.7566 35.6476 19.8409 35.6771 19.8409 35.6771C19.8409 35.6771 19.7654 36.031 19.8793 36.215C19.9241 36.287 19.9666 36.3495 20.1111 36.3495C20.1524 36.3495 20.1954 36.3401 20.2373 36.3242C20.3624 36.2782 20.4827 36.1785 20.5505 36.1083C20.7245 35.9307 20.7865 35.8033 20.9162 35.6317C20.9115 35.624 20.918 35.6116 20.9298 35.5986C21.2377 35.5155 21.5627 35.404 21.8712 35.0194C21.1203 34.7268 20.4827 34.0444 20.2373 32.9148C20.1439 32.4761 20.0953 32.0291 20.0922 31.5806C20.0869 31.0851 20.1276 30.5654 20.2261 30.0322L20.2373 29.978C20.5906 28.127 21.7456 26.7161 22.0794 26.5946C21.9762 26.3574 22.0198 25.7546 21.2106 25.4219C21.036 25.3506 20.4945 25.3181 20.4438 25.0704C20.6986 24.8981 20.8926 24.5743 20.9404 24.1844C21.0047 23.6618 20.7841 23.1935 20.4302 23.0254C20.5145 22.8331 20.7222 22.5694 20.7222 22.5694L20.3187 22.1388L20.2373 22.1819L19.7967 22.4166C19.7967 22.4166 19.9294 22.7936 19.9282 22.9965C19.5802 23.1121 19.3213 23.3852 19.2617 23.8694C19.2328 24.1072 19.3637 24.4758 19.6357 24.7466C19.7819 24.8922 19.8114 25.0161 19.7206 25.1064C19.5212 25.3051 19.1095 25.2562 18.8972 25.5635C18.7639 25.7576 18.6028 26.2047 18.6028 26.2047C18.5031 26.4058 17.9174 27.8043 17.6296 28.2975C17.5576 28.4213 17.2656 28.8796 17.2656 28.8796C17.2656 28.8796 17.1382 28.9669 16.9955 29.0808C16.8791 29.1697 16.7724 29.2705 16.677 29.3816C16.4552 29.6647 16.5442 30.1708 16.6799 30.3849L14.9752 33.4864C14.9406 33.4141 14.9078 33.3409 14.8767 33.267C14.3972 32.102 14.1241 30.766 14.1241 29.3462C14.1241 25.0008 16.6811 21.4363 19.8952 21.1827H20.6402C20.9941 21.2116 21.3403 21.2818 21.6765 21.3873C21.8523 21.4428 22.0251 21.5083 22.195 21.5832C24.637 22.6644 26.4036 25.7346 26.4036 29.3462C26.4036 33.8574 23.649 37.5263 20.2633 37.5263H20.2638ZM19.6327 28.6667C19.6327 28.6667 18.4371 29.1168 17.8679 29.3462L19.0322 27.3366C19.0352 27.3466 19.0871 27.6185 19.5607 27.8167C19.546 27.8881 19.6327 28.6661 19.6327 28.6661V28.6667Z" fill="#0C1219"/>
<path fill-rule="evenodd" clip-rule="evenodd" d="M10.4223 30.3189H10.0259V30.0022H10.8015V31.5305H10.4223V30.3189ZM11.3383 31.9375L12.1676 30.339H11.2569V30.0028H12.5469V30.2659L11.6674 32.0466L11.3383 31.9375ZM27.8907 31.2574C28.0854 31.1094 28.667 30.7607 28.667 30.5531C28.667 30.3886 28.5502 30.3402 28.3832 30.3402C28.2417 30.3402 28.0907 30.3909 28.0205 30.421L27.9285 30.1597C28.004 30.1125 28.2069 30.0429 28.3992 30.0429C28.897 30.0429 29.0209 30.2965 29.0209 30.5419C29.0209 30.8687 28.5773 31.1359 28.3479 31.2633H29.097V31.5547H27.8901V31.2574M30.1009 31.5535L29.271 31.5547V31.2598L29.9375 30.0836H30.4607V31.2598H30.7444V31.5535H30.4613V32.069H30.1009V31.5535ZM30.0826 31.1754V30.3773L29.6302 31.1754H30.0826Z" fill="#0C1219"/>
</svg>
