<svg width="44" height="48" viewBox="0 0 44 48" fill="none" xmlns="http://www.w3.org/2000/svg">
<path d="M34.2188 35.7998C34.0687 35.7998 33.9688 35.8998 33.9688 36.0498C33.9688 36.1998 34.0687 36.2998 34.2188 36.2998C34.3688 36.2998 34.4688 36.1998 34.4688 36.0498C34.4688 35.9498 34.3688 35.7998 34.2188 35.7998Z" fill="#13377D"/>
<path d="M35.0684 38.25C35.0684 38.4 35.1684 38.5 35.3184 38.5C35.4684 38.5 35.5684 38.4 35.5684 38.25C35.5684 38.1 35.4684 38 35.3184 38C35.1684 38 35.0684 38.1 35.0684 38.25Z" fill="#13377D"/>
<path d="M34.2188 38C34.0687 38 33.9688 38.1 33.9688 38.25C33.9688 38.4 34.0687 38.5 34.2188 38.5C34.3688 38.5 34.4688 38.4 34.4688 38.25C34.4688 38.1 34.3688 38 34.2188 38Z" fill="#13377D"/>
<path d="M36.168 38.25C36.168 38.4 36.268 38.5 36.418 38.5C36.568 38.5 36.668 38.4 36.668 38.25C36.668 38.1 36.568 38 36.418 38C36.268 38 36.168 38.1 36.168 38.25Z" fill="#13377D"/>
<path d="M33.8691 33.3501L33.9191 34.0001L33.3691 33.9501V34.6501L33.9191 34.5501L33.8691 35.2001H34.5691L34.5191 34.5501L35.0691 34.6501V33.9501L34.5191 34.0001L34.5691 33.3501H33.8691Z" fill="#13377D"/>
<path d="M34.6689 35.6001V37.8501H36.8178C36.6679 36.7001 35.7684 35.8001 34.6689 35.6001Z" fill="#13377D"/>
<path d="M34.2188 36.8999C34.0687 36.8999 33.9688 36.9999 33.9688 37.1499C33.9688 37.2999 34.0687 37.3999 34.2188 37.3999C34.3688 37.3999 34.4688 37.2999 34.4688 37.1499C34.4688 36.9999 34.3688 36.8999 34.2188 36.8999Z" fill="#13377D"/>
<path d="M35.1181 39.75C35.0681 39.75 34.8681 40.3 35.0681 40.7C35.1681 40.9 35.3681 41 35.5681 40.95C35.7681 40.9 35.8181 40.7 35.8181 40.6C35.7681 40.15 35.4181 39.75 35.1181 39.75Z" fill="#13377D"/>
<path d="M33.3199 39.75C33.0199 39.75 32.6699 40.15 32.6699 40.6C32.6699 40.75 32.7199 40.9 32.9199 40.95C33.1199 41 33.3199 40.9 33.4199 40.7C33.5199 40.3 33.3699 39.75 33.3199 39.75Z" fill="#13377D"/>
<path d="M34.2191 39.4502C34.0191 39.4502 33.4191 40.6002 33.8691 41.1502C33.9691 41.2502 34.0691 41.3002 34.2191 41.3002C34.3691 41.3002 34.5191 41.2502 34.5691 41.1502C34.9691 40.6002 34.4191 39.4502 34.2191 39.4502Z" fill="#13377D"/>
<path d="M31.5704 38.2502C31.5704 38.0002 31.6204 37.8002 31.6204 37.8002H33.7693V37.6002V36.0002V35.5502C32.7198 35.7502 31.8703 36.5502 31.6204 37.6002C31.5704 37.7002 31.3705 37.7502 31.2206 37.7002C30.421 37.6002 28.8219 37.3002 28.8219 36.9502C28.8219 36.4502 29.1717 36.2502 29.4715 36.2502C29.9213 36.2502 30.421 36.5002 30.8208 35.9002C29.3716 35.9502 30.471 33.8502 29.2716 33.4502C29.3216 34.0002 29.2716 34.9502 29.0717 35.4502C29.0717 35.4502 28.622 35.0002 28.1722 34.8002C28.2222 35.2002 28.1222 36.0002 27.9723 36.4002C27.9723 36.4002 27.4726 35.9002 26.9229 35.7502C27.4226 36.4502 27.4226 37.5002 27.2727 38.1002C27.2227 38.3002 27.3726 38.5002 27.7224 38.5002C28.3221 38.4502 30.3211 38.5502 31.1706 38.9002C31.4205 39.0002 31.6704 39.1502 31.7703 39.3502C31.8703 39.6002 32.0702 40.0002 32.37 40.2002C32.5199 39.7502 33.0197 39.2502 33.3695 39.3002C33.4695 39.3002 33.5694 39.5002 33.6194 39.6502C33.6694 39.5002 33.9192 39.0502 34.1691 39.0502C34.419 39.0502 34.6688 39.4002 34.7688 39.7002C34.8188 39.5002 34.9187 39.3002 35.0187 39.3002C35.3685 39.3002 35.8182 39.6002 35.9682 40.1502C36.1181 40.0002 36.7178 39.2002 36.7677 38.6502H31.5704C31.5704 38.7002 31.5704 38.5002 31.5704 38.2502Z" fill="#13377D"/>
<path d="M32.8696 38.25C32.8696 38.4 32.9696 38.5 33.1196 38.5C33.2696 38.5 33.3696 38.4 33.3696 38.25C33.3696 38.1 33.2696 38 33.1196 38C32.9696 38 32.8696 38.1 32.8696 38.25Z" fill="#13377D"/>
<path d="M31.8203 38.25C31.8203 38.4 31.9203 38.5 32.0703 38.5C32.2203 38.5 32.3203 38.4 32.3203 38.25C32.3203 38.1 32.2203 38 32.0703 38C31.9203 38 31.8203 38.1 31.8203 38.25Z" fill="#13377D"/>
<path d="M11.1311 39.3501C11.0311 39.4501 10.8311 40.0001 10.9311 40.3501C10.9811 40.5001 11.0311 40.5501 11.1811 40.5501C11.3311 40.5501 11.3811 40.4501 11.4311 40.3001C11.4811 39.9501 11.2311 39.4001 11.1311 39.3501Z" fill="#13377D"/>
<path d="M12.9802 40.8998C12.8802 41.0498 12.7302 41.0998 12.6802 41.1498C12.7302 41.1998 12.8802 41.2998 13.0302 41.2998C13.1302 41.2998 13.2302 41.2498 13.2802 41.1998C13.4302 40.8998 13.2802 40.6498 13.2302 40.5498C13.1802 40.6498 13.1302 40.7998 12.9802 40.8998Z" fill="#13377D"/>
<path d="M12.2807 40.2001C12.4807 40.0001 12.5307 39.8501 12.4807 39.7501C12.4307 39.6001 11.9807 39.1501 11.4807 38.6001C11.4807 38.7001 11.4307 38.8001 11.4307 38.9001C11.7807 39.4001 11.9307 39.9001 11.8307 40.3501C11.8807 40.4001 11.8807 40.4001 11.9307 40.4001C12.0307 40.5001 12.1807 40.3501 12.2807 40.2001Z" fill="#13377D"/>
<path d="M12.9804 40.2498C12.9804 40.1498 12.9804 40.0998 12.9304 40.0498H12.8804C12.8304 40.0498 12.7804 40.1498 12.7304 40.1998C12.6804 40.2498 12.6304 40.3498 12.5304 40.4498C12.4304 40.5498 12.3804 40.5998 12.2804 40.6998C12.1804 40.7498 12.1304 40.8498 12.1304 40.8998C12.1304 40.8998 12.1304 40.8998 12.1304 40.9498C12.1804 40.9998 12.1804 40.9998 12.2304 40.9998C12.2804 40.9998 12.4304 40.9498 12.6804 40.6998C12.9304 40.4498 12.9804 40.3498 12.9804 40.2498Z" fill="#13377D"/>
<path d="M9.68154 37.6002C9.68154 37.6002 9.63154 37.6502 9.58154 37.7502C9.68154 37.7502 9.83154 37.7502 9.93154 37.8002C9.93154 37.7002 9.93154 37.5502 9.93154 37.4502C9.83154 37.4502 9.73154 37.5502 9.68154 37.6002Z" fill="#13377D"/>
<path d="M11.0308 37.75C11.0308 37.75 12.0803 38.65 12.4301 39C12.5301 39.1 12.63 39.1 12.73 39.05C12.7799 39 12.8799 39 12.9798 38.95C14.0293 38.6 15.7284 38.55 16.3281 38.55C16.7279 38.55 16.8278 38.35 16.7779 38.15C16.6779 37.55 16.6279 36.5 17.1277 35.8C16.578 36 16.0782 36.45 16.0782 36.45C15.8783 36.1 15.8284 35.25 15.8783 34.85C15.3786 35 14.9788 35.5 14.9788 35.5C14.7789 35 14.7289 34.05 14.7789 33.5C13.5795 33.9 14.6789 36.05 13.2297 35.95C13.6295 36.55 14.1292 36.3 14.579 36.3C14.8788 36.3 15.2786 36.5 15.2287 37C15.1787 37.35 13.2297 37.75 12.4301 37.75C11.8804 37.75 11.4806 37.6 11.2307 37.2C11.0808 37 10.9809 36.95 10.8309 36.95C10.631 37 10.4312 37.15 10.4312 37.65C10.4312 37.95 10.5811 38.65 10.9309 38.65C11.1308 38.7 11.1308 38.1 11.0308 37.75Z" fill="#13377D"/>
<path d="M9.0322 37.4499C9.08218 37.4499 9.13215 37.4499 9.18213 37.4499C9.0322 37.6499 9.0322 37.7999 9.08218 37.8499C9.18213 37.9499 9.2321 37.7499 9.48197 37.4999C9.73184 37.2499 9.88176 37.1499 9.83179 37.0499C9.78182 36.9999 9.63189 36.9999 9.432 37.1499C9.432 37.0999 9.48197 37.0499 9.432 36.9999C9.33205 36.7499 8.98223 36.4499 8.73236 36.4499C8.68238 36.4499 8.68238 36.4499 8.63241 36.4499C8.73236 36.2999 8.68238 36.1999 8.63241 36.0999C8.58244 36.0499 8.53246 36.0999 8.43251 36.1999C8.43251 36.1499 8.43251 36.0499 8.38254 35.9499C8.0827 35.4499 6.38358 33.8499 5.98379 33.6999C5.73391 33.5999 5.68394 33.7499 5.68394 33.7499C5.68394 33.7499 5.53402 33.8499 5.63397 34.0499C5.78389 34.4499 7.43303 36.0999 7.8828 36.3999C7.98275 36.4499 8.0827 36.4999 8.13267 36.4499C8.03272 36.5499 7.98275 36.5499 8.0827 36.6499C8.13267 36.6999 8.23262 36.7499 8.38254 36.6499C8.38254 36.6999 8.38254 36.6999 8.38254 36.7499C8.48249 36.9499 8.78233 37.3499 9.0322 37.4499Z" fill="#13377D"/>
<path d="M10.2319 38.6502C10.2319 38.5002 9.93193 38.2002 9.53193 38.2002C8.98193 38.2002 8.73193 38.5502 8.73193 38.7502C8.73193 39.1002 9.08193 39.1502 9.18193 39.1502C9.53193 39.1502 10.1819 38.7502 10.2319 38.6502Z" fill="#13377D"/>
<path d="M9.73125 39.5002C9.58125 39.7002 9.53125 39.9002 9.58125 40.0502C9.63125 40.2502 9.83125 40.3502 10.0312 40.3502C10.2312 40.3502 10.4312 40.2502 10.5312 40.1002C10.7312 39.7502 10.7312 39.0002 10.6812 38.9502C10.4812 38.9502 9.98125 39.1502 9.73125 39.5002Z" fill="#13377D"/>
<path d="M4.83407 31.6996C4.68415 31.5496 4.33433 31.7996 4.13444 31.6496C4.23439 31.1496 4.5842 31.6496 4.88405 31.3496C5.03397 31.1996 4.93402 30.9996 4.88405 30.9496C4.73413 31.0996 4.53423 31.0496 4.48426 30.9496C4.83407 30.0496 4.13444 29.0996 3.4348 29.1996C3.58472 29.3996 3.6347 30.0496 3.53475 30.1996C3.78462 30.3996 3.6347 30.8496 3.33485 30.6996C3.13496 30.5996 2.78514 30.0996 3.18493 29.7996C3.18493 29.6496 2.93506 29.6496 2.73516 29.9496C2.88509 29.3996 1.83563 29.5496 1.63573 29.6996C1.53579 29.9496 1.38586 30.9996 1.93558 30.7996C1.63573 31.0496 1.68571 31.2996 1.78566 31.2996C2.13547 30.8996 2.58524 31.1996 2.68519 31.3996C2.83511 31.6996 2.38534 31.8996 2.18545 31.6496C2.03553 31.6996 1.38586 31.6996 1.23594 31.5496C1.13599 32.2496 2.13547 32.9996 2.98503 32.5996C3.08498 32.5996 3.13496 32.8496 2.98503 32.9996C3.03501 33.0996 3.28488 33.1496 3.38483 32.9996C3.73464 32.6496 3.2349 32.2996 3.68467 32.1996C3.78462 32.3996 3.58472 32.7496 3.73464 32.8996C3.98451 33.1496 4.28436 32.6496 4.63418 32.6496C4.63418 32.2496 5.08394 31.9496 4.83407 31.6996ZM2.23542 30.5496C2.23542 30.5496 2.0855 30.4496 2.2854 30.1996C2.48529 29.9996 2.58524 30.1496 2.58524 30.1496C2.58524 30.1496 2.78514 30.5496 2.83511 30.7496C2.63521 30.7496 2.23542 30.5496 2.23542 30.5496ZM3.83459 31.7996C3.73464 31.7996 3.48477 32.0496 3.38483 31.8996L2.83511 31.3496L3.13496 31.0496L3.4348 30.7496L3.98451 31.2996C4.03449 31.4496 3.83459 31.6996 3.83459 31.7996Z" fill="#13377D"/>
<path d="M4.98369 32.7002C4.93369 32.7002 4.88369 32.7002 4.83369 32.7502C4.78369 32.8002 4.78369 32.9002 4.78369 33.0002C4.78369 33.1002 4.88369 33.2002 4.98369 33.3002C5.03369 33.4502 5.18369 33.5002 5.28369 33.5002C5.33369 33.5002 5.38369 33.5002 5.43369 33.4502C5.53369 33.3502 5.48369 33.0502 5.33369 32.9002C5.23369 32.8002 5.08369 32.7002 4.98369 32.7002Z" fill="#13377D"/>
<path d="M3.38496 31.0498L3.23496 31.1998L3.08496 31.3498C3.08496 31.3498 3.38496 31.7498 3.63496 31.5998C3.78496 31.3498 3.38496 31.0498 3.38496 31.0498Z" fill="#13377D"/>
<path d="M32.57 29.5499C32.57 29.6499 32.1702 29.8499 31.8704 29.2999C31.5705 29.2499 31.2707 29.1499 31.0708 29.0499C31.4206 29.7499 31.7205 30.3499 32.2202 30.6499C32.9698 31.0999 34.1192 30.9999 34.469 30.4999C33.8194 30.1499 33.0698 29.2499 32.67 28.3999C32.57 28.5999 32.4201 28.9499 32.3202 29.1999C32.3701 29.2999 32.4701 29.4499 32.57 29.5499Z" fill="#13377D"/>
<path d="M39.5162 18.5999C40.3158 18.2499 41.4652 17.4499 42.0149 16.9499C42.0649 17.0499 42.2648 17.4999 41.6651 17.9999C41.2153 18.3499 40.3158 18.7999 39.6661 19.0499C39.3663 19.4999 38.7666 19.9999 37.967 20.5499C39.5662 20.2999 41.4652 19.6499 42.4147 18.7499C44.1638 16.9999 43.2643 14.8999 43.0144 14.3999C41.865 15.8499 39.6661 17.3499 37.6172 18.1499C38.3168 18.2499 39.0165 18.3999 39.5162 18.5999Z" fill="#13377D"/>
<path d="M38.2169 15.3998C39.2663 14.5498 40.3658 12.8498 40.5657 12.2498C40.8155 12.3998 40.9155 12.8998 40.6156 13.4498C40.0659 14.3998 39.0664 15.2498 38.2169 15.9498C38.1669 16.5498 37.917 17.2998 37.6172 17.8498C38.8665 16.9998 40.3158 15.7498 40.9654 14.8998C41.815 13.7998 42.1648 12.6998 42.0149 11.5998C42.0649 10.3498 41.1653 9.0998 40.8155 8.7998C40.5657 10.1498 39.2164 12.4498 38.017 13.7498C38.1169 14.1998 38.2169 14.8498 38.2169 15.3998Z" fill="#13377D"/>
<path d="M37.4175 23.2998C37.6673 23.5998 37.9172 23.9498 38.1171 24.2498C39.0666 24.4498 40.216 24.3998 40.216 24.3998C40.216 24.3998 40.166 24.8998 39.5164 24.9498C39.2165 24.9498 38.317 24.7998 37.9672 24.6998C37.8172 24.7498 37.1176 24.9498 36.418 25.0498C37.4175 25.3998 38.8667 25.7498 39.7662 25.7498C39.8662 25.7498 39.9162 25.7498 40.0161 25.7498C41.4653 25.5998 42.215 24.2498 42.2649 23.4998C41.8152 23.5998 41.0656 23.6498 40.3159 23.6498C39.6163 23.6498 38.367 23.5998 37.4175 23.2998Z" fill="#13377D"/>
<path d="M43.464 19.5C42.1647 20.2 39.8659 20.9 38.0168 20.9C38.4666 21.2 38.9164 21.5 39.2162 21.8C39.9658 21.75 41.0153 21.5 41.615 21.3C41.615 21.4 41.615 21.9 40.9153 22.1C40.4156 22.25 39.716 22.25 39.1662 22.25C38.7165 22.55 38.0668 22.8 37.5171 23C38.0168 23.05 38.6665 23.1 39.2162 23.1C40.1657 23.1 41.0653 23 41.615 22.8C42.1147 22.65 43.7638 21.95 43.464 19.5Z" fill="#13377D"/>
<path d="M36.4677 26.3999C37.0174 26.6499 37.6171 26.8499 38.1168 26.8999C38.1168 26.8999 38.0168 27.3999 37.2672 27.2999C36.8175 27.2499 36.3177 26.8999 36.2178 26.8499C35.868 26.8999 35.1683 26.8999 34.9185 26.8499C35.768 27.4499 37.0673 28.1499 38.1668 28.2499C38.2167 28.2499 38.2667 28.2499 38.3167 28.2499C39.4661 28.2499 40.3656 27.0999 40.6155 26.5499C39.4661 26.5499 37.4671 26.0499 36.2678 25.3999C36.3177 25.5999 36.4177 25.9999 36.4677 26.3999Z" fill="#13377D"/>
<path d="M34.4691 27.9498C34.769 28.2998 35.2687 28.4998 35.2687 28.4998C35.2687 28.4998 35.1188 28.7498 34.8189 28.7498C34.719 28.7498 34.619 28.6998 34.5191 28.6498C34.3192 28.5498 34.0194 28.1998 34.0194 28.1998C33.6196 28.1498 33.2697 28.0998 32.9199 27.9998C33.5196 28.7498 34.5191 29.6998 35.6185 29.9498C35.7684 29.9998 35.9184 29.9998 36.1183 29.9998C37.0678 29.9998 37.8674 29.2998 38.0672 28.8498C36.9678 28.6998 35.3686 27.8498 34.5691 27.0498C34.5691 27.3498 34.5191 27.6998 34.4691 27.9498Z" fill="#13377D"/>
<path d="M27.3226 40.1999C27.8723 40.1999 28.2221 39.9999 28.472 39.4499C27.7224 39.7999 26.9228 39.5999 25.4236 39.1499C25.4236 39.1499 24.8739 39.3999 24.5241 39.4499C25.4236 39.6999 26.7229 40.1499 26.9228 40.6499C27.0228 41.0499 26.7729 41.1499 26.7729 41.1499C26.2731 40.5499 25.6735 40.1999 24.3741 39.7999C24.3741 40.0499 24.3242 40.1999 24.3242 40.1999C24.3242 40.1999 24.0743 40.2499 23.4746 40.1499C23.9743 40.5499 25.1737 41.5999 25.3236 42.6999C25.4236 43.4499 24.8739 43.4999 24.8739 43.4999C24.8239 42.3499 24.3242 41.6499 23.2247 40.4999C23.2247 40.4999 23.0248 40.7499 22.8249 40.8999C22.8249 40.8999 22.4251 40.8499 22.1253 40.5999C22.2752 42.0999 22.3252 45.6999 22.2252 46.2499C22.1753 46.6499 21.9254 46.8499 21.9254 46.8499C21.9254 46.8499 21.6755 46.6999 21.6256 46.2499C21.5256 45.6499 21.6256 42.0499 21.7255 40.5999C21.3757 40.7999 21.0259 40.8999 21.0259 40.8999C20.776 40.7499 20.6261 40.4999 20.6261 40.4999C19.5766 41.6499 19.0769 42.3999 18.9769 43.4999C18.9769 43.4999 18.4772 43.4499 18.5272 42.6999C18.6771 41.5999 19.8765 40.5499 20.3762 40.1499C19.8265 40.2499 19.5266 40.1999 19.5266 40.1999C19.5266 40.1999 19.4767 40.0499 19.4767 39.7999C18.1773 40.1999 17.6276 40.5499 17.0779 41.1499C17.0779 41.1499 16.828 41.0999 16.928 40.6499C17.1279 40.1499 18.4272 39.7499 19.3267 39.4499C19.0269 39.3999 18.4272 39.1499 18.4272 39.1499C16.978 39.5999 16.1284 39.7999 15.3788 39.4499C15.5787 39.9999 15.9785 40.1999 16.5282 40.1999C15.8286 40.4499 15.1789 41.1499 14.979 41.8499C15.4787 43.6999 17.0779 44.2499 17.0779 44.2499C16.6781 43.3499 16.828 41.5999 19.2268 40.3999C17.7776 41.8499 17.1779 43.1999 17.5777 44.4499C17.9275 45.5999 19.1269 46.0499 19.9764 46.0999C19.3767 44.1999 19.6266 42.4499 20.9259 41.0999C20.3762 42.5999 19.5766 47.2499 21.8255 47.9999C24.0743 47.2499 23.2747 42.5999 22.725 41.0999C24.0243 42.4999 24.2742 44.1999 23.6745 46.0999C24.574 46.0999 25.7234 45.5999 26.0732 44.4499C26.473 43.1999 25.9233 41.8499 24.4241 40.3999C26.8229 41.5999 26.9728 43.3999 26.573 44.2499C26.573 44.2499 28.1722 43.6999 28.6719 41.8499C28.6719 41.1499 27.9723 40.4999 27.3226 40.1999Z" fill="#13377D"/>
<path d="M11.8304 30.6499C12.3301 30.3499 12.63 29.7499 12.9798 29.0499C12.7799 29.1499 12.48 29.2499 12.1802 29.2999C11.8803 29.8499 11.4806 29.6499 11.4806 29.5499C11.5805 29.4499 11.6805 29.2999 11.7304 29.1999C11.6305 28.9499 11.4806 28.5999 11.3806 28.3999C10.9808 29.2999 10.1812 30.1499 9.58154 30.4999C9.93136 30.9999 11.0808 31.0999 11.8304 30.6499Z" fill="#13377D"/>
<path d="M6.03345 20.5502C5.18389 20.0002 4.63418 19.5002 4.33433 19.0502C3.6347 18.8002 2.73516 18.3502 2.33537 18.0002C1.73568 17.5002 1.93558 17.0502 1.98555 16.9502C2.48529 17.5002 3.6347 18.2502 4.48426 18.6002C4.984 18.4002 5.68363 18.2502 6.38327 18.1502C4.33433 17.4002 2.13547 15.8502 0.98607 14.4502C0.7362 14.9002 -0.213307 17.0502 1.58576 18.8002C2.48529 19.6502 4.43428 20.3002 6.03345 20.5502Z" fill="#13377D"/>
<path d="M6.38343 17.8C6.08359 17.25 5.83372 16.55 5.78374 15.9C4.93418 15.25 3.98467 14.4 3.38499 13.4C3.08514 12.85 3.18509 12.35 3.43496 12.2C3.63486 12.8 4.73429 14.5 5.78374 15.35C5.78374 14.8 5.88369 14.15 6.03361 13.7C4.83423 12.4 3.43496 10.1 3.23506 8.75C2.88525 9.05 1.98571 10.3 2.03569 11.55C1.88576 12.65 2.23558 13.75 3.08514 14.85C3.68483 15.7 5.13408 17 6.38343 17.8Z" fill="#13377D"/>
<path d="M5.88352 24.2498C6.03344 23.9498 6.33329 23.5998 6.58316 23.2998C5.63365 23.5498 4.3843 23.5998 3.73463 23.5998C2.93505 23.5998 2.18544 23.5498 1.78564 23.4498C1.83562 24.2498 2.58523 25.5998 4.03448 25.6998C4.13443 25.6998 4.1844 25.6998 4.28435 25.6998C5.18388 25.6998 6.63313 25.3498 7.63261 24.9998C6.93297 24.8998 6.23334 24.7498 6.08342 24.6498C5.68362 24.8498 4.78409 24.9998 4.48424 24.9498C3.83458 24.8998 3.78461 24.3998 3.78461 24.3998C3.78461 24.3998 4.93401 24.4498 5.88352 24.2498Z" fill="#13377D"/>
<path d="M2.3852 22.8498C2.93491 23.0498 3.78447 23.1498 4.78395 23.1498C5.38364 23.1498 5.98333 23.0998 6.48307 23.0498C5.93336 22.8498 5.28369 22.5998 4.83393 22.2998C4.28421 22.2998 3.5346 22.2498 3.08483 22.1498C2.3852 21.9498 2.3852 21.4498 2.3852 21.3498C2.98489 21.5998 4.03434 21.8498 4.78395 21.8498C5.0838 21.5998 5.48359 21.2498 5.98333 20.9498C4.18426 20.9498 1.83548 20.2498 0.536156 19.5498C0.236311 21.9498 1.88546 22.6498 2.3852 22.8498Z" fill="#13377D"/>
<path d="M5.73387 28.1998C5.78384 28.1998 5.83381 28.1998 5.88379 28.1998C6.98322 28.0998 8.28254 27.3998 9.1321 26.7998C8.88223 26.8498 8.13262 26.8498 7.83278 26.7998C7.73283 26.8998 7.18311 27.1998 6.78332 27.2498C5.98374 27.3498 5.93376 26.8498 5.93376 26.8498C6.4335 26.7998 7.03319 26.5998 7.58291 26.3498C7.63288 25.9498 7.73283 25.5498 7.83278 25.2998C6.58343 25.9998 4.58446 26.4998 3.43506 26.4998C3.68493 27.0498 4.58446 28.1998 5.73387 28.1998Z" fill="#13377D"/>
<path d="M7.88258 29.9998C8.03251 29.9998 8.2324 29.9998 8.38232 29.9498C9.43178 29.6998 10.4812 28.7498 11.0809 27.9998C10.7311 28.0998 10.3813 28.1998 9.98149 28.1998C9.98149 28.1998 9.73162 28.4998 9.48175 28.6498C9.38181 28.6998 9.28186 28.7498 9.18191 28.7498C8.88206 28.7498 8.73214 28.4998 8.73214 28.4998C8.73214 28.4998 9.23188 28.2498 9.53173 27.9498C9.48175 27.6998 9.43178 27.3498 9.43178 27.0498C8.58222 27.8998 7.03302 28.6998 5.93359 28.8498C6.13349 29.2998 6.8831 29.9998 7.88258 29.9998Z" fill="#13377D"/>
<path d="M21.5757 2.6499C21.5757 2.8999 21.7757 3.0499 21.9757 3.0499C22.1757 3.0499 22.3757 2.8499 22.3757 2.6499C22.3757 2.3999 22.1757 2.2499 21.9757 2.2499C21.7757 2.1999 21.5757 2.3999 21.5757 2.6499Z" fill="#13377D"/>
<path d="M21.7258 1.75H22.2758L22.2258 1.05L22.8258 1.15V0.6L22.2258 0.65L22.2758 0H21.7258L21.7758 0.65L21.1758 0.6V1.15L21.7758 1.05L21.7258 1.75Z" fill="#13377D"/>
<path d="M19.7762 8.3498C19.8262 8.3498 19.9262 8.3998 19.9761 8.3998H23.9741C24.074 8.3998 24.124 8.3998 24.174 8.3498C24.3239 8.2998 24.3739 8.1998 24.4238 8.0498H19.5264C19.5763 8.2498 19.6763 8.2998 19.7762 8.3498Z" fill="#13377D"/>
<path d="M24.1741 7.7501C24.2241 7.7501 24.2241 7.7001 24.2241 7.7001V7.4001C24.2241 7.3501 24.1741 7.3501 24.1741 7.3501H19.8263C19.7764 7.3501 19.7764 7.4001 19.7764 7.4001V7.7001C19.7764 7.7501 19.8263 7.7501 19.8263 7.7501H24.1741Z" fill="#13377D"/>
<path d="M24.6242 6.9999C24.7241 6.8499 25.2738 5.7999 25.2738 4.6999C25.2738 3.6999 24.0245 3.1499 23.3248 3.1499C23.2249 4.5499 22.6752 6.7499 21.9755 6.7499C21.3259 6.7499 20.7262 4.5499 20.6262 3.1499C19.8766 3.1499 18.6772 3.6999 18.6772 4.6999C18.6772 5.7999 19.227 6.8999 19.3269 6.9999H24.6242Z" fill="#13377D"/>
<path d="M21.9757 6.0499C22.3257 6.0499 22.7257 4.9999 22.8757 3.9499C22.8757 3.7499 22.5257 3.4499 21.9757 3.3999C21.4257 3.3999 21.0757 3.6999 21.0757 3.9499C21.2257 4.8999 21.6757 6.0499 21.9757 6.0499Z" fill="#13377D"/>
<path d="M28.3222 22.4502C28.3222 22.3002 28.2222 22.2002 28.0723 22.2002H15.9286C15.7787 22.2002 15.6787 22.3002 15.6787 22.4502V30.8002V30.8502V30.9002C15.6787 30.9002 15.6787 31.3502 15.8786 31.8502C16.1285 32.4502 17.1779 33.4502 18.4773 34.1502C20.3263 35.1002 21.4257 35.8502 21.9754 36.3002C22.5252 35.8502 23.6246 35.1002 25.4736 34.1502C26.8229 33.4502 27.8224 32.4502 28.0723 31.8502C28.3222 31.3002 28.2722 30.9002 28.2722 30.9002L28.3222 22.4502ZM24.2243 25.5002V25.5502C24.3742 26.1502 24.5241 26.8002 24.5741 27.4002C25.0738 27.8002 25.5236 28.2002 25.9234 28.6002C26.673 27.7502 27.0728 26.9502 27.0728 26.3002C26.723 26.3002 26.4231 26.0002 26.4231 25.6502C26.4231 25.5002 26.4731 25.4002 26.5231 25.3002C26.1733 25.1502 25.7735 25.1002 25.4237 25.1002C25.1238 25.1002 24.824 25.1502 24.4741 25.2002H24.4242L24.3242 25.2502L24.3742 25.2002C24.4242 25.1002 24.4242 25.0502 24.4741 24.9502C25.4736 24.7502 26.2732 24.8502 26.773 25.1502C26.8729 25.1002 26.9729 25.0502 27.0728 25.0502C27.4226 25.0502 27.7225 25.3502 27.7225 25.7002C27.7225 25.9502 27.5725 26.1502 27.3726 26.2502C27.3726 26.9502 26.9729 27.8502 26.1233 28.8502C26.1733 28.9002 26.2232 28.9502 26.2732 29.0002C26.3232 29.0502 26.3232 29.0502 26.3732 29.1002V29.1502C26.3232 29.2002 26.2732 29.2502 26.2232 29.3002H26.1733C26.1733 29.3002 26.1733 29.3002 26.1233 29.3002C26.0733 29.2502 26.0733 29.2502 26.0733 29.2002C26.0233 29.1502 26.0233 29.1002 25.9734 29.0502C25.8734 29.1502 25.7735 29.2502 25.6735 29.3502L25.5736 29.5002C25.4237 29.6002 25.2737 29.6502 25.1738 29.6002H25.1238L25.1738 29.5502C25.4237 29.3502 25.6236 29.1002 25.8234 28.9502C25.5236 28.6002 25.1238 28.2502 24.724 27.9002C24.774 28.2502 24.774 28.6002 24.774 28.9502C24.774 29.2502 24.774 29.6002 24.724 29.9502C24.674 30.0002 24.5741 30.0502 24.5241 30.1002L24.4741 30.1502V30.1002C24.5241 29.7002 24.5241 29.3002 24.5241 28.9502C24.5241 28.8502 24.5241 28.7002 24.5241 28.6002V28.5002C24.5241 28.2502 24.4741 27.5502 24.4242 27.1002C24.3742 26.7002 24.2743 26.3002 24.1743 25.9002V25.8502C24.2243 25.8002 24.2743 25.7502 24.3242 25.7002L24.2243 25.5002ZM20.1264 24.6002C20.6261 23.4002 21.3258 22.7502 22.0254 22.7502C22.7251 22.7502 23.4247 23.4002 23.9244 24.6002V24.6502H23.8745C23.8245 24.6502 23.7745 24.7002 23.6746 24.7502H23.6246V24.7002C23.1748 23.6502 22.5751 23.0502 21.9754 23.0502C21.3758 23.0502 20.7761 23.6502 20.3263 24.7002V24.7502H20.2763C20.2264 24.6502 20.1264 24.6502 20.1264 24.6002ZM19.9265 24.9002C20.0764 25.0002 20.5262 25.2502 21.0259 25.1002C21.4757 24.9502 21.9754 24.9502 21.9754 24.9502C21.9754 24.9502 22.5252 24.9502 22.925 25.1002C23.4247 25.2502 23.8745 25.0002 24.0244 24.9002C24.0744 24.9002 24.0744 24.9002 24.0744 24.9502C24.0244 25.1502 23.8745 25.6502 23.1248 25.8502C22.4252 26.0002 22.0754 26.8002 21.9754 27.1502C21.9754 27.2002 21.9255 27.2002 21.8755 27.1502C21.7755 26.8002 21.4257 26.0002 20.7261 25.8502C19.9765 25.7002 19.8266 25.1502 19.7766 24.9502C19.8765 24.9002 19.9265 24.9002 19.9265 24.9002ZM21.1259 26.9002C21.2258 26.9002 21.3758 26.8502 21.4757 26.8002C21.5257 26.9002 21.5757 27.0502 21.6256 27.1502C21.4757 27.2502 21.3258 27.3002 21.1259 27.3002C20.5762 27.3002 20.1764 26.8502 20.1764 26.3502C20.1764 26.2002 20.2264 26.1002 20.2763 26.0002C20.3763 26.0502 20.4762 26.1002 20.6261 26.1502C20.5762 26.2002 20.5762 26.3002 20.5762 26.3502C20.5262 26.6502 20.826 26.9002 21.1259 26.9002ZM20.876 26.3002C20.876 26.2502 20.876 26.2502 20.876 26.2002C21.0259 26.2502 21.1759 26.4002 21.2758 26.5002C21.2258 26.5502 21.1759 26.5502 21.1259 26.5502C20.976 26.5502 20.876 26.4502 20.876 26.3002ZM21.1259 27.6002C21.3258 27.6002 21.5757 27.5502 21.7755 27.4002C21.8255 27.4502 21.9255 27.6502 21.9754 27.6502C22.0754 27.6502 22.1254 27.4502 22.1753 27.4002C22.3752 27.5002 22.6251 27.6002 22.825 27.6002C23.1748 27.6002 23.4747 27.4502 23.7245 27.2502C23.7245 27.2502 23.7245 27.2502 23.7245 27.3002C23.8245 27.7002 23.8745 28.2002 23.8245 28.4002C23.8245 28.6002 23.7245 28.8002 23.6746 29.0002C23.5746 29.2502 23.5246 29.4502 23.5246 29.4502C23.5246 29.4502 23.5246 29.5002 23.4747 29.6002C23.4247 29.8002 23.2748 30.1502 23.0749 30.5002C22.6751 30.2502 22.2753 30.1502 21.7755 30.1502C21.3258 30.1502 20.926 30.2502 20.5762 30.4502C20.4262 30.1002 20.2763 29.8002 20.2264 29.6502C20.1764 29.5502 20.1764 29.5002 20.1764 29.5002C20.1764 29.5002 20.0764 29.3002 19.9765 29.0002C19.9265 28.8502 19.8765 28.6502 19.8765 28.4502C19.8765 28.3002 19.8266 27.8002 19.9765 27.3502C19.9765 27.3002 20.0265 27.2502 20.0265 27.2002C20.3763 27.4002 20.7761 27.6002 21.1259 27.6002ZM22.875 26.9002C23.2248 26.9002 23.4747 26.6502 23.4747 26.3002C23.4747 26.2002 23.4747 26.1502 23.4247 26.1002C23.5246 26.0502 23.6746 26.0002 23.7745 25.9502C23.8245 26.0502 23.8745 26.2002 23.8745 26.3002C23.8745 26.8502 23.4247 27.2502 22.925 27.2502C22.7251 27.2502 22.5751 27.2002 22.4252 27.1002C22.4752 27.0002 22.5252 26.9002 22.5751 26.7502C22.6251 26.8502 22.775 26.9002 22.875 26.9002ZM22.7251 26.5002C22.825 26.3502 22.9749 26.2502 23.1248 26.2002C23.1248 26.2502 23.1248 26.2502 23.1248 26.3002C23.1248 26.4502 23.0249 26.5502 22.875 26.5502C22.825 26.5502 22.775 26.5502 22.7251 26.5002ZM16.9281 25.1002C17.078 25.1002 17.1779 25.1502 17.2779 25.2002C17.6277 25.0002 18.0275 24.9002 18.5772 24.9002C18.8771 24.9002 19.1769 24.9502 19.5267 25.0002H19.5767C19.5767 25.0502 19.6267 25.1502 19.6766 25.2502L19.7266 25.3002L19.6267 25.2502C19.5767 25.2502 19.5767 25.2502 19.5267 25.2502C19.2269 25.2002 18.927 25.1502 18.6272 25.1502C18.2774 25.1502 17.8276 25.2002 17.5278 25.4002C17.5777 25.5002 17.6277 25.6002 17.6277 25.7502C17.6277 26.1002 17.3279 26.4002 16.978 26.4002C16.978 27.0002 17.3778 27.8002 18.1274 28.7002C18.5272 28.3002 18.977 27.8502 19.4767 27.5002C19.5267 26.9002 19.6766 26.2502 19.8266 25.6502V25.6002L19.8765 25.6502C19.9265 25.7002 19.9765 25.7502 20.0265 25.8002C20.0265 25.8002 20.0265 25.8002 20.0764 25.8502V25.9002C19.9765 26.3002 19.8765 26.6502 19.8266 27.0502V27.1002C19.7766 27.4002 19.7266 27.8002 19.7266 28.2002C19.7266 28.5002 19.6766 28.7502 19.6766 28.9502C19.6766 29.2502 19.6766 29.5502 19.7266 29.9502V30.0002H19.6766C19.5767 29.9502 19.5267 29.9502 19.4767 29.9502H19.4268V29.9002C19.4268 29.6502 19.3768 29.3002 19.3768 28.9502C19.3768 28.6002 19.3768 28.2502 19.4268 27.9002C19.027 28.2502 18.6272 28.6002 18.3273 28.9502C18.5772 29.2502 18.927 29.5502 19.3268 29.9002L19.3768 29.9502H19.3268C19.2269 30.0002 19.0769 30.0002 18.977 29.9502C18.6772 29.6502 18.4273 29.4502 18.1774 29.2002C18.1274 29.2502 18.0775 29.3002 18.0775 29.3502L18.0275 29.4002C17.9775 29.4002 17.9275 29.4502 17.8276 29.5002L17.7776 29.4502C17.7776 29.4502 17.7276 29.4502 17.7276 29.4002H17.6777V29.3502C17.7776 29.2002 17.8776 29.1002 17.9775 29.0002C17.128 28.0502 16.7282 27.1502 16.7282 26.4502C16.5283 26.3502 16.3783 26.1502 16.3783 25.9002C16.2784 25.4002 16.5782 25.1002 16.9281 25.1002ZM24.0244 32.8502C23.6746 33.8502 23.1748 34.5502 22.6251 34.8502C22.5751 35.1502 22.3253 35.4002 22.0254 35.4002C21.7256 35.4002 21.4757 35.1502 21.4257 34.8502C20.876 34.5502 20.3763 33.9002 20.0265 32.9002V32.8502L20.3263 32.7502V32.8002C20.6261 33.6502 21.0259 34.2502 21.4757 34.5502C21.5757 34.3002 21.7755 34.1002 22.0754 34.1002C22.3752 34.1002 22.5751 34.3002 22.6751 34.5002C23.1248 34.2002 23.5246 33.6002 23.8245 32.8002V32.7502H23.8745C23.8745 32.8002 23.9244 32.8002 24.0244 32.8502ZM21.4757 32.8002C21.4757 32.6002 21.5257 32.0502 21.6256 31.8502C21.7256 31.8002 21.8755 31.7502 22.0254 31.7502C22.1753 31.7502 22.3253 31.8002 22.4752 31.9002C22.5252 32.1002 22.6251 32.6002 22.6251 32.8002C22.6251 33.0002 22.1254 33.1502 22.0754 33.2002C21.9255 33.1502 21.4757 33.0502 21.4757 32.8002ZM27.8724 30.8002C27.8224 30.8502 27.7724 30.9002 27.7225 30.9002C27.6725 30.9002 27.6225 30.9502 27.5226 30.9502H27.4726C27.3726 30.9502 27.2727 30.9502 27.2227 30.9002C27.1727 30.9002 27.1727 30.8502 27.1228 30.8502C26.9729 30.8502 26.623 30.9502 26.5231 31.0002C26.5731 31.0002 27.0228 31.0502 27.3227 31.3002C27.4726 31.4002 27.7724 31.4502 27.8724 31.4502C27.8724 31.5002 27.3726 31.8502 26.4231 31.6502L26.1733 31.6002C25.7235 31.5002 25.3237 31.4502 24.8739 31.4502C24.9239 31.4502 24.9739 31.5002 24.9739 31.5002C25.0738 31.5502 25.2238 31.6002 25.3237 31.6502C25.3237 31.6502 25.3737 31.6502 25.3737 31.7002H25.4237C25.4736 31.7002 25.5236 31.7002 25.5236 31.7502C25.5736 31.7502 25.6236 31.8002 25.6735 31.8002C25.7235 31.8502 25.8234 31.9002 25.8234 31.9502C25.8234 32.0002 25.8734 32.0002 25.8734 32.0502C25.8734 32.1502 25.8734 32.2002 25.8234 32.3002C25.6735 32.5002 25.4736 32.5002 25.2737 32.3002L25.2238 32.2502C25.1738 32.2002 25.1238 32.1502 25.0738 32.0502V32.0002C25.0738 32.0002 25.0738 32.0002 25.0239 32.0002C24.9239 31.9502 24.8739 31.8502 24.774 31.8502C24.6241 31.8002 24.4242 31.7502 24.2743 31.7002C24.2243 31.7002 24.1743 31.7002 24.1243 31.7002C24.2743 31.8002 24.4242 31.9002 24.4741 32.0002C24.4741 32.0002 24.4741 32.0002 24.4741 32.0502C24.5741 32.2002 24.5741 32.3502 24.6241 32.5002C24.774 32.8002 24.824 32.8502 24.9739 32.9502C24.824 33.0002 24.0744 33.0002 23.7245 32.4502C23.7245 32.4502 23.6746 32.4002 23.6746 32.3502C23.5746 32.1502 23.5246 31.9502 23.4747 31.8002C23.4247 31.6502 23.5246 31.5002 23.4247 31.4502C23.3247 31.4002 23.2748 31.4502 23.2748 31.4502C23.2248 31.5002 23.2248 31.5002 23.2248 31.5002V31.5502C23.2248 31.6002 23.1748 31.6002 23.1748 31.6002V31.6502C23.1748 31.6502 23.1748 31.7002 23.1248 31.7002C23.1248 31.7002 23.1248 31.7002 23.0749 31.7002C23.0249 31.7002 23.0249 31.7002 22.9749 31.7002C22.9749 31.7002 22.9749 31.7002 22.925 31.7002C22.925 31.7002 22.875 31.7002 22.875 31.7502C22.825 31.7502 22.775 31.8002 22.7251 31.8002C22.6751 31.8002 22.6251 31.7502 22.6251 31.7002C22.6251 31.6502 22.6251 31.6502 22.6251 31.6002C22.5751 31.6002 22.5751 31.6002 22.5252 31.6002C22.4752 31.6002 22.4752 31.6002 22.4252 31.5502C22.4252 31.5002 22.4252 31.4502 22.4252 31.4502C22.4252 31.4002 22.4252 31.4002 22.4252 31.4002C22.3752 31.4502 22.3752 31.4502 22.3253 31.4502C22.2753 31.4502 22.2753 31.4502 22.2253 31.4502C22.1753 31.4502 22.1753 31.4002 22.1753 31.3502V31.3002C22.1753 31.3002 22.1753 31.3002 22.1753 31.2502C22.1753 31.2502 22.1753 31.2502 22.1254 31.2502H22.0754C22.0254 31.2502 21.9255 31.2002 21.8755 31.2002C21.8755 31.2002 21.8755 31.2002 21.8255 31.2002C21.7755 31.2002 21.6756 31.2502 21.6256 31.2502H21.5757H21.5257C21.5257 31.2502 21.5257 31.2502 21.5257 31.2002C21.5257 31.2002 21.5257 31.2002 21.5257 31.1502L21.5757 31.1002C21.5757 31.1002 21.5757 31.1002 21.5757 31.0502C21.5257 31.0502 21.5257 31.0502 21.4757 31.0502V31.1002C21.4757 31.1002 21.4757 31.1002 21.4257 31.1002V31.1502V31.2002C21.4257 31.2502 21.4257 31.3002 21.3758 31.3002C21.3258 31.3502 21.3258 31.3502 21.2758 31.3002C21.2758 31.3002 21.2258 31.3002 21.2258 31.2502C21.2258 31.2502 21.1759 31.2502 21.1759 31.2002C21.1759 31.2002 21.1759 31.2502 21.2258 31.2502C21.2258 31.3002 21.2258 31.3002 21.2258 31.3502C21.1759 31.4002 21.1759 31.4002 21.1259 31.4002H21.0759H21.0259C21.0259 31.4502 21.0759 31.4502 21.0259 31.5002C21.0259 31.5502 20.976 31.5502 20.926 31.5502C20.876 31.5502 20.876 31.5502 20.826 31.5502C20.826 31.5502 20.826 31.5502 20.7761 31.5502H20.7261L20.6761 31.5002C20.6761 31.5002 20.6261 31.5002 20.5762 31.5002C20.5762 31.5002 20.5262 31.5002 20.5262 31.4502L20.4762 31.4002V31.3502C20.3763 31.2502 20.2264 31.6002 20.2264 31.6002C19.7766 32.5502 18.6772 32.7502 18.6772 32.7002C18.6772 32.7002 18.927 32.6002 19.027 32.2502C19.0769 32.0502 19.0769 32.0002 19.1769 31.8002C19.1769 31.7502 19.2269 31.7502 19.2269 31.7002C19.2768 31.6002 19.4268 31.5502 19.5267 31.4502C19.4767 31.4502 19.4268 31.4502 19.3768 31.4502C19.2269 31.5002 19.0769 31.5002 18.8771 31.6002C18.7771 31.6502 18.7271 31.7002 18.6272 31.7502C18.6272 31.7502 18.6272 31.7502 18.5772 31.7502V31.8002C18.5772 31.8502 18.5272 31.9002 18.4773 32.0002L18.4273 32.0502C18.2274 32.2502 18.0775 32.2502 17.8776 32.0502L17.8276 32.0002C17.7776 31.9502 17.7776 31.8502 17.8276 31.8002C17.8276 31.7502 17.8776 31.7002 17.9275 31.6502C17.9775 31.6002 18.0275 31.6002 18.0775 31.5502C18.1274 31.5002 18.1774 31.5002 18.2274 31.5002C18.2774 31.5002 18.2774 31.5002 18.3273 31.4502C18.3273 31.4502 18.3773 31.4502 18.4273 31.4502C18.4273 31.4502 18.4273 31.4002 18.4773 31.4002C18.5272 31.4002 18.5772 31.3502 18.6272 31.3502C18.6772 31.3502 18.7271 31.3002 18.7771 31.3002C18.7771 31.3002 18.8271 31.3002 18.8771 31.2502C18.4773 31.2502 18.0775 31.3002 17.6277 31.4002C17.5777 31.4002 17.4778 31.4502 17.3778 31.4502C16.8781 31.5502 15.9286 31.3002 15.9286 31.2502C15.9286 31.2002 16.1785 31.2002 16.4283 31.0502C16.6282 30.9502 16.7282 30.8502 16.8781 30.8002C17.128 31.0002 17.4278 31.0002 17.4778 31.0002C17.3778 30.9502 16.9281 30.9002 16.7781 30.8502C16.7781 30.8502 16.7282 30.9002 16.6782 30.9002C16.5782 30.9502 16.4783 30.9502 16.3783 30.9502C16.3284 30.9502 16.2284 30.9502 16.1785 30.9002C16.1285 30.9002 16.0785 30.8502 16.0285 30.8002C15.9786 30.7502 15.9786 30.7002 15.9786 30.5502C16.0285 30.3502 16.2284 30.2502 16.4783 30.3002C16.6282 30.3502 16.7282 30.4002 16.7781 30.4502L16.8281 30.5002C16.978 30.5002 17.1779 30.6002 17.3778 30.6502C17.5777 30.7502 17.7276 30.8002 17.8276 30.8002C17.7776 30.8002 17.7276 30.7502 17.6777 30.7502C17.6277 30.7502 17.5777 30.7002 17.5777 30.7002C17.5278 30.6502 17.4778 30.6502 17.4278 30.6002C17.128 30.4502 16.8281 30.3002 16.6282 30.1002C16.4783 29.9002 16.4283 29.8002 16.3783 29.6002C16.3284 29.1502 16.1285 28.9502 16.1285 28.9002C16.1785 28.8502 16.8781 29.2002 17.128 29.4502C17.2779 29.6502 17.3279 29.8002 17.3778 29.9502V30.0002C17.4278 30.1502 17.5777 30.3002 17.8276 30.4502C17.8776 30.4502 17.8776 30.5002 17.9275 30.5002C17.8776 30.4002 17.8276 30.3502 17.7776 30.2502V30.2002L17.7276 30.1502C17.7276 30.1502 17.6777 30.1002 17.6777 30.0502C17.6277 30.0002 17.6277 29.9502 17.5777 29.9002C17.5278 29.7502 17.5278 29.6002 17.5777 29.5502C17.6277 29.5002 17.6777 29.4502 17.7776 29.4002C17.9775 29.3502 18.1274 29.4502 18.1774 29.7502C18.1774 29.8002 18.1774 29.8502 18.1774 29.9002C18.1774 29.9502 18.1774 30.0002 18.1774 30.0502V30.1002C18.1774 30.1002 18.1774 30.1002 18.1774 30.1502C18.2774 30.4502 18.5272 30.7002 18.8271 30.9002C18.4773 30.6002 18.2774 29.9002 18.3273 29.9002C18.3773 29.8502 18.6772 30.0502 18.977 30.2002C19.1269 30.2502 19.2768 30.3502 19.4268 30.4502C19.5267 30.5002 19.6267 30.6002 19.6766 30.6502C19.7766 30.7002 19.8266 30.8002 19.8765 30.8502C19.9265 30.9002 19.9765 30.9502 20.0265 31.0002C20.0764 31.0502 20.0764 31.0502 20.1264 31.1002C20.2264 31.1502 20.3763 31.1002 20.3763 31.1002C20.4262 31.1002 20.4762 31.1002 20.5262 31.0502C20.5262 31.0502 20.5262 31.0502 20.5762 31.0002C20.6261 30.9502 20.6761 30.9502 20.7261 30.9502V30.9002C20.7261 30.8002 20.7761 30.7502 20.876 30.7002C20.876 30.7002 20.926 30.7002 20.926 30.6502H20.976H21.0259H21.0759C21.0759 30.6002 21.1259 30.6002 21.1759 30.5502C21.2758 30.5002 21.4257 30.5002 21.5257 30.6002C21.5757 30.6502 21.5757 30.7002 21.6256 30.7502V30.8002C21.6256 30.8502 21.6256 30.8502 21.6256 30.9002C21.6256 30.9502 21.6256 30.9502 21.6256 31.0002C21.6756 31.0002 21.7755 31.0002 21.8255 31.0002C21.8755 31.0002 21.8755 31.0002 21.9255 31.0002C21.9754 31.0002 22.0254 31.0002 22.0754 31.0502C22.1254 31.0502 22.1753 31.0002 22.2253 31.0002C22.2753 31.0002 22.2753 31.0002 22.3253 31.0002H22.3752C22.3752 30.9502 22.3752 30.9002 22.3752 30.8502C22.3752 30.8002 22.3752 30.7502 22.4252 30.7002C22.4252 30.7002 22.4252 30.6502 22.4752 30.6502L22.5252 30.6002C22.6251 30.5502 22.7251 30.5502 22.825 30.6002C22.875 30.6002 22.875 30.6502 22.925 30.7002C22.9749 30.7002 22.9749 30.7002 23.0249 30.7002H23.0749H23.1248C23.2248 30.7502 23.2748 30.8002 23.2748 30.9002C23.2748 30.9002 23.2748 30.9002 23.3247 30.9002H23.3747C23.3747 30.9002 23.6246 30.9002 23.6746 30.9502H23.9244C23.9744 30.9002 23.9744 30.9002 24.0244 30.8502C24.0744 30.8002 24.1743 30.7002 24.2243 30.6502C24.3242 30.6002 24.3742 30.5002 24.4741 30.4502C24.6241 30.3502 24.824 30.3002 24.9739 30.2502C25.4736 30.0502 25.5236 29.7502 25.5736 29.7502C25.6236 29.8002 25.4736 30.6002 25.1238 30.9002C25.3737 30.7002 25.6236 30.4502 25.7735 30.1502C25.7735 30.1502 25.7735 30.1502 25.7735 30.1002V30.0502C25.7735 30.0002 25.7735 29.9502 25.7735 29.9002C25.7735 29.8502 25.7735 29.8002 25.7735 29.7502C25.8734 29.5002 25.9734 29.3502 26.1733 29.4002C26.2732 29.4502 26.3232 29.5002 26.3732 29.5502C26.4231 29.6502 26.4231 29.7502 26.3732 29.9002C26.3732 29.9502 26.3232 30.0002 26.2732 30.0502C26.2232 30.1002 26.2232 30.1002 26.1733 30.1502L26.1233 30.2002V30.2502C26.0733 30.3502 26.0233 30.4002 25.9234 30.5002C25.9734 30.4502 25.9734 30.4502 26.0233 30.4002C26.2732 30.2002 26.4231 30.0502 26.4731 29.9002C26.5231 29.7502 26.5731 29.6002 26.723 29.4002C26.9729 29.1502 27.0228 29.0502 27.2727 28.9002C27.3227 28.8502 27.6725 28.8002 27.7225 28.8002C27.7724 28.8502 27.4726 28.9502 27.3726 29.4502C27.3227 29.6002 27.2727 29.8502 27.1228 30.0502C26.9229 30.3002 26.723 30.3502 26.4731 30.5002L26.4231 30.5502C26.3732 30.6002 26.3232 30.6002 26.2232 30.6502C26.1233 30.7002 26.0733 30.7502 26.0233 30.7502C26.1733 30.7002 26.3232 30.6502 26.5231 30.6002C26.673 30.5002 26.8729 30.4502 27.0728 30.4502C27.0728 30.4502 27.0728 30.4002 27.1228 30.4002C27.1727 30.3502 27.2727 30.3002 27.4226 30.2502C27.6725 30.1502 27.8724 30.2502 27.9224 30.5002C27.9723 30.6502 27.9224 30.7502 27.8724 30.8002Z" fill="#13377D"/>
<path d="M36.6175 20.75C37.3671 20.4 38.6165 19.55 39.1162 18.95C38.4166 18.7 37.0173 18.55 36.2177 18.55C37.8668 17.4 37.9168 15 37.4671 13.25C37.0673 14.65 36.0678 15.8 35.4181 16.5C35.4681 17.2 35.2682 18.4 34.8684 19.1C35.4181 19.3 36.0678 19.6 36.5175 19.95C36.2177 20.35 35.568 20.9 35.1682 21.25C35.5181 21.6 36.0678 22.25 36.3676 22.65C35.9678 22.95 35.1682 23.25 34.7185 23.4C34.9184 23.85 35.2182 24.6 35.3182 25.15C34.8184 25.25 34.1688 25.3 33.4691 25.3C33.5191 25.8 33.4192 26.6 33.3192 27.1C32.6695 27.05 31.9199 26.8 31.5701 26.6C31.3702 27.3 30.9205 28 30.9205 28.05C30.3208 27.35 29.7211 27.1 29.1714 27.1V26.65C29.7211 26.65 30.3208 26.85 30.7705 27.3C30.9704 26.95 31.1703 26.3 31.2703 25.9C31.6701 26.1 32.3197 26.35 32.8694 26.45C32.9194 25.95 32.9694 25.3 32.9194 24.8C33.4691 24.85 34.0688 24.85 34.7185 24.75C34.6185 24.3 34.2187 23.55 33.9689 23.15C34.5186 23 35.2182 22.7 35.568 22.5C35.2682 22.1 34.7685 21.55 34.4186 21.2C34.8184 20.9 35.4681 20.4 35.718 20.1C35.2682 19.8 34.6685 19.5 34.1688 19.3C34.8684 18.35 35.0183 16.4 34.8684 15.5C34.2687 17.55 32.4696 19.05 31.3702 19.75C31.3202 19.8 31.2703 19.85 31.2203 19.85C31.1703 19.9 30.9704 20.15 31.0704 20.45C31.0704 20.55 31.1203 20.6 31.1203 20.7C31.2203 21.1 31.2203 21.7 30.6206 22.25C30.1209 22.7 29.5212 22.75 29.1714 22.7V21.6C29.1714 21.45 29.0714 21.35 28.9215 21.35H28.1719L27.8221 21C27.8221 21 28.1719 21 28.5717 21C28.9715 20.95 29.4212 20.75 29.4212 20.75C29.4212 20.75 28.9715 20.75 28.7716 20.7C28.5217 20.75 27.972 20.5 27.5222 20C27.3723 19.8 27.2224 19.6 27.1224 19.4C26.7226 19.05 26.2729 18.6 25.973 17.95C25.7731 17.5 25.6732 16.85 25.6232 16.45C25.4733 16.55 25.3234 16.75 25.1235 17C24.7736 17.45 24.6237 18.1 24.6237 18.1L24.4738 18.6L24.2239 18.15C24.2239 18.15 23.8741 17.55 23.8241 16.8C23.8241 16.45 23.8241 16.15 23.8741 15.9C23.7742 15.95 23.6242 16.05 23.4743 16.15C22.8746 16.6 22.5248 17.05 22.5248 17.05C22.225 17.45 22.0251 17.8 21.9751 17.95C21.9251 17.75 21.7252 17.45 21.4254 17.05C21.4254 17.05 21.1255 16.55 20.4759 16.15C20.3259 16.05 20.176 15.95 20.0761 15.9C20.1261 16.15 20.1261 16.5 20.1261 16.8C20.0761 17.55 19.7263 18.1 19.7263 18.15L19.4764 18.55L19.3265 18.05C19.3265 18.05 19.1266 17.4 18.8267 16.95C18.6268 16.7 18.4769 16.5 18.327 16.4C18.277 16.8 18.1771 17.5 17.9772 17.9C17.6773 18.55 17.2775 19.05 16.8278 19.35C16.7278 19.55 16.5779 19.75 16.428 19.95C15.9782 20.45 15.4285 20.7 15.1786 20.75C14.9787 20.8 14.529 20.8 14.529 20.8C14.529 20.8 14.9787 21 15.3785 21.05C15.7783 21.1 16.1281 21.05 16.1281 21.05L15.7783 21.4H15.0287C14.8788 21.4 14.7788 21.5 14.7788 21.65V22.75C14.429 22.8 13.7793 22.75 13.3296 22.3C12.7799 21.75 12.7299 21.15 12.8298 20.75C12.8798 20.7 12.8798 20.6 12.8798 20.5C12.9798 20.2 12.7799 19.95 12.7299 19.9C12.6799 19.85 12.6299 19.8 12.58 19.8C11.4805 19.1 9.73144 17.6 9.08178 15.55C8.93186 16.45 9.13176 18.35 9.78142 19.35C9.28168 19.55 8.63201 19.85 8.23222 20.15C8.48209 20.45 9.13175 21 9.53155 21.25C9.18173 21.55 8.63201 22.15 8.38214 22.55C8.73196 22.75 9.4316 23.05 9.98131 23.2C9.73144 23.6 9.33165 24.35 9.2317 24.8C9.83139 24.9 10.4811 24.9 11.0308 24.85C10.9808 25.35 11.0308 26.05 11.0807 26.5C11.6305 26.4 12.2801 26.2 12.6799 25.95C12.7799 26.3 12.9798 27 13.1797 27.35C13.6294 26.9 14.2291 26.7 14.7788 26.7V27.15C14.2291 27.15 13.6294 27.4 13.0297 28.1C13.0297 28.05 12.58 27.35 12.3801 26.65C12.0303 26.8 11.2806 27.1 10.631 27.15C10.531 26.65 10.4811 25.85 10.4811 25.35C9.78142 25.35 9.13175 25.3 8.63201 25.2C8.73196 24.65 9.03181 23.9 9.2317 23.45C8.78194 23.3 7.98235 22.95 7.58256 22.7C7.83243 22.3 8.43212 21.65 8.78194 21.3C8.38214 21 7.73248 20.4 7.43264 20C7.8824 19.65 8.53207 19.35 9.08178 19.15C8.68199 18.4 8.48209 17.2 8.53207 16.55C7.83243 15.85 6.83295 14.7 6.48313 13.3C5.98339 15.05 6.08334 17.5 7.73248 18.6C6.9329 18.6 5.53362 18.8 4.83398 19C5.33373 19.6 6.58308 20.4 7.33269 20.8C6.733 21 5.68354 21.6 5.23378 22C5.78349 22.35 7.03284 22.75 7.63253 22.9C7.28271 23.2 6.58308 24 6.33321 24.4C6.83295 24.55 7.83243 24.7 8.48209 24.7C8.2822 25.15 8.03233 25.9 7.98235 26.35C8.2822 26.4 9.33165 26.35 9.88137 26.2C9.83139 26.65 9.83139 27.4 9.93134 27.75C10.4311 27.7 11.1807 27.45 11.5305 27.35C11.6305 27.75 11.9803 28.55 12.1302 28.75C12.3801 28.7 12.6299 28.65 12.8798 28.55C13.5794 28.3 14.3291 28.6 14.6289 29.25C15.1286 30.4 14.9287 31.75 13.9792 31.5C12.8798 31.7 13.6294 33.1 12.9798 33.55C13.8293 34.15 14.0792 32.75 15.1786 33C15.0787 33.5 15.0787 34.45 15.1786 34.85C15.5284 34.6 16.0282 34.4 16.328 34.35C16.2281 34.65 16.1781 35.35 16.278 35.8C16.4779 35.65 17.9272 35.25 17.9272 35.25C17.9272 35.25 17.3775 36.35 17.7273 37.45C17.9272 37.6 19.2265 36.95 19.2265 36.6C19.2765 37.05 18.7268 38.05 17.8772 38.25C18.7768 39.15 19.5763 39.1 19.6763 39.1C19.8262 39.1 19.9262 39.1 20.0261 39C19.9761 39.25 19.9262 39.6 19.9761 39.8C20.0261 39.8 20.0761 39.8 20.1261 39.8C20.3759 39.8 20.5758 39.75 20.7257 39.7C20.7757 39.95 20.8757 40.2 21.0256 40.4C21.0756 40.45 21.0756 40.45 21.1255 40.5C21.3254 40.5 21.8252 40.25 21.9251 40.1C22.0251 40.25 22.5248 40.5 22.7247 40.5C22.7747 40.45 22.8247 40.45 22.8247 40.4C23.0245 40.2 23.1245 39.9 23.1245 39.7C23.3244 39.8 23.5243 39.8 23.7242 39.8C23.7742 39.8 23.8241 39.8 23.8741 39.8C23.9241 39.6 23.9241 39.25 23.8241 39C23.9241 39.05 24.074 39.1 24.174 39.1C24.2739 39.1 25.0735 39.15 25.973 38.25C25.1235 38.05 24.5737 37.05 24.6237 36.6C24.6237 37 25.923 37.6 26.1229 37.45C26.4728 36.35 25.923 35.25 25.923 35.25C25.923 35.25 27.3223 35.6 27.5722 35.8C27.6721 35.35 27.6222 34.65 27.5222 34.35C27.8221 34.35 28.3218 34.6 28.6716 34.85C28.7716 34.45 28.7716 33.55 28.6716 33C29.7211 32.75 29.9709 34.15 30.8705 33.55C30.2708 33.1 31.0204 31.7 29.871 31.5C28.9215 31.8 28.7216 30.4 29.2213 29.25C29.5212 28.6 30.3208 28.3 30.9704 28.55C31.2203 28.65 31.4702 28.7 31.72 28.75C31.82 28.55 32.2198 27.75 32.3197 27.35C32.6695 27.5 33.4192 27.7 33.9189 27.75C33.9689 27.4 34.0188 26.65 33.9689 26.2C34.4686 26.3 35.568 26.35 35.8679 26.35C35.8179 25.85 35.568 25.1 35.3681 24.7C36.0178 24.65 37.0173 24.55 37.517 24.4C37.2672 23.95 36.5675 23.15 36.2177 22.9C36.8174 22.75 38.0667 22.35 38.6165 22C38.2666 21.55 37.2172 20.95 36.6175 20.75ZM28.5217 32C28.4717 32.1 28.4217 32.15 28.3718 32.25C28.3718 32.3 28.3218 32.3 28.3218 32.35C28.2718 32.4 28.2219 32.45 28.1719 32.55C28.1219 32.6 28.1219 32.6 28.0719 32.65C28.022 32.75 27.922 32.8 27.872 32.9C27.8221 32.95 27.7721 33 27.7221 33.05C27.6721 33.1 27.6222 33.15 27.5722 33.2C27.5222 33.25 27.4722 33.3 27.3723 33.4C27.3223 33.45 27.3223 33.45 27.2723 33.5C27.1224 33.65 26.9225 33.8 26.7226 33.9C26.4728 34.1 26.2229 34.25 25.923 34.4C25.8231 34.45 25.7231 34.5 25.6232 34.55C23.3744 35.7 22.2749 36.6 21.9251 36.85H21.8751C21.5253 36.55 20.4259 35.7 18.1771 34.55C18.0771 34.5 17.9772 34.45 17.8772 34.4C17.5774 34.25 17.3275 34.1 17.0776 33.9C16.8777 33.75 16.7278 33.6 16.5279 33.5C16.4779 33.45 16.428 33.45 16.428 33.4C16.378 33.35 16.278 33.3 16.2281 33.2C16.1781 33.15 16.1281 33.1 16.0782 33.05C16.0282 33 15.9782 32.95 15.9282 32.9C15.8283 32.8 15.7783 32.75 15.7283 32.65C15.6784 32.6 15.6784 32.6 15.6284 32.55C15.5784 32.5 15.5284 32.45 15.4785 32.35C15.4785 32.3 15.4285 32.3 15.4285 32.25C15.3785 32.15 15.3285 32.1 15.2786 32C14.9787 31.35 15.0287 30.8 15.0287 30.8V22.05C15.0287 21.9 15.1286 21.8 15.2786 21.8H16.0282H21.9751H27.7221H28.4717C28.6216 21.8 28.7216 21.9 28.7216 22.05V30.8C28.7716 30.8 28.8215 31.35 28.5217 32Z" fill="#13377D"/>
<path d="M28.2224 7.9998C28.4224 7.9998 28.5224 7.8498 28.5224 7.6498C28.5224 7.4498 28.3724 7.2998 28.2224 7.2998C28.0224 7.2998 27.9224 7.4498 27.9224 7.6498C27.9224 7.8498 28.0724 7.9998 28.2224 7.9998Z" fill="#13377D"/>
<path d="M28.2223 9.8502C28.4223 9.8502 28.6223 9.0002 28.6223 8.6002C28.6223 8.3502 28.4223 8.2002 28.2223 8.2002C28.0223 8.2002 27.8223 8.3502 27.8223 8.6002C27.8223 9.0002 28.0223 9.8502 28.2223 9.8502Z" fill="#13377D"/>
<path d="M28.022 6.7999H28.472L28.372 6.2499L28.922 6.2999V5.8499L28.372 5.9499L28.472 5.3999H28.022L28.072 5.9499L27.522 5.8499V6.2999L28.072 6.2499L28.022 6.7999Z" fill="#13377D"/>
<path d="M26.273 10.8501C26.4229 10.9001 26.5729 10.9001 26.7228 10.9501H26.7727H26.8227C26.8727 10.9501 26.8727 10.9501 26.8727 10.9501H26.9726C27.0226 10.9501 27.0726 10.9501 27.1226 10.9501C27.1725 10.9501 27.1725 10.9501 27.2225 10.9501C27.2725 10.9501 27.3225 10.9501 27.3724 10.9501C27.7722 10.9501 28.172 10.8501 28.5718 10.7501C28.9716 10.6501 29.3714 10.5501 29.8212 10.5501H29.8711H29.9211H29.9711H30.0211H30.071H30.121C30.221 10.1001 30.3709 9.6001 30.3709 9.3001C30.3709 8.7001 30.0211 8.0501 28.8717 7.8501C28.8717 8.6001 28.5218 10.3501 28.122 10.3501H28.0721C27.6723 10.3501 27.3225 8.6001 27.3225 7.8501C26.1731 8.0501 25.8232 8.7001 25.8232 9.3001C25.8232 9.6501 25.9732 10.3001 26.1231 10.7501C26.273 10.8001 26.273 10.8001 26.273 10.8501Z" fill="#13377D"/>
<path d="M32.2698 7.70007C32.2698 7.70007 31.97 6.90007 32.4697 6.65007C33.0195 6.45007 32.2698 6.55007 32.6696 5.45007C33.1194 4.15007 34.1189 4.45007 34.1189 4.45007C33.4193 3.90007 32.8695 3.95007 32.4697 4.25007C32.2199 4.45007 31.8701 4.85007 31.6202 5.65007C31.4203 6.65007 31.7701 7.60007 32.2698 7.70007Z" fill="#13377D"/>
<path d="M34.8689 5.75024C34.9189 7.40024 37.6675 8.10024 37.6675 8.10024C37.6675 8.10024 36.0683 6.95024 36.3681 6.10024C36.3681 6.10024 37.4176 6.55024 38.617 6.35024C36.0683 5.80024 36.9178 5.00024 36.2682 4.35024C35.6185 3.65024 34.619 3.60024 34.3692 3.55024C33.7195 3.50024 33.6695 3.50024 32.9199 3.70024C34.669 3.75024 34.8689 4.65024 34.8689 5.75024Z" fill="#13377D"/>
<path d="M34.5189 8.85001C34.8687 7.55001 34.2191 6.95001 34.2191 6.95001C34.0192 6.70001 32.9697 6.75001 32.5699 7.00001C32.5699 7.00001 33.5694 7.00001 33.4195 8.45001C33.2696 9.90001 31.2706 10.2 30.7209 10.25L30.6709 10.45C31.6204 10.45 34.1191 10.15 34.5189 8.85001Z" fill="#13377D"/>
<path d="M24.0742 8.7998H23.0747C23.5744 10.1998 25.0237 10.6498 25.9732 10.7998L25.9232 10.6498C24.9237 10.2498 24.424 9.8498 24.0742 8.7998Z" fill="#13377D"/>
<path d="M15.7784 7.9998C15.9784 7.9998 16.0784 7.8498 16.0784 7.6498C16.0784 7.4498 15.9284 7.2998 15.7784 7.2998C15.5784 7.2998 15.4784 7.4498 15.4784 7.6498C15.4284 7.8498 15.5784 7.9998 15.7784 7.9998Z" fill="#13377D"/>
<path d="M15.7784 9.8502C15.9784 9.8502 16.1784 9.0002 16.1784 8.6002C16.1784 8.3502 15.9784 8.2002 15.7784 8.2002C15.5784 8.2002 15.3784 8.3502 15.3784 8.6002C15.3784 9.0002 15.5284 9.8502 15.7784 9.8502Z" fill="#13377D"/>
<path d="M15.5291 6.7999H15.9791L15.9291 6.2499L16.4791 6.2999V5.8499L15.9291 5.9499L15.9791 5.3999H15.5291L15.6291 5.9499L15.0791 5.8499V6.2999L15.6291 6.2499L15.5291 6.7999Z" fill="#13377D"/>
<path d="M13.7795 10.5499H13.8295H13.8795H13.9794C14.0294 10.5499 14.0294 10.5499 14.0294 10.5499H14.0794C14.5291 10.5999 14.9789 10.6499 15.3287 10.7499C15.6785 10.8499 16.1283 10.9499 16.5281 10.9499C16.5781 10.9499 16.628 10.9499 16.678 10.9499C16.728 10.9499 16.728 10.9499 16.7779 10.9499C16.8279 10.9499 16.8779 10.9499 16.9279 10.9499H17.0278H17.0778H17.1278H17.1777C17.3277 10.9499 17.4776 10.8999 17.6275 10.8499C17.6275 10.7999 17.6275 10.7999 17.6775 10.7999C17.8274 10.3499 17.9773 9.6999 17.9773 9.3499C17.9773 8.7499 17.6775 8.0999 16.4781 7.8999C16.4781 8.5999 16.1283 10.3999 15.7285 10.3999H15.6785C15.2787 10.3999 14.9289 8.6499 14.9289 7.8999C13.7795 8.0999 13.4297 8.7499 13.4297 9.3499C13.4297 9.6499 13.5296 10.1499 13.6796 10.5999C13.7295 10.5499 13.7295 10.5499 13.7795 10.5499Z" fill="#13377D"/>
<path d="M9.83154 4.4503C9.83154 4.4503 10.831 4.1503 11.2808 5.4503C11.6806 6.5503 10.931 6.4503 11.4807 6.6503C12.0304 6.8503 11.6806 7.7003 11.6806 7.7003C12.2303 7.6003 12.5801 6.6503 12.2803 5.6003C12.0304 4.8003 11.6806 4.4003 11.4307 4.2003C11.0309 3.9503 10.5312 3.9003 9.83154 4.4503Z" fill="#13377D"/>
<path d="M7.5825 6.0998C7.88234 6.9498 6.28317 8.0998 6.28317 8.0998C6.28317 8.0998 9.08172 7.3998 9.08172 5.7498C9.1317 4.6498 9.28162 3.7498 10.9807 3.6998C10.2311 3.5498 10.1812 3.5498 9.53149 3.5498C9.28162 3.5498 8.28214 3.6498 7.63247 4.3498C7.03278 4.9998 7.83237 5.7998 5.28369 6.3498C6.53304 6.5498 7.5825 6.0998 7.5825 6.0998Z" fill="#13377D"/>
<path d="M10.5813 8.44994C10.4314 6.99994 11.4308 6.99994 11.4308 6.99994C11.081 6.74994 10.0316 6.74994 9.7817 6.94994C9.7817 6.94994 9.13204 7.49994 9.48185 8.84994C9.83167 10.1499 12.3804 10.4499 13.3299 10.4499L13.2799 10.2499C12.7302 10.1999 10.7312 9.89994 10.5813 8.44994Z" fill="#13377D"/>
<path d="M20.9254 8.7998H19.9259C19.5761 9.8498 19.0763 10.2498 18.0768 10.6498L18.0269 10.7998C19.0263 10.6498 20.4256 10.1998 20.9254 8.7998Z" fill="#13377D"/>
<path d="M23.2745 14.9502C22.9747 15.4002 22.7248 15.9002 22.5249 16.4002C22.6748 16.2002 22.9247 16.0002 23.1746 15.8002C23.6243 15.5002 24.0241 15.3002 24.0241 15.3002L24.4239 15.1502L24.324 15.5502C24.324 15.5502 24.174 16.2002 24.224 16.7502C24.224 17.0002 24.324 17.2502 24.3739 17.4002C24.4739 17.1502 24.6238 16.9002 24.7737 16.6502C25.2735 16.0002 25.6733 15.7502 25.6733 15.7502L25.9731 15.6002V15.9502C25.9731 15.9502 26.0731 17.1002 26.3229 17.7002C26.7727 18.7002 27.6223 19.2502 28.122 19.5002C28.072 19.4502 27.9721 19.3502 27.8721 19.2502C27.6223 19.0002 27.3724 18.5502 27.2225 17.6002C27.1225 16.8002 27.4224 16.0002 27.5223 15.7502C27.5723 15.9502 27.6722 16.1502 27.7722 16.2002C27.7722 16.2002 27.7722 16.0002 27.8222 15.8002C27.9221 15.2502 28.5218 14.4002 29.3214 13.9002C29.4713 13.8002 29.6212 13.7002 29.7212 13.6502C29.8711 13.6002 29.971 13.5002 30.071 13.4002C29.9211 13.4002 29.7212 13.4502 29.5712 13.4502H29.5213C29.4213 13.4502 29.2714 13.4502 29.0715 13.4502C28.6717 13.4502 28.2219 13.4002 27.8721 13.1002C27.5223 12.8002 27.3724 12.5002 27.3224 12.3002C27.1725 12.3002 26.9726 12.3002 26.7227 12.3002C26.4229 12.3002 26.173 12.2002 26.0231 12.2002C25.6233 12.4502 25.2235 12.5502 24.7238 12.6002C24.6738 12.6002 24.5738 12.6002 24.5239 12.6002C24.6738 12.7502 24.8737 12.8502 25.0236 12.9502C25.0236 12.9502 25.0236 12.9502 25.0736 12.9502L24.9736 13.0002C25.0236 12.9502 24.324 13.3502 23.2745 14.9502Z" fill="#13377D"/>
<path d="M29.821 12.1499C29.621 12.1499 29.471 12.1499 29.271 12.1499C29.271 12.2499 29.271 12.3499 29.271 12.4499C29.321 12.5999 29.371 12.6999 29.471 12.7999C29.621 12.6999 29.771 12.4499 29.821 12.1499Z" fill="#13377D"/>
<path d="M30.2211 11.0001C30.1711 11.0001 30.1711 11.0001 30.2211 11.0001H30.1711C30.1711 11.0001 30.1711 11.0001 30.1211 11.0001C30.0711 11.0001 30.0711 11.0001 30.0212 11.0001C29.6214 11.0001 29.2216 11.1001 28.8218 11.2001C28.422 11.3001 27.9722 11.4001 27.5724 11.4001C27.4725 11.4001 27.4225 11.4001 27.3226 11.4001C27.2726 11.4001 27.2226 11.4001 27.1726 11.4001C27.1227 11.4001 27.1227 11.4001 27.0727 11.4001C27.0227 11.4001 27.0227 11.4001 26.9727 11.4001C26.9727 11.4001 26.9727 11.4001 26.9228 11.4001C26.9228 11.4001 26.9228 11.4001 26.8728 11.4001C25.9733 11.3001 25.3736 11.0001 25.0737 10.8501C25.1237 10.9501 25.2237 11.0501 25.3736 11.2001C25.4235 11.2501 25.4735 11.3001 25.5235 11.3501C25.6234 11.4501 25.7734 11.5501 25.9233 11.6501C26.1232 11.7501 26.9727 12.1001 28.0722 11.9501C29.3215 11.7501 29.5714 11.8001 29.8712 11.8001H29.9712C30.421 11.8501 31.0706 12.1001 31.3205 12.2501C31.4204 12.0001 31.5704 11.7501 31.6203 11.5001C31.5704 11.4501 31.4704 11.3501 31.2705 11.2501C31.2205 11.2001 31.1706 11.2001 31.0706 11.1501C30.9707 11.1001 30.8207 11.0501 30.6209 11.0501C30.421 11.0001 30.321 11.0001 30.2211 11.0001Z" fill="#13377D"/>
<path d="M33.7192 15.0998C33.6692 15.0998 33.2194 15.3498 32.2699 14.7498C31.3204 14.1498 30.6208 13.8998 30.221 13.7998C30.121 13.8498 30.071 13.8998 29.9711 13.9498C29.8712 13.9998 29.7212 14.0998 29.5713 14.1998C29.5213 14.2498 29.4714 14.2498 29.4214 14.2998C29.4214 14.2998 29.4714 14.2998 29.5213 14.2998C30.4209 14.3998 31.1205 14.8998 31.1705 15.0998H31.2205C31.3204 14.7998 31.1705 14.5498 31.1705 14.5498C31.1705 14.5498 31.5703 14.7998 32.3699 15.2498C33.2194 15.7998 33.5692 15.2998 33.7192 15.0998Z" fill="#13377D"/>
<path d="M28.9717 12.65C28.9217 12.6 28.8717 12.5 28.8217 12.45C28.7718 12.35 28.7718 12.3 28.7718 12.25C28.5719 12.25 28.322 12.3 28.0222 12.35C27.9722 12.35 27.8722 12.35 27.8223 12.35C27.9722 12.65 28.2221 12.95 28.7218 13.05C28.7718 13.05 28.7718 13.05 28.8217 13.05C28.8717 13.05 28.8717 13.05 28.9217 13.05C29.1216 13.1 29.3715 13.1 29.5214 13.1C29.8712 13.1 30.271 13.05 30.6708 12.95C30.7707 12.85 30.8207 12.7 30.9207 12.6C30.9207 12.6 30.8707 12.55 30.8207 12.55C30.7208 12.5 30.4709 12.35 30.321 12.3C30.271 12.45 30.171 12.6 30.0711 12.7C29.9212 12.8 29.7213 12.85 29.5214 12.85C29.3215 12.85 29.1216 12.8 29.0216 12.7C28.9717 12.7 28.9717 12.65 28.9717 12.65Z" fill="#13377D"/>
<path d="M31.6201 11.8999C31.3203 12.6999 30.8205 13.2999 30.4707 13.5999C32.7195 12.9999 33.1193 14.1499 33.1193 14.1999C33.1193 14.2499 33.1193 14.2499 33.1693 14.1999C33.2193 14.1499 33.9689 13.3499 33.4192 12.5999C32.9694 11.9999 31.9699 11.8999 31.6201 11.8999ZM31.6201 12.4999C31.7201 12.3999 31.77 12.1999 31.77 12.1999C31.92 12.1999 32.2198 12.2499 32.2198 12.4499C32.0199 12.3999 31.77 12.3999 31.6201 12.4999Z" fill="#13377D"/>
<path d="M14.7292 12.4499C14.7292 12.3499 14.7292 12.2499 14.7292 12.1499C14.5292 12.1499 14.3292 12.1499 14.1792 12.1499C14.2292 12.4499 14.3792 12.6999 14.5292 12.7999C14.6292 12.6999 14.6792 12.5999 14.7292 12.4499Z" fill="#13377D"/>
<path d="M17.2778 11.3498C17.2278 11.3498 17.2278 11.3498 17.2778 11.3498C17.2278 11.3498 17.2278 11.3498 17.2278 11.3498C17.2278 11.3498 17.2278 11.3498 17.1778 11.3498C17.1279 11.3498 17.1279 11.3498 17.0779 11.3498C17.0279 11.3498 17.0279 11.3498 16.9779 11.3498C16.928 11.3498 16.878 11.3498 16.828 11.3498C16.7281 11.3498 16.6781 11.3498 16.5782 11.3498C16.1284 11.3498 15.7286 11.2498 15.3288 11.1498C14.879 11.0998 14.4792 10.9998 14.0795 10.9998C14.0295 10.9998 14.0295 10.9998 13.9795 10.9998C13.9795 10.9998 13.9795 10.9998 13.9295 10.9998C13.8296 10.9998 13.7296 10.9998 13.6797 10.9998C13.4798 10.9998 13.3298 11.0498 13.2299 11.0998C13.1799 11.1498 13.08 11.1498 13.03 11.1998C12.8801 11.2998 12.7801 11.3498 12.6802 11.4498C12.7301 11.6998 12.8801 11.9998 12.98 12.1998C13.2299 12.0498 13.8796 11.7498 14.3293 11.7498H14.4293C14.7291 11.7498 14.979 11.6998 16.2283 11.8998C17.3278 12.0498 18.1273 11.6998 18.3772 11.5998C18.5271 11.4998 18.6771 11.3998 18.777 11.2998C18.827 11.2498 18.877 11.1998 18.9269 11.1498C19.0269 10.9998 19.1268 10.8998 19.2268 10.7998C18.777 10.9498 18.1773 11.2498 17.2778 11.3498Z" fill="#13377D"/>
<path d="M10.2812 15.0999C10.4312 15.2499 10.781 15.7999 11.5806 15.3499C12.3802 14.8999 12.78 14.6499 12.78 14.6499C12.78 14.6499 12.63 14.8999 12.73 15.1999C12.73 15.1999 12.73 15.1999 12.78 15.1999C12.8799 14.9999 13.5795 14.4499 14.4291 14.3999C14.4791 14.3999 14.4791 14.3999 14.529 14.3999C14.4791 14.3499 14.4291 14.3499 14.3791 14.2999C14.2292 14.1999 14.0793 14.0999 13.9793 14.0499C13.8794 13.9999 13.8294 13.9499 13.7295 13.8999C13.3297 13.9499 12.63 14.2499 11.6805 14.8499C10.781 15.3499 10.3312 15.0999 10.2812 15.0999Z" fill="#13377D"/>
<path d="M13.6798 12.3C13.5798 12.35 13.28 12.5 13.18 12.55C13.1301 12.55 13.1301 12.6 13.0801 12.6C13.18 12.75 13.23 12.85 13.3299 12.95C13.7297 13.05 14.1295 13.1 14.4794 13.1C14.6792 13.1 14.8791 13.1 15.079 13.05C15.129 13.05 15.129 13.05 15.179 13.05C15.229 13.05 15.229 13.05 15.2789 13.05C15.7787 12.95 16.0785 12.6 16.1785 12.35C16.1285 12.35 16.0285 12.35 15.9786 12.35C15.6787 12.3 15.4289 12.25 15.229 12.25C15.229 12.3 15.179 12.4 15.179 12.45C15.129 12.55 15.079 12.6 15.0291 12.65L14.9791 12.7C14.8292 12.8 14.6792 12.85 14.4794 12.85C14.2795 12.85 14.0796 12.8 13.9296 12.7C13.7797 12.6 13.7297 12.45 13.6798 12.3Z" fill="#13377D"/>
<path d="M10.5315 12.5999C9.98183 13.3499 10.7314 14.1499 10.7814 14.1999C10.8314 14.2499 10.8314 14.1999 10.8314 14.1999C10.8314 14.1499 11.2312 12.9999 13.48 13.5999C13.1302 13.2999 12.6305 12.6999 12.3306 11.8999C12.0308 11.8999 10.9813 11.9999 10.5315 12.5999ZM12.3806 12.4999C12.2307 12.3999 11.9808 12.3999 11.7809 12.4499C11.7809 12.2499 12.0807 12.1999 12.2307 12.1999C12.2307 12.1999 12.2806 12.3999 12.3806 12.4999Z" fill="#13377D"/>
<path d="M19.4265 12.6002C19.3765 12.6002 19.2766 12.6002 19.2266 12.6002C18.7269 12.6002 18.3271 12.4502 17.9273 12.2002C17.7774 12.2502 17.4775 12.3002 17.2277 12.3002C16.9778 12.3002 16.7279 12.3002 16.628 12.3002C16.578 12.5002 16.4281 12.8502 16.0783 13.1002C15.7284 13.4002 15.2787 13.4502 14.8789 13.4502C14.679 13.4502 14.5291 13.4502 14.4291 13.4502H14.3791C14.2792 13.4502 14.0793 13.4002 13.8794 13.4002C14.0293 13.5002 14.1293 13.5502 14.2292 13.6502C14.3292 13.7002 14.4791 13.8002 14.629 13.9002C15.4286 14.4502 16.0283 15.2502 16.1282 15.8002C16.1782 16.0002 16.1782 16.2002 16.1782 16.2002C16.2782 16.1502 16.3781 15.9502 16.4281 15.7502C16.528 16.0002 16.8778 16.8002 16.7279 17.6002C16.578 18.5502 16.3281 19.0002 16.0783 19.2502C15.9783 19.3502 15.8784 19.4502 15.8284 19.5002C16.3281 19.2502 17.1777 18.7002 17.6275 17.7002C17.8773 17.1502 17.9773 16.0002 17.9773 16.0002V15.6502L18.2771 15.8002C18.2771 15.8002 18.7269 16.0502 19.1766 16.7002C19.3266 16.9502 19.4765 17.2002 19.5764 17.4502C19.6264 17.2502 19.6764 17.0502 19.7264 16.8002C19.7763 16.2002 19.6264 15.6002 19.6264 15.6002L19.5265 15.2002L19.9263 15.3502C19.9263 15.3502 20.326 15.5002 20.7758 15.8502C21.0757 16.0502 21.2756 16.2502 21.4255 16.4502C21.2256 15.9502 21.0257 15.4502 20.6759 15.0002C19.6264 13.4002 18.9768 13.0502 18.9768 13.0502L18.8768 13.0002C18.8768 13.0002 18.8768 13.0002 18.9268 13.0002C19.0767 12.8502 19.2766 12.7002 19.4265 12.6002Z" fill="#13377D"/>
</svg>
