<svg width="39" height="47" viewBox="0 0 39 47" fill="none" xmlns="http://www.w3.org/2000/svg">
<path d="M38.4875 0.5H0.5V36.9671C0.535745 39.3614 1.44368 41.5518 3.74925 42.5884C4.50323 42.9182 5.31286 43.1047 6.13615 43.1382H6.14687C7.69911 43.1329 9.26386 42.9112 10.8054 42.7436C11.7097 42.6452 12.6186 42.56 13.5292 42.5388C14.0271 42.5463 14.523 42.6022 15.0099 42.7055C16.0426 42.9178 17.0234 43.3284 17.8973 43.9142C18.5621 44.3717 19.2493 45.0306 19.4969 45.8154L19.6756 46.3971L19.8597 45.8154C20.2305 44.6466 21.5844 43.6694 22.6532 43.1648C23.4923 42.7693 24.5012 42.4811 25.4386 42.5308H25.4485C27.956 42.5308 30.4474 42.9059 32.9416 43.1161C33.7224 43.1703 34.505 43.0383 35.2239 42.7312C36.2268 42.2868 37.0577 41.5321 37.592 40.5799C38.2435 39.4572 38.5027 38.151 38.5 36.866L38.4875 0.5ZM12.2236 21.1531C12.1852 21.2986 12.0109 21.5353 11.8956 21.5353C11.691 21.5353 11.6105 21.3518 11.5802 21.1416C11.5641 21.0281 11.4988 20.8525 11.6695 20.6574C11.7589 20.5492 11.8634 20.4739 11.9197 20.7381C11.9439 20.8534 12.1387 20.7027 12.2003 20.7523C12.279 20.8162 12.262 21.0113 12.2236 21.1531Z" fill="#694B32"/>
<path d="M38.2956 0.690918H0.692383V36.9665C0.755831 41.1344 3.39026 42.813 6.14355 42.9487C8.48576 42.9407 11.0648 42.4051 13.525 42.3492C16.2193 42.3785 19.1075 43.9454 19.6785 45.7589C20.2504 43.9543 23.2084 42.2224 25.4505 42.3404C27.9571 42.3404 30.4548 42.7155 32.957 42.9256C35.8774 43.1154 38.3188 40.7681 38.3072 36.8663L38.2956 0.690918ZM12.2015 20.7526C12.281 20.8164 12.264 21.0115 12.2256 21.1534C12.1872 21.2953 12.0129 21.5356 11.8977 21.5356C11.693 21.5356 11.6126 21.352 11.5822 21.1419C11.5661 21.0284 11.5009 20.8528 11.6716 20.6577C11.7609 20.5495 11.8655 20.4741 11.9218 20.7384C11.9388 20.8581 12.138 20.7029 12.1997 20.7526H12.2015Z" fill="#DC231E"/>
<path d="M31.2 27.9923L31.4725 27.9745L31.41 27.7085C31.2482 27.031 31.107 25.9252 30.7156 25.3638L30.6995 25.3408L30.679 25.3222C30.1348 24.8451 29.5289 24.3095 29.2581 23.624L29.2501 23.6027L29.2376 23.5841C29.0347 23.2693 28.6924 23.2489 28.352 23.24H28.335C28.4672 23.1318 28.4824 22.9447 28.528 22.7877H28.2599L28.2849 22.7141L27.3681 22.7372C27.3831 22.6963 27.3907 22.653 27.3904 22.6095V22.4685L27.2626 22.4055C26.9329 22.2415 26.3324 22.3115 25.8659 22.3984C25.8988 22.3633 25.9221 22.3205 25.9337 22.2739C25.9453 22.2274 25.9447 22.1787 25.932 22.1324L25.8793 21.9852L25.7193 21.979C25.4512 21.9692 25.1179 22.1315 24.8757 22.245C24.8141 22.2734 24.6291 22.363 24.4664 22.4224C24.487 22.4011 24.5084 22.3807 24.5299 22.3612L24.5889 22.3062C24.6349 22.2691 24.6654 22.2164 24.6745 22.1582C24.6836 22.1 24.6706 22.0406 24.638 21.9914C24.6047 21.9427 24.554 21.9083 24.4962 21.895C24.4384 21.8817 24.3777 21.8904 24.3261 21.9196C24.1048 22.0031 23.8724 22.0542 23.6363 22.0712C23.4548 22.0885 23.2773 22.135 23.1108 22.2087C23.0461 22.209 22.9815 22.2033 22.9178 22.1918L22.8016 22.1723C22.5416 22.1235 22.2154 22.042 22.0992 22.0136C21.8043 21.9426 21.5103 21.8684 21.2172 21.791C21.0706 21.7538 20.9241 21.7147 20.7784 21.6766L20.1851 21.5205C19.7293 21.4008 19.2727 21.2811 18.8142 21.1658C18.7132 21.1401 18.6114 21.1162 18.5104 21.0913H18.5014C18.3111 21.0461 18.1029 20.9956 17.8938 20.953L17.7785 20.9299C17.6933 20.914 17.6093 20.8998 17.5265 20.8874L17.4291 20.875L17.3004 20.8581L17.1762 20.8501C17.1431 20.8501 17.111 20.8501 17.0779 20.8501C16.9885 20.8501 16.9054 20.8501 16.8214 20.8501C16.7884 20.8501 16.7553 20.8501 16.7231 20.8581C16.6659 20.8634 16.6087 20.8705 16.5533 20.8812C16.5097 20.8881 16.4664 20.8973 16.4237 20.9087C16.1449 20.9764 15.8885 21.1144 15.6794 21.3095C15.4558 21.4335 15.2238 21.542 14.985 21.634C14.9394 21.6518 14.8438 21.6872 14.7375 21.7227C14.7647 21.6747 14.7784 21.6203 14.7772 21.5652C14.7759 21.5101 14.7597 21.4564 14.7303 21.4097C14.6097 21.2323 14.355 21.2793 14.1718 21.2944C14.0824 21.3024 13.9931 21.3086 13.9037 21.3104C13.9037 21.2979 13.9126 21.2847 13.9162 21.2705C13.9237 21.2476 13.9268 21.2235 13.9251 21.1995V20.8891L13.6258 20.9778C13.3407 21.0665 13.0798 21.039 12.8135 21.2261C12.7474 21.2723 12.6897 21.3293 12.6428 21.3946C12.7965 21.0186 12.809 20.4493 12.5061 20.2028C12.1316 19.9252 11.7536 19.9678 11.4221 20.1664C11.4221 19.9891 11.2577 19.9279 11.1165 19.8915C10.944 19.8463 10.7501 19.6796 10.6786 19.6645L10.6544 19.6592H10.6303C10.3497 19.6592 10.0834 19.9633 9.94669 20.1912C9.80014 20.4387 9.72507 20.8173 9.93686 21.0523C9.95346 21.071 9.9717 21.0882 9.99137 21.1037C9.65358 21.2483 9.34706 21.4789 9.07897 21.6562L9.06468 21.6669C8.93778 21.7671 8.76442 22.1049 8.67952 22.253C8.61114 22.3832 8.53566 22.5096 8.45343 22.6317L8.41411 22.6201L8.3167 22.7301C7.9387 23.154 7.25149 23.3251 6.74123 23.5575L6.63221 23.6071L6.61076 23.7242C6.5969 23.8024 6.59872 23.8826 6.61612 23.9601C6.62885 24.0062 6.63723 24.0534 6.64114 24.1011V24.2554L6.78591 24.313C6.79012 24.3144 6.79406 24.3165 6.79753 24.3192C6.86276 24.3981 6.81719 24.8211 6.95749 25.1812L7.11298 25.3745C7.33996 25.6866 7.53478 25.8968 8.06649 26.005C8.31402 26.0564 8.5705 26.0804 8.82071 26.1203C9.07093 26.1602 9.53562 26.2391 9.6795 26.4537C9.69476 26.476 9.70652 26.5006 9.71435 26.5264L9.76528 26.686H9.93508C9.99581 26.6879 10.0561 26.6754 10.111 26.6495C10.1659 26.6236 10.2137 26.585 10.2505 26.5371C10.2695 26.6456 10.3132 26.7484 10.3783 26.8377L10.4811 26.9618L10.6339 26.9086C10.6908 26.8903 10.7433 26.8605 10.7879 26.8209C10.8325 26.7814 10.8683 26.733 10.8931 26.6789C10.9114 26.7281 10.9453 26.7701 10.9896 26.7987C11.1191 26.8873 11.2577 26.8297 11.3676 26.7481C11.3988 26.7242 11.431 26.6993 11.4623 26.6727C11.5248 26.8439 11.5517 27.0274 11.7063 27.1161C11.8787 27.2119 12.0637 27.1161 12.2201 27.0106C12.2196 27.1203 12.2094 27.2298 12.1897 27.3378C12.1587 27.4968 12.1636 27.6607 12.204 27.8176L12.3032 28.1315L12.1566 28.2689C11.9779 28.4383 11.7241 28.5093 11.5159 28.644L11.5061 28.6503L11.4971 28.6582C11.3161 28.7814 11.1215 28.8837 10.9172 28.9633C10.6929 29.0538 10.4842 29.1786 10.2988 29.3331C9.85733 29.5379 9.67324 29.9254 9.46234 30.3396C9.39171 30.4918 9.3061 30.6368 9.20676 30.7723L9.14778 30.8477L9.16119 30.9426C9.16694 30.9827 9.15668 31.0234 9.13259 31.0561C9.05504 31.1515 8.98625 31.2536 8.92706 31.3611L8.9208 31.3727V31.386C8.8368 31.6573 8.65271 31.9021 8.52581 32.153C8.45623 32.2833 8.40196 32.4211 8.36407 32.5636C8.34173 32.6408 8.31581 32.811 8.29526 32.85L8.2327 32.8979L8.21662 32.9866C8.16798 33.1966 8.18673 33.4164 8.27024 33.6153C8.61518 34.292 8.7242 34.3354 9.48558 34.2042C9.63367 34.185 9.76997 34.1139 9.86984 34.0038C9.97082 33.8947 9.98244 33.79 10.0486 33.6739L10.0718 33.6331L10.0772 33.5861C10.1344 33.0913 10.7635 32.9432 10.8814 32.2914L10.9181 32.2462C10.943 32.2853 10.9791 32.3162 11.0217 32.3348C11.0636 32.3543 11.11 32.3619 11.1559 32.3568C11.2019 32.3516 11.2454 32.3339 11.2818 32.3056L11.8483 31.8116C11.4748 32.3818 12.4524 32.0954 12.7232 31.9172C12.735 31.9388 12.7504 31.9583 12.7688 31.9748C12.9279 32.1238 13.0994 31.9916 13.2156 31.8861C13.3101 31.7992 13.3971 31.7046 13.4757 31.6032C13.6018 31.4234 13.6822 31.2159 13.7098 30.9984L13.7777 31.1049C13.7965 31.1474 13.8161 31.1935 13.8367 31.2334C13.9292 31.4494 14.003 31.6728 14.0574 31.9012L14.0726 31.965L14.12 32.0112C14.2263 32.1158 14.3675 32.2 14.5185 32.1211C14.5297 32.1153 14.5404 32.1088 14.5507 32.1016C14.5632 32.1903 14.5721 32.2639 14.5757 32.3038C14.5891 32.4377 14.5989 32.5698 14.6088 32.7055C14.6128 32.8073 14.6259 32.9085 14.6481 33.0079L14.6901 33.1569L14.8465 33.1728C14.8553 33.1739 14.8639 33.1757 14.8724 33.1782C14.9305 33.2899 14.8009 33.6969 14.9868 33.9603L15.0502 34.049L15.1396 34.0543C15.1839 34.1692 15.1986 34.2932 15.1825 34.4152H15.0931V34.644C15.0931 35.0936 14.7169 35.2053 14.3443 35.3118C14.0029 35.4093 13.5605 35.5006 13.3354 35.7968C13.2983 35.8463 13.2682 35.9006 13.246 35.9582L13.1566 36.1728L13.3756 36.2562H13.3854C13.3465 36.3073 13.3255 36.3695 13.3255 36.4335C13.3255 36.4975 13.3465 36.5598 13.3854 36.6109C13.4748 36.7164 13.607 36.72 13.7428 36.6783C13.7469 36.6948 13.7526 36.7108 13.7598 36.7262C13.7856 36.7778 13.8298 36.8179 13.8839 36.8388C13.938 36.8596 13.998 36.8596 14.052 36.8388C14.9944 36.4918 15.9966 36.333 17.001 36.3715C17.4103 36.3865 17.5158 35.921 17.556 35.6088C17.5694 35.4989 17.5783 35.3898 17.5882 35.2798C17.5882 35.263 17.5882 35.2417 17.5935 35.2186H17.6579V35.0936C17.7152 35.0895 17.7706 35.0708 17.8187 35.0395C18.1261 34.8533 18.0868 34.4507 18.0868 34.1439C18.0803 34.0241 18.0948 33.904 18.1297 33.7892L18.4487 33.4735L18.4845 32.3676L18.6972 32.545L18.6891 32.0378C18.6874 31.9381 18.6776 31.8387 18.6596 31.7407L18.8383 31.8134L18.8696 31.5083C18.8727 31.4614 18.8727 31.4143 18.8696 31.3674H18.9089L19.0662 31.1669C19.144 31.0694 19.2449 31.3727 19.3495 31.4259C19.4746 31.488 19.648 31.4259 19.7802 31.4108C19.906 31.3924 20.0334 31.3885 20.16 31.3993C20.3665 31.4206 20.4451 31.2636 20.505 31.1084C20.6018 31.204 20.7074 31.2904 20.8204 31.3665C20.8612 31.3937 20.91 31.4065 20.9589 31.4028C21.1377 31.3966 21.2038 31.2388 21.2404 31.0907C21.2949 31.2609 21.3566 31.4605 21.5443 31.5234L21.5657 31.5305C21.5587 31.6423 21.5751 31.7543 21.614 31.8595C21.6917 32.0688 21.7614 32.2834 21.8383 32.4936C21.8955 32.647 21.9536 32.8031 22.017 32.9529C22.039 33.0047 22.0638 33.0553 22.0912 33.1046C22.1162 33.1603 22.1598 33.2057 22.2147 33.2333C22.2695 33.261 22.3322 33.269 22.3923 33.2562C22.4212 33.249 22.4482 33.236 22.4719 33.2181C22.4835 33.3316 22.4906 33.4531 22.4969 33.5063C22.5105 33.6196 22.5406 33.7305 22.5862 33.8353C22.6113 33.892 22.6443 33.9497 22.6658 34.0073C22.6714 34.021 22.6753 34.0353 22.6774 34.0499C22.6837 34.088 22.6816 34.127 22.6711 34.1643C22.5979 34.4099 22.0697 34.6582 21.8553 34.7628C21.4084 34.9828 20.4826 35.2621 20.4978 35.8624V35.874V35.8855C20.5818 36.5329 21.9142 36.547 22.252 36.5284C22.6063 36.4752 22.9558 36.3948 23.2976 36.2881C23.6917 36.1693 24.2806 35.9742 24.6228 35.7498C25.4012 35.2399 25.3574 34.3452 25.159 33.5497L25.0241 33.0177C25.0384 32.9396 25.0688 32.8474 25.0857 32.7711C25.1152 32.6337 25.1447 32.4581 25.0857 32.3277C25.3431 32.2923 25.3234 31.9509 25.3234 31.7629V31.73C25.3654 31.8125 25.403 31.8897 25.4217 31.9287C25.4843 32.0599 25.5433 32.1947 25.6005 32.3224C25.7184 32.5778 25.9579 33.0815 26.1367 32.4741C26.2492 32.9786 26.5701 34.0224 26.9409 34.3061L27.2519 34.5429L27.3895 33.6446C27.6176 33.9243 27.78 34.2508 27.8649 34.6006C27.8539 34.6859 27.8314 34.7694 27.7979 34.8489C27.7184 35.0262 27.2412 35.2745 27.0696 35.3809C26.9155 35.4732 26.7715 35.5811 26.6398 35.7028C26.3458 35.9875 26.2001 36.3112 26.3234 36.5133C26.6755 37.0898 28.4681 36.9106 28.9239 36.6393C29.5745 36.0717 30.3689 35.5911 31.0132 35.0173L31.0624 34.9579L31.0802 34.8896C31.2143 34.3576 30.7871 33.7288 30.5566 33.2651C30.4453 33.0564 30.35 32.8397 30.2715 32.6168L30.3046 32.6301L30.5825 32.7436L30.6209 32.4483C30.6844 31.9695 30.5968 31.597 30.4422 31.1501C30.3752 30.9621 30.3072 30.7812 30.2635 30.5914C30.3018 30.6236 30.3476 30.6457 30.3968 30.6559C30.4459 30.6662 30.4968 30.6641 30.5449 30.6499C30.582 30.638 30.616 30.6183 30.6448 30.5924C30.6736 30.5664 30.6965 30.5346 30.7121 30.4992C30.781 30.3481 30.8093 30.1819 30.7943 30.0168C30.78 29.8332 30.7219 29.6568 30.7112 29.4732C30.7016 29.2656 30.7572 29.0602 30.8702 28.8853C31.1115 28.4764 30.9381 28.1448 30.6978 27.8211C30.7367 27.8527 30.7786 27.8806 30.8229 27.9045C30.938 27.9676 31.0685 27.998 31.2 27.9923ZM13.137 22.277V22.2707V22.277ZM12.1995 20.7508C12.2791 20.8147 12.2621 21.0097 12.2237 21.1516C12.1852 21.2935 12.011 21.5338 11.8957 21.5338C11.6911 21.5338 11.6106 21.3503 11.5803 21.1401C11.5642 21.0266 11.4989 20.851 11.6696 20.6559C11.759 20.5477 11.8635 20.4724 11.9198 20.7366C11.9386 20.8581 12.1379 20.7029 12.1995 20.7526V20.7508ZM12.809 21.8061L12.7822 21.8433L12.7518 21.8823C12.743 21.8601 12.7316 21.839 12.7179 21.8194L12.7089 21.8061H12.809ZM12.4515 21.7289C12.4256 21.736 12.3872 21.7449 12.3452 21.7529C12.4024 21.6988 12.465 21.6482 12.4962 21.6243L12.5177 21.6083L12.4515 21.7289Z" fill="black"/>
<path d="M24.9333 33.6007L24.7894 33.0296C24.7751 32.972 24.9878 32.4089 24.826 32.3805C24.1531 32.2439 24.7626 31.7819 23.9047 31.5664C23.7001 31.515 23.7823 32.1038 23.5472 32.1091C23.1844 32.1171 23.3113 31.3767 22.9619 31.4245C22.7358 31.4556 22.8288 31.8076 22.7832 32.0737C22.7832 32.0825 22.5151 31.985 22.2372 31.4778C22.0039 31.0503 21.6858 31.3891 21.8333 31.7801C21.8583 31.8458 22.2801 33.1103 22.3408 33.0341C22.7153 32.5472 22.6849 33.0837 22.7322 33.4774C22.7644 33.7568 22.8842 33.849 22.911 34.0095C22.9753 34.4272 22.5312 34.6835 21.9637 34.9619C21.5169 35.1809 20.7234 35.4319 20.735 35.8487C20.7743 36.1493 21.4776 35.3344 21.1344 35.9994C21.2721 36.0385 22.0683 35.5303 21.7198 36.1059C21.3712 36.6814 23.8975 35.9383 24.4972 35.5454C25.1737 35.11 25.1111 34.3075 24.9333 33.6007ZM10.5824 20.0063C9.95686 20.0063 9.66286 21.4456 10.7665 20.8213C10.7424 20.5295 10.939 20.3956 11.0346 20.189C11.4305 20.1722 10.9238 20.0791 10.5824 20.0063ZM29.9716 32.1198C30.2084 31.9743 30.1977 32.3441 30.3898 32.4222C30.5033 31.5602 30.0618 31.092 29.9716 30.3409C30.0609 29.9037 30.4112 30.583 30.4917 30.4074C30.7303 29.8878 30.2066 29.5463 30.6615 28.774C31.0976 28.0308 29.6231 27.599 30.2236 26.7663C30.5408 27.1024 30.665 27.7958 31.186 27.763C31.0386 27.1476 30.8759 25.9983 30.5256 25.4946C29.926 24.9688 29.3264 24.4243 29.0431 23.7078C28.783 23.3052 28.1155 23.6031 27.7652 23.346C27.8233 23.1846 28.1387 23.1553 28.2317 23.0179C28.195 23.0179 28.0681 23.0338 28.0958 22.9513L26.9395 22.9762C26.8599 22.7634 27.1593 22.7908 27.1593 22.6108C26.8197 22.4432 26.0119 22.5958 25.5588 22.6995C25.3801 22.5762 25.7241 22.2428 25.7125 22.2091C25.2711 22.1931 24.4614 22.8414 24.1111 22.6658C24.0093 22.4193 24.5892 22.0451 24.4167 22.1284C23.6875 22.3945 23.7135 22.1994 23.1844 22.4246C23.0956 22.441 23.0042 22.4386 22.9163 22.4175V22.5133H17.3284C17.1813 22.5164 17.0349 22.4908 16.8977 22.4379C16.8518 22.4198 16.8076 22.3978 16.7655 22.3723C16.7449 22.3599 16.7252 22.3466 16.7065 22.3333C16.6699 22.3074 16.6364 22.2777 16.6064 22.2446C16.5941 22.2327 16.5828 22.22 16.5724 22.2065L16.5501 22.1772C16.5458 22.1722 16.5419 22.1668 16.5385 22.1612L16.5224 22.1364C16.4951 22.0934 16.4732 22.0472 16.4572 21.9989C16.4572 21.9874 16.4491 21.9759 16.4464 21.9635C16.442 21.9492 16.4384 21.9347 16.4357 21.92C16.4284 21.8719 16.4242 21.8233 16.4232 21.7746V21.1485C16.1949 21.2111 15.9866 21.3308 15.8182 21.4961C15.5912 21.6309 14.5671 22.1302 14.2463 22.0176C14.9201 21.1937 14.3652 21.6496 13.4545 21.5139C13.4545 21.3445 13.6923 21.3037 13.6923 21.2008C13.4 21.2895 12.9693 21.2656 12.7986 21.5813C13.0998 21.5813 13.2168 21.6558 12.9684 21.9839L13.4545 22.1293C13.7164 22.2073 12.9121 22.5487 13.4206 22.7341C13.2624 22.8121 13.1722 23.1775 12.9345 22.946C12.8951 22.672 13.0989 22.7855 12.7986 22.6667C12.6762 22.6179 12.8496 22.414 12.8665 22.3643C12.359 22.4477 12.6297 22.1027 12.527 21.9502C11.8344 22.1329 11.8683 21.8189 12.3572 21.4465C12.5225 21.2008 12.611 20.5907 12.3572 20.3823C11.9443 20.0764 11.5314 20.2759 11.1811 20.6484C10.9434 20.9729 11.3277 21.1414 11.35 21.4092C11.0819 21.4731 10.7316 21.7542 10.6941 21.1973C10.1928 21.1139 9.60299 21.5813 9.21247 21.8464C9.06591 21.9617 8.64054 22.9203 8.48773 22.876C8.06951 23.3451 7.40197 23.502 6.8363 23.7628C6.81396 23.886 6.87025 23.9756 6.87025 24.0988C7.20984 24.2327 6.90332 24.7595 7.13298 25.0326C7.48418 24.9102 7.91849 25.2525 8.21249 24.9945C8.42786 24.9945 8.65931 24.7701 8.80497 24.9945C8.54403 25.3492 8.17138 25.4867 7.69597 25.4645C7.56014 26.0303 9.67894 25.6418 9.93631 26.4603C10.1624 26.4603 10.0945 26.1358 10.3545 26.1801C10.4787 26.3034 10.4564 26.5721 10.5583 26.6953C10.7844 26.6164 10.6825 26.314 10.8639 26.2138C11.3768 26.2865 10.7674 27.0119 11.5198 26.314C11.8675 26.7042 11.6012 27.2106 12.2097 26.729C12.6735 26.8292 12.3116 27.3888 12.4251 27.7471C12.8773 27.4003 12.5725 28.139 12.9005 28.1275C12.8665 28.3625 12.938 28.5815 12.9005 28.8165C13.1471 29.0196 13.0086 29.6022 13.308 29.0826C13.5528 29.1127 13.4867 30.2354 13.5412 30.4305C13.5429 30.4026 13.5524 30.3757 13.5688 30.3529C13.5852 30.3302 13.6077 30.3125 13.6338 30.3019C13.6599 30.2913 13.6884 30.2883 13.7162 30.2932C13.7439 30.298 13.7697 30.3106 13.7906 30.3294C13.7906 30.9226 14.148 31.3146 14.2767 31.8369C14.5215 32.0763 14.3902 31.6595 14.526 31.6019C14.8245 31.4671 14.8075 32.7317 14.8647 32.9321C15.2945 32.9764 14.9898 33.559 15.1703 33.8188C15.4867 33.8375 15.4438 34.6356 15.3178 34.6356C15.3178 35.7308 13.7173 35.376 13.451 36.0349C13.5975 36.0908 13.7334 35.9223 13.8352 36.0686C13.2463 36.6503 13.6931 36.512 14.1033 36.2025C14.4429 36.3923 13.9031 36.6397 13.9675 36.6166C14.9362 36.259 15.9668 36.0954 16.9996 36.1351C17.4178 36.1511 17.2891 34.9823 17.4187 34.9823C17.4187 34.5771 17.5268 34.9362 17.6868 34.8369C17.9808 34.6595 17.7342 34.0184 17.9245 33.6513L18.2078 33.371L18.2417 32.3193C18.2891 32.0967 17.8959 31.5735 18.4455 32.0391C18.4339 31.2995 17.9093 30.8668 18.1059 30.0695C18.1953 30.0358 18.1881 30.3861 18.357 30.5324C18.3847 30.677 18.5357 31.4441 18.6251 31.4831C18.6332 31.4015 18.5876 31.1363 18.693 31.1363L18.7949 30.2185C18.9817 30.2185 18.7198 29.4204 18.7609 29.2342C19.2828 29.04 19.4758 30.6193 19.315 30.5644C19.382 31.4857 19.5304 31.1026 20.1756 31.1683C20.3096 31.1816 20.2739 30.6433 20.5723 30.8712C20.7636 31.0175 20.7511 31.0548 20.9298 31.1683C20.9977 31.2099 21.0495 30.7249 21.0799 30.7089C21.6081 30.4101 21.306 32.0391 22.0307 30.8951C22.1987 30.6291 22.3712 31.2295 22.6563 31.28C22.776 31.3004 22.9306 31.2294 23.0575 31.1975C23.5383 31.0743 23.5347 32.1482 23.6831 30.9634C23.9404 31.0796 24.0655 31.6063 24.1737 31.3474C24.3453 30.935 23.8913 30.2283 24.2076 29.8478C24.5651 29.7751 25.0673 33.1449 25.0673 31.75C25.0673 30.2957 25.7608 32.2555 25.9136 32.4514C25.9136 31.8644 26.4176 32.1969 26.3318 32.619C26.3845 33.1068 26.6848 33.8268 27.0583 34.1115L27.1924 33.2345C27.6392 33.3693 28.0163 34.217 28.0708 34.5584C28.0651 34.6862 28.0348 34.8118 27.9815 34.9282C27.7723 35.3973 26.6535 35.5968 26.5114 36.2992C26.6106 36.2007 26.9002 36.0934 26.9976 36.1316C26.977 36.2442 26.9457 36.4091 26.8278 36.4677C27.1656 36.4677 27.2353 36.0784 27.2353 36.645C27.6821 36.4446 28.2335 36.4987 28.7437 36.4517C29.321 35.948 30.2406 35.2776 30.8062 34.7739C31.0332 33.9705 29.8813 32.9764 29.9716 32.1198ZM8.90059 23.4134C8.7594 23.3806 9.18119 22.445 9.46537 23.2892C9.54579 23.6776 9.63426 23.5836 8.90059 23.4134ZM11.6709 20.6572C11.7602 20.5491 11.8648 20.4737 11.9211 20.7379C11.9452 20.8532 12.14 20.7025 12.2017 20.7521C12.2812 20.816 12.2642 21.0111 12.2258 21.153C12.1874 21.2948 12.0131 21.5352 11.8978 21.5352C11.6932 21.5352 11.6128 21.3516 11.5824 21.1414C11.5645 21.0279 11.4993 20.8523 11.6709 20.6572ZM12.3277 25.5159C12.1302 25.5159 11.9577 25.4636 11.9559 25.7048C11.9506 26.2413 11.3625 25.7208 11.3643 26.103C11.3643 26.1775 11.2982 26.1863 11.2696 26.1376C11.1651 25.9531 10.9488 25.9549 10.762 25.9221C10.3831 25.8564 10.4823 25.5008 10.7013 25.6232C10.7486 25.6489 10.8979 25.7447 10.9274 25.7518C11.233 25.8298 11.2365 25.6933 11.2848 25.5177C11.3214 25.3767 11.4716 25.5177 11.5091 25.6117C11.5681 25.7633 11.7146 25.789 11.754 25.7687C11.8183 25.7305 11.754 25.5354 11.754 25.4139C11.754 25.1852 11.9452 25.2614 12.0819 25.2836C12.3831 25.3306 12.4617 25.3182 12.695 25.2401C12.6297 25.4432 12.5207 25.5159 12.3259 25.5159H12.3277ZM13.1319 30.8561C12.9854 30.8561 13.2016 30.3666 13.2043 30.3462C13.2597 29.9028 13.3428 30.0385 12.8227 30.1564C12.644 29.8727 12.9282 29.6944 12.9881 29.447C12.5359 29.5109 12.7137 29.2271 12.6967 29.0923C12.6673 28.844 12.8996 28.4255 12.5573 28.2853C12.2338 28.5106 11.9943 28.6072 11.6467 28.8325C11.3232 29.0932 10.745 29.2138 10.4332 29.5224C9.84605 29.7716 9.75312 30.4464 9.39388 30.9084C9.42962 31.1692 9.22587 31.2631 9.14187 31.4538C9.01051 31.8803 8.69505 32.1934 8.58782 32.6199C8.54046 32.7503 8.55207 32.9392 8.44484 33.0225C8.37245 33.3905 8.69416 33.6654 8.67003 33.8552C8.82642 33.7843 8.67003 33.6211 8.82284 33.5262C9.14634 33.3959 9.00157 33.8552 9.14991 33.9262C9.20979 33.7843 9.16868 33.4899 9.33668 33.4544C9.38405 33.5608 9.58601 33.7674 9.51541 33.9208C9.7549 33.9093 9.7549 33.7195 9.85142 33.5537C9.92291 32.9259 10.5905 32.8177 10.6628 32.1898C11.4233 31.249 11.0149 32.2138 11.1418 32.118L11.8013 31.6205L12.0167 31.585C12.1498 31.5629 11.9658 31.9522 11.9452 31.9761C12.2687 31.8812 12.6279 31.7748 12.8558 31.5017C12.9157 31.5883 12.9412 31.6938 12.9273 31.7979C12.9112 31.8963 14.0229 30.8561 13.1284 30.8561H13.1319Z" fill="#E1E1E1"/>
<path d="M12.2238 21.1536C12.1853 21.2991 12.0111 21.5358 11.8958 21.5358C11.6912 21.5358 11.6107 21.3523 11.5803 21.1421C11.5643 21.0286 11.499 20.853 11.6697 20.6579C11.7591 20.5497 11.8636 20.4744 11.9199 20.7386C11.9441 20.8539 12.1389 20.7031 12.2005 20.7528C12.2792 20.8167 12.2622 21.0117 12.2238 21.1536Z" fill="black"/>
<path d="M22.3878 15.1627H22.9195V22.5114H17.328C16.7972 22.5114 16.4978 22.2312 16.4344 21.9182C16.4268 21.87 16.4226 21.8214 16.4219 21.7727V14.5322C16.4487 14.1978 16.7668 13.8724 17.3843 13.8467L22.4593 13.852L22.344 14.0294C22.2467 14.1915 22.1954 14.3767 22.1954 14.5654C22.1954 14.7541 22.2467 14.9393 22.344 15.1015L22.3878 15.1662V15.1627Z" fill="black"/>
<path d="M18.6274 21.1409V21.6729H19.1636L18.6274 21.1409ZM18.6274 15.9975V16.5296L19.1636 15.9975H18.6274ZM21.4486 18.516V18.312H20.5773V17.7046H21.0241V17.5006H20.5773V17.098H20.3709V17.5042H19.9241V17.7081H20.3709V18.3147H19.4987V18.5195H20.3709V19.4675L19.874 19.1837V19.3886L20.3709 19.6715V20.6283H20.5773V19.7938L21.0733 20.0776V19.8728L20.5773 19.5899V18.5258H21.4486V18.516ZM21.538 15.9975L22.0741 16.5296V15.9975H21.538ZM21.4486 18.516V18.312H20.5773V17.7046H21.0241V17.5006H20.5773V17.098H20.3709V17.5042H19.9241V17.7081H20.3709V18.3147H19.4987V18.5195H20.3709V19.4675L19.874 19.1837V19.3886L20.3709 19.6715V20.6283H20.5773V19.7938L21.0733 20.0776V19.8728L20.5773 19.5899V18.5258H21.4486V18.516ZM21.37 15.9975H19.3289L18.6274 16.6901V20.975L18.816 21.1613L19.3289 21.6685H21.37L22.0715 20.975V16.6901L21.37 15.9975ZM21.5639 18.6304H20.6962V19.5172L21.1921 19.8009V20.2692L20.6962 19.9881V20.7427H20.2592V19.738L19.7623 19.4542V18.986L20.2592 19.2698V18.6339H19.387V18.1976H20.2592V17.819H19.8124V17.3862H20.2592V16.9801H20.6962V17.3862H21.143V17.819H20.6962V18.1976H21.5674V18.6304H21.5639ZM20.5809 17.7046H21.0277V17.5006H20.5809V17.098H20.3744V17.5042H19.9276V17.7081H20.3744V18.3147H19.4987V18.5195H20.3709V19.4675L19.874 19.1837V19.3886L20.3709 19.6715V20.6283H20.5773V19.7938L21.0733 20.0776V19.8728L20.5773 19.5899V18.5258H21.4486V18.3218H20.5773V17.7143L20.5809 17.7046ZM21.5371 21.6694H22.0732V21.1373L21.5371 21.6694ZM22.0732 21.6694V21.1373L21.5371 21.6694H22.0732ZM19.3307 15.994L18.6274 16.6901V20.975L18.816 21.1613L19.3289 21.6685H21.37L22.0715 20.975V16.6901L21.37 15.9967H19.3289L19.3307 15.994ZM21.5648 18.6268H20.6962V19.5136L21.1921 19.7974V20.2656L20.6962 19.9881V20.7427H20.2592V19.738L19.7623 19.4542V18.986L20.2592 19.2698V18.6339H19.387V18.1976H20.2592V17.819H19.8124V17.3862H20.2592V16.9801H20.6962V17.3862H21.143V17.819H20.6962V18.1976H21.5674V18.6304L21.5648 18.6268ZM21.5353 15.994L22.0715 16.5261V15.994H21.5353ZM20.5782 17.701H21.025V17.4971H20.5782V17.098H20.3718V17.5042H19.9249V17.7081H20.3718V18.3147H19.4987V18.5195H20.3709V19.4675L19.874 19.1837V19.3886L20.3709 19.6715V20.6283H20.5773V19.7938L21.0733 20.0776V19.8728L20.5773 19.5899V18.5258H21.4486V18.3218H20.5773V17.7143L20.5782 17.701ZM18.6283 15.994V16.5261L19.1645 15.994H18.6283ZM18.6283 21.6694H19.1645L18.6283 21.1373V21.6694ZM17.8964 15.2739V22.3939H22.8042V15.2775H17.8955L17.8964 15.2739ZM18.513 21.7838V15.8867H22.1876V21.7873H18.5121L18.513 21.7838ZM22.0724 21.6694V21.1373L21.5362 21.6694H22.0724ZM19.3298 15.994L18.6274 16.6901V20.975L18.816 21.1613L19.3289 21.6685H21.37L22.0715 20.975V16.6901L21.37 15.9967H19.3289L19.3298 15.994ZM21.5639 18.6268H20.6962V19.5136L21.1921 19.7974V20.2656L20.6962 19.9881V20.7427H20.2592V19.738L19.7623 19.4542V18.986L20.2592 19.2698V18.6339H19.387V18.1976H20.2592V17.819H19.8124V17.3862H20.2592V16.9801H20.6962V17.3862H21.143V17.819H20.6962V18.1976H21.5674V18.6304L21.5639 18.6268ZM22.0715 16.5261V15.994H21.5353L22.0715 16.5261ZM20.5773 17.701H21.0241V17.4971H20.5773V17.098H20.3709V17.5042H19.9241V17.7081H20.3709V18.3147H19.4987V18.5195H20.3709V19.4675L19.874 19.1837V19.3886L20.3709 19.6715V20.6283H20.5773V19.7938L21.0733 20.0776V19.8728L20.5773 19.5899V18.5258H21.4486V18.3218H20.5773V17.7143V17.701ZM18.6274 15.994V16.5261L19.1636 15.994H18.6274ZM18.6274 21.6694H19.1636L18.6274 21.1373V21.6694ZM18.6274 21.1373V21.6694H19.1636L18.6274 21.1373ZM18.6274 15.994V16.5261L19.1636 15.994H18.6274ZM21.4486 18.5124V18.3085H20.5773V17.701H21.0241V17.4971H20.5773V17.098H20.3709V17.5042H19.9241V17.7081H20.3709V18.3147H19.4987V18.5195H20.3709V19.4675L19.874 19.1837V19.3886L20.3709 19.6715V20.6283H20.5773V19.7938L21.0733 20.0776V19.8728L20.5773 19.5899V18.5258H21.4486V18.5124ZM21.538 15.994L22.0741 16.5261V15.994H21.538ZM21.4486 18.5124V18.3085H20.5773V17.701H21.0241V17.4971H20.5773V17.098H20.3709V17.5042H19.9241V17.7081H20.3709V18.3147H19.4987V18.5195H20.3709V19.4675L19.874 19.1837V19.3886L20.3709 19.6715V20.6283H20.5773V19.7938L21.0733 20.0776V19.8728L20.5773 19.5899V18.5258H21.4486V18.5124ZM21.37 15.994H19.3289L18.6274 16.6901V20.975L18.816 21.1613L19.3289 21.6685H21.37L22.0715 20.975V16.6901L21.37 15.994ZM21.5639 18.6268H20.6962V19.5136L21.1921 19.7974V20.2656L20.6962 19.9881V20.7427H20.2592V19.738L19.7623 19.4542V18.986L20.2592 19.2698V18.6339H19.387V18.1976H20.2592V17.819H19.8124V17.3862H20.2592V16.9801H20.6962V17.3862H21.143V17.819H20.6962V18.1976H21.5674V18.6304L21.5639 18.6268ZM20.5809 17.701H21.0277V17.4971H20.5809V17.098H20.3744V17.5042H19.9276V17.7081H20.3744V18.3147H19.4987V18.5195H20.3709V19.4675L19.874 19.1837V19.3886L20.3709 19.6715V20.6283H20.5773V19.7938L21.0733 20.0776V19.8728L20.5773 19.5899V18.5258H21.4486V18.3218H20.5773V17.7143L20.5809 17.701ZM21.5371 21.6658H22.0732V21.1338L21.5371 21.6658ZM21.5371 21.6658H22.0732V21.1338L21.5371 21.6658ZM21.4477 18.5124V18.3085H20.5764V17.701H21.0232V17.4971H20.5764V17.098H20.37V17.5042H19.9232V17.7081H20.37V18.3147H19.4987V18.5195H20.3709V19.4675L19.874 19.1837V19.3886L20.3709 19.6715V20.6283H20.5773V19.7938L21.0733 20.0776V19.8728L20.5773 19.5899V18.5258H21.4486L21.4477 18.5124ZM21.4477 18.5124V18.3085H20.5764V17.701H21.0232V17.4971H20.5764V17.098H20.37V17.5042H19.9232V17.7081H20.37V18.3147H19.4987V18.5195H20.3709V19.4675L19.874 19.1837V19.3886L20.3709 19.6715V20.6283H20.5773V19.7938L21.0733 20.0776V19.8728L20.5773 19.5899V18.5258H21.4486L21.4477 18.5124ZM21.3691 15.994H19.3289L18.6274 16.6901V20.975L18.816 21.1613L19.3289 21.6685H21.37L22.0715 20.975V16.6901L21.3691 15.994ZM21.563 18.6268H20.6962V19.5136L21.1921 19.7974V20.2656L20.6962 19.9881V20.7427H20.2592V19.738L19.7623 19.4542V18.986L20.2592 19.2698V18.6339H19.387V18.1976H20.2592V17.819H19.8124V17.3862H20.2592V16.9801H20.6962V17.3862H21.143V17.819H20.6962V18.1976H21.5674V18.6304L21.563 18.6268ZM20.58 17.701H21.0268V17.4971H20.58V17.098H20.3736V17.5042H19.9267V17.7081H20.3736V18.3147H19.4987V18.5195H20.3709V19.4675L19.874 19.1837V19.3886L20.3709 19.6715V20.6283H20.5773V19.7938L21.0733 20.0776V19.8728L20.5773 19.5899V18.5258H21.4486V18.3218H20.5773V17.7143L20.58 17.701ZM21.5371 15.994L22.0732 16.5261V15.994H21.5371ZM18.6301 15.994V16.5261L19.1663 15.994H18.6301ZM18.6301 21.1373V21.6694H19.1663L18.6301 21.1373ZM21.4513 18.516V18.312H20.58V17.7046H21.0268V17.5006H20.58V17.098H20.3736V17.5042H19.9267V17.7081H20.3736V18.3147H19.4987V18.5195H20.3709V19.4675L19.874 19.1837V19.3886L20.3709 19.6715V20.6283H20.5773V19.7938L21.0733 20.0776V19.8728L20.5773 19.5899V18.5258H21.4486L21.4513 18.516ZM21.4513 18.516V18.312H20.58V17.7046H21.0268V17.5006H20.58V17.098H20.3736V17.5042H19.9267V17.7081H20.3736V18.3147H19.4987V18.5195H20.3709V19.4675L19.874 19.1837V19.3886L20.3709 19.6715V20.6283H20.5773V19.7938L21.0733 20.0776V19.8728L20.5773 19.5899V18.5258H21.4486L21.4513 18.516ZM21.5406 21.6694H22.0768V21.1373L21.5406 21.6694ZM21.4513 18.516V18.312H20.58V17.7046H21.0268V17.5006H20.58V17.098H20.3736V17.5042H19.9267V17.7081H20.3736V18.3147H19.4987V18.5195H20.3709V19.4675L19.874 19.1837V19.3886L20.3709 19.6715V20.6283H20.5773V19.7938L21.0733 20.0776V19.8728L20.5773 19.5899V18.5258H21.4486L21.4513 18.516ZM21.4513 18.516V18.312H20.58V17.7046H21.0268V17.5006H20.58V17.098H20.3736V17.5042H19.9267V17.7081H20.3736V18.3147H19.4987V18.5195H20.3709V19.4675L19.874 19.1837V19.3886L20.3709 19.6715V20.6283H20.5773V19.7938L21.0733 20.0776V19.8728L20.5773 19.5899V18.5258H21.4486L21.4513 18.516ZM21.3726 15.9975H19.3289L18.6274 16.6901V20.975L18.816 21.1613L19.3289 21.6685H21.37L22.0715 20.975V16.6901L21.3726 15.9975ZM21.5666 18.6304H20.6962V19.5172L21.1921 19.8009V20.2692L20.6962 19.9881V20.7427H20.2592V19.738L19.7623 19.4542V18.986L20.2592 19.2698V18.6339H19.387V18.1976H20.2592V17.819H19.8124V17.3862H20.2592V16.9801H20.6962V17.3862H21.143V17.819H20.6962V18.1976H21.5674V18.6304H21.5666ZM20.5836 17.7046H21.0304V17.5006H20.5836V17.098H20.3771V17.5042H19.9303V17.7081H20.3771V18.3147H19.4987V18.5195H20.3709V19.4675L19.874 19.1837V19.3886L20.3709 19.6715V20.6283H20.5773V19.7938L21.0733 20.0776V19.8728L20.5773 19.5899V18.5258H21.4486V18.3218H20.5773V17.7143L20.5836 17.7046ZM21.5406 15.9975L22.0768 16.5296V15.9975H21.5406ZM18.6336 15.9975V16.5296L19.1698 15.9975H18.6336ZM18.6336 21.1409V21.6729H19.1698L18.6336 21.1409ZM18.6336 15.9975V16.5296L19.1698 15.9975H18.6336ZM21.4549 18.516V18.312H20.5836V17.7046H21.0304V17.5006H20.5836V17.098H20.3771V17.5042H19.9303V17.7081H20.3771V18.3147H19.4987V18.5195H20.3709V19.4675L19.874 19.1837V19.3886L20.3709 19.6715V20.6283H20.5773V19.7938L21.0733 20.0776V19.8728L20.5773 19.5899V18.5258H21.4486L21.4549 18.516ZM21.4549 18.516V18.312H20.5836V17.7046H21.0304V17.5006H20.5836V17.098H20.3771V17.5042H19.9303V17.7081H20.3771V18.3147H19.4987V18.5195H20.3709V19.4675L19.874 19.1837V19.3886L20.3709 19.6715V20.6283H20.5773V19.7938L21.0733 20.0776V19.8728L20.5773 19.5899V18.5258H21.4486L21.4549 18.516ZM21.3762 15.9975H19.3289L18.6274 16.6901V20.975L18.816 21.1613L19.3289 21.6685H21.37L22.0715 20.975V16.6901L21.3762 15.9975ZM21.5701 18.6304H20.6962V19.5172L21.1921 19.8009V20.2692L20.6962 19.9881V20.7427H20.2592V19.738L19.7623 19.4542V18.986L20.2592 19.2698V18.6339H19.387V18.1976H20.2592V17.819H19.8124V17.3862H20.2592V16.9801H20.6962V17.3862H21.143V17.819H20.6962V18.1976H21.5674V18.6304H21.5701ZM20.5871 17.7046H21.0339V17.5006H20.5871V17.098H20.3807V17.5042H19.9339V17.7081H20.3807V18.3147H19.4987V18.5195H20.3709V19.4675L19.874 19.1837V19.3886L20.3709 19.6715V20.6283H20.5773V19.7938L21.0733 20.0776V19.8728L20.5773 19.5899V18.5258H21.4486V18.3218H20.5773V17.7143L20.5871 17.7046ZM21.5442 15.9975L22.0804 16.5296V15.9975H21.5442ZM21.5442 21.6729H22.0804V21.1409L21.5442 21.6729ZM18.6381 21.1409V21.6729H19.1743L18.6381 21.1409Z" fill="#C8A064"/>
<path d="M17.4059 13.9614H22.2477C22.1775 14.0675 22.129 14.1862 22.1047 14.3108H18.1343V14.4119H22.0886C22.0741 14.5347 22.0777 14.659 22.0993 14.7808H18.4354V14.881H22.1261C22.1523 14.981 22.1952 15.076 22.253 15.1621H17.4059C16.3077 15.1621 16.3032 13.9534 17.4059 13.9605V13.9614Z" fill="white"/>
<path d="M19.0581 11.2903L18.2833 9.2915L18.5326 9.3518C19.2521 9.52863 20.0043 9.52863 20.7238 9.3518L20.9731 9.2915L20.2028 11.2903L22.0982 10.5498L22.0366 10.8008C21.8576 11.5123 21.8576 12.2566 22.0366 12.9681L22.0982 13.2182L20.3208 12.522L20.9821 14.1777L20.7292 14.1165C20.0096 13.9397 19.2575 13.9397 18.538 14.1165L18.2851 14.1777L18.9464 12.522L17.1636 13.2191L17.2252 12.969C17.404 12.2574 17.404 11.5132 17.2252 10.8017L17.1636 10.5507L19.0581 11.2903Z" fill="black"/>
<path d="M17.356 10.7681L19.2934 11.5254L18.5052 9.48584C19.2458 9.66807 20.0201 9.66807 20.7607 9.48584L19.9725 11.5254L21.9099 10.7681C21.7255 11.5006 21.7255 12.2668 21.9099 12.9993L20.0806 12.2836L20.7607 13.9863C20.0201 13.804 19.2458 13.804 18.5052 13.9863L19.1852 12.2836L17.356 12.9993C17.5403 12.2668 17.5403 11.5006 17.356 10.7681Z" fill="#E1E1E1"/>
<path d="M17.3895 15.2776C16.9704 15.2776 16.6871 15.1295 16.5406 14.9282C16.54 15.0083 16.5454 15.0883 16.5567 15.1677V15.1943C16.5716 15.2643 16.6007 15.3305 16.6424 15.3889C16.684 15.4473 16.7373 15.4966 16.7988 15.5339C16.9557 15.6264 17.1356 15.6731 17.318 15.6687H17.78V15.2776H17.3895ZM17.3216 15.7742C17.119 15.7781 16.9193 15.7256 16.7452 15.6226C16.6632 15.572 16.5934 15.5042 16.5406 15.4239C16.54 15.5031 16.5454 15.5823 16.5567 15.6607V15.6864C16.5716 15.7564 16.6007 15.8227 16.6424 15.8811C16.684 15.9395 16.7373 15.9888 16.7988 16.0261C16.9562 16.117 17.136 16.1627 17.318 16.1582H17.78V15.7707H17.318L17.3216 15.7742ZM17.3216 16.2673C17.1187 16.2711 16.9188 16.2185 16.7443 16.1156C16.663 16.0645 16.5935 15.9968 16.5406 15.917V17.9974C16.5448 18.0388 16.5514 18.0799 16.5602 18.1206C16.5755 18.1905 16.6049 18.2566 16.6465 18.3149C16.6881 18.3733 16.7411 18.4227 16.8024 18.4603C16.9595 18.5521 17.1393 18.5988 17.3216 18.5951H17.7836V16.2664H17.318L17.3216 16.2673ZM16.823 18.0009H16.7247V16.4819H16.823V18.0009ZM17.1804 18.1064H17.0821V16.5874H17.1804V18.1091V18.1064ZM17.5379 18.2031H17.4405V16.684H17.5379V18.2031ZM17.3279 18.6997C17.1253 18.7039 16.9256 18.6517 16.7515 18.5489C16.6696 18.4977 16.5999 18.4297 16.5468 18.3494C16.5463 18.4289 16.5517 18.5084 16.5629 18.5871V18.6137C16.5779 18.6836 16.6071 18.7498 16.6488 18.8082C16.6904 18.8666 16.7436 18.916 16.8051 18.9533C16.9607 19.0428 17.1382 19.0882 17.318 19.0846H17.78V18.6962H17.318L17.3279 18.6997ZM17.3279 19.1928C17.1251 19.1964 16.9253 19.1443 16.7506 19.042C16.6692 18.9905 16.5998 18.9225 16.5468 18.8425V20.7047C16.5476 20.7641 16.5524 20.8233 16.5611 20.8821L16.5665 20.9237C16.5818 20.9936 16.6111 21.0597 16.6527 21.118C16.6943 21.1764 16.7474 21.2258 16.8087 21.2634C16.9658 21.3552 17.1455 21.4019 17.3279 21.3982H17.7899V19.1919H17.318L17.3279 19.1928ZM16.8292 20.9388H16.7309V19.4207H16.8292V20.9388ZM17.1867 21.0444H17.0884V19.528H17.1867V21.0444ZM17.5441 21.141H17.4467V19.6228H17.5441V21.141ZM17.3341 21.5028C17.1316 21.5071 16.9319 21.4548 16.7577 21.3521C16.6759 21.3009 16.6061 21.2328 16.5531 21.1525C16.5525 21.232 16.5579 21.3115 16.5692 21.3902V21.4168C16.5845 21.4867 16.6138 21.5527 16.6554 21.6111C16.697 21.6694 16.7501 21.7189 16.8113 21.7564C16.9685 21.8483 17.1482 21.895 17.3305 21.8912H17.7925V21.5028H17.318H17.3341ZM17.3341 21.9959C17.1315 22.0007 16.9316 21.9484 16.7577 21.8451C16.6759 21.7939 16.6061 21.7259 16.5531 21.6456V21.7751C16.5538 21.8173 16.5577 21.8594 16.5647 21.901C16.6398 22.2557 17.0115 22.3985 17.3439 22.3976H17.7961V21.9959H17.318H17.3341Z" fill="#C8A064"/>
</svg>
