<svg width="36" height="66" viewBox="0 0 36 66" fill="none" xmlns="http://www.w3.org/2000/svg">
<g clip-path="url(#clip0_1071_3827)">
<path d="M35.4839 23.3003H0.5V57.2268C0.532919 59.4543 1.36906 61.492 3.49234 62.4564C4.18671 62.7633 4.93233 62.9368 5.69052 62.9679H5.70039C7.1299 62.963 8.57094 62.7567 9.99057 62.6008C10.8234 62.5092 11.6604 62.43 12.499 62.4102C12.9575 62.4173 13.4142 62.4692 13.8627 62.5653C14.8137 62.7629 15.7169 63.1449 16.5217 63.6898C17.134 64.1155 17.7669 64.7285 17.9948 65.4586L18.1594 65.9998L18.329 65.4586C18.6705 64.3713 19.9173 63.4621 20.9016 62.9927C21.6744 62.6247 22.6035 62.3566 23.4668 62.4028H23.4759C25.7851 62.4028 28.0796 62.7518 30.3765 62.9473C31.0956 62.9978 31.8163 62.875 32.4784 62.5893C33.402 62.1759 34.1672 61.4737 34.6593 60.5878C35.2593 59.5434 35.4979 58.3281 35.4955 57.1327L35.4839 23.3003ZM11.2966 42.5145C11.2612 42.6498 11.1008 42.8701 10.9946 42.8701C10.8061 42.8701 10.7321 42.6993 10.7041 42.5038C10.6893 42.3982 10.6292 42.2349 10.7864 42.0534C10.8687 41.9527 10.965 41.8826 11.0168 42.1284C11.039 42.2357 11.2185 42.0954 11.2752 42.1416C11.3477 42.201 11.332 42.3825 11.2966 42.5145Z" fill="#694B32"/>
<path d="M35.3073 23.478H0.677246V57.2263C0.735677 61.1038 3.16181 62.6655 5.69741 62.7918C7.85443 62.7843 10.2295 62.286 12.4952 62.2341C14.9765 62.2613 17.6363 63.7191 18.1622 65.4062C18.6889 63.7273 21.413 62.1161 23.4778 62.2258C25.7863 62.2258 28.0865 62.5748 30.3908 62.7703C33.0803 62.9468 35.3287 60.7631 35.318 57.1331L35.3073 23.478ZM11.2764 42.142C11.3496 42.2014 11.334 42.3829 11.2986 42.5149C11.2632 42.6469 11.1027 42.8705 10.9966 42.8705C10.8081 42.8705 10.734 42.6997 10.706 42.5042C10.6912 42.3986 10.6312 42.2352 10.7883 42.0537C10.8706 41.9531 10.9669 41.883 11.0188 42.1288C11.0344 42.2402 11.2179 42.0958 11.2747 42.142H11.2764Z" fill="#DC231E"/>
<path d="M28.7726 48.877L29.0237 48.8605L28.966 48.613C28.8171 47.9827 28.6871 46.954 28.3266 46.4317L28.3118 46.4103L28.2929 46.393C27.7917 45.9491 27.2337 45.4508 26.9843 44.8131L26.9769 44.7933L26.9654 44.776C26.7786 44.4831 26.4634 44.4641 26.1498 44.4559H26.1342C26.256 44.3552 26.27 44.1811 26.3119 44.0351H26.0651L26.0881 43.9666L25.2437 43.9881C25.2576 43.95 25.2646 43.9098 25.2643 43.8693V43.7381L25.1466 43.6795C24.8429 43.5269 24.2899 43.5921 23.8603 43.6729C23.8906 43.6403 23.9121 43.6004 23.9227 43.5571C23.9334 43.5138 23.9329 43.4685 23.9212 43.4254L23.8726 43.2885L23.7253 43.2827C23.4784 43.2736 23.1715 43.4246 22.9484 43.5302C22.8917 43.5566 22.7213 43.6399 22.5715 43.6952C22.5904 43.6754 22.6102 43.6564 22.6299 43.6383L22.6843 43.5871C22.7266 43.5526 22.7547 43.5035 22.7631 43.4494C22.7715 43.3953 22.7595 43.34 22.7295 43.2943C22.6988 43.249 22.6522 43.2169 22.599 43.2045C22.5457 43.1921 22.4898 43.2003 22.4423 43.2274C22.2385 43.3051 22.0245 43.3527 21.807 43.3685C21.6398 43.3846 21.4764 43.4278 21.3231 43.4964C21.2634 43.4967 21.2039 43.4914 21.1453 43.4807L21.0383 43.4626C20.7988 43.4172 20.4984 43.3413 20.3914 43.3149C20.1199 43.2489 19.8491 43.1799 19.5792 43.1078C19.4442 43.0732 19.3092 43.0369 19.1751 43.0014L18.6286 42.8562C18.2089 42.7448 17.7884 42.6334 17.3662 42.5262C17.2732 42.5023 17.1794 42.48 17.0864 42.4569H17.0781C16.9028 42.4148 16.7111 42.3678 16.5185 42.3282L16.4124 42.3067C16.3339 42.2919 16.2565 42.2787 16.1803 42.2671L16.0906 42.2556L15.9721 42.2399L15.8577 42.2325C15.8272 42.2325 15.7976 42.2325 15.7671 42.2325C15.6848 42.2325 15.6083 42.2325 15.5309 42.2325C15.5005 42.2325 15.47 42.2325 15.4404 42.2399C15.3877 42.2449 15.3351 42.2515 15.2841 42.2614C15.2439 42.2678 15.204 42.2764 15.1647 42.2869C14.908 42.3499 14.6718 42.4784 14.4792 42.6598C14.2733 42.7752 14.0596 42.8761 13.8397 42.9618C13.7978 42.9783 13.7097 43.0113 13.6118 43.0443C13.6369 42.9996 13.6495 42.949 13.6483 42.8978C13.6472 42.8465 13.6323 42.7965 13.6052 42.7531C13.4941 42.5881 13.2595 42.6318 13.0908 42.6458C13.0085 42.6532 12.9262 42.659 12.8439 42.6607C12.8439 42.6491 12.8522 42.6367 12.8554 42.6235C12.8624 42.6023 12.8652 42.5799 12.8637 42.5575V42.2688L12.588 42.3513C12.3255 42.4338 12.0851 42.4082 11.8399 42.5823C11.779 42.6253 11.7259 42.6783 11.6827 42.739C11.8243 42.3892 11.8358 41.8596 11.5568 41.6302C11.212 41.372 10.8638 41.4116 10.5585 41.5964C10.5585 41.4314 10.4071 41.3745 10.2771 41.3407C10.1182 41.2986 9.93964 41.1435 9.8738 41.1295L9.85158 41.1245H9.82936C9.57095 41.1245 9.3257 41.4075 9.19978 41.6195C9.06481 41.8497 8.99568 42.202 9.19073 42.4206C9.20601 42.438 9.22281 42.454 9.24093 42.4684C8.92985 42.6029 8.64757 42.8174 8.40067 42.9824L8.3875 42.9923C8.27064 43.0855 8.11098 43.3999 8.0328 43.5376C7.96983 43.6588 7.90032 43.7764 7.82459 43.8899L7.78838 43.8792L7.69867 43.9815C7.35055 44.3758 6.71768 44.5351 6.24776 44.7512L6.14736 44.7974L6.12761 44.9063C6.11485 44.9791 6.11652 45.0536 6.13255 45.1258C6.14427 45.1687 6.15199 45.2126 6.15559 45.2569V45.4005L6.28891 45.4541C6.29279 45.4554 6.29641 45.4573 6.29961 45.4599C6.35969 45.5333 6.31772 45.9268 6.44692 46.2618L6.59012 46.4416C6.79916 46.732 6.97857 46.9276 7.46824 47.0282C7.6962 47.0761 7.9324 47.0983 8.16283 47.1355C8.39327 47.1726 8.82121 47.246 8.95371 47.4457C8.96777 47.4664 8.9786 47.4893 8.98581 47.5133L9.03272 47.6618H9.18908C9.24502 47.6636 9.30056 47.6519 9.35109 47.6278C9.40162 47.6037 9.44568 47.5678 9.4796 47.5232C9.49705 47.6242 9.5373 47.7199 9.59728 47.8029L9.69192 47.9184L9.83265 47.8689C9.88508 47.8519 9.93338 47.8241 9.97448 47.7873C10.0156 47.7505 10.0486 47.7055 10.0713 47.6552C10.0882 47.701 10.1194 47.74 10.1602 47.7666C10.2795 47.8491 10.4071 47.7955 10.5083 47.7196C10.5371 47.6973 10.5667 47.6742 10.5956 47.6494C10.6532 47.8087 10.6779 47.9794 10.8202 48.0619C10.9791 48.151 11.1494 48.0619 11.2934 47.9638C11.293 48.0659 11.2836 48.1677 11.2655 48.2682C11.2369 48.4161 11.2414 48.5685 11.2786 48.7145L11.37 49.0066L11.235 49.1344C11.0704 49.292 10.8367 49.358 10.6449 49.4834L10.6359 49.4892L10.6276 49.4966C10.4609 49.6112 10.2817 49.7064 10.0935 49.7804C9.88698 49.8646 9.69483 49.9807 9.52404 50.1244C9.11749 50.315 8.94795 50.6755 8.75373 51.0608C8.68868 51.2024 8.60984 51.3373 8.51836 51.4634L8.46404 51.5335L8.47639 51.6218C8.48169 51.6591 8.47224 51.697 8.45005 51.7274C8.37863 51.8162 8.31528 51.9111 8.26077 52.0112L8.25501 52.0219V52.0343C8.17765 52.2868 8.00811 52.5145 7.89125 52.7479C7.82716 52.8691 7.77718 52.9973 7.74229 53.1299C7.72172 53.2017 7.69785 53.3601 7.67892 53.3964L7.62131 53.4409L7.6065 53.5234C7.56171 53.7188 7.57897 53.9233 7.65588 54.1084C7.97355 54.7378 8.07395 54.7783 8.77513 54.6562C8.91151 54.6383 9.03703 54.5722 9.12901 54.4697C9.222 54.3682 9.2327 54.2709 9.2936 54.1628L9.315 54.1249L9.31994 54.0811C9.37261 53.6208 9.95198 53.483 10.0606 52.8766L10.0944 52.8346C10.1173 52.871 10.1505 52.8997 10.1898 52.9171C10.2283 52.9352 10.2711 52.9423 10.3134 52.9375C10.3557 52.9327 10.3958 52.9162 10.4293 52.8898L10.9511 52.4303C10.6071 52.9608 11.5074 52.6943 11.7568 52.5285C11.7676 52.5486 11.7818 52.5667 11.7987 52.5821C11.9452 52.7207 12.1032 52.5978 12.2102 52.4996C12.2973 52.4187 12.3774 52.3307 12.4497 52.2364C12.5659 52.0691 12.6399 51.8761 12.6653 51.6738L12.7279 51.7728C12.7452 51.8124 12.7633 51.8553 12.7822 51.8924C12.8674 52.0933 12.9354 52.3012 12.9855 52.5136L12.9995 52.573L13.0431 52.6159C13.141 52.7133 13.2711 52.7917 13.4101 52.7182C13.4204 52.7129 13.4303 52.7068 13.4398 52.7001C13.4513 52.7826 13.4595 52.8511 13.4628 52.8882C13.4751 53.0128 13.4842 53.1357 13.4933 53.2619C13.4969 53.3566 13.5091 53.4507 13.5295 53.5432L13.5681 53.6818L13.7122 53.6967C13.7202 53.6977 13.7282 53.6994 13.736 53.7016C13.7895 53.8056 13.6702 54.1843 13.8414 54.4293L13.8998 54.5118L13.9821 54.5167C14.0229 54.6236 14.0365 54.739 14.0216 54.8525H13.9393V55.0654C13.9393 55.4836 13.5928 55.5876 13.2497 55.6866C12.9353 55.7773 12.5279 55.8623 12.3205 56.1379C12.2864 56.1839 12.2587 56.2344 12.2382 56.288L12.1559 56.4877L12.3575 56.5652H12.3666C12.3308 56.6127 12.3115 56.6707 12.3115 56.7302C12.3115 56.7898 12.3308 56.8477 12.3666 56.8952C12.4489 56.9934 12.5707 56.9967 12.6958 56.9579C12.6995 56.9732 12.7048 56.9882 12.7114 57.0025C12.7351 57.0505 12.7759 57.0878 12.8257 57.1072C12.8755 57.1266 12.9307 57.1266 12.9805 57.1072C13.8484 56.7845 14.7714 56.6367 15.6964 56.6725C16.0733 56.6865 16.1704 56.2534 16.2074 55.963C16.2198 55.8607 16.228 55.7592 16.2371 55.6569C16.2371 55.6412 16.2371 55.6214 16.242 55.6H16.3013V55.4836C16.3541 55.4798 16.4051 55.4625 16.4494 55.4333C16.7325 55.2601 16.6963 54.8855 16.6963 54.6001C16.6903 54.4886 16.7037 54.3769 16.7358 54.2701L17.0296 53.9764L17.0625 52.9476L17.2584 53.1126L17.251 52.6407C17.2494 52.548 17.2403 52.4555 17.2238 52.3643L17.3884 52.432L17.4172 52.1482C17.42 52.1045 17.42 52.0607 17.4172 52.017H17.4534L17.5983 51.8305C17.6699 51.7398 17.7629 52.0219 17.8591 52.0714C17.9744 52.1292 18.134 52.0714 18.2558 52.0574C18.3716 52.0402 18.489 52.0366 18.6056 52.0467C18.7957 52.0665 18.8681 51.9205 18.9233 51.7761C19.0124 51.865 19.1097 51.9454 19.2138 52.0162C19.2513 52.0415 19.2962 52.0534 19.3413 52.05C19.5059 52.0442 19.5668 51.8974 19.6006 51.7596C19.6508 51.918 19.7076 52.1036 19.8804 52.1622L19.9001 52.1688C19.8936 52.2728 19.9088 52.377 19.9446 52.4749C20.0162 52.6696 20.0804 52.8692 20.1511 53.0647C20.2038 53.2075 20.2573 53.3527 20.3157 53.4921C20.336 53.5403 20.3588 53.5874 20.384 53.6332C20.4071 53.685 20.4473 53.7273 20.4978 53.753C20.5483 53.7787 20.606 53.7862 20.6614 53.7742C20.6879 53.7675 20.7129 53.7554 20.7346 53.7388C20.7453 53.8444 20.7519 53.9574 20.7577 54.0069C20.7702 54.1124 20.7979 54.2155 20.84 54.313C20.863 54.3658 20.8935 54.4194 20.9132 54.473C20.9184 54.4857 20.922 54.499 20.9239 54.5126C20.9297 54.5481 20.9278 54.5844 20.9182 54.619C20.8507 54.8476 20.3643 55.0786 20.1668 55.1759C19.7553 55.3805 18.9027 55.6404 18.9167 56.1989V56.2096V56.2204C18.994 56.8226 20.2211 56.8358 20.5322 56.8185C20.8584 56.769 21.1803 56.6942 21.4951 56.5949C21.858 56.4844 22.4003 56.3029 22.7155 56.0941C23.4324 55.6198 23.392 54.7873 23.2093 54.0473L23.0851 53.5523C23.0982 53.4797 23.1262 53.3939 23.1418 53.323C23.169 53.1951 23.1962 53.0317 23.1418 52.9105C23.3789 52.8775 23.3608 52.5598 23.3608 52.3849V52.3544C23.3994 52.4311 23.434 52.5029 23.4513 52.5392C23.5089 52.6613 23.5632 52.7867 23.6159 52.9055C23.7245 53.1431 23.9451 53.6117 24.1097 53.0466C24.2134 53.516 24.5088 54.487 24.8503 54.751L25.1367 54.9713L25.2635 54.1356C25.4735 54.3958 25.623 54.6996 25.7013 55.0249C25.6911 55.1044 25.6704 55.1821 25.6396 55.2559C25.5663 55.4209 25.1269 55.6519 24.9688 55.7509C24.8269 55.8368 24.6943 55.9372 24.573 56.0504C24.3022 56.3152 24.1681 56.6164 24.2817 56.8045C24.6059 57.3407 26.2568 57.1741 26.6765 56.9216C27.2757 56.3936 28.0073 55.9465 28.6006 55.4127L28.6459 55.3574L28.6624 55.2939C28.7858 54.7989 28.3924 54.214 28.1801 53.7825C28.0776 53.5883 27.9899 53.3867 27.9176 53.1794L27.948 53.1918L28.204 53.2974L28.2394 53.0227C28.2978 52.5772 28.2171 52.2307 28.0748 51.8149C28.013 51.64 27.9505 51.4717 27.9102 51.2951C27.9455 51.325 27.9877 51.3456 28.0329 51.3551C28.0782 51.3646 28.1251 51.3627 28.1694 51.3496C28.2035 51.3384 28.2348 51.3202 28.2614 51.296C28.2879 51.2718 28.309 51.2423 28.3233 51.2093C28.3868 51.0688 28.4129 50.9142 28.399 50.7605C28.3858 50.5897 28.3324 50.4256 28.3225 50.2548C28.3137 50.0617 28.3648 49.8705 28.469 49.7078C28.6912 49.3275 28.5315 49.0189 28.3101 48.7178C28.346 48.7472 28.3846 48.7732 28.4254 48.7954C28.5314 48.8541 28.6516 48.8824 28.7726 48.877ZM12.1378 43.5599V43.5541V43.5599ZM11.2745 42.1401C11.3478 42.1995 11.3321 42.381 11.2967 42.513C11.2613 42.645 11.1009 42.8686 10.9947 42.8686C10.8062 42.8686 10.7322 42.6978 10.7042 42.5023C10.6894 42.3967 10.6293 42.2333 10.7865 42.0518C10.8688 41.9512 10.9651 41.881 11.0169 42.1269C11.0342 42.2399 11.2177 42.0955 11.2745 42.1417V42.1401ZM11.8358 43.1218L11.8111 43.1565L11.7831 43.1928C11.775 43.1721 11.7645 43.1525 11.7518 43.1342L11.7436 43.1218H11.8358ZM11.5066 43.0501C11.4827 43.0567 11.4473 43.0649 11.4087 43.0723C11.4613 43.022 11.5189 42.975 11.5477 42.9527L11.5675 42.9379L11.5066 43.0501Z" fill="#0C1219"/>
<path d="M23.001 54.0955L22.8685 53.5642C22.8553 53.5106 23.0512 52.9867 22.9023 52.9603C22.2826 52.8332 22.8438 52.4034 22.0538 52.2029C21.8653 52.1551 21.941 52.7029 21.7246 52.7078C21.3904 52.7153 21.5073 52.0264 21.1855 52.0709C20.9773 52.0998 21.0629 52.4273 21.0209 52.6748C21.0209 52.6831 20.774 52.5923 20.5181 52.1204C20.3033 51.7228 20.0103 52.0379 20.1461 52.4018C20.1692 52.4628 20.5576 53.6393 20.6136 53.5683C20.9584 53.1154 20.9304 53.6145 20.974 53.9808C21.0036 54.2407 21.1139 54.3265 21.1386 54.4758C21.1979 54.8644 20.7889 55.1028 20.2663 55.3619C19.8548 55.5656 19.124 55.7991 19.1347 56.1869C19.1709 56.4665 19.8186 55.7084 19.5025 56.3271C19.6293 56.3634 20.3626 55.8907 20.0416 56.4261C19.7206 56.9615 22.0472 56.2702 22.5994 55.9047C23.2224 55.4996 23.1648 54.753 23.001 54.0955ZM9.78483 41.4482C9.20874 41.4482 8.93798 42.7872 9.95436 42.2064C9.93214 41.935 10.1132 41.8104 10.2013 41.6182C10.5658 41.6025 10.0992 41.5159 9.78483 41.4482ZM27.641 52.7177C27.8591 52.5824 27.8492 52.9265 28.0261 52.9991C28.1306 52.1972 27.7241 51.7616 27.641 51.0628C27.7233 50.6561 28.0459 51.288 28.1199 51.1247C28.3397 50.6412 27.8574 50.3236 28.2763 49.605C28.6779 48.9137 27.32 48.5119 27.873 47.7372C28.1652 48.0499 28.2796 48.695 28.7594 48.6645C28.6236 48.092 28.4738 47.0228 28.1512 46.5542C27.599 46.0649 27.0468 45.5584 26.7859 44.8918C26.5464 44.5172 25.9316 44.7944 25.609 44.5552C25.6625 44.405 25.953 44.3778 26.0386 44.2499C26.0049 44.2499 25.888 44.2648 25.9135 44.1881L24.8486 44.2112C24.7754 44.0132 25.0511 44.0387 25.0511 43.8713C24.7383 43.7153 23.9943 43.8572 23.5771 43.9538C23.4125 43.8391 23.7294 43.5289 23.7187 43.4975C23.3121 43.4827 22.5665 44.0858 22.2439 43.9224C22.1501 43.6931 22.6842 43.3449 22.5253 43.4225C21.8538 43.67 21.8777 43.4885 21.3904 43.698C21.3086 43.7133 21.2245 43.711 21.1436 43.6914V43.7805H15.9975C15.8619 43.7835 15.7272 43.7596 15.6008 43.7104C15.5586 43.6935 15.5178 43.6731 15.479 43.6493C15.4601 43.6378 15.442 43.6254 15.4247 43.613C15.391 43.589 15.3601 43.5614 15.3325 43.5305C15.3212 43.5195 15.3108 43.5076 15.3012 43.4951L15.2807 43.4678C15.2767 43.4632 15.2731 43.4582 15.27 43.453L15.2552 43.4299C15.23 43.3899 15.2099 43.3469 15.1951 43.302C15.1951 43.2913 15.1877 43.2806 15.1852 43.269C15.1811 43.2557 15.1778 43.2422 15.1753 43.2286C15.1686 43.1838 15.1647 43.1386 15.1638 43.0933V42.5108C14.9535 42.569 14.7617 42.6804 14.6066 42.8342C14.3976 42.9596 13.4545 43.4241 13.159 43.3193C13.7796 42.5529 13.2685 42.977 12.4299 42.8507C12.4299 42.6932 12.6488 42.6552 12.6488 42.5595C12.3797 42.642 11.983 42.6197 11.8258 42.9134C12.1032 42.9134 12.211 42.9827 11.9822 43.288L12.4299 43.4233C12.671 43.4959 11.9303 43.8135 12.3986 43.9859C12.2529 44.0585 12.1698 44.3984 11.9509 44.1831C11.9147 43.9282 12.1023 44.0338 11.8258 43.9232C11.7131 43.8779 11.8727 43.6881 11.8884 43.6419C11.4209 43.7195 11.6703 43.3985 11.5756 43.2566C10.9378 43.4266 10.9691 43.1345 11.4193 42.788C11.5715 42.5595 11.653 41.9919 11.4193 41.798C11.039 41.5134 10.6588 41.699 10.3362 42.0455C10.1173 42.3475 10.4712 42.5042 10.4918 42.7534C10.2449 42.8128 9.92226 43.0743 9.8877 42.5562C9.42601 42.4787 8.88284 42.9134 8.5232 43.1601C8.38823 43.2674 7.9965 44.1592 7.85577 44.1179C7.47061 44.5544 6.85585 44.7004 6.33491 44.9429C6.31433 45.0576 6.36618 45.1409 6.36618 45.2556C6.67891 45.3802 6.39663 45.8702 6.60813 46.1243C6.93156 46.0105 7.33153 46.3289 7.60229 46.0889C7.80063 46.0889 8.01378 45.8801 8.14792 46.0889C7.90761 46.4189 7.56443 46.5467 7.12661 46.5261C7.00152 47.0525 8.9528 46.6911 9.18981 47.4526C9.39803 47.4526 9.33548 47.1506 9.57497 47.1919C9.68936 47.3066 9.66879 47.5565 9.76261 47.6712C9.97082 47.5978 9.877 47.3165 10.0441 47.2232C10.5165 47.2909 9.95518 47.9657 10.6481 47.3165C10.9683 47.6795 10.723 48.1505 11.2835 47.7026C11.7106 47.7958 11.3773 48.3164 11.4818 48.6497C11.8982 48.3271 11.6176 49.0143 11.9196 49.0036C11.8884 49.2222 11.9542 49.426 11.9196 49.6446C12.1468 49.8335 12.0192 50.3756 12.2949 49.8921C12.5204 49.9202 12.4595 50.9646 12.5097 51.1461C12.5112 51.1202 12.52 51.0951 12.5351 51.074C12.5502 51.0528 12.5709 51.0364 12.5949 51.0265C12.6189 51.0167 12.6453 51.0139 12.6708 51.0184C12.6964 51.0229 12.7201 51.0346 12.7393 51.0521C12.7393 51.604 13.0685 51.9686 13.187 52.4546C13.4125 52.6773 13.2915 52.2896 13.4166 52.2359C13.6915 52.1105 13.6759 53.287 13.7285 53.4734C14.1244 53.5147 13.8437 54.0567 14.01 54.2984C14.3013 54.3158 14.2618 55.0583 14.1458 55.0583C14.1458 56.0771 12.6718 55.7471 12.4266 56.3601C12.5616 56.4121 12.6866 56.2553 12.7805 56.3915C12.2381 56.9327 12.6496 56.804 13.0274 56.516C13.3401 56.6926 12.843 56.9228 12.9023 56.9013C13.7944 56.5686 14.7435 56.4164 15.6946 56.4533C16.0798 56.4682 15.9613 55.3808 16.0806 55.3808C16.0806 55.0038 16.1802 55.3379 16.3275 55.2455C16.5983 55.0805 16.3711 54.4841 16.5464 54.1425L16.8073 53.8818L16.8386 52.9034C16.8822 52.6963 16.5201 52.2095 17.0262 52.6427C17.0155 51.9546 16.5324 51.552 16.7135 50.8103C16.7958 50.779 16.7892 51.1049 16.9447 51.241C16.9702 51.3755 17.1093 52.0891 17.1916 52.1254C17.199 52.0495 17.1571 51.8028 17.2542 51.8028L17.348 50.9489C17.52 50.9489 17.2789 50.2064 17.3167 50.0332C17.7973 49.8525 17.9751 51.3218 17.827 51.2707C17.8887 52.1279 18.0253 51.7715 18.6195 51.8325C18.7429 51.8449 18.71 51.3441 18.9849 51.5561C19.161 51.6923 19.1495 51.7269 19.3141 51.8325C19.3766 51.8713 19.4244 51.42 19.4523 51.4052C19.9387 51.1271 19.6606 52.6427 20.328 51.5784C20.4827 51.3309 20.6415 51.8894 20.9041 51.9365C21.0143 51.9554 21.1567 51.8894 21.2736 51.8597C21.7163 51.7451 21.7131 52.7441 21.8497 51.6419C22.0867 51.75 22.2019 52.2401 22.3015 51.9992C22.4595 51.6155 22.0414 50.958 22.3328 50.6041C22.6619 50.5364 23.1245 53.6714 23.1245 52.3737C23.1245 51.0207 23.7631 52.844 23.9038 53.0263C23.9038 52.4801 24.368 52.7895 24.289 53.1822C24.3375 53.636 24.6141 54.3059 24.9581 54.5707L25.0815 53.7548C25.493 53.8802 25.8403 54.6689 25.8905 54.9865C25.8853 55.1054 25.8573 55.2222 25.8082 55.3305C25.6156 55.7669 24.5852 55.9526 24.4544 56.606C24.5457 56.5144 24.8124 56.4146 24.9021 56.45C24.8832 56.5548 24.8544 56.7083 24.7457 56.7627C25.0568 56.7627 25.121 56.4005 25.121 56.9277C25.5325 56.7413 26.0403 56.7916 26.5102 56.7479C27.0418 56.2793 27.8887 55.6556 28.4096 55.187C28.6187 54.4395 27.5578 53.5147 27.641 52.7177ZM8.23598 44.6179C8.10595 44.5874 8.4944 43.717 8.7561 44.5024C8.83017 44.8637 8.91165 44.7763 8.23598 44.6179ZM10.7872 42.0538C10.8695 41.9531 10.9658 41.883 11.0176 42.1289C11.0399 42.2361 11.2193 42.0959 11.2761 42.1421C11.3493 42.2015 11.3337 42.383 11.2983 42.515C11.2629 42.647 11.1024 42.8705 10.9962 42.8705C10.8078 42.8705 10.7337 42.6998 10.7057 42.5042C10.6893 42.3986 10.6292 42.2353 10.7872 42.0538ZM11.3921 46.574C11.2102 46.574 11.0514 46.5253 11.0497 46.7497C11.0448 47.2488 10.5033 46.7645 10.5049 47.1201C10.5049 47.1894 10.444 47.1977 10.4177 47.1523C10.3214 46.9807 10.1222 46.9823 9.95024 46.9518C9.6013 46.8908 9.69265 46.5599 9.89428 46.6738C9.9379 46.6977 10.0753 46.7868 10.1025 46.7934C10.384 46.866 10.3872 46.739 10.4317 46.5756C10.4654 46.4444 10.6037 46.5756 10.6383 46.6631C10.6926 46.8041 10.8275 46.8281 10.8637 46.8091C10.923 46.7736 10.8637 46.5921 10.8637 46.4791C10.8637 46.2662 11.0399 46.3372 11.1658 46.3578C11.4431 46.4015 11.5155 46.39 11.7303 46.3174C11.6703 46.5063 11.5699 46.574 11.3905 46.574H11.3921ZM12.1328 51.5421C11.9978 51.5421 12.197 51.0867 12.1994 51.0677C12.2505 50.6552 12.327 50.7815 11.848 50.8912C11.6834 50.6272 11.9451 50.4614 12.0003 50.2312C11.5839 50.2906 11.7476 50.0266 11.732 49.9012C11.7048 49.6702 11.9188 49.2808 11.6036 49.1504C11.3057 49.36 11.0851 49.4499 10.765 49.6595C10.4671 49.902 9.93461 50.0142 9.64739 50.3013C9.10669 50.5331 9.0211 51.161 8.69027 51.5908C8.72319 51.8333 8.53555 51.9208 8.45819 52.0982C8.33721 52.495 8.0467 52.7862 7.94794 53.183C7.90432 53.3043 7.91502 53.48 7.81626 53.5576C7.7496 53.9 8.04587 54.1557 8.02365 54.3323C8.16768 54.2663 8.02365 54.1145 8.16438 54.0262C8.4623 53.9049 8.32898 54.3323 8.46559 54.3983C8.52073 54.2663 8.48288 53.9924 8.6376 53.9594C8.68121 54.0584 8.86721 54.2506 8.80219 54.3933C9.02275 54.3826 9.02275 54.206 9.11163 54.0518C9.17747 53.4677 9.79223 53.367 9.85889 52.7829C10.5592 51.9076 10.1831 52.8052 10.3 52.7161L10.9074 52.2533L11.1057 52.2203C11.2283 52.1996 11.0588 52.5618 11.0399 52.5841C11.3378 52.4958 11.6686 52.3968 11.8785 52.1427C11.9336 52.2233 11.9571 52.3214 11.9443 52.4183C11.9295 52.5098 12.9533 51.5421 12.1295 51.5421H12.1328Z" fill="#E1E1E1"/>
<path d="M11.2968 42.5145C11.2615 42.6498 11.101 42.8701 10.9948 42.8701C10.8063 42.8701 10.7323 42.6993 10.7043 42.5038C10.6895 42.3982 10.6294 42.2348 10.7866 42.0533C10.8689 41.9527 10.9652 41.8826 11.017 42.1284C11.0392 42.2357 11.2187 42.0954 11.2754 42.1416C11.3479 42.201 11.3322 42.3825 11.2968 42.5145Z" fill="#0C1219"/>
<path d="M20.6573 36.9421H21.147V43.7789H15.9976C15.5087 43.7789 15.233 43.5182 15.1746 43.2269C15.1676 43.1822 15.1638 43.1369 15.1631 43.0916V36.3555C15.1878 36.0445 15.4808 35.7417 16.0494 35.7178L20.7231 35.7227L20.617 35.8877C20.5274 36.0386 20.4801 36.2109 20.4801 36.3864C20.4801 36.562 20.5274 36.7343 20.617 36.8851L20.6573 36.9454V36.9421Z" fill="#0C1219"/>
<path d="M17.1945 42.5031V42.9981H17.6883L17.1945 42.5031ZM17.1945 37.7181V38.2131L17.6883 37.7181H17.1945ZM19.7927 40.0611V39.8714H18.9903V39.3062H19.4018V39.1165H18.9903V38.7419H18.8002V39.1198H18.3887V39.3095H18.8002V39.8738H17.9969V40.0644H18.8002V40.9463L18.3426 40.6823V40.8729L18.8002 41.1361V42.0263H18.9903V41.2499L19.447 41.5139V41.3234L18.9903 41.0602V40.0702H19.7927V40.0611ZM19.875 37.7181L20.3687 38.2131V37.7181H19.875ZM19.7927 40.0611V39.8714H18.9903V39.3062H19.4018V39.1165H18.9903V38.7419H18.8002V39.1198H18.3887V39.3095H18.8002V39.8738H17.9969V40.0644H18.8002V40.9463L18.3426 40.6823V40.8729L18.8002 41.1361V42.0263H18.9903V41.2499L19.447 41.5139V41.3234L18.9903 41.0602V40.0702H19.7927V40.0611ZM19.7202 37.7181H17.8406L17.1945 38.3624V42.3488L17.3682 42.5221L17.8406 42.994H19.7202L20.3663 42.3488V38.3624L19.7202 37.7181ZM19.8988 40.1675H19.0997V40.9925L19.5565 41.2565V41.6921L19.0997 41.4306V42.1327H18.6973V41.198L18.2397 40.934V40.4984L18.6973 40.7624V40.1708H17.8941V39.7649H18.6973V39.4127H18.2858V39.0101H18.6973V38.6322H19.0997V39.0101H19.5112V39.4127H19.0997V39.7649H19.9021V40.1675H19.8988ZM18.9936 39.3062H19.405V39.1165H18.9936V38.7419H18.8034V39.1198H18.392V39.3095H18.8034V39.8738H17.9969V40.0644H18.8002V40.9463L18.3426 40.6823V40.8729L18.8002 41.1361V42.0263H18.9903V41.2499L19.447 41.5139V41.3234L18.9903 41.0602V40.0702H19.7927V39.8804H18.9903V39.3153L18.9936 39.3062ZM19.8741 42.9948H20.3679V42.4998L19.8741 42.9948ZM20.3679 42.9948V42.4998L19.8741 42.9948H20.3679ZM17.8422 37.7148L17.1945 38.3624V42.3488L17.3682 42.5221L17.8406 42.994H19.7202L20.3663 42.3488V38.3624L19.7202 37.7173H17.8406L17.8422 37.7148ZM19.8997 40.1642H19.0997V40.9892L19.5565 41.2532V41.6888L19.0997 41.4306V42.1327H18.6973V41.198L18.2397 40.934V40.4984L18.6973 40.7624V40.1708H17.8941V39.7649H18.6973V39.4127H18.2858V39.0101H18.6973V38.6322H19.0997V39.0101H19.5112V39.4127H19.0997V39.7649H19.9021V40.1675L19.8997 40.1642ZM19.8725 37.7148L20.3663 38.2098V37.7148H19.8725ZM18.9911 39.3029H19.4026V39.1132H18.9911V38.7419H18.801V39.1198H18.3895V39.3095H18.801V39.8738H17.9969V40.0644H18.8002V40.9463L18.3426 40.6823V40.8729L18.8002 41.1361V42.0263H18.9903V41.2499L19.447 41.5139V41.3234L18.9903 41.0602V40.0702H19.7927V39.8804H18.9903V39.3153L18.9911 39.3029ZM17.1953 37.7148V38.2098L17.6891 37.7148H17.1953ZM17.1953 42.9948H17.6891L17.1953 42.4998V42.9948ZM16.5213 37.0449V43.6688H21.0411V37.0482H16.5205L16.5213 37.0449ZM17.0892 43.1012V37.615H20.4733V43.1045H17.0884L17.0892 43.1012ZM20.3671 42.9948V42.4998L19.8733 42.9948H20.3671ZM17.8414 37.7148L17.1945 38.3624V42.3488L17.3682 42.5221L17.8406 42.994H19.7202L20.3663 42.3488V38.3624L19.7202 37.7173H17.8406L17.8414 37.7148ZM19.8988 40.1642H19.0997V40.9892L19.5565 41.2532V41.6888L19.0997 41.4306V42.1327H18.6973V41.198L18.2397 40.934V40.4984L18.6973 40.7624V40.1708H17.8941V39.7649H18.6973V39.4127H18.2858V39.0101H18.6973V38.6322H19.0997V39.0101H19.5112V39.4127H19.0997V39.7649H19.9021V40.1675L19.8988 40.1642ZM20.3663 38.2098V37.7148H19.8725L20.3663 38.2098ZM18.9903 39.3029H19.4018V39.1132H18.9903V38.7419H18.8002V39.1198H18.3887V39.3095H18.8002V39.8738H17.9969V40.0644H18.8002V40.9463L18.3426 40.6823V40.8729L18.8002 41.1361V42.0263H18.9903V41.2499L19.447 41.5139V41.3234L18.9903 41.0602V40.0702H19.7927V39.8804H18.9903V39.3153V39.3029ZM17.1945 37.7148V38.2098L17.6883 37.7148H17.1945ZM17.1945 42.9948H17.6883L17.1945 42.4998V42.9948ZM17.1945 42.4998V42.9948H17.6883L17.1945 42.4998ZM17.1945 37.7148V38.2098L17.6883 37.7148H17.1945ZM19.7927 40.0578V39.8681H18.9903V39.3029H19.4018V39.1132H18.9903V38.7419H18.8002V39.1198H18.3887V39.3095H18.8002V39.8738H17.9969V40.0644H18.8002V40.9463L18.3426 40.6823V40.8729L18.8002 41.1361V42.0263H18.9903V41.2499L19.447 41.5139V41.3234L18.9903 41.0602V40.0702H19.7927V40.0578ZM19.875 37.7148L20.3687 38.2098V37.7148H19.875ZM19.7927 40.0578V39.8681H18.9903V39.3029H19.4018V39.1132H18.9903V38.7419H18.8002V39.1198H18.3887V39.3095H18.8002V39.8738H17.9969V40.0644H18.8002V40.9463L18.3426 40.6823V40.8729L18.8002 41.1361V42.0263H18.9903V41.2499L19.447 41.5139V41.3234L18.9903 41.0602V40.0702H19.7927V40.0578ZM19.7202 37.7148H17.8406L17.1945 38.3624V42.3488L17.3682 42.5221L17.8406 42.994H19.7202L20.3663 42.3488V38.3624L19.7202 37.7148ZM19.8988 40.1642H19.0997V40.9892L19.5565 41.2532V41.6888L19.0997 41.4306V42.1327H18.6973V41.198L18.2397 40.934V40.4984L18.6973 40.7624V40.1708H17.8941V39.7649H18.6973V39.4127H18.2858V39.0101H18.6973V38.6322H19.0997V39.0101H19.5112V39.4127H19.0997V39.7649H19.9021V40.1675L19.8988 40.1642ZM18.9936 39.3029H19.405V39.1132H18.9936V38.7419H18.8034V39.1198H18.392V39.3095H18.8034V39.8738H17.9969V40.0644H18.8002V40.9463L18.3426 40.6823V40.8729L18.8002 41.1361V42.0263H18.9903V41.2499L19.447 41.5139V41.3234L18.9903 41.0602V40.0702H19.7927V39.8804H18.9903V39.3153L18.9936 39.3029ZM19.8741 42.9915H20.3679V42.4965L19.8741 42.9915ZM19.8741 42.9915H20.3679V42.4965L19.8741 42.9915ZM19.7918 40.0578V39.8681H18.9894V39.3029H19.4009V39.1132H18.9894V38.7419H18.7993V39.1198H18.3878V39.3095H18.7993V39.8738H17.9969V40.0644H18.8002V40.9463L18.3426 40.6823V40.8729L18.8002 41.1361V42.0263H18.9903V41.2499L19.447 41.5139V41.3234L18.9903 41.0602V40.0702H19.7927L19.7918 40.0578ZM19.7918 40.0578V39.8681H18.9894V39.3029H19.4009V39.1132H18.9894V38.7419H18.7993V39.1198H18.3878V39.3095H18.7993V39.8738H17.9969V40.0644H18.8002V40.9463L18.3426 40.6823V40.8729L18.8002 41.1361V42.0263H18.9903V41.2499L19.447 41.5139V41.3234L18.9903 41.0602V40.0702H19.7927L19.7918 40.0578ZM19.7194 37.7148H17.8406L17.1945 38.3624V42.3488L17.3682 42.5221L17.8406 42.994H19.7202L20.3663 42.3488V38.3624L19.7194 37.7148ZM19.898 40.1642H19.0997V40.9892L19.5565 41.2532V41.6888L19.0997 41.4306V42.1327H18.6973V41.198L18.2397 40.934V40.4984L18.6973 40.7624V40.1708H17.8941V39.7649H18.6973V39.4127H18.2858V39.0101H18.6973V38.6322H19.0997V39.0101H19.5112V39.4127H19.0997V39.7649H19.9021V40.1675L19.898 40.1642ZM18.9927 39.3029H19.4042V39.1132H18.9927V38.7419H18.8026V39.1198H18.3911V39.3095H18.8026V39.8738H17.9969V40.0644H18.8002V40.9463L18.3426 40.6823V40.8729L18.8002 41.1361V42.0263H18.9903V41.2499L19.447 41.5139V41.3234L18.9903 41.0602V40.0702H19.7927V39.8804H18.9903V39.3153L18.9927 39.3029ZM19.8741 37.7148L20.3679 38.2098V37.7148H19.8741ZM17.197 37.7148V38.2098L17.6908 37.7148H17.197ZM17.197 42.4998V42.9948H17.6908L17.197 42.4998ZM19.7951 40.0611V39.8714H18.9927V39.3062H19.4042V39.1165H18.9927V38.7419H18.8026V39.1198H18.3911V39.3095H18.8026V39.8738H17.9969V40.0644H18.8002V40.9463L18.3426 40.6823V40.8729L18.8002 41.1361V42.0263H18.9903V41.2499L19.447 41.5139V41.3234L18.9903 41.0602V40.0702H19.7927L19.7951 40.0611ZM19.7951 40.0611V39.8714H18.9927V39.3062H19.4042V39.1165H18.9927V38.7419H18.8026V39.1198H18.3911V39.3095H18.8026V39.8738H17.9969V40.0644H18.8002V40.9463L18.3426 40.6823V40.8729L18.8002 41.1361V42.0263H18.9903V41.2499L19.447 41.5139V41.3234L18.9903 41.0602V40.0702H19.7927L19.7951 40.0611ZM19.8774 42.9948H20.3712V42.4998L19.8774 42.9948ZM19.7951 40.0611V39.8714H18.9927V39.3062H19.4042V39.1165H18.9927V38.7419H18.8026V39.1198H18.3911V39.3095H18.8026V39.8738H17.9969V40.0644H18.8002V40.9463L18.3426 40.6823V40.8729L18.8002 41.1361V42.0263H18.9903V41.2499L19.447 41.5139V41.3234L18.9903 41.0602V40.0702H19.7927L19.7951 40.0611ZM19.7951 40.0611V39.8714H18.9927V39.3062H19.4042V39.1165H18.9927V38.7419H18.8026V39.1198H18.3911V39.3095H18.8026V39.8738H17.9969V40.0644H18.8002V40.9463L18.3426 40.6823V40.8729L18.8002 41.1361V42.0263H18.9903V41.2499L19.447 41.5139V41.3234L18.9903 41.0602V40.0702H19.7927L19.7951 40.0611ZM19.7227 37.7181H17.8406L17.1945 38.3624V42.3488L17.3682 42.5221L17.8406 42.994H19.7202L20.3663 42.3488V38.3624L19.7227 37.7181ZM19.9013 40.1675H19.0997V40.9925L19.5565 41.2565V41.6921L19.0997 41.4306V42.1327H18.6973V41.198L18.2397 40.934V40.4984L18.6973 40.7624V40.1708H17.8941V39.7649H18.6973V39.4127H18.2858V39.0101H18.6973V38.6322H19.0997V39.0101H19.5112V39.4127H19.0997V39.7649H19.9021V40.1675H19.9013ZM18.996 39.3062H19.4075V39.1165H18.996V38.7419H18.8059V39.1198H18.3944V39.3095H18.8059V39.8738H17.9969V40.0644H18.8002V40.9463L18.3426 40.6823V40.8729L18.8002 41.1361V42.0263H18.9903V41.2499L19.447 41.5139V41.3234L18.9903 41.0602V40.0702H19.7927V39.8804H18.9903V39.3153L18.996 39.3062ZM19.8774 37.7181L20.3712 38.2131V37.7181H19.8774ZM17.2003 37.7181V38.2131L17.6941 37.7181H17.2003ZM17.2003 42.5031V42.9981H17.6941L17.2003 42.5031ZM17.2003 37.7181V38.2131L17.6941 37.7181H17.2003ZM19.7984 40.0611V39.8714H18.996V39.3062H19.4075V39.1165H18.996V38.7419H18.8059V39.1198H18.3944V39.3095H18.8059V39.8738H17.9969V40.0644H18.8002V40.9463L18.3426 40.6823V40.8729L18.8002 41.1361V42.0263H18.9903V41.2499L19.447 41.5139V41.3234L18.9903 41.0602V40.0702H19.7927L19.7984 40.0611ZM19.7984 40.0611V39.8714H18.996V39.3062H19.4075V39.1165H18.996V38.7419H18.8059V39.1198H18.3944V39.3095H18.8059V39.8738H17.9969V40.0644H18.8002V40.9463L18.3426 40.6823V40.8729L18.8002 41.1361V42.0263H18.9903V41.2499L19.447 41.5139V41.3234L18.9903 41.0602V40.0702H19.7927L19.7984 40.0611ZM19.726 37.7181H17.8406L17.1945 38.3624V42.3488L17.3682 42.5221L17.8406 42.994H19.7202L20.3663 42.3488V38.3624L19.726 37.7181ZM19.9046 40.1675H19.0997V40.9925L19.5565 41.2565V41.6921L19.0997 41.4306V42.1327H18.6973V41.198L18.2397 40.934V40.4984L18.6973 40.7624V40.1708H17.8941V39.7649H18.6973V39.4127H18.2858V39.0101H18.6973V38.6322H19.0997V39.0101H19.5112V39.4127H19.0997V39.7649H19.9021V40.1675H19.9046ZM18.9993 39.3062H19.4108V39.1165H18.9993V38.7419H18.8092V39.1198H18.3977V39.3095H18.8092V39.8738H17.9969V40.0644H18.8002V40.9463L18.3426 40.6823V40.8729L18.8002 41.1361V42.0263H18.9903V41.2499L19.447 41.5139V41.3234L18.9903 41.0602V40.0702H19.7927V39.8804H18.9903V39.3153L18.9993 39.3062ZM19.8807 37.7181L20.3745 38.2131V37.7181H19.8807ZM19.8807 42.9981H20.3745V42.5031L19.8807 42.9981ZM17.2044 42.5031V42.9981H17.6982L17.2044 42.5031Z" fill="#C8A064"/>
<path d="M16.0692 35.8241H20.5281C20.4635 35.9228 20.4188 36.0332 20.3964 36.1491H16.7399V36.2432H20.3816C20.3682 36.3575 20.3716 36.4731 20.3915 36.5864H17.0173V36.6796H20.4162C20.4403 36.7727 20.4798 36.8611 20.533 36.9411H16.0692C15.0578 36.9411 15.0537 35.8167 16.0692 35.8233V35.8241Z" fill="white"/>
<path d="M17.5909 33.339L16.8774 31.4795L17.107 31.5356C17.7696 31.7001 18.4623 31.7001 19.1249 31.5356L19.3545 31.4795L18.6451 33.339L20.3907 32.6502L20.3339 32.8836C20.1691 33.5456 20.1691 34.238 20.3339 34.8999L20.3907 35.1326L18.7538 34.485L19.3628 36.0252L19.1299 35.9683C18.4672 35.8038 17.7746 35.8038 17.1119 35.9683L16.879 36.0252L17.488 34.485L15.8462 35.1334L15.903 34.9008C16.0676 34.2388 16.0676 33.5464 15.903 32.8845L15.8462 32.651L17.5909 33.339Z" fill="#0C1219"/>
<path d="M16.0234 32.8531L17.8077 33.5577L17.0818 31.6602C17.7639 31.8297 18.4769 31.8297 19.159 31.6602L18.4331 33.5577L20.2173 32.8531C20.0475 33.5345 20.0475 34.2474 20.2173 34.9288L18.5327 34.263L19.159 35.847C18.4769 35.6775 17.7639 35.6775 17.0818 35.847L17.7081 34.263L16.0234 34.9288C16.1932 34.2474 16.1932 33.5345 16.0234 32.8531Z" fill="#E1E1E1"/>
<path d="M16.0543 37.0482C15.6684 37.0482 15.4075 36.9104 15.2725 36.7231C15.272 36.7977 15.2769 36.8721 15.2873 36.9459V36.9706C15.301 37.0358 15.3279 37.0974 15.3663 37.1517C15.4046 37.2061 15.4536 37.252 15.5103 37.2866C15.6548 37.3726 15.8205 37.4161 15.9885 37.412H16.414V37.0482H16.0543ZM15.9918 37.5102C15.8052 37.5138 15.6213 37.465 15.461 37.3691C15.3855 37.322 15.3211 37.259 15.2725 37.1843C15.272 37.258 15.2769 37.3316 15.2873 37.4046V37.4285C15.301 37.4936 15.3279 37.5553 15.3663 37.6096C15.4046 37.6639 15.4536 37.7098 15.5103 37.7445C15.6553 37.8291 15.8208 37.8716 15.9885 37.8674H16.414V37.5069H15.9885L15.9918 37.5102ZM15.9918 37.9689C15.8049 37.9724 15.6208 37.9236 15.4601 37.8278C15.3852 37.7802 15.3213 37.7172 15.2725 37.643V39.5785C15.2764 39.617 15.2824 39.6553 15.2906 39.6931C15.3047 39.7581 15.3317 39.8196 15.37 39.8739C15.4084 39.9282 15.4572 39.9742 15.5136 40.0091C15.6583 40.0946 15.8239 40.138 15.9918 40.1345H16.4173V37.9681H15.9885L15.9918 37.9689ZM15.5326 39.5818H15.442V38.1685H15.5326V39.5818ZM15.8618 39.6799H15.7712V38.2667H15.8618V39.6824V39.6799ZM16.1909 39.7699H16.1012V38.3566H16.1909V39.7699ZM15.9975 40.2319C15.811 40.2358 15.6271 40.1872 15.4667 40.0916C15.3914 40.044 15.3271 39.9807 15.2783 39.906C15.2778 39.98 15.2827 40.0539 15.2931 40.1271V40.1518C15.3069 40.2169 15.3338 40.2785 15.3721 40.3328C15.4105 40.3872 15.4595 40.4331 15.5161 40.4678C15.6595 40.5511 15.8228 40.5933 15.9885 40.5899H16.414V40.2286H15.9885L15.9975 40.2319ZM15.9975 40.6906C15.8108 40.694 15.6268 40.6455 15.4659 40.5503C15.391 40.5024 15.327 40.4392 15.2783 40.3647V42.0972C15.279 42.1524 15.2834 42.2075 15.2914 42.2622L15.2964 42.301C15.3105 42.366 15.3375 42.4274 15.3758 42.4817C15.4141 42.536 15.463 42.582 15.5194 42.6169C15.6641 42.7024 15.8296 42.7458 15.9975 42.7423H16.423V40.6897H15.9885L15.9975 40.6906ZM15.5383 42.315H15.4478V40.9026H15.5383V42.315ZM15.8675 42.4132H15.777V41.0024H15.8675V42.4132ZM16.1967 42.5031H16.107V41.0907H16.1967V42.5031ZM16.0033 42.8397C15.8168 42.8436 15.6329 42.795 15.4725 42.6994C15.3971 42.6518 15.3329 42.5885 15.284 42.5138C15.2835 42.5878 15.2884 42.6617 15.2988 42.7349V42.7597C15.3129 42.8247 15.3399 42.8861 15.3783 42.9404C15.4166 42.9947 15.4654 43.0407 15.5219 43.0756C15.6666 43.1611 15.8321 43.2045 16 43.201H16.4255V42.8397H15.9885H16.0033ZM16.0033 43.2984C15.8167 43.3029 15.6326 43.2542 15.4725 43.1581C15.3971 43.1105 15.3329 43.0472 15.284 42.9725V43.093C15.2847 43.1322 15.2883 43.1714 15.2947 43.2101C15.3639 43.5401 15.7062 43.6729 16.0124 43.6721H16.4288V43.2984H15.9885H16.0033Z" fill="#C8A064"/>
<path d="M17.1245 6.85909C17.124 6.6857 17.1749 6.51607 17.2706 6.37166C17.3663 6.22725 17.5027 6.11457 17.6623 6.04787C17.822 5.98118 17.9978 5.96348 18.1675 5.997C18.3372 6.03053 18.4932 6.11378 18.6157 6.23621C18.7381 6.35864 18.8216 6.51476 18.8555 6.68478C18.8895 6.8548 18.8723 7.03109 18.8062 7.19133C18.7401 7.35157 18.6281 7.48856 18.4843 7.58494C18.3406 7.68132 18.1715 7.73277 17.9985 7.73277C17.7671 7.73299 17.545 7.64109 17.3811 7.47727C17.2173 7.31345 17.125 7.0911 17.1245 6.85909Z" fill="#0C1219"/>
<path d="M28.5891 15.2048C28.5205 15.1466 28.4457 15.0962 28.3661 15.0546C28.2874 15.0127 28.2047 14.979 28.1192 14.9539C27.9926 14.9161 27.864 14.8853 27.734 14.8616C27.8043 14.7252 27.8706 14.5877 27.9332 14.4491C28.0097 14.2841 28.0805 14.1125 28.1455 13.94C28.3501 13.4045 28.4942 12.8478 28.5751 12.2801C28.5987 12.1069 28.616 11.9331 28.627 11.7587C28.6444 11.4748 28.6425 11.1901 28.6212 10.9065C28.5999 10.6261 28.5581 10.3475 28.4961 10.0732C28.4504 9.87096 28.393 9.67152 28.3241 9.47595C28.1518 8.97762 27.9018 8.50981 27.5834 8.08995C27.4727 7.94565 27.3537 7.80792 27.2271 7.67745L27.1983 7.64693C26.823 7.26297 26.3856 6.94553 25.9046 6.70808C25.7629 6.63653 25.6176 6.57264 25.4692 6.51667C24.9597 6.32424 24.4243 6.20912 23.8809 6.17513L23.7903 6.1578C23.5855 6.14749 23.3804 6.14749 23.1756 6.1578C22.7033 6.18196 22.2346 6.25326 21.7765 6.37065C21.5625 6.42428 21.3502 6.48698 21.1412 6.55793C20.8007 6.67382 20.4672 6.80906 20.1421 6.963C20.1421 6.92835 20.1421 6.8937 20.1421 6.85905C20.141 6.38742 19.9849 5.92929 19.6979 5.55555C19.4109 5.18182 19.0091 4.91332 18.5545 4.7916V3.8016H19.3578L20.0433 4.8675H20.6136V1.6368H20.0433L19.3569 2.6994H18.5537V1.518L19.8795 0.66V0H16.1218V0.66L17.4476 1.518V2.6994H16.6444L15.9581 1.63763H15.3869V4.8675H15.9581L16.6444 3.8049H17.4476V4.7949C16.9929 4.91646 16.5909 5.1849 16.3038 5.55865C16.0166 5.93239 15.8604 6.39061 15.8593 6.86235C15.8593 6.897 15.8593 6.93165 15.8593 6.9663C15.5339 6.81235 15.2001 6.6771 14.8594 6.56122C14.6498 6.49028 14.4377 6.42785 14.2232 6.37395C13.7652 6.25617 13.2964 6.18486 12.8242 6.1611C12.6196 6.15079 12.4147 6.15079 12.2102 6.1611L12.1213 6.16688C11.5772 6.20072 11.0412 6.31641 10.5313 6.51008C10.3839 6.56562 10.2397 6.62924 10.0993 6.70065C9.61793 6.93701 9.17996 7.25332 8.80391 7.6362L8.77346 7.66838C8.64798 7.79921 8.52984 7.93692 8.41958 8.08088C8.10168 8.50226 7.85174 8.97107 7.6789 9.47018C7.60974 9.66496 7.55176 9.86356 7.50526 10.065C7.44256 10.3403 7.40047 10.6199 7.37934 10.9016C7.35782 11.1857 7.35562 11.471 7.37276 11.7554C7.38346 11.9287 7.40074 12.1019 7.42378 12.2735C7.50509 12.8443 7.65002 13.4041 7.85584 13.9425C7.92059 14.1136 7.99081 14.2821 8.06653 14.4482C8.12907 14.5885 8.19656 14.7271 8.26651 14.8607C8.1373 14.8847 8.00892 14.916 7.88053 14.9531C7.70976 15.0053 7.55033 15.0892 7.41061 15.2006C7.27894 15.3095 7.1843 15.4481 7.19993 15.59C7.22298 15.7988 7.45588 15.8887 7.632 15.9299C7.94153 16.0017 8.23186 16.1399 8.48295 16.335C8.94876 16.6889 9.30593 17.2186 9.57011 17.7309C9.85395 18.3013 10.0976 18.891 10.2993 19.4956C10.5676 20.2571 10.8103 21.0524 11.1321 21.7916C11.2876 22.1725 11.574 22.4851 11.9395 22.6727C12.5336 22.9928 13.3509 23.0769 14.0142 23.1025C16.6686 23.2037 19.3243 23.2037 21.9814 23.1025C22.6398 23.0769 23.4628 22.9928 24.0561 22.6727C24.4204 22.484 24.7055 22.1713 24.8602 21.7907C25.182 21.0482 25.4239 20.2571 25.693 19.4948C25.8952 18.8901 26.1394 18.3005 26.4239 17.7301C26.6905 17.2178 27.0452 16.6881 27.511 16.3342C27.7647 16.1403 28.0572 16.0038 28.3685 15.9341C28.9315 15.8012 28.887 15.4605 28.5891 15.2048ZM17.037 6.85905C17.037 6.62055 17.1254 6.39056 17.285 6.2137C17.4446 6.03684 17.6641 5.92573 17.9008 5.90193C18.1375 5.87814 18.3747 5.94334 18.5661 6.0849C18.7576 6.22646 18.8898 6.43428 18.937 6.66803C18.9843 6.90178 18.9432 7.1448 18.8218 7.34991C18.7004 7.55503 18.5074 7.70763 18.2801 7.77809C18.0528 7.84856 17.8075 7.83186 17.5918 7.73125C17.3761 7.63064 17.2053 7.45328 17.1127 7.2336C17.1108 7.22823 17.1086 7.223 17.1061 7.21793C17.0604 7.10383 17.0369 6.982 17.037 6.85905Z" fill="#0C1219"/>
<path d="M28.5154 10.9089C28.424 9.71097 27.9664 8.57577 27.1204 7.71117C26.2308 6.80367 25.0457 6.32847 23.7832 6.26412C22.5488 6.20225 21.3341 6.52317 20.2197 7.0421L18.8602 12.2396C18.9974 12.3109 19.127 12.3961 19.247 12.4937L20.5868 7.26732C26.1633 4.83522 30.051 9.59382 27.2397 14.8111C27.3681 14.8137 27.4962 14.8245 27.6232 14.8433C28.2495 13.6347 28.6191 12.2751 28.5154 10.9089ZM15.7806 7.0421C14.6663 6.52317 13.4483 6.20142 12.2171 6.26412C10.9547 6.32847 9.7704 6.8012 8.87994 7.71117C8.03392 8.5799 7.57799 9.7118 7.48582 10.9089C7.3813 12.2751 7.75164 13.6314 8.3771 14.8425C8.50407 14.823 8.63219 14.8119 8.76061 14.8095C5.94932 9.59217 9.83707 4.8344 15.4136 7.26567L16.7534 12.492C16.8733 12.3946 17.0029 12.3097 17.1402 12.2388L15.7806 7.0421Z" fill="#786441"/>
<path d="M15.4873 5.81804C15.4878 5.6687 15.444 5.52257 15.3616 5.39819C15.2791 5.27381 15.1617 5.17677 15.0241 5.1194C14.8866 5.06202 14.7351 5.04688 14.589 5.07589C14.4428 5.10491 14.3086 5.17678 14.2032 5.28238C14.0979 5.38798 14.0262 5.52257 13.9972 5.66907C13.9683 5.81557 13.9834 5.96739 14.0406 6.10528C14.0979 6.24316 14.1947 6.3609 14.3187 6.44357C14.4428 6.52624 14.5886 6.57011 14.7376 6.56962C14.9367 6.56984 15.1278 6.4908 15.2688 6.34988C15.4099 6.20896 15.4893 6.01767 15.4898 5.81804H15.4873Z" fill="#0C1219"/>
<path d="M15.3814 5.81806C15.3819 5.68977 15.3444 5.56421 15.2736 5.45733C15.2028 5.35046 15.1019 5.26706 14.9838 5.21774C14.8656 5.16842 14.7355 5.15538 14.61 5.18029C14.4844 5.2052 14.3691 5.26693 14.2786 5.35765C14.1881 5.44837 14.1265 5.564 14.1016 5.68985C14.0768 5.81571 14.0898 5.94613 14.139 6.06457C14.1882 6.18301 14.2714 6.28413 14.378 6.3551C14.4846 6.42607 14.6099 6.4637 14.7379 6.46321C14.9088 6.46343 15.0729 6.39561 15.194 6.27465C15.3152 6.15368 15.3835 5.98946 15.3839 5.81806H15.3814Z" fill="#96C8C8"/>
<path d="M13.2217 5.49627C13.2222 5.34707 13.1785 5.20107 13.0962 5.07676C13.0139 4.95245 12.8966 4.85541 12.7592 4.79794C12.6219 4.74046 12.4706 4.72513 12.3246 4.75388C12.1785 4.78262 12.0442 4.85416 11.9388 4.95944C11.8333 5.06471 11.7613 5.19899 11.732 5.34527C11.7027 5.49155 11.7173 5.64327 11.7741 5.78121C11.8308 5.91916 11.9271 6.03713 12.0507 6.12019C12.1744 6.20326 12.3198 6.24768 12.4687 6.24785C12.5673 6.24806 12.6651 6.22879 12.7563 6.19114C12.8476 6.15349 12.9305 6.09819 13.0004 6.0284C13.0704 5.95861 13.1259 5.8757 13.1639 5.78439C13.2018 5.69309 13.2215 5.59519 13.2217 5.49627Z" fill="#0C1219"/>
<path d="M13.1158 5.49596C13.1161 5.3678 13.0785 5.24242 13.0077 5.13571C12.9369 5.02899 12.8362 4.94572 12.7181 4.89645C12.6001 4.84718 12.4702 4.83412 12.3447 4.85892C12.2193 4.88373 12.104 4.94528 12.0135 5.03578C11.923 5.12629 11.8613 5.24168 11.8363 5.36735C11.8112 5.49302 11.8239 5.62332 11.8727 5.74176C11.9216 5.86019 12.0044 5.96143 12.1107 6.03267C12.217 6.1039 12.3419 6.14193 12.4698 6.14193C12.5545 6.14204 12.6384 6.12542 12.7167 6.09301C12.7951 6.06061 12.8663 6.01305 12.9262 5.95307C12.9862 5.89309 13.0338 5.82184 13.0664 5.74341C13.0989 5.66498 13.1157 5.58089 13.1158 5.49596Z" fill="#96C8C8"/>
<path d="M10.7808 5.94891C10.7813 5.79967 10.7376 5.65364 10.6552 5.52931C10.5728 5.40498 10.4555 5.30795 10.3181 5.25049C10.1807 5.19304 10.0294 5.17776 9.88334 5.20657C9.73726 5.23539 9.603 5.30701 9.49756 5.41236C9.39211 5.51772 9.32023 5.65207 9.291 5.79841C9.26178 5.94475 9.27653 6.09649 9.33339 6.23442C9.39025 6.37235 9.48666 6.49026 9.61041 6.57323C9.73416 6.65619 9.87969 6.70048 10.0286 6.70048C10.2277 6.7007 10.4188 6.62167 10.5598 6.48074C10.7009 6.33982 10.7803 6.14853 10.7808 5.94891Z" fill="#0C1219"/>
<path d="M10.6749 5.94893C10.6754 5.82074 10.6379 5.69528 10.5672 5.58846C10.4965 5.48163 10.3958 5.39824 10.2778 5.34884C10.1598 5.29944 10.0298 5.28626 9.90433 5.31097C9.77885 5.33568 9.66351 5.39716 9.57291 5.48764C9.48231 5.57811 9.42054 5.6935 9.39541 5.8192C9.37028 5.94489 9.38293 6.07523 9.43175 6.19371C9.48058 6.3122 9.56338 6.41349 9.66967 6.48476C9.77596 6.55603 9.90097 6.59408 10.0288 6.59408C10.1998 6.5943 10.3639 6.52648 10.485 6.40551C10.6062 6.28454 10.6744 6.12033 10.6749 5.94893Z" fill="#96C8C8"/>
<path d="M8.8164 7.41818C8.81738 7.26887 8.77411 7.12263 8.69209 6.998C8.61007 6.87336 8.49299 6.77595 8.35568 6.71809C8.21837 6.66023 8.06702 6.64454 7.9208 6.67301C7.77459 6.70148 7.6401 6.77282 7.53437 6.87799C7.42865 6.98317 7.35645 7.11744 7.32693 7.26379C7.29741 7.41014 7.3119 7.56198 7.36856 7.70007C7.42522 7.83815 7.52149 7.95627 7.64519 8.03945C7.76888 8.12262 7.91443 8.16711 8.06337 8.16728C8.16205 8.1675 8.25979 8.14823 8.35104 8.11058C8.44228 8.07292 8.52524 8.01762 8.59516 7.94783C8.66509 7.87804 8.72061 7.79513 8.75857 7.70383C8.79653 7.61252 8.81618 7.51462 8.8164 7.4157V7.41818Z" fill="#0C1219"/>
<path d="M8.71004 7.41832C8.71037 7.29016 8.67275 7.16479 8.60196 7.05807C8.53118 6.95135 8.43039 6.86809 8.31237 6.81882C8.19436 6.76955 8.06441 6.75648 7.93898 6.78129C7.81355 6.80609 7.69829 6.86764 7.60777 6.95814C7.51726 7.04865 7.45556 7.16404 7.4305 7.28971C7.40544 7.41539 7.41814 7.54569 7.46699 7.66412C7.51584 7.78256 7.59864 7.8838 7.70491 7.95503C7.81119 8.02627 7.93616 8.06429 8.064 8.06429C8.14873 8.0644 8.23266 8.04778 8.31098 8.01537C8.3893 7.98297 8.46049 7.93542 8.52048 7.87543C8.58047 7.81545 8.62809 7.74421 8.66061 7.66578C8.69314 7.58734 8.70993 7.50326 8.71004 7.41832Z" fill="#96C8C8"/>
<path d="M7.68311 9.57928C7.6836 9.43007 7.63992 9.28408 7.5576 9.15977C7.47528 9.03546 7.35802 8.93842 7.22067 8.88095C7.08331 8.82347 6.93204 8.80813 6.78598 8.83688C6.63993 8.86563 6.50567 8.93717 6.40019 9.04244C6.29472 9.14772 6.22276 9.28199 6.19345 9.42828C6.16413 9.57456 6.17876 9.72628 6.2355 9.86422C6.29223 10.0022 6.38851 10.1201 6.51215 10.2032C6.6358 10.2863 6.78124 10.3307 6.93009 10.3309C7.02876 10.3311 7.12651 10.3118 7.21775 10.2741C7.309 10.2365 7.39195 10.1812 7.46187 10.1114C7.5318 10.0416 7.58732 9.9587 7.62528 9.8674C7.66324 9.7761 7.68289 9.67819 7.68311 9.57928Z" fill="#0C1219"/>
<path d="M7.57772 9.57896C7.57804 9.45081 7.54043 9.32543 7.46964 9.21871C7.39885 9.112 7.29807 9.02873 7.18005 8.97946C7.06203 8.93019 6.93208 8.91713 6.80666 8.94193C6.68123 8.96673 6.56596 9.02828 6.47545 9.11879C6.38493 9.20929 6.32324 9.32469 6.29818 9.45036C6.27312 9.57603 6.28582 9.70633 6.33466 9.82477C6.38351 9.9432 6.46631 10.0444 6.57259 10.1157C6.67887 10.1869 6.80384 10.2249 6.93168 10.2249C7.01641 10.225 7.10033 10.2084 7.17866 10.176C7.25698 10.1436 7.32817 10.0961 7.38816 10.0361C7.44815 9.97609 7.49576 9.90485 7.52829 9.82642C7.56081 9.74799 7.57761 9.6639 7.57772 9.57896Z" fill="#96C8C8"/>
<path d="M22.0178 5.81774C22.0184 5.66827 21.9748 5.52197 21.8924 5.39738C21.81 5.27279 21.6926 5.17552 21.555 5.1179C21.4174 5.06029 21.2659 5.04491 21.1196 5.07373C20.9732 5.10256 20.8388 5.17427 20.7332 5.27979C20.6275 5.38531 20.5556 5.51989 20.5263 5.66646C20.4971 5.81304 20.5119 5.96501 20.569 6.10313C20.626 6.24124 20.7226 6.35928 20.8466 6.44227C20.9707 6.52526 21.1165 6.56948 21.2656 6.56932C21.4647 6.56954 21.6558 6.4905 21.7968 6.34958C21.9379 6.20866 22.0173 6.01737 22.0178 5.81774Z" fill="#0C1219"/>
<path d="M21.9117 5.81807C21.9122 5.68988 21.8747 5.56442 21.804 5.4576C21.7333 5.35077 21.6326 5.26738 21.5146 5.21798C21.3966 5.16858 21.2666 5.1554 21.1411 5.18011C21.0157 5.20482 20.9003 5.26631 20.8097 5.35678C20.7191 5.44725 20.6574 5.56264 20.6322 5.68834C20.6071 5.81403 20.6197 5.94437 20.6686 6.06285C20.7174 6.18134 20.8002 6.28263 20.9065 6.3539C21.0128 6.42517 21.1378 6.46322 21.2657 6.46322C21.4366 6.46344 21.6007 6.39562 21.7218 6.27465C21.843 6.15369 21.9113 5.98947 21.9117 5.81807Z" fill="#96C8C8"/>
<path d="M24.2842 5.49627C24.2847 5.34703 24.241 5.201 24.1586 5.07667C24.0763 4.95234 23.959 4.85531 23.8216 4.79786C23.6841 4.74041 23.5328 4.72512 23.3868 4.75393C23.2407 4.78275 23.1064 4.85437 23.001 4.95973C22.8955 5.06508 22.8236 5.19944 22.7944 5.34578C22.7652 5.49211 22.7799 5.64386 22.8368 5.78178C22.8937 5.91971 22.9901 6.03763 23.1138 6.12059C23.2376 6.20356 23.3831 6.24785 23.532 6.24785C23.7311 6.24807 23.9222 6.16903 24.0632 6.02811C24.2043 5.88718 24.2837 5.6959 24.2842 5.49627Z" fill="#0C1219"/>
<path d="M24.1773 5.49596C24.1777 5.3678 24.14 5.24242 24.0693 5.13571C23.9985 5.02899 23.8977 4.94572 23.7797 4.89645C23.6616 4.84718 23.5317 4.83412 23.4063 4.85892C23.2808 4.88373 23.1656 4.94528 23.0751 5.03578C22.9845 5.12629 22.9229 5.24168 22.8978 5.36735C22.8727 5.49302 22.8854 5.62332 22.9343 5.74176C22.9831 5.86019 23.0659 5.96143 23.1722 6.03267C23.2785 6.1039 23.4034 6.14193 23.5313 6.14193C23.616 6.14204 23.6999 6.12542 23.7783 6.09301C23.8566 6.06061 23.9278 6.01305 23.9878 5.95307C24.0478 5.89309 24.0954 5.82184 24.1279 5.74341C24.1604 5.66498 24.1772 5.58089 24.1773 5.49596Z" fill="#96C8C8"/>
<path d="M26.7243 5.94909C26.725 5.79962 26.6813 5.65332 26.5989 5.52873C26.5166 5.40414 26.3991 5.30687 26.2615 5.24925C26.124 5.19163 25.9724 5.17626 25.8261 5.20508C25.6798 5.2339 25.5453 5.30562 25.4397 5.41114C25.3341 5.51666 25.2621 5.65124 25.2329 5.79781C25.2036 5.94439 25.2185 6.09636 25.2755 6.23448C25.3325 6.37259 25.4292 6.49062 25.5532 6.57362C25.6772 6.65661 25.823 6.70083 25.9721 6.70067C26.1712 6.70089 26.3623 6.62185 26.5034 6.48093C26.6444 6.34 26.7239 6.14872 26.7243 5.94909Z" fill="#0C1219"/>
<path d="M26.6182 5.94893C26.6187 5.82074 26.5813 5.69528 26.5106 5.58846C26.4399 5.48163 26.3392 5.39824 26.2211 5.34884C26.1031 5.29944 25.9732 5.28626 25.8477 5.31097C25.7222 5.33568 25.6069 5.39716 25.5163 5.48764C25.4257 5.57811 25.3639 5.6935 25.3388 5.8192C25.3136 5.94489 25.3263 6.07523 25.3751 6.19371C25.4239 6.3122 25.5067 6.41349 25.613 6.48476C25.7193 6.55603 25.8443 6.59408 25.9722 6.59408C26.1432 6.5943 26.3073 6.52648 26.4284 6.40551C26.5495 6.28454 26.6178 6.12033 26.6182 5.94893Z" fill="#96C8C8"/>
<path d="M28.6886 7.41836C28.6898 7.26879 28.6466 7.12225 28.5645 6.99733C28.4824 6.87242 28.3652 6.77477 28.2276 6.71677C28.0901 6.65877 27.9384 6.64304 27.792 6.67158C27.6455 6.70012 27.5108 6.77164 27.4049 6.87706C27.2991 6.98248 27.2268 7.11705 27.1974 7.26369C27.168 7.41033 27.1827 7.56243 27.2396 7.70069C27.2966 7.83895 27.3932 7.95713 27.5173 8.04024C27.6413 8.12334 27.7872 8.16762 27.9364 8.16746C28.1356 8.16768 28.3267 8.08865 28.4677 7.94773C28.6087 7.8068 28.6882 7.61551 28.6886 7.41589V7.41836Z" fill="#0C1219"/>
<path d="M28.5826 7.41832C28.5829 7.29016 28.5453 7.16479 28.4745 7.05807C28.4037 6.95135 28.303 6.86809 28.1849 6.81882C28.0669 6.76955 27.937 6.75648 27.8115 6.78129C27.6861 6.80609 27.5708 6.86764 27.4803 6.95814C27.3898 7.04865 27.3281 7.16404 27.3031 7.28971C27.278 7.41539 27.2907 7.54569 27.3395 7.66412C27.3884 7.78256 27.4712 7.8838 27.5775 7.95503C27.6837 8.02627 27.8087 8.06429 27.9366 8.06429C28.0213 8.0644 28.1052 8.04778 28.1835 8.01537C28.2619 7.98297 28.333 7.93542 28.393 7.87543C28.453 7.81545 28.5006 7.74421 28.5332 7.66578C28.5657 7.58734 28.5825 7.50326 28.5826 7.41832Z" fill="#96C8C8"/>
<path d="M29.8223 9.57928C29.8228 9.43004 29.7791 9.28401 29.6967 9.15968C29.6143 9.03535 29.497 8.93832 29.3596 8.88087C29.2222 8.82341 29.0709 8.80813 28.9248 8.83694C28.7788 8.86576 28.6445 8.93738 28.5391 9.04273C28.4336 9.14809 28.3617 9.28245 28.3325 9.42878C28.3033 9.57512 28.318 9.72686 28.3749 9.86479C28.4318 10.0027 28.5282 10.1206 28.6519 10.2036C28.7757 10.2866 28.9212 10.3309 29.0701 10.3309C29.2692 10.3311 29.4603 10.252 29.6013 10.1111C29.7424 9.97019 29.8218 9.7789 29.8223 9.57928Z" fill="#0C1219"/>
<path d="M29.7159 9.57896C29.7162 9.45081 29.6786 9.32543 29.6078 9.21871C29.537 9.112 29.4363 9.02873 29.3182 8.97946C29.2002 8.93019 29.0703 8.91713 28.9448 8.94193C28.8194 8.96673 28.7041 9.02828 28.6136 9.11879C28.5231 9.20929 28.4614 9.32469 28.4364 9.45036C28.4113 9.57603 28.424 9.70633 28.4728 9.82477C28.5217 9.9432 28.6045 10.0444 28.7108 10.1157C28.8171 10.1869 28.942 10.2249 29.0699 10.2249C29.1546 10.225 29.2385 10.2084 29.3168 10.176C29.3952 10.1436 29.4663 10.0961 29.5263 10.0361C29.5863 9.97609 29.6339 9.90485 29.6665 9.82642C29.699 9.74799 29.7158 9.6639 29.7159 9.57896Z" fill="#96C8C8"/>
<path d="M16.6628 12.5681L15.323 7.34257C14.2202 6.86902 12.9972 6.60007 11.7965 6.76507C10.8168 6.88517 9.90571 7.33139 9.20907 8.03227C8.43959 8.81932 8.0281 9.85387 7.94498 10.9429C7.84293 12.2736 8.22973 13.601 8.85766 14.7643L8.89799 14.8088C9.34934 14.8183 9.78712 14.9653 10.153 15.2304C10.5075 15.5002 10.8004 15.8428 11.0122 16.2352C11.0254 15.388 11.1315 14.4549 11.4566 13.7033C11.6862 13.1737 12.0796 12.6308 12.6911 12.5376C13.3026 12.4444 13.8433 12.8305 14.2317 13.2553C14.7395 13.813 15.109 14.5646 15.3715 15.2947C15.5839 14.0044 16.0678 13.0953 16.6628 12.5681Z" fill="#DC231E"/>
<path d="M19.3374 12.5681L20.6772 7.34257C21.78 6.86902 23.0029 6.60007 24.2037 6.76507C25.1834 6.8851 26.0945 7.33134 26.7911 8.03227C27.5606 8.81932 27.9721 9.85387 28.0552 10.9429C28.1564 12.2736 27.7704 13.601 27.1417 14.7643L27.1014 14.8088C26.6504 14.8191 26.2132 14.9667 25.848 15.232C25.4934 15.5017 25.2004 15.8444 24.9888 16.2369C24.9756 15.3896 24.8695 14.4565 24.5444 13.705C24.3148 13.1753 23.9214 12.6325 23.3099 12.5392C22.6984 12.446 22.1577 12.8321 21.7693 13.257C21.2615 13.8147 20.892 14.5663 20.6295 15.2964C20.4171 14.0053 19.9332 13.0961 19.3382 12.5689L19.3374 12.5681Z" fill="#DC231E"/>
<path d="M18.0002 5.98612C17.8279 5.98661 17.6596 6.03829 17.5166 6.13462C17.3736 6.23096 17.2623 6.36762 17.1967 6.52736C17.1312 6.68709 17.1143 6.86272 17.1483 7.03206C17.1822 7.20139 17.2655 7.35683 17.3876 7.47874C17.5097 7.60064 17.665 7.68354 17.8341 7.71696C18.0031 7.75038 18.1783 7.73282 18.3374 7.66649C18.4964 7.60017 18.6324 7.48806 18.7279 7.34433C18.8235 7.2006 18.8744 7.0317 18.8742 6.85897C18.8736 6.62711 18.7812 6.40498 18.6173 6.24133C18.4535 6.07769 18.2315 5.9859 18.0002 5.98612ZM18.0002 5.98612C17.8279 5.98661 17.6596 6.03829 17.5166 6.13462C17.3736 6.23096 17.2623 6.36762 17.1967 6.52736C17.1312 6.68709 17.1143 6.86272 17.1483 7.03206C17.1822 7.20139 17.2655 7.35683 17.3876 7.47874C17.5097 7.60064 17.665 7.68354 17.8341 7.71696C18.0031 7.75038 18.1783 7.73282 18.3374 7.66649C18.4964 7.60017 18.6324 7.48806 18.7279 7.34433C18.8235 7.2006 18.8744 7.0317 18.8742 6.85897C18.8736 6.62711 18.7812 6.40498 18.6173 6.24133C18.4535 6.07769 18.2315 5.9859 18.0002 5.98612ZM20.0346 6.85897C20.0339 6.32703 19.8255 5.81649 19.4541 5.43659C19.0826 5.05669 18.5777 4.83759 18.0471 4.82617C18.1846 4.83829 18.3122 4.90313 18.4031 5.00719C18.4941 5.11125 18.5415 5.24649 18.5355 5.38472C18.5294 5.52295 18.4704 5.65351 18.3707 5.74919C18.271 5.84486 18.1383 5.89826 18.0002 5.89826C17.8622 5.89826 17.7295 5.84486 17.6298 5.74919C17.5301 5.65351 17.471 5.52295 17.465 5.38472C17.4589 5.24649 17.5063 5.11125 17.5973 5.00719C17.6883 4.90313 17.8158 4.83829 17.9533 4.82617C17.4228 4.83759 16.9178 5.05669 16.5464 5.43659C16.1749 5.81649 15.9666 6.32703 15.9658 6.85897C15.9653 7.11969 16.0153 7.37803 16.1131 7.61962C16.0896 7.5583 16.0776 7.49312 16.0777 7.4274C16.0779 7.30366 16.1207 7.18377 16.1989 7.08802C16.2771 6.99226 16.3859 6.9265 16.5068 6.90186C16.6278 6.87722 16.7535 6.89521 16.8628 6.95278C16.9721 7.01036 17.0581 7.10399 17.1065 7.21785C17.009 6.97991 17.0095 6.71294 17.1078 6.47536C17.2062 6.23778 17.3944 6.04894 17.6314 5.95015C17.8683 5.85137 18.1346 5.85069 18.372 5.94826C18.6095 6.04584 18.7987 6.23372 18.8982 6.47079C18.9978 6.70787 18.9997 6.97483 18.9034 7.21326C18.8071 7.4517 18.6205 7.64218 18.3844 7.74304C18.1484 7.84389 17.8821 7.84691 17.6438 7.75142C17.4055 7.65593 17.2147 7.46971 17.1131 7.23352C17.1528 7.36174 17.1431 7.50022 17.086 7.62167C17.0289 7.74311 16.9285 7.83872 16.8046 7.88965C16.6807 7.94058 16.5422 7.94314 16.4165 7.89682C16.2908 7.85051 16.187 7.75868 16.1255 7.63942C16.2805 8.01072 16.5416 8.3278 16.8759 8.5508C17.2102 8.77379 17.6028 8.89277 18.0043 8.89277C18.4059 8.89277 18.7985 8.77379 19.1328 8.5508C19.467 8.3278 19.7281 8.01072 19.8832 7.63942C19.8333 7.76166 19.74 7.86102 19.6213 7.91829C19.5025 7.97556 19.3669 7.98668 19.2404 7.94949C19.114 7.9123 19.0058 7.82944 18.9368 7.71694C18.8678 7.60444 18.8428 7.47028 18.8668 7.3404C18.8907 7.21053 18.9618 7.09415 19.0663 7.01377C19.1709 6.93339 19.3014 6.89472 19.4328 6.90523C19.5641 6.91574 19.6869 6.97469 19.7774 7.07068C19.8679 7.16667 19.9196 7.29288 19.9227 7.42492C19.9226 7.49069 19.9103 7.55587 19.8865 7.61715C19.9843 7.37639 20.0346 7.11892 20.0346 6.85897Z" fill="#C8A064"/>
<path d="M17.9998 5.89698C17.8427 5.89647 17.6878 5.93465 17.5488 6.00819C17.4098 6.08172 17.291 6.18834 17.2027 6.31869C17.1145 6.44904 17.0595 6.59912 17.0426 6.75575C17.0258 6.91238 17.0476 7.07076 17.1061 7.21698C17.1086 7.22205 17.1108 7.22729 17.1126 7.23265C17.1797 7.39378 17.2891 7.53364 17.4292 7.63732C17.5693 7.741 17.7349 7.80461 17.9082 7.82137C18.0816 7.83813 18.2562 7.80741 18.4135 7.73248C18.5708 7.65755 18.7048 7.54122 18.8014 7.39591C18.8979 7.2506 18.9532 7.08175 18.9615 6.90737C18.9698 6.73299 18.9308 6.55962 18.8485 6.40575C18.7662 6.25189 18.6438 6.1233 18.4943 6.0337C18.3449 5.94409 18.174 5.89684 17.9998 5.89698ZM17.9998 7.7326C17.8275 7.73211 17.6593 7.68046 17.5163 7.58416C17.3733 7.48786 17.262 7.35124 17.1964 7.19156C17.1308 7.03187 17.1139 6.85628 17.1478 6.68697C17.1817 6.51766 17.2649 6.36221 17.3869 6.24028C17.5089 6.11834 17.6642 6.03537 17.8332 6.00186C18.0022 5.96835 18.1773 5.9858 18.3364 6.052C18.4955 6.11819 18.6314 6.23018 18.7271 6.3738C18.8228 6.51742 18.8738 6.68624 18.8738 6.85893C18.8734 7.09094 18.7811 7.31328 18.6172 7.4771C18.4533 7.64092 18.2313 7.73282 17.9998 7.7326Z" fill="#0C1219"/>
<path d="M19.8984 7.84912C19.7165 8.19588 19.4436 8.48622 19.109 8.68877C18.7745 8.89131 18.3911 8.99837 18.0002 8.99837C17.6094 8.99837 17.226 8.89131 16.8915 8.68877C16.5569 8.48622 16.284 8.19588 16.1021 7.84912L16.5325 9.49417C16.5272 9.46282 16.5245 9.43109 16.5242 9.3993C16.5239 9.26157 16.5751 9.12874 16.6678 9.02709C16.7605 8.92545 16.8879 8.86241 17.0248 8.85047C17.1617 8.83852 17.298 8.87854 17.4069 8.9626C17.5157 9.04665 17.5891 9.16861 17.6124 9.30433C17.6358 9.44004 17.6075 9.57961 17.5331 9.69539C17.4587 9.81118 17.3437 9.89473 17.2107 9.9295C17.0778 9.96427 16.9367 9.94773 16.8153 9.88315C16.694 9.81857 16.6013 9.71066 16.5555 9.5808L17.2378 12.1903C17.477 12.0798 17.7373 12.0226 18.0007 12.0226C18.2641 12.0226 18.5243 12.0798 18.7636 12.1903L19.4466 9.57997C19.4015 9.70965 19.3095 9.81761 19.1888 9.88249C19.068 9.94736 18.9274 9.9644 18.7947 9.93024C18.662 9.89608 18.547 9.81321 18.4723 9.69804C18.3977 9.58287 18.369 9.44381 18.3918 9.3084C18.4146 9.173 18.4873 9.05112 18.5956 8.96692C18.7038 8.88271 18.8396 8.84233 18.9761 8.85376C19.1126 8.8652 19.2399 8.92761 19.3327 9.02865C19.4254 9.12968 19.477 9.26197 19.4771 9.3993C19.4769 9.43136 19.4741 9.46336 19.4689 9.495L19.8984 7.84912ZM19.0903 10.7704C19.0909 10.9868 19.0275 11.1985 18.9081 11.3786C18.7887 11.5588 18.6186 11.6995 18.4194 11.7827C18.2202 11.866 18.0009 11.8881 17.7891 11.8463C17.5774 11.8045 17.3828 11.7006 17.2299 11.5479C17.0771 11.3951 16.9729 11.2004 16.9306 10.9882C16.8882 10.7761 16.9097 10.5561 16.9921 10.3562C17.0745 10.1563 17.2143 9.98534 17.3937 9.86508C17.5731 9.74482 17.784 9.68062 17.9998 9.68062C18.1428 9.6804 18.2844 9.70842 18.4166 9.76307C18.5488 9.81772 18.669 9.89794 18.7702 9.99914C18.8715 10.1003 18.9519 10.2205 19.0068 10.3529C19.0617 10.4852 19.0901 10.6271 19.0903 10.7704Z" fill="#C8A064"/>
<path d="M7.6535 15.8312C8.12259 15.9425 8.90607 16.2197 9.66814 17.6816C10.3043 18.9035 10.7339 20.6005 11.2318 21.7489C11.505 22.3767 12.0548 22.9212 14.0184 22.9963C16.6643 23.0978 19.3324 23.0978 21.9774 22.9963C23.9443 22.9204 24.4908 22.3767 24.764 21.7489C25.2636 20.6005 25.6932 18.9035 26.3277 17.6816C27.0897 16.2197 27.8732 15.9434 28.3423 15.8312C29.0624 15.6596 28.5217 15.1835 28.0888 15.0565C26.1326 14.479 25.2907 15.7932 24.8792 16.676C24.9763 11.4925 21.9297 11.4067 20.5841 15.7685C20.064 10.9216 15.9359 10.9216 15.415 15.7685C14.0694 11.41 11.0228 11.495 11.1199 16.676C10.7026 15.7932 9.86319 14.4798 7.91027 15.0565C7.47491 15.1802 6.93421 15.6596 7.6535 15.8312Z" fill="white"/>
<path d="M18.0001 20.1367C19.414 20.1367 21.0065 20.2737 22.3619 20.6862C22.938 20.8602 24.2111 21.3181 24.2111 22.0738C24.2111 22.2999 24.1214 22.356 23.9387 22.4541C23.3816 22.7536 22.5973 22.8303 21.9718 22.8543C19.324 22.956 16.6746 22.956 14.0235 22.8543C13.398 22.8303 12.6137 22.7536 12.0566 22.4541C11.8739 22.356 11.7842 22.2999 11.7842 22.0738C11.7842 21.3181 13.0606 20.8602 13.6342 20.6862C14.9938 20.2737 16.5863 20.1367 18.0001 20.1367Z" fill="#0C1219"/>
<path d="M19.2198 16.4281L19.3021 16.3852L18.1417 14.3846H18.5532C18.5622 14.4418 18.5868 14.4954 18.6242 14.5395C18.6617 14.5836 18.7105 14.6165 18.7655 14.6345C18.8204 14.6525 18.8792 14.6549 18.9354 14.6415C18.9916 14.6282 19.0431 14.5995 19.084 14.5586C19.4848 14.1585 18.6363 13.7485 18.5532 14.2913H18.0479V13.9036C18.1049 13.8949 18.1584 13.8706 18.2024 13.8334C18.2464 13.7961 18.2793 13.7473 18.2974 13.6925C18.3155 13.6376 18.318 13.5788 18.3048 13.5226C18.2915 13.4663 18.263 13.4149 18.2224 13.3739C17.8208 12.9722 17.4126 13.8219 17.9541 13.9036V14.2913H17.4488C17.4374 14.2173 17.3999 14.1498 17.3431 14.1011C17.2864 14.0523 17.2141 14.0256 17.1393 14.0257C17.0983 14.0256 17.0576 14.0337 17.0198 14.0496C16.9819 14.0655 16.9476 14.0887 16.9188 14.1181C16.518 14.5182 17.3656 14.9274 17.4488 14.3854H17.8603L16.7007 16.386L16.783 16.4322L17.9565 14.4077V15.0107L17.0513 16.5725L17.1336 16.6154L17.9516 15.2038V16.8299H18.0454V15.203L18.8626 16.6112L18.9449 16.5683L18.0438 15.0099V14.4068L19.2198 16.4281ZM19.0174 14.1833C19.0481 14.2138 19.069 14.2529 19.0775 14.2954C19.086 14.338 19.0817 14.3821 19.0651 14.4222C19.0485 14.4622 19.0204 14.4964 18.9843 14.5205C18.9483 14.5445 18.9059 14.5572 18.8626 14.557C18.4413 14.557 18.7186 13.8863 19.0174 14.1833ZM17.1393 14.557C16.7196 14.557 16.9961 13.8863 17.294 14.1833C17.3248 14.2139 17.3458 14.253 17.3542 14.2956C17.3627 14.3382 17.3583 14.3824 17.3416 14.4225C17.3249 14.4627 17.2967 14.4969 17.2605 14.5208C17.2243 14.5448 17.1819 14.5573 17.1385 14.557H17.1393ZM18.001 13.8145C17.5813 13.8145 17.8578 13.1438 18.1557 13.4408C18.1859 13.4715 18.2064 13.5104 18.2145 13.5528C18.2227 13.5951 18.2181 13.6389 18.2015 13.6787C18.1849 13.7185 18.1569 13.7524 18.1211 13.7763C18.0852 13.8002 18.0432 13.8129 18.0002 13.8128L18.001 13.8145Z" fill="#0C1219"/>
<path d="M20.8177 17.6741C20.823 17.7317 20.844 17.7867 20.8784 17.8331C20.9128 17.8795 20.9592 17.9155 21.0127 17.9373C21.0661 17.959 21.1245 17.9655 21.1814 17.9562C21.2383 17.9469 21.2916 17.9221 21.3354 17.8845C21.7567 17.4909 20.9412 17.0595 20.8251 17.5809L20.3206 17.5454L20.3478 17.1585C20.4053 17.1538 20.4604 17.1333 20.5069 17.0992C20.5535 17.0651 20.5897 17.0187 20.6115 16.9652C20.6333 16.9116 20.6399 16.8531 20.6306 16.7961C20.6212 16.739 20.5963 16.6857 20.5585 16.642C20.1651 16.2204 19.7355 17.0355 20.254 17.1519L20.2268 17.5388L19.7232 17.5033C19.7169 17.4288 19.6842 17.359 19.6311 17.3065C19.578 17.254 19.5079 17.2223 19.4335 17.217C19.3925 17.2138 19.3513 17.2189 19.3122 17.2319C19.2732 17.245 19.2372 17.2657 19.2063 17.2929C18.7841 17.6856 19.5997 18.1179 19.7166 17.5965L20.1281 17.6254L18.8311 19.5402L18.9092 19.5914L20.226 17.6535L20.1832 18.2557L19.1677 19.7506L19.2499 19.8001L20.1651 18.4488L20.0515 20.0715L20.1453 20.0781L20.2589 18.4554L20.9749 19.9181L21.0621 19.8801L20.2721 18.2631L20.3141 17.6609L21.3428 19.7597L21.4251 19.7226L20.4079 17.646L20.8177 17.6741ZM21.2959 17.5091C21.3241 17.5419 21.342 17.5824 21.3473 17.6253C21.3526 17.6683 21.3451 17.7119 21.3257 17.7507C21.3064 17.7894 21.276 17.8215 21.2385 17.843C21.201 17.8644 21.1579 17.8743 21.1148 17.8713C20.6967 17.8383 21.0177 17.1882 21.2959 17.505V17.5091ZM19.3964 17.7508C18.9759 17.7219 19.301 17.0718 19.5767 17.3895C19.6036 17.4222 19.6204 17.4622 19.625 17.5044C19.6297 17.5465 19.622 17.5892 19.6029 17.6271C19.5838 17.6649 19.5541 17.6964 19.5174 17.7177C19.4808 17.7389 19.4387 17.749 19.3964 17.7467V17.7508ZM20.3075 17.0694C19.8886 17.0405 20.212 16.3904 20.4877 16.708C20.5146 16.7408 20.5314 16.7807 20.5361 16.8229C20.5407 16.8651 20.533 16.9077 20.5139 16.9456C20.4948 16.9835 20.4651 17.015 20.4285 17.0362C20.3918 17.0575 20.3498 17.0675 20.3075 17.0652V17.0694Z" fill="#0C1219"/>
<path d="M17.172 19.5407L15.875 17.6259L16.2865 17.597C16.4034 18.1201 17.219 17.6861 16.7976 17.2934C16.7666 17.2663 16.7306 17.2457 16.6916 17.2326C16.6526 17.2196 16.6114 17.2145 16.5705 17.2175C16.496 17.2226 16.4258 17.2543 16.3726 17.3068C16.3195 17.3593 16.2869 17.4292 16.2808 17.5038L15.7763 17.5393L15.7491 17.1524C16.2717 17.036 15.838 16.2209 15.4446 16.6425C15.4068 16.6862 15.3819 16.7395 15.3725 16.7966C15.3632 16.8536 15.3698 16.9121 15.3916 16.9656C15.4134 17.0191 15.4496 17.0655 15.4962 17.0997C15.5427 17.1338 15.5978 17.1543 15.6553 17.159L15.6825 17.5459L15.1788 17.5814C15.0628 17.0591 14.2464 17.4914 14.6686 17.885C14.7122 17.9226 14.7655 17.9475 14.8224 17.9569C14.8793 17.9662 14.9376 17.9597 14.991 17.9379C15.0444 17.9162 15.0908 17.8801 15.1251 17.8336C15.1594 17.7872 15.1803 17.7321 15.1854 17.6746L15.5969 17.6465L14.5731 19.7222L14.6554 19.7594L15.6833 17.6606L15.7253 18.2628L14.9401 19.8823L15.0224 19.9202L15.7392 18.4575L15.8528 20.0803L15.9458 20.0737L15.8322 18.4509L16.7515 19.7998L16.8338 19.7503L15.824 18.2562L15.782 17.654L17.0939 19.5919L17.172 19.5407ZM16.4231 17.385C16.6988 17.0674 17.0239 17.715 16.6042 17.7464C16.5611 17.7496 16.518 17.74 16.4804 17.7186C16.4428 17.6973 16.4123 17.6652 16.3929 17.6265C16.3735 17.5878 16.366 17.5441 16.3714 17.5011C16.3768 17.4581 16.3948 17.4177 16.4231 17.385ZM14.885 17.8668C14.842 17.8696 14.799 17.8597 14.7616 17.8381C14.7242 17.8166 14.694 17.7845 14.6748 17.7458C14.6555 17.7071 14.6481 17.6636 14.6534 17.6207C14.6588 17.5778 14.6766 17.5374 14.7048 17.5046C14.9846 17.1878 15.3031 17.8379 14.885 17.8668ZM15.6923 17.0649C15.6493 17.068 15.6063 17.0582 15.5688 17.0368C15.5314 17.0154 15.5011 16.9833 15.4818 16.9446C15.4625 16.9059 15.4551 16.8624 15.4605 16.8195C15.4659 16.7766 15.4838 16.7362 15.5121 16.7036C15.7886 16.3859 16.1112 17.036 15.6923 17.0649Z" fill="#0C1219"/>
<path d="M24.6045 18.4526L24.1263 18.2876L24.2531 17.9213C24.5526 17.9765 24.6958 17.6259 24.5897 17.4766C24.23 16.9709 23.7288 17.6639 24.1634 17.8891L24.0375 18.2579L23.5593 18.0929C23.5726 18.0192 23.5592 17.9432 23.5215 17.8785C23.4837 17.8139 23.4242 17.765 23.3536 17.7406C23.2753 17.7136 23.1895 17.7186 23.1149 17.7546C22.6047 18.0071 23.2795 18.6621 23.5264 18.1811L23.914 18.314L22.166 19.8287L22.2277 19.898L23.9971 18.3659L23.8004 18.936L22.4409 20.1207L22.5067 20.1884L23.7412 19.1208L23.2145 20.6578L23.3034 20.6883L23.8334 19.1505L24.1461 20.7485L24.2399 20.7345L23.8959 18.9682L24.0926 18.3973L24.5428 20.6908L24.6349 20.6768L24.1897 18.408L24.5773 18.5417C24.509 18.9162 25.0563 19.0622 25.1814 18.6992C25.3065 18.3362 24.7781 18.1151 24.6045 18.4526ZM24.5057 17.5187C24.5245 17.5577 24.5313 17.6013 24.5253 17.6442C24.5193 17.6871 24.5008 17.7272 24.4722 17.7596C24.4435 17.792 24.4059 17.8151 24.3641 17.8261C24.3224 17.8371 24.2783 17.8355 24.2374 17.8214C23.8399 17.6853 24.3214 17.14 24.5057 17.5187ZM23.1807 18.2438C22.7841 18.1069 23.263 17.5632 23.449 17.9411C23.4678 17.9801 23.4746 18.0237 23.4686 18.0666C23.4626 18.1095 23.4441 18.1496 23.4155 18.182C23.3868 18.2144 23.3492 18.2375 23.3074 18.2485C23.2657 18.2595 23.2216 18.2579 23.1807 18.2438ZM24.8102 18.8048C24.4127 18.6679 24.8925 18.1234 25.0777 18.5021C25.0963 18.541 25.1031 18.5845 25.0971 18.6273C25.0912 18.6701 25.0727 18.7101 25.0442 18.7424C25.0156 18.7747 24.9782 18.7979 24.9366 18.809C24.895 18.8201 24.851 18.8186 24.8102 18.8048Z" fill="#0C1219"/>
<path d="M13.8326 19.8304L12.0838 18.3149L12.4714 18.182C12.7233 18.6655 13.3965 18.0088 12.8829 17.7563C12.8461 17.7382 12.806 17.7275 12.7651 17.7249C12.7241 17.7224 12.683 17.728 12.6442 17.7415C12.5734 17.7656 12.5137 17.8145 12.4759 17.8792C12.4381 17.9439 12.4248 18.0201 12.4385 18.0938L11.9604 18.2588L11.8344 17.8925C12.269 17.6656 11.7678 16.9726 11.4081 17.48C11.302 17.6293 11.446 17.9799 11.7456 17.9246L11.8723 18.2909L11.3941 18.4559C11.2172 18.1185 10.6963 18.3413 10.8181 18.7034C10.9399 19.0656 11.4904 18.9204 11.4213 18.5459L11.8089 18.4122L11.3637 20.681L11.4567 20.695L11.906 18.4015L12.1027 18.9724L11.7587 20.7387L11.8575 20.7486L12.1702 19.1506L12.7002 20.6884L12.7891 20.6579L12.2591 19.1209L13.4936 20.1884L13.5586 20.1208L12.1965 18.9377L11.9999 18.3677L13.7693 19.8997L13.8326 19.8304ZM12.5513 17.9411C12.7364 17.5633 13.217 18.1061 12.8195 18.2439C12.7787 18.258 12.7346 18.2596 12.6929 18.2486C12.6511 18.2376 12.6135 18.2144 12.5848 18.1821C12.5561 18.1497 12.5377 18.1096 12.5317 18.0667C12.5257 18.0238 12.5325 17.9801 12.5513 17.9411ZM11.4945 17.5187C11.6797 17.1401 12.1603 17.6837 11.7628 17.8215C11.722 17.8356 11.6779 17.8372 11.6362 17.8262C11.5944 17.8152 11.5568 17.792 11.5281 17.7597C11.4994 17.7273 11.481 17.6872 11.475 17.6443C11.469 17.6014 11.4758 17.5577 11.4945 17.5187ZM11.1909 18.8049C11.15 18.819 11.1059 18.8206 11.0642 18.8096C11.0224 18.7986 10.9848 18.7754 10.9562 18.7431C10.9275 18.7107 10.909 18.6706 10.903 18.6277C10.897 18.5848 10.9038 18.5411 10.9226 18.5021C11.1069 18.1235 11.5884 18.668 11.1909 18.8049Z" fill="#0C1219"/>
<path d="M23.5559 14.9928L23.0621 14.8789L23.1493 14.5011C23.5287 14.5308 23.6168 13.9714 23.2431 13.8848C22.8695 13.7982 22.7033 14.341 23.058 14.4804L22.9707 14.8575L22.4769 14.7444C22.4826 14.6696 22.4615 14.5953 22.4172 14.5347C22.373 14.4742 22.3087 14.4316 22.2358 14.4144C22.1551 14.3959 22.0703 14.4101 22 14.454C21.9296 14.4979 21.8795 14.5679 21.8605 14.6487C21.7782 15.0216 22.3156 15.1883 22.4564 14.8344L22.8555 14.9259L21.2754 16.6147L21.3445 16.6782L22.9436 14.9688L22.8078 15.5571L21.5733 16.8771L21.6449 16.9381L22.76 15.7468L22.3946 17.3316L22.486 17.3523L22.8522 15.7674L23.3361 17.325L23.4283 17.3019L22.9016 15.581L23.0374 14.9928L23.7237 17.2269L23.8151 17.2038L23.132 14.9919L23.5312 15.0843C23.5024 15.4638 24.062 15.5513 24.1484 15.1784C24.2348 14.8055 23.6958 14.6388 23.5559 14.9928ZM22.1181 14.9325C21.7066 14.8385 22.1305 14.247 22.3535 14.6025C22.3765 14.6394 22.388 14.6822 22.3866 14.7257C22.3853 14.7691 22.3711 14.8111 22.3459 14.8465C22.3207 14.8818 22.2856 14.9089 22.2451 14.9242C22.2045 14.9395 22.1603 14.9424 22.1181 14.9325ZM23.36 14.0729C23.3829 14.1097 23.3943 14.1524 23.393 14.1957C23.3917 14.2391 23.3776 14.281 23.3525 14.3163C23.3274 14.3516 23.2925 14.3787 23.252 14.3941C23.2116 14.4095 23.1676 14.4126 23.1254 14.4029C22.7205 14.3088 23.137 13.7165 23.36 14.0737V14.0729ZM23.7978 15.3203C23.3863 15.2262 23.8093 14.6339 24.0324 14.9903C24.0555 15.0271 24.0672 15.0699 24.066 15.1134C24.0648 15.1569 24.0507 15.199 24.0256 15.2345C24.0005 15.2699 23.9654 15.2971 23.9249 15.3125C23.8843 15.3279 23.8401 15.3309 23.7978 15.3211V15.3203Z" fill="#0C1219"/>
<path d="M14.7238 16.6165L13.1429 14.9277L13.542 14.8362C13.7288 15.3097 14.4712 14.8362 13.9988 14.4558C13.9272 14.415 13.8435 14.401 13.7626 14.4162C13.6895 14.433 13.6248 14.4756 13.5804 14.5362C13.536 14.5967 13.5148 14.6713 13.5206 14.7462L13.0268 14.8593L12.9396 14.4822C13.2935 14.3428 13.1281 13.8008 12.7536 13.8866C12.3791 13.9724 12.468 14.5326 12.8482 14.5029L12.9355 14.8807L12.4417 14.9946C12.2541 14.5202 11.5126 14.9987 11.9849 15.3749C12.1421 15.5003 12.4853 15.3749 12.4623 15.0861L12.8614 14.9937L12.1866 17.2023L12.2779 17.2254L12.9643 14.9921L13.1009 15.5795L12.5742 17.3004L12.6639 17.3252L13.1429 15.7692L13.5091 17.3541L13.6004 17.3334L13.2342 15.7486L14.3494 16.9399L14.4218 16.8789L13.1873 15.5589L13.0515 14.9706L14.6555 16.68L14.7238 16.6165ZM13.6465 14.6027C13.8704 14.2463 14.2909 14.8378 13.8819 14.9327C13.8397 14.9426 13.7955 14.9396 13.755 14.9243C13.7144 14.909 13.6793 14.882 13.6541 14.8466C13.6289 14.8113 13.6147 14.7692 13.6134 14.7258C13.612 14.6824 13.6236 14.6395 13.6465 14.6027ZM12.203 15.3196C12.1608 15.3295 12.1166 15.3266 12.0761 15.3113C12.0355 15.2959 12.0004 15.2689 11.9752 15.2335C11.95 15.1982 11.9359 15.1562 11.9345 15.1127C11.9332 15.0693 11.9447 15.0265 11.9677 14.9896C12.1915 14.6349 12.6121 15.2272 12.203 15.3213V15.3196ZM12.8746 14.4014C12.8324 14.411 12.7884 14.408 12.748 14.3926C12.7076 14.3772 12.6726 14.3501 12.6475 14.3148C12.6225 14.2795 12.6084 14.2376 12.607 14.1942C12.6057 14.1509 12.6172 14.1082 12.64 14.0714C12.8631 13.7166 13.2844 14.309 12.8746 14.403V14.4014Z" fill="#0C1219"/>
<path d="M27.8031 15.7978C27.4673 15.2384 26.9505 15.8671 27.3167 16.1402L27.1348 16.4817L26.6888 16.2449C26.7136 16.1744 26.7123 16.0972 26.6851 16.0276C26.6579 15.9579 26.6066 15.9004 26.5406 15.8654C26.4672 15.8265 26.3815 15.8182 26.302 15.8423C25.7432 16.1781 26.3711 16.6946 26.6443 16.3283L27.0064 16.5205L25.042 17.7423L25.093 17.8248L27.0822 16.5824L27.1455 16.5172L27.1645 16.4999C27.1858 16.4784 27.204 16.4619 27.2188 16.4479C27.2446 16.4273 27.2688 16.4046 27.2912 16.3802C27.3335 16.3172 27.3709 16.251 27.4031 16.1822C27.4544 16.196 27.5089 16.1923 27.5578 16.1715C27.6303 16.1476 27.6962 16.1072 27.7504 16.0535C27.7873 16.0235 27.8127 15.9817 27.8223 15.9351C27.8319 15.8885 27.8251 15.84 27.8031 15.7978ZM26.2913 16.3349C25.9201 16.1385 26.4797 15.6749 26.6032 16.0783C26.6154 16.1197 26.6152 16.1638 26.6026 16.2051C26.59 16.2463 26.5655 16.283 26.5322 16.3104C26.4989 16.3377 26.4583 16.3547 26.4154 16.359C26.3726 16.3634 26.3294 16.355 26.2913 16.3349ZM27.4015 16.0824C27.0303 15.8861 27.5899 15.4224 27.7134 15.8258C27.7254 15.8672 27.725 15.9112 27.7123 15.9523C27.6996 15.9934 27.6751 16.0299 27.6418 16.0572C27.6086 16.0844 27.5681 16.1013 27.5253 16.1056C27.4826 16.11 27.4395 16.1016 27.4015 16.0816V16.0824ZM26.5727 17.2572L25.2667 18.0674L25.321 18.1499L26.4649 17.4387L26.4748 17.4214L26.5192 17.3463L26.5464 17.3009L26.5736 17.2572H26.5727Z" fill="#0C1219"/>
<path d="M8.99345 16.5206L9.35556 16.3276C9.5827 16.6336 10.0625 16.3333 9.88309 15.9976C9.74401 15.7377 9.4609 15.8689 9.45926 15.8689C9.39338 15.9039 9.34222 15.9615 9.31504 16.0311C9.28787 16.1007 9.28648 16.1778 9.31112 16.2484L8.86507 16.4851L8.68319 16.1436C9.05024 15.8705 8.53259 15.2419 8.19763 15.8012C8.1754 15.8446 8.16916 15.8944 8.18 15.942C8.19084 15.9895 8.21807 16.0317 8.25689 16.0611C8.31026 16.1137 8.37504 16.1532 8.44617 16.1766C8.49484 16.1973 8.54901 16.201 8.60007 16.1873C8.63249 16.257 8.67076 16.3238 8.71446 16.387C8.73629 16.41 8.75966 16.4315 8.78442 16.4513C8.81322 16.4777 8.85519 16.5181 8.91856 16.5858L10.9061 17.8233L10.9563 17.7408L8.99345 16.5206ZM9.39671 16.0776C9.52016 15.675 10.0798 16.137 9.70944 16.3342C9.67131 16.3545 9.62802 16.3632 9.58502 16.3589C9.54201 16.3547 9.50122 16.3378 9.46778 16.3104C9.43434 16.2829 9.40975 16.2462 9.3971 16.2048C9.38445 16.1633 9.38432 16.1191 9.39671 16.0776ZM8.59842 16.0776C8.56032 16.0977 8.51713 16.1061 8.47428 16.1018C8.43143 16.0974 8.39081 16.0805 8.35752 16.0531C8.32422 16.0257 8.29972 15.9891 8.28709 15.9478C8.27447 15.9065 8.27426 15.8624 8.28652 15.821C8.40996 15.4225 8.96959 15.8854 8.59842 16.0817V16.0776ZM9.42798 17.2532C9.46008 17.3052 9.49382 17.3596 9.52592 17.4182L9.53579 17.4355L10.6797 18.1467L10.734 18.0691L9.42798 17.2532Z" fill="#0C1219"/>
<path d="M18.0001 20.2075C21.3924 20.2075 24.1428 21.0432 24.1428 22.0745C24.1428 22.2692 24.0696 22.3055 23.9075 22.3929C23.3626 22.6858 22.5783 22.7609 21.9718 22.7848C19.3257 22.8866 16.6779 22.8866 14.0284 22.7848C13.4219 22.7617 12.6376 22.6858 12.0928 22.3929C11.9282 22.3063 11.8574 22.27 11.8574 22.0745C11.8574 21.0432 14.6086 20.2075 18.0001 20.2075Z" fill="#DC231E"/>
<path d="M7.44874 12.0838C7.44906 11.9346 7.40522 11.7887 7.32277 11.6645C7.24031 11.5402 7.12295 11.4433 6.98553 11.386C6.84812 11.3287 6.69682 11.3135 6.5508 11.3424C6.40478 11.3713 6.2706 11.443 6.16523 11.5484C6.05987 11.6538 5.98807 11.7881 5.95891 11.9345C5.92975 12.0808 5.94455 12.2325 6.00144 12.3704C6.05832 12.5082 6.15473 12.6261 6.27846 12.709C6.4022 12.792 6.54769 12.8362 6.69654 12.8362C6.79521 12.8363 6.89294 12.817 6.98414 12.7792C7.07534 12.7415 7.15823 12.6861 7.22808 12.6162C7.29793 12.5463 7.35337 12.4634 7.39123 12.372C7.42909 12.2807 7.44863 12.1827 7.44874 12.0838Z" fill="#0C1219"/>
<path d="M7.34139 12.0838C7.34171 11.9557 7.3041 11.8303 7.23331 11.7236C7.16252 11.6169 7.06174 11.5336 6.94372 11.4843C6.8257 11.4351 6.69576 11.422 6.57033 11.4468C6.4449 11.4716 6.32963 11.5332 6.23912 11.6237C6.14861 11.7142 6.08691 11.8296 6.06185 11.9552C6.03679 12.0809 6.04949 12.2112 6.09834 12.3296C6.14718 12.4481 6.22999 12.5493 6.33626 12.6206C6.44254 12.6918 6.56751 12.7298 6.69535 12.7298C6.78008 12.7299 6.864 12.7133 6.94233 12.6809C7.02065 12.6485 7.09184 12.6009 7.15183 12.541C7.21182 12.481 7.25943 12.4097 7.29196 12.3313C7.32448 12.2529 7.34128 12.1688 7.34139 12.0838Z" fill="#96C8C8"/>
<path d="M8.0669 14.4588C8.06723 14.3096 8.02339 14.1637 7.94093 14.0394C7.85848 13.9152 7.74111 13.8183 7.6037 13.761C7.46628 13.7037 7.31499 13.6885 7.16896 13.7174C7.02294 13.7463 6.88876 13.818 6.7834 13.9234C6.67804 14.0288 6.60623 14.1631 6.57707 14.3095C6.54792 14.4558 6.56272 14.6075 6.6196 14.7454C6.67648 14.8832 6.77289 15.0011 6.89663 15.084C7.02036 15.167 7.16586 15.2112 7.3147 15.2112C7.41337 15.2113 7.5111 15.192 7.6023 15.1542C7.69351 15.1165 7.7764 15.0611 7.84625 14.9912C7.91609 14.9213 7.97153 14.8384 8.00939 14.747C8.04725 14.6557 8.06679 14.5577 8.0669 14.4588Z" fill="#0C1219"/>
<path d="M7.95955 14.4588C7.95988 14.3307 7.92227 14.2053 7.85148 14.0986C7.78069 13.9919 7.6799 13.9086 7.56189 13.8593C7.44387 13.8101 7.31392 13.797 7.18849 13.8218C7.06306 13.8466 6.9478 13.9082 6.85728 13.9987C6.76677 14.0892 6.70508 14.2046 6.68002 14.3302C6.65495 14.4559 6.66765 14.5862 6.7165 14.7046C6.76535 14.8231 6.84815 14.9243 6.95443 14.9956C7.0607 15.0668 7.18567 15.1048 7.31352 15.1048C7.39825 15.1049 7.48217 15.0883 7.56049 15.0559C7.63881 15.0235 7.71 14.9759 7.76999 14.916C7.82998 14.856 7.8776 14.7847 7.91012 14.7063C7.94265 14.6279 7.95944 14.5438 7.95955 14.4588Z" fill="#96C8C8"/>
<path d="M30.0566 12.0838C30.057 11.9346 30.0131 11.7887 29.9307 11.6645C29.8482 11.5402 29.7309 11.4433 29.5934 11.386C29.456 11.3287 29.3047 11.3135 29.1587 11.3424C29.0127 11.3713 28.8785 11.443 28.7731 11.5484C28.6678 11.6538 28.596 11.7881 28.5668 11.9345C28.5377 12.0808 28.5525 12.2325 28.6093 12.3704C28.6662 12.5082 28.7626 12.6261 28.8864 12.709C29.0101 12.792 29.1556 12.8362 29.3044 12.8362C29.4031 12.8363 29.5008 12.817 29.592 12.7792C29.6833 12.7415 29.7661 12.6861 29.836 12.6162C29.9058 12.5463 29.9613 12.4634 29.9991 12.372C30.037 12.2807 30.0565 12.1827 30.0566 12.0838Z" fill="#0C1219"/>
<path d="M29.9503 12.0838C29.9506 11.9557 29.913 11.8303 29.8422 11.7236C29.7714 11.6169 29.6706 11.5336 29.5526 11.4843C29.4346 11.4351 29.3046 11.422 29.1792 11.4468C29.0538 11.4716 28.9385 11.5332 28.848 11.6237C28.7575 11.7142 28.6958 11.8296 28.6707 11.9552C28.6457 12.0809 28.6584 12.2112 28.7072 12.3296C28.7561 12.4481 28.8389 12.5493 28.9451 12.6206C29.0514 12.6918 29.1764 12.7298 29.3042 12.7298C29.389 12.7299 29.4729 12.7133 29.5512 12.6809C29.6295 12.6485 29.7007 12.6009 29.7607 12.541C29.8207 12.481 29.8683 12.4097 29.9008 12.3313C29.9334 12.2529 29.9502 12.1688 29.9503 12.0838Z" fill="#96C8C8"/>
<path d="M29.4395 14.4588C29.4398 14.3096 29.3959 14.1637 29.3135 14.0394C29.231 13.9152 29.1137 13.8183 28.9763 13.761C28.8388 13.7037 28.6875 13.6885 28.5415 13.7174C28.3955 13.7463 28.2613 13.818 28.156 13.9234C28.0506 14.0288 27.9788 14.1631 27.9496 14.3095C27.9205 14.4558 27.9353 14.6075 27.9922 14.7454C28.049 14.8832 28.1455 15.0011 28.2692 15.084C28.3929 15.167 28.5384 15.2112 28.6873 15.2112C28.7859 15.2113 28.8837 15.192 28.9749 15.1542C29.0661 15.1165 29.149 15.0611 29.2188 14.9912C29.2887 14.9213 29.3441 14.8384 29.3819 14.747C29.4198 14.6557 29.4394 14.5577 29.4395 14.4588Z" fill="#0C1219"/>
<path d="M29.3326 14.4588C29.3329 14.3307 29.2953 14.2053 29.2245 14.0986C29.1537 13.9919 29.053 13.9086 28.9349 13.8593C28.8169 13.8101 28.687 13.797 28.5615 13.8218C28.4361 13.8466 28.3208 13.9082 28.2303 13.9987C28.1398 14.0892 28.0781 14.2046 28.0531 14.3302C28.028 14.4559 28.0407 14.5862 28.0895 14.7046C28.1384 14.8231 28.2212 14.9243 28.3275 14.9956C28.4337 15.0668 28.5587 15.1048 28.6866 15.1048C28.7713 15.1049 28.8552 15.0883 28.9335 15.0559C29.0119 15.0235 29.083 14.9759 29.143 14.916C29.203 14.856 29.2506 14.7847 29.2832 14.7063C29.3157 14.6279 29.3325 14.5438 29.3326 14.4588Z" fill="#96C8C8"/>
<path d="M18.874 6.85918C18.8746 7.03261 18.8239 7.20232 18.7283 7.34684C18.6326 7.49135 18.4964 7.60417 18.3367 7.67099C18.1771 7.73781 18.0012 7.75563 17.8315 7.7222C17.6617 7.68876 17.5057 7.60558 17.3831 7.48318C17.2606 7.36078 17.177 7.20467 17.143 7.03463C17.109 6.86458 17.1261 6.68825 17.1922 6.52796C17.2582 6.36767 17.3703 6.23064 17.5141 6.13422C17.6579 6.0378 17.827 5.98633 18 5.98633C18.1145 5.98611 18.228 6.00852 18.3339 6.05227C18.4399 6.09601 18.5361 6.16025 18.6173 6.2413C18.6985 6.32235 18.7629 6.41863 18.8069 6.52465C18.851 6.63067 18.8738 6.74434 18.874 6.85918Z" fill="#DC231E"/>
<path d="M18.4467 5.36256C18.447 5.27373 18.421 5.18679 18.372 5.11277C18.323 5.03875 18.2532 4.98097 18.1714 4.94675C18.0897 4.91253 17.9996 4.9034 17.9126 4.92053C17.8257 4.93766 17.7458 4.98028 17.683 5.04298C17.6202 5.10568 17.5774 5.18564 17.56 5.27274C17.5426 5.35985 17.5514 5.45017 17.5852 5.53227C17.619 5.61438 17.6764 5.68457 17.7501 5.73396C17.8237 5.78335 17.9104 5.80971 17.999 5.80971C18.0577 5.80982 18.1158 5.79834 18.17 5.77593C18.2243 5.75351 18.2736 5.72061 18.3152 5.67908C18.3568 5.63756 18.3898 5.58824 18.4123 5.53393C18.4349 5.47962 18.4466 5.42139 18.4467 5.36256Z" fill="#96C8C8"/>
<path d="M19.8342 7.42487C19.8343 7.33627 19.8083 7.24961 19.7593 7.17585C19.7104 7.10209 19.6407 7.04455 19.5591 7.01049C19.4775 6.97643 19.3876 6.9674 19.3009 6.98452C19.2142 7.00165 19.1345 7.04417 19.0719 7.1067C19.0093 7.16924 18.9666 7.24898 18.9492 7.33584C18.9318 7.42271 18.9405 7.5128 18.9741 7.59472C19.0078 7.67664 19.065 7.74671 19.1384 7.79607C19.2117 7.84543 19.2981 7.87186 19.3865 7.87202C19.4452 7.87213 19.5033 7.86065 19.5576 7.83824C19.6118 7.81583 19.6611 7.78292 19.7027 7.7414C19.7443 7.69988 19.7773 7.65055 19.7999 7.59624C19.8224 7.54193 19.8341 7.4837 19.8342 7.42487Z" fill="#96C8C8"/>
<path d="M17.0603 7.42487C17.0604 7.33624 17.0343 7.24955 16.9853 7.17577C16.9363 7.10199 16.8666 7.04444 16.785 7.01041C16.7033 6.97638 16.6134 6.96739 16.5267 6.98458C16.44 7.00177 16.3603 7.04437 16.2977 7.10699C16.2351 7.16961 16.1925 7.24943 16.1752 7.33635C16.1578 7.42327 16.1666 7.51339 16.2004 7.59529C16.2342 7.6772 16.2915 7.74721 16.365 7.79647C16.4385 7.84573 16.525 7.87202 16.6134 7.87202C16.7318 7.87202 16.8453 7.82494 16.9291 7.74111C17.0129 7.65727 17.06 7.54354 17.0603 7.42487Z" fill="#96C8C8"/>
<path d="M19.0017 10.7705C19.0023 10.5718 18.9441 10.3774 18.8345 10.2119C18.7249 10.0464 18.5688 9.91716 18.3859 9.84064C18.2029 9.76412 18.0015 9.74372 17.807 9.78202C17.6125 9.82032 17.4338 9.9156 17.2933 10.0558C17.1529 10.196 17.0571 10.3748 17.0181 10.5696C16.9791 10.7644 16.9986 10.9664 17.0742 11.1501C17.1498 11.3338 17.278 11.4908 17.4427 11.6014C17.6074 11.712 17.8011 11.7711 17.9993 11.7712C18.1307 11.7716 18.2608 11.7459 18.3823 11.6958C18.5038 11.6457 18.6142 11.572 18.7073 11.4791C18.8004 11.3862 18.8743 11.2758 18.9248 11.1542C18.9753 11.0326 19.0014 10.9022 19.0017 10.7705Z" fill="#DC231E"/>
<path d="M19.3877 9.40014C19.3878 9.30906 19.361 9.21997 19.3107 9.14416C19.2603 9.06835 19.1887 9.00921 19.1048 8.97424C19.0209 8.93927 18.9285 8.93004 18.8394 8.94771C18.7502 8.96538 18.6683 9.00916 18.604 9.07351C18.5397 9.13785 18.4959 9.21988 18.4781 9.3092C18.4603 9.39852 18.4694 9.49113 18.5041 9.57529C18.5388 9.65946 18.5977 9.7314 18.6732 9.78202C18.7488 9.83264 18.8376 9.85967 18.9285 9.85967C18.9887 9.85977 19.0484 9.84797 19.1041 9.82492C19.1598 9.80188 19.2105 9.76805 19.2531 9.72537C19.2958 9.68268 19.3296 9.63199 19.3527 9.57618C19.3758 9.52038 19.3877 9.46056 19.3877 9.40014Z" fill="#96C8C8"/>
<path d="M17.5307 9.40014C17.5309 9.30906 17.5041 9.21997 17.4538 9.14416C17.4034 9.06835 17.3317 9.00921 17.2478 8.97424C17.1639 8.93927 17.0716 8.93004 16.9824 8.94771C16.8933 8.96538 16.8114 9.00916 16.7471 9.07351C16.6828 9.13785 16.639 9.21988 16.6212 9.3092C16.6034 9.39852 16.6124 9.49113 16.6472 9.57529C16.6819 9.65946 16.7408 9.7314 16.8163 9.78202C16.8918 9.83264 16.9807 9.85967 17.0715 9.85967C17.1318 9.85977 17.1915 9.84797 17.2472 9.82492C17.3029 9.80188 17.3535 9.76805 17.3962 9.72537C17.4388 9.68268 17.4727 9.63199 17.4958 9.57618C17.5189 9.52038 17.5307 9.46056 17.5307 9.40014Z" fill="#96C8C8"/>
<path d="M20.5067 1.74336H20.101L19.4138 2.80514H18.4468V1.46039L19.7726 0.604863V0.109863H16.2273V0.604863L17.5531 1.46039V2.80514H16.5853L15.8989 1.74254H15.4932V4.76121H15.8989L16.5853 3.69861H17.5531V4.76699C17.8477 4.70461 18.1522 4.70461 18.4468 4.76699V3.69861H19.4138L20.1002 4.76121H20.5059V1.74336H20.5067Z" fill="#C8A064"/>
</g>
<defs>
<clipPath id="clip0_1071_3827">
<rect width="35" height="66" fill="white" transform="translate(0.5)"/>
</clipPath>
</defs>
</svg>
