<svg width="48" height="39" viewBox="0 0 48 39" fill="none" xmlns="http://www.w3.org/2000/svg">
<path fill-rule="evenodd" clip-rule="evenodd" d="M43.6221 31.6528L47.3163 5.66506L35.7173 8.07031L30.1591 0L25.0762 7.99376L10.3545 3.35951L11.2375 16.4807L0 20.1606L11.1468 31.6296L43.6221 31.6528Z" fill="#FFCB03"/>
<path d="M46.6821 25.77H35.6333V36.8189H46.6821V25.77Z" fill="white"/>
<path d="M35.6337 24.4526H48V38.1364H34.3145V24.4526H35.6337ZM36.9511 35.5015H45.3633V27.0893H36.9511V35.5015Z" fill="#231F20"/>
<path d="M27.9004 25.77H16.8516V36.8189H27.9004V25.77Z" fill="white"/>
<path d="M18.1679 35.5015H26.5801V27.0893H18.1679V35.5015ZM16.8505 24.4526H29.2168V38.1364H15.5312V24.4526H16.8505Z" fill="#231F20"/>
<path d="M36.227 29.0161H28.0605V31.6528H36.227V29.0161Z" fill="#231F20"/>
<path d="M25.1552 31.4502H22.4829V34.1225H25.1552V31.4502Z" fill="#231F20"/>
<path d="M43.9623 31.4502H41.29V34.1225H43.9623V31.4502Z" fill="#231F20"/>
</svg>
