<svg width="20" height="15" viewBox="0 0 20 15" fill="none" xmlns="http://www.w3.org/2000/svg">
<path d="M11.4142 9.36398C11.0391 9.73905 10.5304 9.94977 10 9.94977C9.46957 9.94977 8.96086 9.73905 8.58579 9.36398C8.21071 8.98891 8 8.4802 8 7.94977C8 7.41933 8.21071 6.91063 8.58579 6.53555C8.96086 6.16048 9.46957 5.94977 10 5.94977C10.5304 5.94977 11.0391 6.16048 11.4142 6.53555C11.7893 6.91063 12 7.41933 12 7.94977C12 8.4802 11.7893 8.98891 11.4142 9.36398Z" fill="#0C1219" fill-opacity="0.3"/>
<path fill-rule="evenodd" clip-rule="evenodd" d="M10 0.949768C5.52201 0.949768 1.73201 3.89277 0.458008 7.94977C1.73201 12.0068 5.52201 14.9498 10 14.9498C14.478 14.9498 18.268 12.0068 19.542 7.94977C18.268 3.89277 14.478 0.949768 10 0.949768ZM12.8284 10.7782C13.5786 10.028 14 9.01063 14 7.94977C14 6.8889 13.5786 5.87149 12.8284 5.12134C12.0783 4.3712 11.0609 3.94977 10 3.94977C8.93914 3.94977 7.92173 4.3712 7.17158 5.12134C6.42143 5.87149 6.00001 6.8889 6.00001 7.94977C6.00001 9.01063 6.42143 10.028 7.17158 10.7782C7.92173 11.5283 8.93914 11.9498 10 11.9498C11.0609 11.9498 12.0783 11.5283 12.8284 10.7782Z" fill="#0C1219" fill-opacity="0.3"/>
</svg>
