<svg width="78" height="38" viewBox="0 0 78 38" fill="none" xmlns="http://www.w3.org/2000/svg">
<path d="M9.14192 31.8132V29.2696L17.9395 17.2356H19.5913V0H13.9891L4.67125 12.7454V24.8868H0V37.451H24.2626V31.8132H9.14192Z" fill="#5C49DD"/>
<path d="M41.0519 23.9808C41.0272 21.4926 41.6831 19.045 42.9486 16.9025V0.484161H31.4334L28.0283 5.14185V18.2431H18.4505L10.1484 29.5993V30.8065H28.0283V37.4509H42.9488V31.2489C41.6997 29.1337 41.0519 26.6778 41.0519 23.9808Z" fill="#FB4803"/>
<path d="M60.0599 37.9946C72.5636 37.9946 78.0001 31.4709 78.0001 23.9203C78.0001 18.0006 74.3758 12.6247 66.221 10.8729L73.8321 0.483276H56.1334L44.4754 16.4301C42.8443 18.6048 42.0591 21.2022 42.0591 23.9807C42.0591 31.4709 47.5559 37.9946 60.0599 37.9946ZM56.9792 23.9807C56.9792 21.6249 58.1864 20.2356 60.0599 20.2356C61.9927 20.2356 63.1403 21.6249 63.1403 23.9807C63.1403 26.397 61.9927 27.9675 60.0599 27.9675C58.1872 27.9679 56.9792 26.397 56.9792 23.9807Z" fill="#F0D02B"/>
<path d="M9.14192 31.8132V29.2696L17.9395 17.2356H19.5913V0H13.9891L4.67125 12.7454V24.8868H0V37.451H24.2626V31.8132H9.14192Z" fill="#21508B"/>
<path d="M41.0519 23.9808C41.0272 21.4926 41.6831 19.045 42.9486 16.9025V0.484161H31.4334L28.0283 5.14185V18.2431H18.4505L10.1484 29.5993V30.8065H28.0283V37.4509H42.9488V31.2489C41.6997 29.1337 41.0519 26.6778 41.0519 23.9808Z" fill="#5399EA"/>
<path d="M60.0599 37.9946C72.5636 37.9946 78.0001 31.4709 78.0001 23.9203C78.0001 18.0006 74.3758 12.6247 66.221 10.8729L73.8321 0.483276H56.1334L44.4754 16.4301C42.8443 18.6048 42.0591 21.2022 42.0591 23.9807C42.0591 31.4709 47.5559 37.9946 60.0599 37.9946ZM56.9792 23.9807C56.9792 21.6249 58.1864 20.2356 60.0599 20.2356C61.9927 20.2356 63.1403 21.6249 63.1403 23.9807C63.1403 26.397 61.9927 27.9675 60.0599 27.9675C58.1872 27.9679 56.9792 26.397 56.9792 23.9807Z" fill="#FF9700"/>
</svg>
